<?xml version="1.0" encoding="utf-8"?>
<!-- Generator: Adobe Illustrator 16.0.0, SVG Export Plug-In . SVG Version: 6.00 Build 0)  -->
<!DOCTYPE svg PUBLIC "-//W3C//DTD SVG 1.1//EN" "http://www.w3.org/Graphics/SVG/1.1/DTD/svg11.dtd">
<svg version="1.1" id="图层_1" xmlns="http://www.w3.org/2000/svg" xmlns:xlink="http://www.w3.org/1999/xlink" x="0px" y="0px"
	 width="841.89px" height="595.28px" viewBox="0 0 841.89 595.28" enable-background="new 0 0 841.89 595.28" xml:space="preserve">
<g>
	<g>
		<path fill="#702813" stroke="#000000" stroke-width="2.8709" stroke-miterlimit="10" d="M425.674,68.399
			c0,0,5.797-1.537,20.462,4.646c0,0,5.928,7.416,5.928,18.541h-4.613l10.539,93.329c0,0,0,40.793,3.952,47.591
			c3.949,6.798,20.414,18.541,23.708,29.667c3.29,11.127-0.989,209.135-0.989,261.753c0,0-2.071,20.673-60.021,20.086"/>
		<path fill="#702813" stroke="#000000" stroke-width="2.8709" stroke-miterlimit="10" d="M424.64,544.012
			c-57.955,0.587-57.955-20.086-57.955-20.086c0-52.618-4.28-250.626-0.988-261.753c3.293-11.126,19.756-22.869,23.708-29.667
			c3.952-6.798,3.952-47.591,3.952-47.591l10.537-93.329h-4.61c0-11.125,5.927-18.541,5.927-18.541
			c14.667-6.183,21.451-4.646,21.451-4.646"/>
	</g>
	<g>
		<path fill="#531C0A" d="M453.707,168.431C453.707,168.431,453.396,166.965,453.707,168.431c0.431,2.025,1.262,7.291,1.07,16.792
			c-0.329,16.379,0.045,32.758,0.987,39.556c0.943,6.798,3.871,10.818,8.151,15.142c4.28,4.328,18.439,17.616,19.099,21.94
			c0.655,4.328-0.148,258.888-0.989,263.601c-0.842,4.719-12.372,15.77-57.386,16.693c-45.018,0.929,1.034-372.151,1.034-372.151"/>
		<path fill="#531C0A" d="M397.456,168.431C397.456,168.431,397.769,166.965,397.456,168.431c-0.431,2.025-1.261,7.291-1.068,16.792
			c0.33,16.379-0.043,32.758-0.987,39.556c-0.946,6.798-3.871,10.818-8.151,15.142c-4.281,4.328-18.439,17.616-19.098,21.94
			c-0.658,4.328,0.146,258.888,0.988,263.601c0.842,4.719,12.372,15.77,57.387,16.693c45.016,0.929-1.035-372.151-1.035-372.151"/>
	</g>
	<path fill="#120C0A" d="M453.707,168.431c0,0-42.585-3.295-51.75-0.205C401.958,168.226,429.478,172.449,453.707,168.431z"/>
	<path fill="#E3DEDA" d="M406.623,74.614h3.621c0,0-3.621,12.642-1.811,14.497c0,0-4.228,0.617-5.489-0.928
		C402.944,88.183,403.392,77.624,406.623,74.614z"/>
	<path fill="#E3DEDA" d="M407.09,93.747h4.141c0,0-11.488,112.78-8.488,134.455c0.062,0.443,0.13,0.848,0.202,1.211
		c0,0-4.225,8.344-6.531,0C396.414,229.412,393.397,189.856,407.09,93.747z"/>
	<path fill="#F3F2F1" d="M389.17,249.805c0,0-15.147,5.874-18.11,18.232c-2.963,12.364-0.988,257.424-0.988,257.424l7.903,7.42
		c0,0-1.87-244.31,1.094-260.356c0.073-0.395,0.23-0.636,0.23-0.78C379.299,264.638,381.925,262.476,389.17,249.805z"/>
	<path fill="#DAC884" stroke="#000000" stroke-width="2.8709" stroke-miterlimit="10" d="M399.019,71.807
		c0,0-0.383-7.727,4.557-9.58c2.658-0.999,10.948-2.82,21.689-2.782c6.36,0.023,20.841,1.237,24.79,4.328
		c3.953,3.09,1.646,8.962,1.646,10.507c0,1.544-12.183-3.091-17.452-3.091c-5.268,0-23.895-0.614-28.411,1.239l-3.255,2.167
		C402.583,74.594,398.508,75.04,399.019,71.807z"/>
	<path fill="#FFFFFF" d="M441.524,62.536c0,0,3.622,0.308,4.938,1.544c0,0,1.319,4.018,0,7.727c0,0-5.926-1.236-6.914-1.544
		C439.549,70.262,442.793,64.356,441.524,62.536z"/>
</g>
</svg>
