<?xml version="1.0" encoding="utf-8"?>
<!-- Generator: Adobe Illustrator 18.1.1, SVG Export Plug-In . SVG Version: 6.00 Build 0)  -->
<!DOCTYPE svg PUBLIC "-//W3C//DTD SVG 1.1//EN" "http://www.w3.org/Graphics/SVG/1.1/DTD/svg11.dtd">
<svg version="1.1" id="coke" xmlns="http://www.w3.org/2000/svg" xmlns:xlink="http://www.w3.org/1999/xlink" x="0px" y="0px"
	 viewBox="123 123.6 841.9 595.3" enable-background="new 123 123.6 841.9 595.3" xml:space="preserve">
<g id="glass">
	<path id="straw" fill="none" stroke="#000000" stroke-width="15.3906" stroke-miterlimit="10" d="M526.1,380.1l-33-149.5
		c0,0-0.3-21.9-95.6-15.4"/>
	
		<linearGradient id="glass_2_" gradientUnits="userSpaceOnUse" x1="535.681" y1="544.6367" x2="532.3829" y2="217.0388" gradientTransform="matrix(1 0 0 -1 0 843.11)">
		<stop  offset="0" style="stop-color:#FFFFFF"/>
		<stop  offset="0.3718" style="stop-color:#01A5D3"/>
		<stop  offset="1" style="stop-color:#000000"/>
	</linearGradient>
	
		<path id="glass_1_" opacity="0.7" fill="url(#glass_2_)" stroke="#000000" stroke-width="6.596" stroke-miterlimit="10" enable-background="new    " d="
		M607.2,315.2c0,0,4.3,301.2-18.8,313.3H478.6c0,0-22.5,0.5-15.4-313.3H607.2z"/>
	
		<linearGradient id="liquid_1_" gradientUnits="userSpaceOnUse" x1="534.0323" y1="506.3525" x2="535.9178" y2="212.394" gradientTransform="matrix(1 0 0 -1 0 843.11)">
		<stop  offset="0.3271" style="stop-color:#1F1F1F"/>
		<stop  offset="0.8112" style="stop-color:#000000"/>
	</linearGradient>
	<path id="liquid" fill="url(#liquid_1_)" d="M468.3,354.3H600c0,0,4.4,235.6-19.6,242H489C489,596.4,468.3,596.6,468.3,354.3z"/>
	<g id="bubbles_1_">
		<circle opacity="0.5" fill="#FFFFFF" enable-background="new    " cx="505.8" cy="568.8" r="3.3"/>
		<path opacity="0.5" fill="#FFFFFF" enable-background="new    " d="M525.6,574c1.8,0,3.3,1.5,3.3,3.3c0,1.8-1.5,3.3-3.3,3.3
			c-1.8,0-3.3-1.5-3.3-3.3C522.3,575.5,523.8,574,525.6,574z"/>
		<path opacity="0.5" fill="#FFFFFF" enable-background="new    " d="M516.6,576.6c-1.8,0-3.3-1.5-3.3-3.3s1.5-3.3,3.3-3.3
			c1.8,0,3.3,1.5,3.3,3.3S518.4,576.6,516.6,576.6z"/>
		<path opacity="0.5" fill="#FFFFFF" enable-background="new    " d="M535.8,588.8c-1.8,0-3.3-1.5-3.3-3.3c0-1.8,1.5-3.3,3.3-3.3
			c1.8,0,3.3,1.5,3.3,3.3C539.1,587.3,537.6,588.8,535.8,588.8z"/>
		<path opacity="0.5" fill="#FFFFFF" enable-background="new    " d="M523.2,592.1c-1.8,0-3.3-1.5-3.3-3.3c0-1.8,1.5-3.3,3.3-3.3
			c1.8,0,3.3,1.5,3.3,3.3C526.5,590.6,525,592.1,523.2,592.1z"/>
		<path opacity="0.5" fill="#FFFFFF" enable-background="new    " d="M518.4,590.8c-1.8,0-3.3-1.5-3.3-3.3c0-1.8,1.5-3.3,3.3-3.3
			c1.8,0,3.3,1.5,3.3,3.3C521.7,589.3,520.2,590.8,518.4,590.8z"/>
		<path opacity="0.5" fill="#FFFFFF" enable-background="new    " d="M498.6,582.2c-1.8,0-3.3-1.5-3.3-3.3c0-1.8,1.5-3.3,3.3-3.3
			c1.8,0,3.3,1.5,3.3,3.3C501.9,580.8,500.4,582.2,498.6,582.2z"/>
		<path opacity="0.5" fill="#FFFFFF" enable-background="new    " d="M507.6,579.6c1.8,0,3.3,1.5,3.3,3.3c0,1.8-1.5,3.3-3.3,3.3
			c-1.8,0-3.3-1.5-3.3-3.3C504.3,581,505.8,579.6,507.6,579.6z"/>
		<circle opacity="0.5" fill="#FFFFFF" enable-background="new    " cx="488.4" cy="570.7" r="3.3"/>
		<path opacity="0.5" fill="#FFFFFF" enable-background="new    " d="M507.6,589.8c1.8,0,3.3,1.5,3.3,3.3c0,1.8-1.5,3.3-3.3,3.3
			c-1.8,0-3.3-1.5-3.3-3.3C504.3,591.3,505.8,589.8,507.6,589.8z"/>
		<path opacity="0.5" fill="#FFFFFF" enable-background="new    " d="M501,564.1c1.8,0,3.3,1.5,3.3,3.3c0,1.8-1.5,3.3-3.3,3.3
			c-1.8,0-3.3-1.5-3.3-3.3C497.8,565.6,499.2,564.1,501,564.1z"/>
		<circle opacity="0.5" fill="#FFFFFF" enable-background="new    " cx="515.9" cy="544.9" r="3.3"/>
		<path opacity="0.5" fill="#FFFFFF" enable-background="new    " d="M504.3,495.8c1.8,0,3.3,1.5,3.3,3.3c0,1.8-1.5,3.3-3.3,3.3
			c-1.8,0-3.3-1.5-3.3-3.3C501,497.3,502.5,495.8,504.3,495.8z"/>
		<path opacity="0.5" fill="#FFFFFF" enable-background="new    " d="M495.3,498.5c-1.8,0-3.3-1.5-3.3-3.3c0-1.8,1.5-3.3,3.3-3.3
			c1.8,0,3.3,1.5,3.3,3.3C498.6,497,497.2,498.5,495.3,498.5z"/>
		<path opacity="0.5" fill="#FFFFFF" enable-background="new    " d="M519.5,524.8c-1.8,0-3.3-1.5-3.3-3.3c0-1.8,1.5-3.3,3.3-3.3
			c1.8,0,3.3,1.5,3.3,3.3C522.8,523.3,521.4,524.8,519.5,524.8z"/>
		<path opacity="0.5" fill="#FFFFFF" enable-background="new    " d="M503.1,534.1c-1.8,0-3.3-1.5-3.3-3.3c0-1.8,1.5-3.3,3.3-3.3
			c1.8,0,3.3,1.5,3.3,3.3C506.4,532.7,504.9,534.1,503.1,534.1z"/>
		<path opacity="0.5" fill="#FFFFFF" enable-background="new    " d="M498.6,552c-1.8,0-3.3-1.5-3.3-3.3c0-1.8,1.5-3.3,3.3-3.3
			c1.8,0,3.3,1.5,3.3,3.3C501.9,550.5,500.4,552,498.6,552z"/>
		<path opacity="0.5" fill="#FFFFFF" enable-background="new    " d="M521.6,536.1c-1.8,0-3.3-1.5-3.3-3.3c0-1.8,1.5-3.3,3.3-3.3
			c1.8,0,3.3,1.5,3.3,3.3C524.9,534.6,523.4,536.1,521.6,536.1z"/>
		<path opacity="0.5" fill="#FFFFFF" enable-background="new    " d="M487.5,521.6c1.8,0,3.3,1.5,3.3,3.3c0,1.8-1.5,3.3-3.3,3.3
			c-1.8,0-3.3-1.5-3.3-3.3C484.3,523.1,485.7,521.6,487.5,521.6z"/>
		<circle opacity="0.5" fill="#FFFFFF" enable-background="new    " cx="538.8" cy="557" r="3.3"/>
		<path opacity="0.5" fill="#FFFFFF" enable-background="new    " d="M487.5,531.8c1.8,0,3.3,1.5,3.3,3.3c0,1.8-1.5,3.3-3.3,3.3
			c-1.8,0-3.3-1.5-3.3-3.3C484.3,533.3,485.7,531.8,487.5,531.8z"/>
		<path opacity="0.5" fill="#FFFFFF" enable-background="new    " d="M529.3,542.3c1.4,1.1,1.7,3.2,0.6,4.6
			c-1.1,1.4-3.2,1.7-4.6,0.6c-1.4-1.1-1.7-3.2-0.6-4.6C525.8,541.5,527.9,541.2,529.3,542.3z"/>
		<circle opacity="0.5" fill="#FFFFFF" enable-background="new    " cx="559.4" cy="579.8" r="3.3"/>
		<path opacity="0.5" fill="#FFFFFF" enable-background="new    " d="M544.6,554.9c0.8-1.6,2.8-2.2,4.4-1.4c1.6,0.8,2.2,2.8,1.4,4.4
			c-0.8,1.6-2.8,2.2-4.4,1.4C544.4,558.5,543.8,556.5,544.6,554.9z"/>
		<path opacity="0.5" fill="#FFFFFF" enable-background="new    " d="M570.2,587.6c-1.8,0-3.3-1.5-3.3-3.3s1.5-3.3,3.3-3.3
			c1.8,0,3.3,1.5,3.3,3.3S572,587.6,570.2,587.6z"/>
		<path opacity="0.5" fill="#FFFFFF" enable-background="new    " d="M520.1,560.1c-1.8,0-3.3-1.5-3.3-3.3c0-1.8,1.5-3.3,3.3-3.3
			c1.8,0,3.3,1.5,3.3,3.3C523.4,558.6,521.9,560.1,520.1,560.1z"/>
		<path opacity="0.5" fill="#FFFFFF" enable-background="new    " d="M488.4,486.2c-1.8,0-3.3-1.5-3.3-3.3c0-1.8,1.5-3.3,3.3-3.3
			c1.8,0,3.3,1.5,3.3,3.3C491.7,484.7,490.2,486.2,488.4,486.2z"/>
		<path opacity="0.5" fill="#FFFFFF" enable-background="new    " d="M507.6,518.7c-1.8,0-3.3-1.5-3.3-3.3c0-1.8,1.5-3.3,3.3-3.3
			c1.8,0,3.3,1.5,3.3,3.3C510.9,517.2,509.4,518.7,507.6,518.7z"/>
		<path opacity="0.5" fill="#FFFFFF" enable-background="new    " d="M552.2,593.2c-1.8,0-3.3-1.5-3.3-3.3c0-1.8,1.5-3.3,3.3-3.3
			c1.8,0,3.3,1.5,3.3,3.3C555.5,591.8,554,593.2,552.2,593.2z"/>
		<path opacity="0.5" fill="#FFFFFF" enable-background="new    " d="M492.1,468.6c1.8,0,3.3,1.5,3.3,3.3c0,1.8-1.5,3.3-3.3,3.3
			c-1.8,0-3.3-1.5-3.3-3.3C488.8,470.1,490.2,468.6,492.1,468.6z"/>
		<circle opacity="0.5" fill="#FFFFFF" enable-background="new    " cx="542" cy="581.7" r="3.3"/>
		<path opacity="0.5" fill="#FFFFFF" enable-background="new    " d="M549,543.7c1.8,0,3.3,1.5,3.3,3.3c0,1.8-1.5,3.3-3.3,3.3
			c-1.8,0-3.3-1.5-3.3-3.3C545.8,545.1,547.2,543.7,549,543.7z"/>
		<path opacity="0.5" fill="#FFFFFF" enable-background="new    " d="M554.6,575.1c1.8,0,3.3,1.5,3.3,3.3s-1.5,3.3-3.3,3.3
			c-1.8,0-3.3-1.5-3.3-3.3C551.4,576.6,552.8,575.1,554.6,575.1z"/>
	</g>
	<g id="shine_1_">
		<path fill="#FFFFFF" d="M579.9,328.7h10.3c0,0-8.9,283.3-9.9,258.2C578.1,525.8,579.9,328.7,579.9,328.7z"/>
		<rect id="shine" x="570.3" y="328.7" fill="#FFFFFF" width="4.4" height="259.8"/>
	</g>
	
		<path id="outline" opacity="0.8" fill="none" stroke="#000000" stroke-width="6.596" stroke-miterlimit="10" enable-background="new    " d="
		M606.8,315.2c0,0,4.3,301.2-18.8,313.3H478.2c0,0-22.5,0.5-15.4-313.3H606.8L606.8,315.2z"/>
</g>
</svg>
