<?xml version="1.0" encoding="utf-8"?>
<!-- Generator: Adobe Illustrator 16.0.0, SVG Export Plug-In . SVG Version: 6.00 Build 0)  -->
<!DOCTYPE svg PUBLIC "-//W3C//DTD SVG 1.1//EN" "http://www.w3.org/Graphics/SVG/1.1/DTD/svg11.dtd">
<svg version="1.1" id="图层_1" xmlns="http://www.w3.org/2000/svg" xmlns:xlink="http://www.w3.org/1999/xlink" x="0px" y="0px"
	 width="841.89px" height="595.28px" viewBox="0 0 841.89 595.28" enable-background="new 0 0 841.89 595.28" xml:space="preserve">
<g>
	<path fill="#696967" stroke="#000000" stroke-width="2.4025" stroke-miterlimit="10" d="M492.437,487.693
		c0,10.391-33.7,18.81-75.274,18.81c-41.576,0-75.28-8.419-75.28-18.81c0-10.39,33.704-18.81,75.28-18.81
		C458.736,468.884,492.437,477.304,492.437,487.693z"/>
	<path fill="#C5C2C0" d="M488.687,489.094c0,0-29.614,14.475-113.97,8.07c0,0-3.739,1.133,1.868,1.637
		c5.604,0.496,69.262,9.446,115.649-9.707c0,0-0.477-1.39,0-2.8C492.705,484.883,488.687,489.094,488.687,489.094z"/>
	<path fill="#AD121D" stroke="#000000" stroke-width="2.4025" stroke-miterlimit="10" d="M418.717,494.494
		c-28.873,0.802-104.06,0.802-104.06-35.239c0-36.035-8.015-279.492,6.402-293.104c7.455-7.042,7.083-19.164,7.083-19.164h181.149
		c0,0-0.37,12.121,7.085,19.164c14.414,13.612,6.406,257.069,6.406,293.104C522.783,495.296,447.592,495.296,418.717,494.494"/>
	<path opacity="0.6" fill="#C41E32" d="M345.886,158.942c0,0,0,23.225-8.813,31.234c-8.806,8.006,2.408,270.682,0,273.085
		c-2.398,2.398,5.61,16.017,46.453,15.217c0,0,0,1.596,0-17.62c0-19.223-8.011-247.458,0-256.268
		c8.005-8.81,6.405-31.626,7.207-37.437C391.532,161.346,345.886,158.942,345.886,158.942z"/>
	<path opacity="0.6" fill="#C41E32" d="M487.199,152.519c0,0,0,23.221,8.807,31.232c8.813,8.01-2.397,270.685,0,273.083
		c2.401,2.405-5.606,16.018-46.443,15.221c0,0,0,1.597,0-17.619c0-19.223,8.008-247.461,0-256.27
		c-8.014-8.81-6.408-31.627-7.211-37.436C441.549,154.921,487.199,152.519,487.199,152.519z"/>
	<path fill="#B51F24" stroke="#000000" stroke-width="2.4025" stroke-miterlimit="10" d="M328.143,146.987l-2.277-12.956
		c0,0,0.531-23.527,90.764-23.599c71.277-0.062,93.695,14.648,95.563,21.752c0.805,3.066,1.69,8.942-2.615,19.06"/>
	<path fill="#9C9793" d="M512.461,136.724c0,12.825,0.085,30.43-92.899,30.43c-93.007,0-92.895-17.604-92.895-30.43
		c0-12.829,41.593-16.819,92.895-16.819C470.867,119.905,512.461,123.895,512.461,136.724z"/>
	<path fill="#D5D6D7" d="M512.461,135.716c0,12.827-41.594,23.226-92.899,23.226c-51.301,0-92.895-10.398-92.895-23.226
		c0-12.823,41.593-23.223,92.895-23.223C470.867,112.493,512.461,122.893,512.461,135.716z"/>
	<path fill="#F2F2F2" d="M388.814,113.797c0,0-3.242,5.805-3.406,11.091c-0.119,3.684-33.916,10.465-33.916,10.465
		s-4.577-8.176,0.043-15.448C351.536,119.905,365.828,115.02,388.814,113.797z"/>
	<path fill="#F2F2F2" d="M455.638,114.312L455.638,114.312v10.691c0,0-0.236-2.168,0,0c0.234,2.173,0.234,2.173,0.234,2.173
		s1.332,0,0,0c-1.338,0-1.338,0-1.338,0h16.356l0,0c0,0,1.676-1.079,0-10.819c-1.674-9.737,0,0,0,0S458.595,114.604,455.638,114.312
		"/>
	<path fill="#E8EBED" d="M332.057,140.894c0,0,16.231-17.59,87.505-17.59c71.275,0,83.799,16.175,85.599,18.658
		c3.299,4.567-35.425,17-85.599,16.992C365.105,158.942,332.054,147.33,332.057,140.894z"/>
	
		<ellipse fill="none" stroke="#CBCAC8" stroke-width="2.3904" stroke-miterlimit="10" cx="419.428" cy="135.353" rx="91.963" ry="23.223"/>
	<g>
		<path fill="#848487" d="M392.666,139.258l24.092-11.008c0,0,39.243-10.445,36.441,6.605c0,0-10.816,13.016-25.624,15.417
			C403.604,154.16,388.197,145.569,392.666,139.258z"/>
		<path fill="#CDCCCC" d="M393.936,137.558l22.823-13.213c0,0,30.434-4.805,36.441,6.607c0,0-10.816,13.012-25.624,15.417
			C403.604,150.256,387.841,141.84,393.936,137.558z"/>
		<path fill="#5D5B59" d="M428.172,140.058c0,2.156-6.269,3.905-14.013,3.905c-7.739,0-14.012-1.75-14.012-3.905
			s6.273-3.904,14.012-3.904C421.903,136.154,428.172,137.902,428.172,140.058z"/>
		<path fill="#191819" d="M427.253,141.454c0,1.373-5.857,2.483-13.094,2.483c-7.232,0-13.09-1.11-13.09-2.483
			c0-1.377,5.858-2.488,13.09-2.488C421.396,138.966,427.253,140.077,427.253,141.454z"/>
	</g>
</g>
</svg>
