<?xml version="1.0" encoding="utf-8"?>
<!-- Generator: Adobe Illustrator 16.0.0, SVG Export Plug-In . SVG Version: 6.00 Build 0)  -->
<!DOCTYPE svg PUBLIC "-//W3C//DTD SVG 1.1//EN" "http://www.w3.org/Graphics/SVG/1.1/DTD/svg11.dtd">
<svg version="1.1" id="图层_1" xmlns="http://www.w3.org/2000/svg" xmlns:xlink="http://www.w3.org/1999/xlink" x="0px" y="0px"
	 width="841.89px" height="595.28px" viewBox="0 0 841.89 595.28" enable-background="new 0 0 841.89 595.28" xml:space="preserve">
<g>
	<circle fill="#F7CB52" stroke="#000000" stroke-width="15.3906" stroke-miterlimit="10" cx="484.378" cy="191.125" r="64.865"/>
	<circle fill="#F7CB52" stroke="#F26414" stroke-width="4.3973" stroke-miterlimit="10" cx="484.507" cy="191.604" r="64.865"/>
	<circle fill="#F2C32A" stroke="#F26414" stroke-width="4.3973" stroke-miterlimit="10" cx="484.508" cy="191.604" r="50.753"/>
	<polyline fill="#F2C32A" stroke="#F26414" stroke-width="2.0301" stroke-miterlimit="10" points="484.509,140.852 484.509,191.604 
		535.261,191.604 	"/>
	<polyline fill="#F2C32A" stroke="#F26414" stroke-width="4.3973" stroke-miterlimit="10" points="535.261,191.604 484.509,191.604 
		484.509,242.355 	"/>
	<polyline fill="#F2C32A" stroke="#F26414" stroke-width="2.0301" stroke-miterlimit="10" points="484.507,241.99 484.507,191.238 
		433.755,191.238 	"/>
	<polyline fill="#F2C32A" stroke="#F26414" stroke-width="4.3973" stroke-miterlimit="10" points="433.755,191.238 484.507,191.238 
		484.507,140.487 	"/>
	
		<line fill="#F2C32A" stroke="#F26414" stroke-width="4.3973" stroke-miterlimit="10" x1="449.64" y1="228.461" x2="519.116" y2="154.493"/>
	
		<line fill="#F2C32A" stroke="#F26414" stroke-width="4.3973" stroke-miterlimit="10" x1="448.626" y1="155.71" x2="521.088" y2="226.539"/>
	<path fill="none" stroke="#000000" stroke-width="15.3906" stroke-miterlimit="10" d="M403.114,256.468l-32.98-149.509
		c0,0-0.298-21.873-95.642-15.391"/>
	<linearGradient id="SVGID_1_" gradientUnits="userSpaceOnUse" x1="412.6807" y1="174.8633" x2="409.3826" y2="502.4612">
		<stop  offset="0" style="stop-color:#FFFFFF"/>
		<stop  offset="0.3718" style="stop-color:#01A5D3"/>
		<stop  offset="1" style="stop-color:#000000"/>
	</linearGradient>
	<path opacity="0.7" fill="url(#SVGID_1_)" stroke="#000000" stroke-width="6.596" stroke-miterlimit="10" d="M484.191,191.604
		c0,0,4.294,301.216-18.792,313.309H355.57c0,0-22.459,0.53-15.391-313.309H484.191z"/>
	<linearGradient id="SVGID_2_" gradientUnits="userSpaceOnUse" x1="411.0322" y1="213.1475" x2="412.9177" y2="507.106">
		<stop  offset="0.3271" style="stop-color:#F2BC44"/>
		<stop  offset="0.4656" style="stop-color:#F1B843"/>
		<stop  offset="0.5985" style="stop-color:#F0AD3E"/>
		<stop  offset="0.7287" style="stop-color:#ED9936"/>
		<stop  offset="0.8112" style="stop-color:#EB8930"/>
	</linearGradient>
	<path fill="url(#SVGID_2_)" d="M345.292,230.7h131.685c0,0,4.351,235.592-19.59,242.041h-91.416
		C365.971,472.741,345.292,472.999,345.292,230.7z"/>
	<path fill="#FFFFFF" d="M456.934,205.068h10.266c0,0-8.949,283.325-9.87,258.248C455.085,402.179,456.934,205.068,456.934,205.068z
		"/>
	<rect x="447.257" y="205.068" fill="#FFFFFF" width="4.396" height="259.82"/>
	<path opacity="0.8" fill="none" stroke="#000000" stroke-width="6.596" stroke-miterlimit="10" d="M483.824,191.601
		c0,0,4.294,301.218-18.792,313.311h-109.83c0,0-22.459,0.528-15.391-313.311H483.824z"/>
</g>
</svg>
