<?xml version="1.0" encoding="utf-8"?>
<!-- Generator: Adobe Illustrator 16.0.0, SVG Export Plug-In . SVG Version: 6.00 Build 0)  -->
<!DOCTYPE svg PUBLIC "-//W3C//DTD SVG 1.1//EN" "http://www.w3.org/Graphics/SVG/1.1/DTD/svg11.dtd">
<svg version="1.1" id="图层_1" xmlns="http://www.w3.org/2000/svg" xmlns:xlink="http://www.w3.org/1999/xlink" x="0px" y="0px"
	 width="841.89px" height="595.28px" viewBox="0 0 841.89 595.28" enable-background="new 0 0 841.89 595.28" xml:space="preserve">
<g>
	<linearGradient id="SVGID_1_" gradientUnits="userSpaceOnUse" x1="431.0059" y1="12.6987" x2="433.4348" y2="505.8477">
		<stop  offset="0.1357" style="stop-color:#FFFFFF"/>
		<stop  offset="0.2669" style="stop-color:#C4C4C4"/>
		<stop  offset="0.4135" style="stop-color:#898989"/>
		<stop  offset="0.5553" style="stop-color:#585858"/>
		<stop  offset="0.6883" style="stop-color:#323232"/>
		<stop  offset="0.8106" style="stop-color:#161616"/>
		<stop  offset="0.9183" style="stop-color:#060606"/>
		<stop  offset="1" style="stop-color:#000000"/>
	</linearGradient>
	<path fill="url(#SVGID_1_)" stroke="#000000" stroke-width="5.1556" stroke-miterlimit="10" d="M289.958,161h283.555
		l-30.932,328.238c0,0-116.858,42.962-219.972,0L289.958,161z"/>
	<path fill="#F5FEFF" d="M454.937,504.706c-1.289,0.1,6.015-29.216,3.008-52.989c-2.842-22.463,9.451-16.612,9.451-16.612
		l31.791,6.014v5.445c0,0,0.754,25.49-3.005,52.476C496.182,499.039,477.277,502.985,454.937,504.706z"/>
	<path fill="#F5FEFF" d="M340.805,440.513l5.108,53.532c0,0,10.418,3.2,19.95,4.994c0,0-4.858-53.624,0-63.074
		C370.729,426.511,340.805,440.513,340.805,440.513z"/>
	<linearGradient id="SVGID_2_" gradientUnits="userSpaceOnUse" x1="431.7246" y1="198.9673" x2="431.7246" y2="372.119">
		<stop  offset="0" style="stop-color:#FFFFFF"/>
		<stop  offset="0.0694" style="stop-color:#F7FFFD"/>
		<stop  offset="0.177" style="stop-color:#E1FDF6"/>
		<stop  offset="0.3092" style="stop-color:#BEFCEC"/>
		<stop  offset="0.461" style="stop-color:#8CF9DE"/>
		<stop  offset="0.6293" style="stop-color:#4CF6CC"/>
		<stop  offset="0.801" style="stop-color:#04F2B7"/>
	</linearGradient>
	<path fill="url(#SVGID_2_)" d="M302.849,224.587c0,0,148.556,15.464,257.752-4.297l-20.617,216.535c0,0-96.229,33.508-213.081,0
		L302.849,224.587z"/>
	<circle fill="#F5FEFF" cx="420.136" cy="234.045" r="3.152"/>
	<ellipse fill="#F5FEFF" cx="457.045" cy="230.892" rx="5.479" ry="5.091"/>
	<path fill="#F5FEFF" d="M517.696,235.057c0,2.809-2.455,5.086-5.481,5.086c-3.023,0-5.482-2.278-5.482-5.086
		c0-2.813,2.459-5.091,5.482-5.091C515.241,229.965,517.696,232.243,517.696,235.057z"/>
	<path fill="#F5FEFF" d="M540.758,234.045c0,2.813-2.455,5.091-5.482,5.091c-3.023,0-5.478-2.278-5.478-5.091
		c0-2.809,2.454-5.087,5.478-5.087C538.303,228.958,540.758,231.236,540.758,234.045z"/>
	<path fill="#F5FEFF" d="M363.073,237.197c0,1.639-1.433,2.96-3.189,2.96c-1.761,0-3.189-1.322-3.189-2.96
		c0-1.635,1.428-2.96,3.189-2.96C361.64,234.237,363.073,235.562,363.073,237.197z"/>
	<ellipse fill="#F5FEFF" cx="333.215" cy="226.732" rx="5.478" ry="5.087"/>
	<path fill="#F5FEFF" d="M470.689,231.25c0,1.738-1.415,3.152-3.153,3.152c-1.743,0-3.152-1.414-3.152-3.152
		c0-1.743,1.409-3.153,3.152-3.153C469.274,228.098,470.689,229.508,470.689,231.25z"/>
	<ellipse fill="#F5FEFF" cx="504.444" cy="228.098" rx="5.479" ry="5.087"/>
	<path fill="#F5FEFF" d="M407.282,231.25c0,2.809-2.454,5.087-5.477,5.087c-3.027,0-5.483-2.278-5.483-5.087
		c0-2.813,2.456-5.091,5.483-5.091C404.828,226.16,407.282,228.438,407.282,231.25z"/>
	<ellipse fill="#F5FEFF" cx="520.882" cy="228.958" rx="3.186" ry="2.961"/>
	<ellipse fill="#F5FEFF" cx="492.582" cy="238.135" rx="5.48" ry="5.086"/>
	<circle fill="#F5FEFF" cx="359.187" cy="237.26" r="3.151"/>
	<path fill="#F5FEFF" d="M316.777,240.103c0.019-2.81,2.492-5.069,5.515-5.046c3.027,0.018,5.463,2.318,5.445,5.127
		c-0.022,2.81-2.492,5.073-5.519,5.05C319.195,245.212,316.758,242.916,316.777,240.103z"/>
	<path fill="#F5FEFF" d="M339.849,227.913c0.019-2.809,2.492-5.068,5.519-5.045c3.023,0.022,5.463,2.318,5.441,5.127
		c-0.022,2.813-2.492,5.073-5.516,5.05C342.267,233.022,339.83,230.726,339.849,227.913z"/>
	<path fill="#F5FEFF" d="M416.275,234.521c0.008-1.636,1.447-2.949,3.208-2.938c1.761,0.015,3.178,1.348,3.163,2.987
		c-0.008,1.635-1.447,2.949-3.208,2.938C417.678,237.493,416.26,236.156,416.275,234.521z"/>
	<path fill="#F5FEFF" d="M376.986,234.089c0.018-2.809,2.492-5.068,5.519-5.046c3.023,0.019,5.46,2.315,5.441,5.128
		c-0.022,2.809-2.492,5.072-5.516,5.05C379.404,239.198,376.968,236.902,376.986,234.089z"/>
	<path fill="#F5FEFF" d="M501.188,226.056c0.207,1.728-1.022,3.296-2.754,3.504c-1.729,0.21-3.293-1.026-3.504-2.751
		c-0.21-1.731,1.023-3.3,2.755-3.507C499.412,223.092,500.981,224.329,501.188,226.056z"/>
	<path fill="#F5FEFF" d="M539.769,218.245c0.336,2.791-1.827,5.345-4.832,5.707c-3.005,0.358-5.715-1.609-6.047-4.4
		c-0.336-2.791,1.827-5.345,4.832-5.707C536.723,213.483,539.433,215.455,539.769,218.245z"/>
	<path fill="#F5FEFF" d="M438.236,233.624c0.336,2.787-1.827,5.341-4.832,5.704c-3.005,0.361-5.715-1.61-6.047-4.4
		c-0.336-2.788,1.827-5.345,4.832-5.708C435.194,228.858,437.9,230.83,438.236,233.624z"/>
	<path fill="#F5FEFF" d="M441.777,236.37c0.194,1.625-1.064,3.109-2.811,3.323c-1.75,0.207-3.326-0.938-3.519-2.562
		c-0.194-1.62,1.063-3.108,2.813-3.318C440.009,233.602,441.585,234.747,441.777,236.37z"/>
	<path fill="#F5FEFF" d="M481.607,233.668c0.337,2.791-1.827,5.346-4.827,5.708c-3.009,0.361-5.715-1.605-6.047-4.397
		c-0.34-2.791,1.823-5.349,4.827-5.711C478.565,228.91,481.275,230.877,481.607,233.668z"/>
	<circle fill="#F5FEFF" cx="326.993" cy="234.322" r="3.151"/>
	<path fill="#F5FEFF" d="M478.987,226.732c0-2.813,2.451-5.087,5.479-5.087c3.026,0,5.478,2.274,5.478,5.087
		c0,2.809-2.451,5.087-5.478,5.087C481.438,231.819,478.987,229.541,478.987,226.732z"/>
	<ellipse fill="#F5FEFF" cx="387.248" cy="231.169" rx="3.185" ry="2.961"/>
	<ellipse fill="#F5FEFF" cx="449.108" cy="231.583" rx="5.479" ry="5.091"/>
	<path fill="#F5FEFF" d="M339.849,237.12c0-2.813,2.455-5.09,5.478-5.09c3.027,0,5.482,2.278,5.482,5.09
		c0,2.81-2.455,5.087-5.482,5.087C342.304,242.207,339.849,239.929,339.849,237.12z"/>
	<path fill="#F5FEFF" d="M336.663,233.964c0-1.632,1.425-2.961,3.187-2.961c1.761,0,3.185,1.329,3.185,2.961
		c0,1.639-1.424,2.964-3.185,2.964C338.088,236.928,336.663,235.603,336.663,233.964z"/>
	<path fill="#F5FEFF" d="M391.099,231.132c-0.016,1.738-1.44,3.142-3.175,3.126c-1.742-0.011-3.145-1.432-3.13-3.174
		c0.015-1.739,1.432-3.142,3.174-3.127C389.711,227.968,391.106,229.39,391.099,231.132z"/>
	<path fill="#F5FEFF" d="M430.354,228.264c-0.021,2.813-2.491,5.068-5.515,5.05c-3.028-0.022-5.464-2.318-5.446-5.128
		c0.023-2.813,2.493-5.072,5.519-5.054C427.937,223.158,430.373,225.454,430.354,228.264z"/>
	<ellipse transform="matrix(1 0.0074 -0.0074 1 1.7098 -3.9058)" fill="#F5FEFF" cx="528.853" cy="229.179" rx="5.479" ry="5.088"/>
	<path fill="#F5FEFF" d="M330.86,233.849c-0.015,1.631-1.454,2.95-3.212,2.935c-1.76-0.011-3.178-1.347-3.167-2.983
		c0.015-1.635,1.447-2.949,3.211-2.938C329.45,230.874,330.867,232.21,330.86,233.849z"/>
	<path fill="#F5FEFF" d="M374.885,233.085c-0.021,2.809-2.495,5.072-5.519,5.05c-3.023-0.022-5.463-2.318-5.445-5.131
		c0.022-2.809,2.495-5.068,5.52-5.05C372.464,227.976,374.903,230.272,374.885,233.085z"/>
	<path fill="#F5FEFF" d="M308.896,234.747c-0.336-2.788,1.827-5.346,4.829-5.704c3.004-0.365,5.714,1.606,6.05,4.397
		c0.336,2.791-1.827,5.345-4.832,5.708C311.937,239.508,309.228,237.537,308.896,234.747z"/>
	<path fill="#F5FEFF" d="M365.229,231.849c0.613,2.739-1.281,5.5-4.238,6.161c-2.95,0.665-5.84-1.022-6.453-3.765
		c-0.617-2.743,1.277-5.504,4.23-6.165C361.722,227.415,364.616,229.102,365.229,231.849z"/>
	<path fill="#F5FEFF" d="M550.962,217.95c0.616,2.743-1.281,5.504-4.234,6.165c-2.954,0.661-5.848-1.026-6.46-3.766
		c-0.613-2.743,1.28-5.507,4.234-6.168C547.45,213.52,550.345,215.207,550.962,217.95z"/>
	<path fill="#F5FEFF" d="M390.966,239.667c-0.595-2.747,1.322-5.493,4.283-6.135c2.953-0.643,5.836,1.067,6.431,3.813
		c0.593,2.75-1.322,5.493-4.28,6.135C394.443,244.123,391.563,242.414,390.966,239.667z"/>
	<path fill="#F5FEFF" d="M470.216,239.194c-0.384-1.698,0.687-3.385,2.385-3.762c1.699-0.383,3.382,0.687,3.766,2.385
		c0.376,1.698-0.687,3.385-2.389,3.765C472.28,241.963,470.593,240.896,470.216,239.194z"/>
	<path fill="#F5FEFF" d="M528.284,222.948c-0.354-1.595,0.746-3.197,2.466-3.585c1.713-0.384,3.396,0.598,3.759,2.193
		c0.354,1.595-0.746,3.201-2.466,3.584C530.322,225.528,528.642,224.547,528.284,222.948z"/>
	<path fill="#F5FEFF" d="M486.443,238.427c-0.612-2.747,1.286-5.504,4.23-6.165c2.958-0.665,5.849,1.022,6.465,3.766
		c0.615,2.743-1.28,5.504-4.234,6.165C489.951,242.856,487.058,241.169,486.443,238.427z"/>
	<path fill="#F5FEFF" d="M482.642,236.045c-0.354-1.598,0.745-3.2,2.466-3.588c1.714-0.38,3.4,0.598,3.758,2.193
		c0.359,1.599-0.745,3.2-2.466,3.588C484.68,238.622,483,237.641,482.642,236.045z"/>
	<path fill="#F5FEFF" d="M535.144,221.375c0.365,1.702-0.714,3.378-2.415,3.747c-1.705,0.37-3.381-0.712-3.751-2.414
		c-0.369-1.702,0.717-3.378,2.418-3.747C533.098,218.592,534.774,219.673,535.144,221.375z"/>
	<path fill="#F5FEFF" d="M476.957,237.197c0.343,1.599-0.768,3.197-2.492,3.57c-1.717,0.369-3.393-0.624-3.739-2.222
		c-0.347-1.595,0.768-3.194,2.488-3.566S476.609,235.599,476.957,237.197z"/>
	<path fill="#F5FEFF" d="M421.628,232.026c0.594,2.75-1.322,5.493-4.282,6.135c-2.953,0.639-5.832-1.067-6.431-3.813
		c-0.595-2.75,1.322-5.493,4.279-6.135C418.15,227.57,421.033,229.279,421.628,232.026z"/>
	<path fill="#F5FEFF" d="M455.719,242.878c-0.938-2.646,0.617-5.615,3.467-6.622c2.854-1.012,5.929,0.317,6.866,2.968
		c0.938,2.651-0.616,5.615-3.47,6.626C459.731,246.862,456.656,245.529,455.719,242.878z"/>
	<circle fill="#F5FEFF" cx="344.699" cy="228.718" r="2.329"/>
	<path fill="#F5FEFF" d="M335.201,226.654c0,2.075-1.813,3.758-4.046,3.758c-2.237,0-4.053-1.683-4.053-3.758
		c0-2.078,1.816-3.761,4.053-3.761C333.389,222.893,335.201,224.576,335.201,226.654z"/>
	<path fill="#F5FEFF" d="M341.846,229.072c0.007-1.211,1.07-2.182,2.374-2.174c1.296,0.011,2.348,1,2.337,2.208
		c-0.007,1.207-1.071,2.178-2.37,2.17C342.887,231.265,341.839,230.279,341.846,229.072z"/>
	
		<ellipse transform="matrix(-1 -0.0074 0.0074 -1 632.0397 459.8859)" fill="#F5FEFF" cx="316.865" cy="228.781" rx="4.05" ry="3.758"/>
	<path fill="#F5FEFF" d="M358.074,228.408c0.25,2.06-1.351,3.946-3.57,4.216c-2.218,0.266-4.22-1.188-4.47-3.252
		c-0.248-2.063,1.351-3.95,3.573-4.216C355.83,224.886,357.831,226.34,358.074,228.408z"/>
	<path fill="#F5FEFF" d="M360.691,230.438c0.144,1.2-0.786,2.3-2.079,2.451c-1.292,0.155-2.451-0.69-2.599-1.89
		c-0.144-1.2,0.786-2.296,2.079-2.455C359.381,228.39,360.547,229.238,360.691,230.438z"/>
	<path fill="#F5FEFF" d="M318.043,226.595c0-1.211,1.056-2.189,2.358-2.189c1.296,0,2.352,0.979,2.352,2.189
		c0,1.207-1.056,2.189-2.352,2.189C319.099,228.784,318.043,227.802,318.043,226.595z"/>
	<path fill="#F5FEFF" d="M362.061,226.898c0-2.075,1.813-3.758,4.045-3.758c2.238,0,4.05,1.684,4.05,3.758
		c0,2.079-1.812,3.762-4.05,3.762C363.874,230.66,362.061,228.977,362.061,226.898z"/>
	<path fill="#F5FEFF" d="M323.24,226.566c-0.007,1.288-1.056,2.322-2.344,2.311c-1.289-0.007-2.319-1.059-2.311-2.344
		c0.011-1.289,1.059-2.322,2.344-2.312C322.218,224.229,323.251,225.277,323.24,226.566z"/>
	<ellipse transform="matrix(1 0.0072 -0.0072 1 1.6334 -2.5144)" fill="#F5FEFF" cx="348.201" cy="224.417" rx="4.048" ry="3.761"/>
	<path fill="#F5FEFF" d="M311.265,228.009c-0.015,2.075-1.842,3.747-4.076,3.732c-2.237-0.018-4.038-1.712-4.023-3.791
		c0.015-2.075,1.838-3.747,4.075-3.732C309.478,224.237,311.28,225.935,311.265,228.009z"/>
	<path fill="#F5FEFF" d="M323.148,232.871c-0.439-2.026,0.975-4.057,3.163-4.529c2.186-0.477,4.312,0.786,4.751,2.816
		c0.439,2.03-0.979,4.061-3.164,4.533C325.714,236.164,323.588,234.901,323.148,232.871z"/>
	<path fill="#F5FEFF" d="M345.803,227.23c0.436,2.027-0.975,4.057-3.164,4.53c-2.182,0.473-4.308-0.79-4.751-2.817
		c-0.439-2.03,0.975-4.061,3.16-4.533C343.234,223.937,345.364,225.196,345.803,227.23z"/>
	<circle fill="#F5FEFF" cx="461.696" cy="230.354" r="1.809"/>
	<path fill="#F5FEFF" d="M454.313,228.748c0,1.613-1.411,2.92-3.146,2.92c-1.737,0-3.148-1.307-3.148-2.92
		c0-1.617,1.411-2.924,3.148-2.924C452.902,225.824,454.313,227.131,454.313,228.748z"/>
	<path fill="#F5FEFF" d="M459.478,230.626c0.008-0.941,0.83-1.694,1.842-1.69c1.012,0.007,1.828,0.776,1.82,1.717
		c-0.004,0.938-0.831,1.694-1.842,1.684C460.285,232.332,459.473,231.564,459.478,230.626z"/>
	<path fill="#F5FEFF" d="M436.91,230.375c0.015-1.613,1.433-2.913,3.172-2.898c1.739,0.011,3.138,1.329,3.127,2.946
		c-0.015,1.613-1.432,2.913-3.167,2.901C438.299,233.31,436.903,231.993,436.91,230.375z"/>
	<path fill="#F5FEFF" d="M472.091,230.109c0.192,1.598-1.048,3.068-2.775,3.275c-1.725,0.207-3.278-0.923-3.47-2.529
		c-0.196-1.598,1.048-3.068,2.775-3.275C470.345,227.374,471.898,228.503,472.091,230.109z"/>
	<path fill="#F5FEFF" d="M474.126,231.686c0.113,0.935-0.609,1.787-1.613,1.905c-1.005,0.122-1.909-0.536-2.023-1.47
		c-0.11-0.93,0.613-1.786,1.616-1.904C473.109,230.095,474.016,230.755,474.126,231.686z"/>
	<path fill="#F5FEFF" d="M440.979,228.7c0-0.941,0.814-1.702,1.831-1.702c1.007,0,1.827,0.76,1.827,1.702
		c0,0.938-0.82,1.702-1.827,1.702C441.794,230.401,440.979,229.637,440.979,228.7z"/>
	<ellipse fill="#F5FEFF" cx="478.337" cy="228.936" rx="3.146" ry="2.924"/>
	<path fill="#F5FEFF" d="M445.018,228.677c-0.008,1-0.823,1.806-1.823,1.797c-1.001-0.007-1.802-0.823-1.799-1.823
		c0.012-1.001,0.824-1.805,1.824-1.798S445.024,227.677,445.018,228.677z"/>
	<path fill="#F5FEFF" d="M467.565,227.031c-0.015,1.614-1.432,2.913-3.167,2.898c-1.743-0.011-3.139-1.329-3.13-2.942
		c0.015-1.617,1.432-2.917,3.17-2.901C466.178,224.096,467.576,225.417,467.565,227.031z"/>
	<path fill="#F5FEFF" d="M435.707,229.799c-0.015,1.614-1.432,2.913-3.171,2.902c-1.738-0.015-3.137-1.333-3.126-2.946
		c0.015-1.617,1.432-2.913,3.167-2.901C434.319,226.865,435.716,228.186,435.707,229.799z"/>
	<path fill="#F5FEFF" d="M444.944,233.58c-0.344-1.577,0.756-3.156,2.458-3.521c1.697-0.37,3.352,0.613,3.691,2.189
		c0.343,1.577-0.756,3.156-2.458,3.526C446.937,236.138,445.283,235.156,444.944,233.58z"/>
	<path fill="#F5FEFF" d="M462.553,229.19c0.34,1.58-0.758,3.156-2.459,3.525c-1.694,0.366-3.352-0.613-3.692-2.193
		c-0.343-1.576,0.762-3.152,2.456-3.521C460.559,226.632,462.213,227.614,462.553,229.19z"/>
	<path fill="#F5FEFF" d="M537.927,226.271c0,1.207-0.979,2.182-2.178,2.182c-1.207,0-2.186-0.975-2.186-2.182
		c0-1.204,0.979-2.178,2.186-2.178C536.948,224.093,537.927,225.067,537.927,226.271z"/>
	<path fill="#F5FEFF" d="M526.853,224.34c0,1.942-1.698,3.518-3.788,3.518c-2.097,0-3.791-1.576-3.791-3.518
		c0-1.946,1.694-3.522,3.791-3.522C525.154,220.818,526.853,222.394,526.853,224.34z"/>
	<path fill="#F5FEFF" d="M533.072,226.603c0.011-1.133,1.004-2.041,2.222-2.034c1.215,0.011,2.196,0.934,2.19,2.063
		c-0.009,1.134-1.005,2.042-2.22,2.035C534.047,228.655,533.068,227.732,533.072,226.603z"/>
	
		<ellipse transform="matrix(-1 -0.0073 0.0073 -1 1017.709 456.3669)" fill="#F5FEFF" cx="509.685" cy="226.331" rx="3.79" ry="3.52"/>
	<path fill="#F5FEFF" d="M548.267,225.979c0.232,1.931-1.266,3.695-3.341,3.95c-2.078,0.248-3.954-1.115-4.187-3.045
		c-0.229-1.931,1.266-3.699,3.345-3.946C546.158,222.682,548.034,224.048,548.267,225.979z"/>
	<path fill="#F5FEFF" d="M550.714,227.88c0.14,1.125-0.73,2.152-1.941,2.296c-1.211,0.147-2.3-0.646-2.433-1.769
		c-0.137-1.123,0.734-2.152,1.945-2.296C549.488,225.964,550.58,226.758,550.714,227.88z"/>
	<path fill="#F5FEFF" d="M510.789,224.281c0-1.13,0.986-2.045,2.205-2.045c1.218,0,2.207,0.916,2.207,2.045
		c0,1.133-0.989,2.049-2.207,2.049C511.775,226.33,510.789,225.414,510.789,224.281z"/>
	<ellipse fill="#F5FEFF" cx="555.788" cy="224.569" rx="3.79" ry="3.519"/>
	<path fill="#F5FEFF" d="M515.659,224.254c-0.011,1.204-0.993,2.175-2.199,2.164c-1.205-0.003-2.172-0.989-2.164-2.193
		c0.007-1.207,0.988-2.174,2.195-2.167C514.7,222.069,515.667,223.052,515.659,224.254z"/>
	<path fill="#F5FEFF" d="M542.814,222.272c-0.015,1.946-1.725,3.508-3.816,3.493c-2.094-0.016-3.781-1.603-3.767-3.548
		c0.015-1.941,1.725-3.507,3.817-3.492C541.143,218.74,542.829,220.327,542.814,222.272z"/>
	<path fill="#F5FEFF" d="M504.444,225.605c-0.015,1.946-1.728,3.511-3.817,3.493c-2.097-0.016-3.779-1.603-3.765-3.544
		c0.015-1.946,1.719-3.511,3.813-3.496C502.768,222.073,504.455,223.665,504.444,225.605z"/>
	<path fill="#F5FEFF" d="M515.57,230.161c-0.413-1.901,0.908-3.802,2.961-4.246c2.045-0.443,4.034,0.739,4.444,2.64
		c0.413,1.901-0.911,3.802-2.96,4.242C517.97,233.24,515.98,232.063,515.57,230.161z"/>
	<path fill="#F5FEFF" d="M536.782,224.875c0.405,1.901-0.92,3.799-2.969,4.241c-2.04,0.444-4.03-0.738-4.443-2.635
		c-0.413-1.901,0.911-3.799,2.957-4.246C534.375,221.792,536.365,222.978,536.782,224.875z"/>
	<path fill="#F5FEFF" d="M421.753,257.601c0,2.81-2.455,5.091-5.479,5.091c-3.026,0-5.481-2.281-5.481-5.091
		c0-2.813,2.455-5.09,5.481-5.09C419.298,252.51,421.753,254.788,421.753,257.601z"/>
	<path fill="#F5FEFF" d="M495.426,252.51c0,2.813-2.455,5.09-5.479,5.09c-3.027,0-5.481-2.278-5.481-5.09
		c0-2.81,2.454-5.087,5.481-5.087C492.971,247.423,495.426,249.701,495.426,252.51z"/>
	<path fill="#F5FEFF" d="M374.885,262.691c0,2.809-2.458,5.087-5.478,5.087c-3.027,0-5.486-2.278-5.486-5.087
		c0-2.813,2.458-5.091,5.486-5.091C372.427,257.601,374.885,259.878,374.885,262.691z"/>
	<path fill="#F5FEFF" d="M536.875,247.423c0,2.81-2.456,5.087-5.476,5.087c-3.029,0-5.485-2.278-5.485-5.087s2.456-5.09,5.485-5.09
		C534.419,242.333,536.875,244.613,536.875,247.423z"/>
	<path fill="#F5FEFF" d="M343.404,257.601c0,1.945-2.112,3.525-4.71,3.525s-4.71-1.58-4.71-3.525c0-1.949,2.112-3.525,4.71-3.525
		S343.404,255.651,343.404,257.601z"/>
</g>
</svg>
