<?xml version="1.0" encoding="utf-8"?>
<!-- Generator: Adobe Illustrator 16.0.0, SVG Export Plug-In . SVG Version: 6.00 Build 0)  -->
<!DOCTYPE svg PUBLIC "-//W3C//DTD SVG 1.1//EN" "http://www.w3.org/Graphics/SVG/1.1/DTD/svg11.dtd">
<svg version="1.1" id="图层_1" xmlns="http://www.w3.org/2000/svg" xmlns:xlink="http://www.w3.org/1999/xlink" x="0px" y="0px"
	 width="841.89px" height="595.28px" viewBox="0 0 841.89 595.28" enable-background="new 0 0 841.89 595.28" xml:space="preserve">
<g>
	<g>
		<linearGradient id="SVGID_1_" gradientUnits="userSpaceOnUse" x1="388.3516" y1="551.4971" x2="387.4765" y2="85.1046">
			<stop  offset="0" style="stop-color:#FFFFFF"/>
			<stop  offset="0.3265" style="stop-color:#B7B3B2"/>
		</linearGradient>
		<path fill="url(#SVGID_1_)" stroke="#000000" stroke-width="2.7066" stroke-miterlimit="10" d="M433.913,74.34
			c0,0-55.813-1.703-66.044,4.422c0,0-18.603,92.753-16.745,119.004c1.86,26.251,7.443,55.127,67.904,98.876
			c0,0,4.773,5.155,6.203,20.127c0,0,6.82,150.504-5.272,175.006c0,0,0.931,4.373-13.023,6.998c0,0-55.812,11.375-65.113,11.375
			v2.916c0,0,7.751,7.002,92.091,8.754"/>
	</g>
	<linearGradient id="SVGID_2_" gradientUnits="userSpaceOnUse" x1="468.2607" y1="537.4326" x2="482.019" y2="238.8792">
		<stop  offset="0" style="stop-color:#FFFFFF"/>
		<stop  offset="0.3265" style="stop-color:#B7B3B2"/>
	</linearGradient>
	<path fill="url(#SVGID_2_)" stroke="#000000" stroke-width="2.7066" stroke-miterlimit="10" d="M432.981,74.34
		c0,0,56.743-1.703,66.975,4.422c0,0,18.604,92.753,16.745,119.004c-1.861,26.251-7.443,55.127-67.905,98.876
		c0,0-4.708,4.903-6.202,20.127c0,0-6.821,150.504,5.272,175.006c0,0-0.931,4.373,13.022,6.998c0,0,55.813,11.375,65.114,11.375
		v2.916c0,0-7.751,7.002-92.09,8.754"/>
	<path fill="#EFEFEF" d="M371.27,81.525c3.719-1.313,90.693-6.125,125.577,0c0,0,15.813,87.503,15.813,105.877
		c0,18.376-3.256,77.876-76.742,106.315c0,0-87.902-28.876-81.082-105.07C359.801,133.167,371.27,81.525,371.27,81.525z"/>
	<path opacity="0.9" fill="#2C1220" d="M357.945,217.446c0,0,59.574,4.954,77.443,3.854c17.871-1.101,63.072,0.544,72.01-0.716
		c0,0-21.671,66.216-72.901,65.114C434.496,285.698,377.008,281.296,357.945,217.446z"/>
	<path fill="#69222F" d="M405.688,281.906c0,0,30.229,11.812,50.813,2.084c29.197-13.799-11.746,13.98-11.746,13.98h-22.913
		C421.842,297.97,393.594,278.843,405.688,281.906z"/>
	<path fill="#EFEFEF" d="M428.476,297.97h11.163c0,0-6.511,178.192,1.86,196.565c0,0-16.742,7.676-16.742,0
		C424.757,494.535,434.059,455.789,428.476,297.97z"/>
	<path fill="#A5948B" d="M423.384,478.947c0,0,7.251,7.744,21.055,0l3.428,12.828c0,0-8.26,16.354-29.948,3.139
		C417.918,494.914,422.122,488.514,423.384,478.947z"/>
	<path fill="#F0ECE5" d="M418.849,493.166c0,0,16.158,6.93,29.018-1.391c0,0-6.367,10.344-13.953,10.344
		C424.757,502.119,420.966,497.945,418.849,493.166z"/>
	<g>
		<path fill="none" stroke="#000000" stroke-width="2.7066" stroke-miterlimit="10" d="M432.672,74.342
			c0,0-55.812-1.705-66.044,4.42c0,0-18.605,92.755-16.744,119.006c1.86,26.249,7.44,55.127,67.904,98.876
			c0,0,4.773,5.155,6.204,20.125c0,0,6.819,150.506-5.273,175.006c0,0,0.931,4.375-13.023,7c0,0-55.812,11.375-65.113,11.375v2.918
			c0,0,7.751,6.998,92.09,8.75"/>
		<path fill="none" stroke="#000000" stroke-width="2.7066" stroke-miterlimit="10" d="M431.741,74.342
			c0,0,56.742-1.705,66.975,4.42c0,0,18.604,92.755,16.743,119.006c-1.86,26.249-7.441,55.127-67.905,98.876
			c0,0-4.707,4.901-6.203,20.125c0,0-6.818,150.506,5.272,175.006c0,0-0.929,4.375,13.023,7c0,0,55.813,11.375,65.115,11.375v2.918
			c0,0-7.751,6.998-92.09,8.75"/>
	</g>
	<path fill="#15070F" d="M358.875,219.197c0,0,17.984,1.166,22.944,8.167c0,0,13.644,36.75,29.146,43.751
		c0,0,3.721,0.584,2.48,5.834C413.446,276.949,379.961,274.614,358.875,219.197z"/>
	<path fill="#FFFFFF" d="M387.868,78.487c-1.658,1.703-29.622,89.228-24.97,126.416c0,0,2.789,27.562,17.209,34.125
		c0,0-13.023-29.312-1.861-71.313l19.998-89.228H387.868z"/>
	<path fill="#15070F" d="M505.789,220.946c0,0-17.985,1.168-22.944,8.167c0,0-7.858,36.166-23.36,43.167
		c0,0-6.202,2.615-4.962,7.865C454.522,280.145,484.703,276.365,505.789,220.946z"/>
</g>
</svg>
