<?xml version="1.0" encoding="utf-8"?>
<!-- Generator: Adobe Illustrator 18.1.1, SVG Export Plug-In . SVG Version: 6.00 Build 0)  -->
<!DOCTYPE svg PUBLIC "-//W3C//DTD SVG 1.1//EN" "http://www.w3.org/Graphics/SVG/1.1/DTD/svg11.dtd">
<svg version="1.1" id="Layer_1" xmlns="http://www.w3.org/2000/svg" xmlns:xlink="http://www.w3.org/1999/xlink" x="0px" y="0px"
	 viewBox="461.8 133.4 113 400.4" enable-background="new 461.8 133.4 113 400.4" xml:space="preserve">
<g id="body">
	<path fill="#EAC1B0" stroke="#000000" stroke-width="0.5" stroke-miterlimit="10" d="M506.7,200.1c0,0-0.9,9.2-4.1,12.2
		c-3.2,3.1-18.6,4.4-21.7,4.8s-12.7,3.5-14.5,11.6c-1.8,8.1,1.4,24.6,0,36.4c-1.4,11.8-1.8,15.7-2.7,18.3s-2.3,21.8,0,24.9
		c2.3,3.1,6.8,23.1,5.9,27.9c-0.9,4.8-3.6,20.1-0.9,23.5c2.7,3.5,14.2,8.3,15.9,7s-1.9-5.7-1.9-5.7s0.9-5.7,0-14.4
		c-0.9-8.7-3.6-9.2-3.6-9.2l1.4-23.5c0,0,0.9-7-0.9-17.9c0,0-1.8-4.4-1.4-8.7c0.5-4.4,6.5-25.3,6.4-30.1c0,0,6.7,27.5,4.5,47.1
		c-2.3,19.6-7.2,41-0.5,76.3s4.5,35.8,5,40.1c0.5,4.4-4.1,26.6-2.7,37.5c1.4,10.9,9.5,28.8,10,38.4c0.5,9.6,0,14,0.5,18.3
		c0.5,4.4,0,8.3-2.3,11.3h15.4c0,0-1.4-0.9,0-7.4c1.4-6.5,0.5-3.5,0-9.6c-0.5-6.1-2.7-6.5-2.3-14c0.5-7.4,1.4-23.1,3-39.7
		c1.5-16.6-2.1-31.4-2.5-35.3c-0.5-3.9,3.6-6.1,2.9-13.5c-0.6-7.4,1.9-43.6,1.9-43.6V196.6L506.7,200.1z"/>
	<path fill="#EAC1B0" stroke="#000000" stroke-width="0.5" stroke-miterlimit="10" d="M528.1,200.1c0,0,0.9,9.2,4.1,12.2
		c3.2,3.1,18.6,4.4,21.7,4.8c3.2,0.4,11.7,3.5,13.5,11.6c1.8,8.1-0.4,24.6,1,36.4c1.4,11.8,0,15.7,0.9,18.3s2.3,21.8,0,24.9
		c-2.3,3.1-5,23.1-4.1,27.9c0.9,4.8,3.6,20.1,0.9,23.5c-2.7,3.5-14.2,8.3-15.9,7s1.9-5.7,1.9-5.7s-0.9-5.7,0-14.4
		c0.9-8.7,3.6-9.2,3.6-9.2l-1.4-23.5c0,0-0.9-7,0.9-17.9c0,0,1.8-4.4,1.4-8.7c-0.5-4.4-6.5-25.3-6.4-30.1c0,0-6.7,27.5-4.5,47.1
		c2.3,19.6,7.2,41,0.5,76.3s-4.5,35.8-5,40.1s4.1,26.6,2.7,37.5c-1.4,10.9-9.5,28.8-10,38.4c-0.5,9.6,0,14-0.5,18.3
		c-0.5,4.4,0,8.3,2.3,11.3h-15.4c0,0,1.4-0.9,0-7.4c-1.4-6.5-0.5-3.5,0-9.6c0.5-6.1,2.7-6.5,2.3-14c-0.5-7.4-1.4-23.1-3-39.7
		c-1.5-16.6,2.1-31.4,2.5-35.3c0.5-3.9-3.6-6.1-2.9-13.5c0.6-7.4-1.9-43.6-1.9-43.6V196.6L528.1,200.1z"/>
	<polyline fill="#EAC1B0" points="516.8,208.1 518.5,208 518.8,217.3 517.2,217.6 515.8,217.4 516.8,208.1 	"/>
</g>
<g id="suit">
	<path fill="#FCFCFC" stroke="#000000" stroke-miterlimit="10" d="M519.7,328.1c0,0-33.5-6.8-31.4-14.4c2.1-7.6-3.7-58.9-3.6-56.5
		c0.1,2.4-2.7,28.9-3.4,30.9s-1.8,6-1.4,9.2c2.3,22.6-0.7,40.1-0.7,40.1l-10,1.6c0,0-0.4-0.8-0.7-3.9c-0.6-5.4-5.3-28.5-5.9-35.3
		s0.2-3.3,1.4-16.9c1.3-14.2,1-44,2.4-53.6c1.4-9.6,13.3-11.9,16.7-12.4c3.4-0.5,10.5-1.5,10.5-1.5l23.5,2.3"/>
	<path fill="#FCFCFC" stroke="#000000" stroke-miterlimit="10" d="M514.4,328.1c0,0,34.4-6.8,32.3-14.4c-2.1-7.6,2.9-58.9,2.8-56.5
		c-0.1,2.4,2.7,28.9,3.4,30.9c0.7,2,1.8,6,1.4,9.2c-2.3,22.6,0.7,40.1,0.7,40.1l10.4,0.8c0,0,0,0,0.3-3.2c0.6-5.4,5.3-28.5,5.9-35.3
		c0.6-6.9-0.2-3.3-1.4-16.9c-1.3-14.2-1-44-2.4-53.6c-1.4-9.6-13.3-11.9-16.7-12.4c-3.4-0.5-10.6-1.5-10.6-1.5l-23.5,2.3"/>
	<g>
		<path fill="#FCFCFC" stroke="#000000" stroke-miterlimit="10" d="M502.7,212.3c0,0,6.6,3.8,14.4,5.3l-8.2,7.5
			c0,0-6.8-3.1-15.2-9.7L502.7,212.3z"/>
		<path fill="#FCFCFC" stroke="#000000" stroke-miterlimit="10" d="M531.6,212.3c0,0-6.6,3.8-14.4,5.3l8.2,7.5c0,0,6.8-3.1,15.2-9.7
			L531.6,212.3z"/>
	</g>
	<rect x="515.6" y="223.3" fill="#FCFCFC" stroke="#000000" stroke-miterlimit="10" width="3.7" height="91.2"/>
	<g>
		<path d="M515.5,218.9c0,0,1.5-1.1,3.8-0.1c0,0,0.7,2.4-0.1,4.2c0,0-1.7,0.7-3.7,0C515.6,223,515,220.9,515.5,218.9z"/>
		<path d="M515.5,218.9c0,0-4.1-2.8-9.6-2.5c0,0-2.7,4.8,0,10.4c0,0,6.1-0.6,9.7-3.8L515.5,218.9z"/>
		<path d="M519.3,218.9c0,0,4.1-2.8,9.6-2.5c0,0,2.7,4.8,0,10.4c0,0-6.1-0.6-9.7-3.8L519.3,218.9z"/>
	</g>
	<g>
		<path stroke="#000000" stroke-width="0.4443" stroke-miterlimit="10" d="M488.3,313.7h29.2v50c0,0-2,40.5-1.9,43.1
			c0,2.6-0.5,6.8-1,12.7c-0.9,11.6,1.1,20.6,0.6,36c-0.4,16.3,0.2,49.4-0.2,53.9h-16.2c0,0-5.4-39.8-8-51.2
			c-2.6-11.4,1-32.9,0.7-42.9c-0.3-10-7-53.9-6.4-68.8C485.8,331.7,488.3,313.7,488.3,313.7z"/>
		<path stroke="#000000" stroke-width="0.4443" stroke-miterlimit="10" d="M546.7,313.7h-29.2v50c0,0,2,40.5,1.9,43.1
			c0,2.6,0.5,6.8,1,12.7c0.9,11.6-1.1,20.6-0.6,36c0.4,16.3-0.2,49.4,0.2,53.9h16.2c0,0,5.4-39.8,8-51.2c2.6-11.4-1-32.9-0.7-42.9
			c0.3-10,7-53.9,6.4-68.8C549.1,331.7,546.7,313.7,546.7,313.7z"/>
	</g>
	<polygon fill="#301407" stroke="#000000" stroke-width="0.513" stroke-miterlimit="10" points="501.3,319.2 488.6,319.2 
		489.4,314.6 501.3,314.6 	"/>
	
		<rect x="502.9" y="314.6" fill="#301407" stroke="#000000" stroke-width="0.4787" stroke-miterlimit="10" width="10.4" height="4.7"/>
	<polygon fill="#301407" stroke="#000000" stroke-width="0.513" stroke-miterlimit="10" points="533.6,319.2 546.1,319.2 
		545.6,314.6 533.6,314.6 	"/>
	
		<rect x="521.6" y="314.6" fill="#301407" stroke="#000000" stroke-width="0.4787" stroke-miterlimit="10" width="10.4" height="4.7"/>
	
		<rect x="513.3" y="314.6" fill="#111111" stroke="#000000" stroke-width="0.4787" stroke-miterlimit="10" width="8.3" height="4.7"/>
	
		<rect x="520.7" y="314.6" fill="#474747" stroke="#000000" stroke-width="0.4787" stroke-miterlimit="10" width="0.9" height="4.7"/>
	<ellipse stroke="#000000" stroke-width="0.4443" stroke-miterlimit="10" cx="517.4" cy="235.3" rx="1.1" ry="1.3"/>
	<ellipse stroke="#000000" stroke-width="0.4443" stroke-miterlimit="10" cx="517.5" cy="255" rx="1.1" ry="1.3"/>
	<ellipse stroke="#000000" stroke-width="0.4443" stroke-miterlimit="10" cx="517.5" cy="272.7" rx="1.1" ry="1.3"/>
	<ellipse stroke="#000000" stroke-width="0.4443" stroke-miterlimit="10" cx="517.4" cy="289.5" rx="1.1" ry="1.3"/>
	<ellipse stroke="#000000" stroke-width="0.4443" stroke-miterlimit="10" cx="517.4" cy="307.4" rx="1.1" ry="1.3"/>
	<path fill="#FCFCFC" stroke="#000000" stroke-miterlimit="10" d="M472.7,220.3c0,0,10.2,24.3,11.9,36.9"/>
	<path fill="#FCFCFC" stroke="#000000" stroke-miterlimit="10" d="M549.4,257.2c0,0,7.1-30.5,11.9-36.9"/>
	<path fill="#FCFCFC" stroke="#000000" stroke-miterlimit="10" d="M554.1,330.2c0,0,11.8-0.2,12.3,0.5"/>
	<path fill="#FCFCFC" stroke="#000000" stroke-miterlimit="10" d="M467.8,331c0,0,11-1.9,12.3-1.2"/>
	<ellipse stroke="#000000" stroke-width="0.4443" stroke-miterlimit="10" cx="470.7" cy="334.6" rx="1.1" ry="1.3"/>
	<ellipse stroke="#000000" stroke-width="0.4443" stroke-miterlimit="10" cx="563.1" cy="334.5" rx="1.1" ry="1.3"/>
</g>
<g id="face">
	<g display="none">
		<path display="inline" fill="#CC6E5E" d="M646.1,150.7l-6.9-3c0,0-10.1,6.8-12.5,6.6c0,0,3.2,6.5,10.8,6.6c7.6,0,11.5,0,11.5,0"/>
		<path display="inline" fill="#CC6E5E" d="M646.1,150.7l6.9-3c0,0,10.1,6.8,12.5,6.6c0,0-3.2,6.5-10.8,6.6c-7.6,0-11.5,0-11.5,0"/>
		<g display="inline">
			<path d="M625.3,152.3c0,0,0.1,0.1,0.3,0.4c0.2,0.3,0.5,0.6,1,1.1c0.5,0.4,1.1,0.8,1.9,1.1c0.8,0.2,1.8,0.3,2.9,0.3
				c1.1,0,2.2,0.1,3.5,0.1c1.2,0,2.5,0,3.9,0c0.3,0,0.7,0,1,0c0.3,0,0.7,0.1,1,0.2c0.7,0.1,1.4,0.3,2,0.4c1.4,0.2,2.8,0.2,4.2,0.1
				c1.4-0.1,2.7-0.7,4.1-0.9c1.4-0.3,2.8-0.2,4.2-0.2c1.3,0,2.6,0.1,3.9,0.2c1.2,0.1,2.4,0.2,3.4,0.2c1.1,0,2-0.1,2.8-0.4
				c0.8-0.3,1.3-0.9,1.7-1.3c0.4-0.5,0.7-0.9,0.9-1.1c0.2-0.2,0.4-0.3,0.4-0.3s-0.1,0.1-0.4,0.4c-0.2,0.2-0.5,0.6-0.9,1.1
				c-0.4,0.5-0.9,1.1-1.7,1.5c-0.8,0.4-1.8,0.5-2.9,0.5c-1.1,0.1-2.3-0.1-3.5-0.1c-1.2,0-2.5-0.1-3.9-0.1c-1.3,0-2.7-0.1-4.1,0.2
				c-1.3,0.3-2.7,0.9-4.2,1c-1.5,0.1-2.9,0-4.3-0.2c-0.7-0.1-1.4-0.2-2.1-0.4c-0.4-0.1-0.6-0.1-1-0.2c-0.3,0-0.7,0-1,0
				c-1.3,0-2.6-0.1-3.9-0.1c-1.2-0.1-2.4-0.1-3.5-0.2c-1.1,0-2.1-0.1-2.9-0.4c-0.8-0.3-1.5-0.8-1.9-1.2c-0.5-0.4-0.7-0.8-1-1.1
				C625.4,152.4,625.3,152.3,625.3,152.3z"/>
		</g>
	</g>
	<g>
		<path fill="#EDC9B9" stroke="#000000" stroke-width="0.5" stroke-miterlimit="10" d="M498.3,176.4c0,0-1.5-3.7-3.2-1.5
			s0.8,4.1,1.6,6.2c0.8,2.1,0.8,3.7,0.9,4.4c0.2,0.8,1.6,1.5,2.6,2C501.2,187.9,500.5,176.5,498.3,176.4z"/>
		<path fill="#EDC9B9" stroke="#000000" stroke-width="0.5" stroke-miterlimit="10" d="M535.6,178.2c0,0,3.5-5.2,4.5-3.1
			s-0.4,2.6-0.9,4.1c-0.5,1.5,0.1,2-0.8,4.6c-1,2.6-2,3.7-4.6,4.6C530.8,189.4,535.6,178.2,535.6,178.2z"/>
	</g>
	<path fill="#EDC9B9" stroke="#000000" stroke-width="0.5" stroke-miterlimit="10" d="M498.3,175.1c0,0,1.3,15.3,3.5,19.2
		c2.2,3.9,5.9,11.2,9.7,12.9c3.9,1.7,9.2,0.8,11.3-0.7c2-1.5,7.6-5.8,9.9-13.1c2.3-7.4,4-10.2,4.2-16.4c0.2-6.2,0-20.1-2.5-21.5
		c-2.5-1.4-24.5-4.2-30.5-0.7C498,158.2,496.7,169.3,498.3,175.1z"/>
	<path fill="#9B7A64" d="M496.2,156.1c0,0-3.9,8.7-1,18.8c0,0,1.8-2.4,3.2,1.7c0,0-0.9-13.9,5.5-19.1L496.2,156.1z"/>
	<path fill="#9B7A64" d="M534.5,159.7c0,0,3.7,12.4,2.2,20.1c0,0,2.5-6.5,3.5-4.7c0,0,2.5-8.7,0-20.3L534.5,159.7z"/>
	<path fill="#846053" d="M512,178.7c0,0-2.8-5.9-9.3,0.1l0.9,0.3"/>
	<path fill="#664735" d="M503.1,168.9c0,0,7,1.5,10.7,3.2v1.3c0,0-10.1-2.2-13.1-2.3C500.7,171.2,501.9,169.5,503.1,168.9z"/>
	<g>
		<path fill="#231414" d="M510.1,198.7c2.4,0,4.8,0,7.2-0.2c1.2-0.1,2.4-0.2,3.6-0.3c0.6-0.1,1.2-0.2,1.7-0.3
			c0.3-0.1,0.6-0.1,0.8-0.2c0.3-0.1,0.5-0.2,0.7-0.4l0,0l0.3-0.7c0.1-0.1,0.1-0.2,0.1-0.3c0-0.1,0.1-0.2,0.1-0.4l0,0
			c0,0.1,0,0.3,0,0.4c0,0.1-0.1,0.2-0.1,0.4c-0.1,0.2-0.2,0.5-0.3,0.7l0,0l0,0c-0.2,0.3-0.5,0.4-0.8,0.5c-0.3,0.1-0.6,0.2-0.9,0.3
			c-0.6,0.2-1.2,0.3-1.8,0.3c-1.2,0.2-2.4,0.2-3.6,0.3C514.9,198.9,512.5,198.9,510.1,198.7L510.1,198.7z"/>
	</g>
	<path fill="#664735" d="M531,168.8c0,0-7,1.5-10.7,3.2v1.3c0,0,10.1-2.2,13.1-2.3C533.4,171.1,532.2,169.4,531,168.8z"/>
	<g display="none">
		<path display="inline" fill="#FCFCFC" d="M508.8,191.1c0.3,0,9.6,0.7,9.4,2.3c-0.1,0.7,0.3,2.6,0.3,2.6s-9.3,1.3-10,0.8
			C507.9,196.4,508.3,191.1,508.8,191.1z"/>
		<path display="inline" fill="#513C20" d="M514.9,194.6c0,0.4,1.4,0.8,1.2,1.1c-0.4,0.7-1.2,1.1-2.1,1.1c-1.4,0-2.5-1-2.5-2.2
			s1.1-2.2,2.5-2.2c0.9,0,1.7,0.4,2.1,1C516.2,193.8,514.9,194.2,514.9,194.6z"/>
		<path display="inline" d="M514.3,194.5c0,0.4,1.4,0.8,1.2,1.1c-0.4,0.7-1.2,1.1-2.1,1.1c-1.4,0-2.5-1-2.5-2.2
			c0-1.2,1.1-2.2,2.5-2.2c0.9,0,1.7,0.4,2.1,1C515.6,193.7,514.3,194.1,514.3,194.5z"/>
		<path display="inline" fill="#FCFCFC" d="M535.5,191.1c-0.3,0-9.6,0.7-9.4,2.3c0.1,0.7-0.3,2.6-0.3,2.6s9.3,1.3,10,0.8
			C536.4,196.4,536,191.1,535.5,191.1z"/>
		<path display="inline" fill="#513C20" d="M529.4,194.6c0,0.4-1.4,0.8-1.2,1.1c0.4,0.7,1.2,1.1,2.1,1.1c1.4,0,2.5-1,2.5-2.2
			c0-1.2-1.1-2.2-2.5-2.2c-0.9,0-1.7,0.4-2.1,1C528.1,193.8,529.4,194.2,529.4,194.6z"/>
		<path display="inline" d="M530,194.5c0,0.4-1.4,0.8-1.2,1.1c0.4,0.7,1.2,1.1,2.1,1.1c1.4,0,2.5-1,2.5-2.2s-1.1-2.2-2.5-2.2
			c-0.9,0-1.7,0.4-2.1,1C528.7,193.7,530,194.1,530,194.5z"/>
	</g>
	<path fill="#FFEDE6" d="M503.7,179.1c0,0,3.6-5.5,8.6-0.1C512.3,179,510.2,182,503.7,179.1z"/>
	<ellipse fill="#633D2E" cx="507.9" cy="178.5" rx="2" ry="1.8"/>
	<polygon fill="#FFFFFF" points="506.7,178.5 508.8,177.9 508.8,179 506.7,179 	"/>
	<ellipse fill="#110703" cx="508.1" cy="178.5" rx="0.9" ry="0.9"/>
	<g>
		<path fill="#020100" d="M503.6,179.1c0.5-0.7,1.1-1.3,1.8-1.8c0.4-0.2,0.8-0.4,1.2-0.6c0.2-0.1,0.4-0.1,0.6-0.1c0.2,0,0.4,0,0.6,0
			c0.2,0,0.4,0,0.6,0.1c0.2,0,0.4,0.1,0.6,0.2c0.2,0.1,0.4,0.1,0.6,0.2l0.6,0.3c0.2,0.1,0.4,0.2,0.5,0.4l0.5,0.4l0.9,0.9l0.1,0.1
			l-0.1,0.1c-0.1,0.2-0.3,0.3-0.4,0.4l-0.5,0.3c-0.2,0.1-0.4,0.2-0.5,0.2c-0.2,0.1-0.4,0.2-0.5,0.2l-0.6,0.1c-0.2,0-0.4,0.1-0.6,0.1
			l-1.2,0c-0.4,0-0.8-0.1-1.1-0.2l-0.6-0.1c-0.2,0-0.4-0.1-0.6-0.1L503.6,179.1z M503.6,179.1l2.2,0.7c0.2,0.1,0.4,0.1,0.6,0.1
			l0.6,0.1c0.4,0.1,0.7,0.2,1.1,0.2l1.1,0c0.2,0,0.4-0.1,0.6-0.1l0.6-0.1c0.2,0,0.3-0.1,0.5-0.2c0.2-0.1,0.4-0.1,0.5-0.2l0.5-0.3
			c0.1-0.1,0.3-0.2,0.4-0.4l0,0.1l-0.9-0.9l-0.5-0.4c-0.2-0.1-0.3-0.3-0.5-0.4l-0.5-0.3c-0.2-0.1-0.4-0.1-0.6-0.2
			c-0.2-0.1-0.4-0.1-0.6-0.2c-0.2,0-0.4-0.1-0.6-0.1c-0.2,0-0.4,0-0.6,0c-0.2,0-0.4,0.1-0.6,0.1c-0.4,0.1-0.8,0.3-1.1,0.5
			C504.7,177.9,504.1,178.4,503.6,179.1z"/>
	</g>
	<path d="M499.3,180.7c0,0,0.2-19.2,2.3-20.3c2.2-1.1,5-3.4,8-3.1c1.6,0.2,1.4,2,4.9,1.4c2.5-0.4,2.5-0.4,3.8-1.5
		c1.1-0.9,4.4-4.2,8.9-2.8c4.5,1.4,7.7,4.6,7.7,8.8c0,4.3,0.9,6.8,1.8,7.8c0.8,1.1-0.6,6.6-1.1,9.3c-0.3,1.8,2.5-7.3,4.4-3.5
		c1.6-3.3,1-3.6,1.2-4.4c0.7-2.5,3-15.8-1.4-21.8c-3.3-4.6-13.3-12.7-17.8-14.6c0,0-8.9,2.4-15.6,6.6c-4,2.6-10.9,8.5-12,15.6
		c-1,7.1-0.4,15.8,0.3,16.7S496.3,171.3,499.3,180.7z"/>
	<path fill="#020100" d="M504.5,144.5c0.2-0.4,0.6-1.5,1-1.7c0.7-0.4,1.9-0.1,2.6-0.3c1.6-0.3,3.2-1.6,4.5-2.5c1-0.7,1.9-1.9,3-2.2
		c1.3-0.4,3.2,0,4.6,0"/>
	<g>
		<path d="M523.4,144.9c0,0,0.2-0.1,0.7-0.4c0.1-0.1,0.2-0.1,0.4-0.2c0.2-0.1,0.3-0.1,0.5-0.2c0.4-0.2,0.8-0.3,1.3-0.4
			c0.2-0.1,0.5-0.1,0.7-0.2c0.2,0,0.5-0.1,0.8-0.1c0.5-0.1,1.1-0.1,1.6-0.1c1.1,0,2.3,0,3.4,0c1.1,0,2.3,0,3.4,0
			c0.5,0,1.1,0.1,1.6,0.1c0.5,0.1,1,0.1,1.4,0.2c0.4,0.1,0.8,0.2,1.1,0.3c0.3,0.1,0.6,0.2,0.8,0.3c0.4,0.2,0.7,0.4,0.7,0.4
			s-0.3-0.1-0.7-0.3c-0.2-0.1-0.5-0.2-0.9-0.2c-0.3-0.1-0.7-0.1-1.1-0.2c-0.4-0.1-0.9,0-1.4-0.1c-0.5,0-1,0-1.5,0.1
			c-1.1,0.1-2.2,0.2-3.3,0.3c-1.1,0.1-2.3,0.2-3.3,0.3c-0.5,0.1-1,0.1-1.5,0.3c-0.2,0.1-0.4,0.1-0.7,0.2c-0.2,0.1-0.4,0.1-0.6,0.2
			c-0.4,0.1-0.7,0.3-0.9,0.4c-0.1,0.1-0.2,0.1-0.4,0.2c-0.1,0.1-0.2,0.2-0.3,0.2c-0.4,0.3-0.6,0.5-0.6,0.5L523.4,144.9z"/>
	</g>
	<g>
		<path d="M529.1,152.2c0,0,0-0.1,0-0.2c0,0,0-0.1,0-0.2c0,0,0-0.1,0-0.1c0-0.1,0.1-0.2,0.1-0.2c0.1-0.2,0.2-0.4,0.3-0.5
			c0.1-0.1,0.2-0.3,0.3-0.4c0.2-0.2,0.5-0.5,0.8-0.7c0.2-0.2,0.5-0.4,0.8-0.6c0.1-0.1,0.2-0.2,0.3-0.3c0.1-0.2,0.2-0.3,0.4-0.5
			c0.5-0.6,1-1.3,1.5-2c0.2-0.3,0.5-0.7,0.8-1c0.3-0.3,0.6-0.6,0.9-0.9c0.3-0.3,0.5-0.6,0.8-0.9c0.2-0.3,0.4-0.5,0.6-0.8
			c0.2-0.3,0.2-0.6,0.4-0.8c0.1-0.2,0.2-0.5,0.3-0.6c0.2-0.3,0.3-0.5,0.3-0.5s-0.1,0.2-0.2,0.6c0,0.2-0.1,0.4-0.2,0.7
			c-0.1,0.3-0.1,0.6-0.2,0.9c-0.1,0.3-0.3,0.6-0.5,1c-0.2,0.3-0.4,0.7-0.7,1c-0.2,0.3-0.5,0.6-0.7,1c-0.2,0.3-0.4,0.7-0.6,1.1
			c-0.4,0.8-0.8,1.5-1.2,2.2c-0.1,0.2-0.2,0.3-0.3,0.5c-0.1,0.2-0.3,0.4-0.4,0.6c-0.3,0.3-0.5,0.5-0.8,0.8c-0.2,0.2-0.4,0.4-0.5,0.6
			c0,0.1-0.1,0.1-0.1,0.2c0,0,0,0,0,0l0,0c0,0,0,0.1,0,0.1c0,0.1,0,0.1,0,0.2c0,0.1,0,0.2,0,0.2L529.1,152.2z"/>
	</g>
	<g>
		<path d="M513.7,141.4c0,0-0.1-0.1-0.3-0.2c-0.2-0.1-0.5-0.3-0.8-0.5c-0.4-0.3-0.8-0.6-1.1-0.9c-0.4-0.3-0.8-0.7-1.2-1
			c-0.8-0.7-1.6-1.3-2.3-1.8c-0.3-0.2-0.6-0.4-0.8-0.5c-0.2-0.1-0.3-0.2-0.3-0.2s0.1,0,0.4,0.1c0.2,0.1,0.6,0.1,0.9,0.3
			c0.8,0.3,1.7,0.7,2.7,1.2c0.5,0.2,0.9,0.5,1.4,0.7c0.4,0.2,0.8,0.4,1.2,0.5c0.3,0.1,0.7,0.2,0.9,0.3c0.2,0.1,0.3,0.1,0.3,0.1
			L513.7,141.4z"/>
	</g>
	<g>
		<path d="M506.6,145.1c0,0,0-0.1,0-0.3c0-0.2,0.1-0.4,0.1-0.7c0.1-0.6,0.1-1.4,0.3-2.4c0.1-0.4,0.3-0.9,0.6-1.2
			c0.1-0.2,0.3-0.3,0.5-0.4c0.1-0.1,0.3-0.2,0.5-0.3c0.3-0.1,0.5-0.2,0.7-0.3c0.2-0.1,0.3-0.1,0.3-0.1s-0.1,0.1-0.2,0.2
			c-0.2,0.1-0.4,0.3-0.6,0.5c-0.1,0.1-0.2,0.2-0.3,0.4c-0.1,0.1-0.2,0.3-0.2,0.4c-0.1,0.3-0.2,0.7-0.2,1c0,0.7,0.2,1.5,0.4,2.2
			c0.1,0.3,0.1,0.6,0.1,0.8c0,0.2,0,0.3,0,0.3L506.6,145.1z"/>
	</g>
	<g>
		<path d="M514.9,141.8c0,0,0-0.1,0-0.4c0-0.1,0-0.3,0.1-0.5c0-0.2,0.1-0.5,0.2-0.7c0.3-0.9,0.9-2,1.7-2.8c0.7-0.9,1.5-1.6,2.1-2.2
			c0.5-0.6,0.9-1.1,0.9-1.1s-0.2,0.5-0.6,1.2c-0.4,0.7-1,1.7-1.5,2.6c-0.5,0.9-0.8,1.9-0.8,2.6c0,0.2,0,0.3,0,0.4c0,0.1,0,0.1,0,0.2
			c0,0.1,0,0.1,0,0.2c0,0.2,0.1,0.4,0.1,0.4L514.9,141.8z"/>
	</g>
	<g>
		<path d="M519.7,139.6c0,0,0.8,0,1.9,0.1c0.6,0,1.2,0.1,2,0.1c0.7,0,1.5,0.1,2.3,0.1c0.8,0,1.6,0.2,2.3,0.3
			c0.7,0.1,1.4,0.3,1.9,0.4c0.3,0,0.5,0,0.7,0c0.2,0,0.4-0.2,0.5-0.2c0.3-0.2,0.4-0.3,0.4-0.3s-0.1,0.1-0.4,0.4
			c-0.1,0.1-0.3,0.2-0.5,0.3c-0.2,0.1-0.5,0.2-0.8,0.2c-0.6,0-1.3-0.1-2-0.1c-0.7,0-1.5,0-2.2,0.1c-0.8,0.1-1.5,0.1-2.2,0.2
			c-0.7,0.1-1.4,0.2-2,0.2c-1.1,0.1-1.9,0.2-1.9,0.2L519.7,139.6z"/>
	</g>
	<g>
		<path d="M534.3,148.5c0,0,0.6,0.2,1.6,0.5c0.5,0.2,1.1,0.4,1.7,0.6c0.6,0.2,1.2,0.5,1.9,0.8c0.6,0.3,1.2,0.7,1.7,1
			c0.3,0.2,0.5,0.3,0.8,0.5c0.2,0.2,0.4,0.4,0.6,0.5c0.4,0.3,0.7,0.7,0.9,0.9c0.2,0.2,0.3,0.3,0.3,0.3s-0.1-0.1-0.4-0.3
			c-0.2-0.2-0.6-0.5-1-0.7c-0.2-0.1-0.5-0.3-0.7-0.4c-0.2-0.2-0.5-0.2-0.8-0.4c-0.6-0.3-1.2-0.5-1.8-0.7c-0.6-0.2-1.3-0.3-1.9-0.4
			c-0.6-0.1-1.2-0.2-1.7-0.3c-1-0.1-1.7-0.2-1.7-0.2L534.3,148.5z"/>
	</g>
	<g>
		<path d="M538.8,157.3c0,0,0-0.1,0.1-0.4c0-0.1,0.2-0.4,0.3-0.6c0.1-0.3,0.3-0.4,0.4-0.6c0.3-0.4,0.6-0.7,1-1.1
			c0.4-0.4,0.7-0.7,1-1.1c0.2-0.2,0.3-0.4,0.5-0.6c0.2-0.2,0.3-0.4,0.4-0.7c0.3-0.4,0.5-0.8,0.7-1.2c0.4-0.7,0.7-1.2,0.7-1.2
			s-0.2,0.5-0.4,1.3c-0.1,0.4-0.3,0.9-0.5,1.3c-0.1,0.2-0.2,0.5-0.3,0.7c-0.1,0.2-0.2,0.5-0.3,0.8c-0.3,0.6-0.6,1-0.8,1.4
			c-0.3,0.4-0.5,0.8-0.6,1.2c-0.1,0.2-0.2,0.3-0.2,0.4c0,0.1,0,0.1-0.1,0.2c0,0.2,0,0.4,0,0.4L538.8,157.3z"/>
	</g>
	<g>
		<path d="M540.1,164.2c0,0,0.3-0.1,0.6-0.3c0.4-0.2,0.9-0.5,1.5-0.7c0.6-0.2,1.1-0.4,1.5-0.5c0.4-0.1,0.7-0.2,0.7-0.2
			s-0.2,0.2-0.5,0.5c-0.3,0.3-0.7,0.7-1.1,1.1c-0.4,0.4-0.7,0.8-1,1.2c-0.3,0.3-0.4,0.6-0.4,0.6L540.1,164.2z"/>
	</g>
	<g>
		<path d="M541.8,159.4c0,0,0.1,0.1,0.2,0.3c0.1,0.1,0.2,0.2,0.3,0.4c0.1,0.2,0.2,0.4,0.3,0.6c0.2,0.5,0.4,1,0.4,1.6
			c0.1,0.6,0.1,1.2,0.1,1.8c-0.1,1.2-0.3,2.3-0.4,3.2c-0.1,0.8-0.2,1.4-0.2,1.4s-0.1-0.6-0.1-1.4c-0.1-0.9-0.1-2-0.3-3.1
			c-0.2-1.1-0.5-2.1-1-2.6c-0.1-0.1-0.2-0.3-0.3-0.3c-0.1-0.1-0.1-0.2-0.3-0.2c-0.2-0.2-0.3-0.2-0.3-0.2L541.8,159.4z"/>
	</g>
	<g>
		<path d="M493.1,152.8c0,0,0,0.1,0.1,0.2c0,0.1,0,0.2,0.1,0.2c0,0.1,0.1,0.2,0.1,0.3c0.1,0.2,0.2,0.4,0.4,0.7
			c0.1,0.2,0.4,0.5,0.6,0.7c0.2,0.2,0.4,0.4,0.6,0.6c0.2,0.2,0.3,0.4,0.4,0.6c0.1,0.2,0.2,0.4,0.3,0.5c0.1,0.1,0.1,0.2,0.1,0.2
			l-0.1,0.1c0,0-0.1,0-0.2,0c-0.2,0-0.4-0.1-0.6-0.2c-0.2-0.1-0.5-0.3-0.7-0.5c-0.2-0.2-0.3-0.6-0.5-0.8c-0.1-0.3-0.3-0.6-0.4-0.9
			c-0.1-0.3-0.2-0.6-0.2-0.8c0-0.1-0.1-0.2,0-0.3c0-0.1,0-0.2,0-0.3c0-0.1,0-0.2,0-0.2L493.1,152.8z"/>
	</g>
	<g>
		<path d="M501.7,150c0,0,0-0.1-0.1-0.2c0-0.1-0.1-0.2-0.1-0.3c0,0,0-0.1-0.1-0.2l-0.1-0.1c0-0.1-0.1-0.1-0.1-0.2
			c-0.1-0.1-0.2-0.2-0.2-0.3c-0.2-0.2-0.4-0.5-0.6-0.7c-0.2-0.3-0.5-0.5-0.7-0.8c-0.2-0.3-0.3-0.6-0.5-0.8c-0.1-0.1-0.1-0.2-0.1-0.3
			c0-0.1,0-0.2-0.1-0.3c0-0.1-0.1-0.2-0.1-0.2s0,0.1,0.1,0.2c0,0.1,0.1,0.1,0.2,0.2c0.1,0.1,0.1,0.2,0.2,0.3
			c0.2,0.2,0.4,0.4,0.6,0.5c0.2,0.2,0.5,0.3,0.8,0.5c0.3,0.2,0.6,0.3,0.9,0.5c0.2,0.1,0.3,0.2,0.4,0.3c0.2,0.1,0.3,0.3,0.4,0.4
			c0.1,0.1,0.1,0.1,0.2,0.2c0,0,0.1,0.1,0.1,0.1c0.1,0.1,0.1,0.2,0.2,0.2c0.1,0.1,0.1,0.2,0.1,0.2L501.7,150z"/>
	</g>
	<g>
		<path d="M499.8,150.8c0,0-0.1-0.1-0.2-0.1c-0.1,0-0.1-0.1-0.2-0.2c-0.1-0.1-0.1-0.1-0.2-0.1c-0.1,0-0.1-0.1-0.2-0.1
			c-0.1,0-0.2-0.1-0.3-0.2c-0.2-0.1-0.5-0.2-0.8-0.3c-0.3,0-0.6-0.1-0.9-0.1c-0.3,0-0.6,0-0.8,0c-0.1,0-0.2,0-0.3,0
			c-0.1,0-0.2,0-0.2,0.1c-0.1,0-0.2,0-0.2,0s0.1,0,0.2-0.1c0.1,0,0.1-0.1,0.2-0.1c0.1-0.1,0.2-0.1,0.3-0.2c0.2-0.1,0.5-0.2,0.8-0.3
			c0.3-0.1,0.6-0.1,1-0.2c0.3,0,0.7-0.1,1-0.1c0.2,0,0.3,0,0.5,0c0.2,0,0.3,0.1,0.5,0.1c0.2,0,0.3,0.1,0.4,0.1
			c0.1,0,0.2,0.1,0.2,0.1c0.1,0,0.2,0.1,0.2,0.1L499.8,150.8z"/>
	</g>
	<path stroke="#000000" stroke-width="0.25" stroke-miterlimit="10" d="M496.1,157.6c-1.8,2.1-3.4,5.1-3.7,7.8
		c0.3-1.1,1.4-2,2.5-2.4"/>
	<path stroke="#000000" stroke-width="0.25" stroke-miterlimit="10" d="M514.8,139.1c3.1-1.6,5.6-3.5,8.3-5.5
		c1.2,3.8,4.4,5.2,7.4,7.5"/>
	<path stroke="#000000" stroke-width="0.25" stroke-miterlimit="10" d="M524.6,137.3c1.2,1.5,3.6,1.1,5,2.5c1.4,1.3,3.2,2.9,3.8,4.8
		c1.4,0.5,3.2,1.6,4.2,2.5c0.4,0.4,1.7,1.2,1.9,1.7c0.5,0.9,0,2,0.2,2.9c0.4,1.4,2,2.3,2.4,3.6c0.5,1.5,0,4,0,5.6"/>
	<g display="none">
		<path display="inline" fill="#020100" d="M516.9,193.3c0,0,0,0,0-0.1c0-0.1,0-0.2-0.1-0.3c-0.1-0.3-0.4-0.6-0.7-1
			c-0.8-0.7-2.1-1.4-3.5-1.4c-0.4,0-0.7,0-1,0.2c-0.3,0.1-0.6,0.3-0.9,0.4c-0.6,0.3-1.1,0.7-1.5,1c-0.9,0.6-1.4,1-1.4,1
			s0.6-0.4,1.4-1.1c0.4-0.3,0.9-0.7,1.5-1c0.3-0.2,0.6-0.3,0.9-0.5c0.3-0.1,0.7-0.2,1.1-0.2c1.5,0,2.8,0.7,3.7,1.4
			c0.4,0.4,0.7,0.7,0.8,1c0.1,0.2,0.1,0.3,0.1,0.4c0,0.1,0,0.1,0,0.1L516.9,193.3z"/>
	</g>
	<path fill="none" stroke="#020100" stroke-miterlimit="10" d="M503.3,178.4"/>
	<g>
		<path fill="#231414" d="M516,184.2c-0.1,1.3-0.3,2.5-0.5,3.8c-0.2,1.3-0.4,2.5-0.6,3.8l-0.1-0.2c1.3,0,2.7,0.1,4,0.1
			c-1.3,0.1-2.7,0.1-4,0.1l-0.2,0l0-0.2c0.2-1.3,0.4-2.5,0.6-3.8C515.5,186.7,515.7,185.5,516,184.2z"/>
	</g>
	<g>
		<path fill="#846053" d="M522.3,178.9c0,0,2.8-5.9,9.3,0.1l-0.9,0.3"/>
		<path fill="#FFEDE6" d="M530.6,179.3c0,0-3.6-5.5-8.6-0.1C522,179.2,524,182.2,530.6,179.3z"/>
		<ellipse fill="#633D2E" cx="526.4" cy="178.7" rx="2" ry="1.8"/>
		<polygon fill="#FFFFFF" points="527.6,178.7 525.4,178.1 525.4,179.1 527.6,179.1 		"/>
		<ellipse fill="#110703" cx="526.2" cy="178.7" rx="0.9" ry="0.9"/>
		<g>
			<path fill="#020100" d="M530.7,179.3c-0.5-0.7-1.1-1.3-1.9-1.7c-0.4-0.2-0.7-0.4-1.1-0.5c-0.2-0.1-0.4-0.1-0.6-0.1
				c-0.2,0-0.4,0-0.6,0c-0.2,0-0.4,0.1-0.6,0.1c-0.2,0-0.4,0.1-0.6,0.2c-0.2,0.1-0.4,0.1-0.6,0.2l-0.5,0.3c-0.2,0.1-0.3,0.2-0.5,0.4
				l-0.5,0.4l-0.9,0.9l0-0.1c0.1,0.1,0.3,0.3,0.4,0.4l0.5,0.3c0.1,0.1,0.3,0.2,0.5,0.2c0.2,0.1,0.3,0.2,0.5,0.2l0.6,0.1
				c0.2,0,0.4,0.1,0.6,0.1l1.1,0c0.4,0,0.7-0.1,1.1-0.2l0.6-0.1c0.2,0,0.4-0.1,0.6-0.1L530.7,179.3z M530.7,179.3l-2.1,0.8
				c-0.2,0.1-0.4,0.1-0.6,0.1l-0.6,0.1c-0.4,0.1-0.7,0.2-1.1,0.2l-1.2,0c-0.2,0-0.4-0.1-0.6-0.1l-0.6-0.1c-0.2,0-0.4-0.1-0.6-0.2
				c-0.2-0.1-0.4-0.1-0.5-0.2l-0.5-0.3c-0.1-0.1-0.3-0.2-0.4-0.4l-0.1-0.1l0.1-0.1l0.9-0.9l0.5-0.4c0.2-0.1,0.3-0.3,0.5-0.4l0.6-0.3
				c0.2-0.1,0.4-0.1,0.6-0.2c0.2-0.1,0.4-0.1,0.6-0.2c0.2,0,0.4-0.1,0.6-0.1c0.2,0,0.4,0,0.6,0c0.2,0,0.4,0.1,0.6,0.1
				c0.4,0.1,0.8,0.3,1.2,0.6C529.6,178,530.2,178.6,530.7,179.3z"/>
		</g>
		<path fill="none" stroke="#020100" stroke-miterlimit="10" d="M531,178.6"/>
	</g>
</g>
<g id="图层_5">
	<g>
		<path fill="#5B5B5B" d="M512.9,152c0,0-0.2-0.1-0.4-0.2c-0.3-0.1-0.6-0.3-1.1-0.4c-0.5-0.2-1-0.3-1.6-0.5
			c-0.6-0.2-1.2-0.3-1.9-0.4c-1.3-0.2-2.6-0.3-3.5-0.1c-0.2,0.1-0.5,0.1-0.6,0.2c-0.2,0.1-0.4,0.1-0.5,0.2c-0.2,0.2-0.4,0.3-0.4,0.3
			s0.1-0.1,0.3-0.3c0.1-0.1,0.3-0.2,0.4-0.3c0.2-0.1,0.4-0.2,0.6-0.3c0.5-0.2,1.1-0.3,1.7-0.3c0.6,0,1.3,0.1,2,0.2
			c0.7,0.1,1.3,0.3,1.9,0.5c0.6,0.2,1.1,0.5,1.6,0.7C512.4,151.5,512.9,152,512.9,152z"/>
	</g>
	<g>
		<path fill="#5B5B5B" d="M506.3,152c0,0,0.1,0,0.2-0.1c0.2-0.1,0.4-0.2,0.6-0.2c0.3-0.1,0.6-0.2,1-0.2c0.4-0.1,0.7-0.1,1.1-0.1
			c1.5,0,3,0.3,3,0.3s-0.4,0.1-0.9,0.1c-0.6,0-1.3,0.1-2.1,0.1c-0.4,0-0.7,0-1.1,0c-0.4,0-0.7,0-0.9,0c-0.3,0-0.5,0-0.7,0.1
			C506.4,152,506.3,152,506.3,152z"/>
	</g>
	<g>
		<path fill="#5B5B5B" d="M527.4,150.9c0,0-2.2-0.7-4.3-1.8c-0.5-0.3-1-0.6-1.5-0.9c-0.5-0.3-0.9-0.6-1.2-0.9
			c-0.3-0.3-0.6-0.6-0.7-0.8c-0.1-0.2-0.2-0.4-0.2-0.4s0.1,0.1,0.3,0.3c0.2,0.2,0.5,0.4,0.8,0.6c0.7,0.5,1.7,1,2.8,1.6
			c1,0.5,2,1.1,2.8,1.5C527,150.5,527.4,150.9,527.4,150.9z"/>
	</g>
	<g>
		<path fill="#5B5B5B" d="M515.5,152.6c0,0,0.2-0.3,0.6-0.7c0.2-0.2,0.5-0.4,0.8-0.6c0.3-0.2,0.7-0.4,1-0.5c0.4-0.1,0.7-0.3,1.1-0.3
			c0.4-0.1,0.7,0,1,0c0.1,0.1,0.3,0.1,0.4,0.2c0.1,0.1,0.2,0.1,0.2,0.2c0.1,0.1,0.1,0.2,0.1,0.2s-0.1-0.1-0.2-0.2
			c-0.1-0.1-0.2-0.1-0.3-0.1c-0.1-0.1-0.2,0-0.3-0.1c-0.5,0-1.2,0.2-1.9,0.5c-0.7,0.3-1.3,0.6-1.8,0.9c-0.2,0.1-0.5,0.3-0.6,0.4
			C515.5,152.5,515.5,152.6,515.5,152.6z"/>
	</g>
	<g>
		<path fill="#5B5B5B" d="M524.3,150.5c0,0-0.5,0-1.2,0c-0.2,0-0.4-0.1-0.6-0.1c-0.2,0-0.4-0.1-0.7-0.1c-0.4-0.1-0.9-0.3-1.3-0.5
			c-0.2-0.1-0.4-0.2-0.6-0.3l-0.3-0.2c-0.1,0-0.1,0-0.2-0.1l-0.1-0.1c-0.3-0.3-0.7-0.6-0.9-0.8c-0.5-0.5-0.8-0.9-0.8-0.9
			s0.4,0.2,1,0.6c0.3,0.2,0.6,0.4,1,0.7l0.1,0.1c0,0,0.1,0,0.1,0.1l0.3,0.1c0.2,0.1,0.4,0.2,0.6,0.3c0.2,0.1,0.4,0.2,0.6,0.3
			c0.2,0.1,0.4,0.2,0.6,0.3c0.4,0.1,0.8,0.3,1.1,0.4C523.8,150.4,524.3,150.5,524.3,150.5z"/>
	</g>
	<g>
		<path fill="#5B5B5B" d="M513.3,150.6c0,0,0-0.1-0.1-0.3c0-0.2-0.1-0.5-0.3-0.9c-0.1-0.3-0.4-0.7-0.7-1.1c-0.3-0.4-0.6-0.7-1-1
			c-0.7-0.7-1.6-1.3-2.2-1.7c-0.6-0.5-1-0.8-1-0.8s0.5,0.2,1.1,0.6c0.7,0.4,1.6,0.9,2.3,1.6c0.4,0.4,0.8,0.7,1,1.1
			c0.3,0.4,0.5,0.8,0.6,1.2c0.1,0.2,0.1,0.4,0.1,0.5c0,0.2,0,0.3,0,0.4C513.3,150.5,513.3,150.6,513.3,150.6z"/>
	</g>
	<g>
		<path fill="#5B5B5B" d="M507.4,153.6c0,0,0,0-0.1,0.1c-0.1,0-0.2,0.1-0.3,0.2c-0.1,0.1-0.2,0.1-0.3,0.2c-0.1,0.1-0.2,0.2-0.4,0.3
			c-0.2,0.2-0.5,0.5-0.7,0.6c-0.2,0.2-0.4,0.3-0.4,0.3s0-0.2,0.2-0.4c0.1-0.2,0.3-0.6,0.6-0.8c0.2-0.1,0.3-0.2,0.5-0.3
			c0.2-0.1,0.4-0.1,0.5-0.1c0.1,0,0.3,0,0.3,0C507.4,153.6,507.4,153.6,507.4,153.6z"/>
	</g>
	<g>
		<path fill="#5B5B5B" d="M498.8,156.3c0,0,0,0.1-0.1,0.2c0,0.1-0.1,0.1-0.2,0.2c-0.1,0.1-0.2,0.2-0.2,0.3c-0.1,0.1-0.1,0.2-0.2,0.4
			c-0.1,0.1-0.1,0.3-0.2,0.4c-0.1,0.2-0.1,0.3-0.2,0.5c0,0.2-0.1,0.4-0.1,0.5c-0.1,0.7-0.3,1.5-0.5,2c-0.1,0.3-0.2,0.5-0.3,0.6
			c-0.1,0.1-0.1,0.2-0.1,0.2s0-0.1,0-0.3c0-0.2,0.1-0.4,0.1-0.7c0.1-0.5,0.1-1.3,0.3-2c0.1-0.2,0.1-0.4,0.2-0.6
			c0-0.2,0.1-0.4,0.2-0.5c0.1-0.3,0.4-0.6,0.6-0.8c0.1-0.1,0.2-0.2,0.3-0.3c0.1-0.1,0.2-0.1,0.2-0.2
			C498.7,156.4,498.8,156.3,498.8,156.3z"/>
	</g>
	<g>
		<path fill="#5B5B5B" d="M498.6,158.1c0,0,0,0.2,0,0.6c0,0.3-0.1,0.8-0.2,1.2c0,0.2-0.1,0.4-0.1,0.6c0,0.2-0.1,0.4-0.1,0.5
			c0,0.2,0,0.3,0,0.4c0,0.1,0,0.2,0,0.2s0,0-0.1-0.1c0-0.1-0.2-0.2-0.2-0.4c0-0.2-0.1-0.4-0.1-0.6c0-0.2,0-0.5,0-0.7
			c0.1-0.5,0.2-0.9,0.4-1.2C498.5,158.3,498.6,158.1,498.6,158.1z"/>
	</g>
	<g>
		<path fill="#5B5B5B" d="M500.1,155.5c0,0,0,0.4,0,0.9c0,0.3-0.1,0.6,0,0.9c0,0.3,0,0.7,0,1c0,0.7,0,1.5-0.1,2
			c-0.1,0.6-0.1,0.9-0.1,0.9s-0.1-0.4-0.2-0.9c-0.1-0.5-0.1-1.3-0.1-2c0-0.4,0.1-0.8,0.1-1.1c0-0.4,0.1-0.7,0.2-0.9
			C499.9,155.8,500.1,155.5,500.1,155.5z"/>
	</g>
	<g>
		<path fill="#5B5B5B" d="M535.9,156.1c0,0,0.1,0.3,0.3,0.7c0.1,0.4,0.3,0.9,0.4,1.5c0,0.6,0,1.1,0,1.5c0,0.4-0.1,0.7-0.1,0.7
			s-0.1-0.3-0.2-0.7c-0.1-0.4-0.2-0.9-0.2-1.5c-0.1-0.5-0.1-1.1-0.1-1.5C535.9,156.4,535.9,156.1,535.9,156.1z"/>
	</g>
	<g>
		<path fill="#5B5B5B" d="M537.9,158.6c0,0,0.1,0.2,0.2,0.4c0.1,0.2,0.2,0.6,0.2,0.9c0,0.3,0,0.7-0.1,1c-0.1,0.3-0.1,0.4-0.1,0.4
			s-0.1-0.2-0.1-0.4c-0.1-0.2-0.1-0.6-0.1-0.9c0-0.3,0-0.7,0-0.9C537.9,158.8,537.9,158.6,537.9,158.6z"/>
	</g>
	<g>
		<path fill="#5B5B5B" d="M538.4,155.8c0,0,0.1,0.1,0.2,0.2c0.1,0.1,0.3,0.3,0.5,0.6c0.2,0.3,0.5,0.5,0.7,0.9
			c0.1,0.2,0.2,0.4,0.3,0.6c0.1,0.2,0.2,0.4,0.2,0.6c0.1,0.2,0.1,0.4,0.2,0.6c0.1,0.2,0.1,0.4,0.1,0.6c0.1,0.4,0,0.8,0,1.1
			c0,0.3-0.1,0.6-0.1,0.8c0,0.2,0,0.3,0,0.3s-0.1-0.4-0.2-1.1c-0.1-0.3-0.1-0.7-0.2-1.1c-0.1-0.4-0.2-0.8-0.3-1.2
			c-0.1-0.4-0.3-0.8-0.5-1.1c-0.1-0.4-0.4-0.7-0.5-1C538.6,156.2,538.4,155.8,538.4,155.8z"/>
	</g>
	<g>
		<path fill="#5B5B5B" d="M537.1,162.8c0,0,0.1,0.2,0.3,0.5c0.1,0.3,0.4,0.6,0.6,1c0.1,0.2,0.2,0.4,0.2,0.6c0.1,0.2,0.1,0.4,0.1,0.6
			c0,0.3,0,0.6,0,0.6s-0.1-0.2-0.3-0.5c-0.1-0.1-0.1-0.3-0.2-0.5c-0.1-0.2-0.2-0.4-0.3-0.5c-0.1-0.2-0.2-0.4-0.2-0.6
			c-0.1-0.2-0.1-0.4-0.1-0.5C537.1,163,537.1,162.8,537.1,162.8z"/>
	</g>
	<g>
		<path fill="#5B5B5B" d="M525.1,147c0,0,0.1,0,0.3,0c0.2,0,0.5,0,0.8,0.1c0.3,0.1,0.7,0.3,1,0.5c0.4,0.2,0.7,0.5,1,0.8
			c0.7,0.5,1.3,1.1,1.9,1.4c0.3,0.2,0.5,0.3,0.7,0.4c0.2,0.1,0.3,0.1,0.3,0.1s-0.1,0-0.3,0c-0.2,0-0.5-0.1-0.8-0.2
			c-0.6-0.2-1.4-0.8-2-1.3c-0.7-0.5-1.3-1.1-1.9-1.4c-0.1-0.1-0.3-0.2-0.4-0.2c-0.1,0-0.2-0.1-0.3-0.1
			C525.2,147,525.1,147,525.1,147z"/>
	</g>
	<g>
		<path fill="#5B5B5B" d="M530.3,146.3c0,0,0.1,0.2,0.1,0.5c0.1,0.3,0.2,0.6,0.3,1c0,0.2,0.1,0.3,0.1,0.5c0.1,0.2,0.1,0.3,0.1,0.4
			c0.1,0.3,0.2,0.4,0.2,0.4c0,0,0,0-0.1-0.1c-0.1-0.1-0.2-0.1-0.3-0.2c-0.2-0.2-0.4-0.6-0.5-1c-0.1-0.4-0.1-0.8-0.1-1.1
			c0-0.2,0.1-0.3,0.1-0.3C530.2,146.4,530.3,146.3,530.3,146.3z"/>
	</g>
</g>
<g id="图层_4">
	<path fill="#565656" stroke="#000000" stroke-width="0.2306" stroke-miterlimit="10" d="M497.4,531.4l0,1.7c0,0,2.4,0.6,8.6,0.3
		c6.2-0.2,9.7-0.2,9.6-0.2c-0.1-0.1-0.1-1.8-0.1-1.8S505.5,523.1,497.4,531.4z"/>
	<path stroke="#000000" stroke-width="0.2306" stroke-miterlimit="10" d="M497.4,531.4c3.9-1.7,5.8-3.1,9.3-3.7c2-0.3,3.5,1,5.1,1.8
		c1.3,0.6,2.2,1.8,3.7,1.9c1.4-8.7-16.5-10.7-18.1-2.6C497.4,528.9,497.2,530.3,497.4,531.4z"/>
	<path fill="#191919" stroke="#000000" stroke-width="0.2306" stroke-miterlimit="10" d="M497.4,532.9c0,0,8.2-7.5,18.2,0.1
		l-0.1-1.5c0,0-9-8.4-18.1,0V532.9z"/>
	<path stroke="#000000" stroke-width="0.2306" stroke-miterlimit="10" d="M498.8,526.2c0,0,2.7-4.5,2.7-5.6c0,0,8.3-2.5,13,0.2
		c0,0-0.5,2.9,0.9,8.2C515.3,529,499.4,525.4,498.8,526.2z"/>
	<g>
		<path fill="#565656" stroke="#000000" stroke-width="0.2306" stroke-miterlimit="10" d="M537.8,531.6l0,1.7c0,0-2.4,0.6-8.6,0.3
			c-6.2-0.2-9.7-0.2-9.6-0.2c0.1-0.1,0.1-1.8,0.1-1.8S529.7,523.3,537.8,531.6z"/>
		<path stroke="#000000" stroke-width="0.2306" stroke-miterlimit="10" d="M537.8,531.6c-3.9-1.7-5.8-3.1-9.3-3.7
			c-2-0.3-3.5,1-5.1,1.8c-1.3,0.6-2.2,1.8-3.7,1.9c-1.4-8.7,16.5-10.7,18.1-2.6C537.8,529.1,538,530.5,537.8,531.6z"/>
		<path fill="#191919" stroke="#000000" stroke-width="0.2306" stroke-miterlimit="10" d="M537.8,533c0,0-8.2-7.5-18.2,0.1l0.1-1.5
			c0,0,9-8.4,18.1,0V533z"/>
		<path stroke="#000000" stroke-width="0.2306" stroke-miterlimit="10" d="M536.4,526.4c0,0-2.7-4.5-2.7-5.6c0,0-8.3-2.5-13,0.2
			c0,0,0.5,2.9-0.9,8.2C519.8,529.2,535.8,525.6,536.4,526.4z"/>
	</g>
</g>
</svg>
