<?xml version="1.0" encoding="utf-8"?>
<!-- Generator: Adobe Illustrator 16.0.0, SVG Export Plug-In . SVG Version: 6.00 Build 0)  -->
<!DOCTYPE svg PUBLIC "-//W3C//DTD SVG 1.1//EN" "http://www.w3.org/Graphics/SVG/1.1/DTD/svg11.dtd">
<svg version="1.1" xmlns="http://www.w3.org/2000/svg" xmlns:xlink="http://www.w3.org/1999/xlink" x="0px" y="0px"
	 width="841.89px" height="595.28px" viewBox="0 0 841.89 595.28" enable-background="new 0 0 841.89 595.28" xml:space="preserve">
<g id="body">
	<path fill="#EAC1B0" stroke="#000000" stroke-width="0.5" stroke-miterlimit="10" d="M405.746,176.36c0,0-0.906,9.157-4.074,12.209
		c-3.168,3.053-18.557,4.361-21.726,4.797s-12.673,3.504-14.483,11.563c-1.81,8.06,1.358,24.63,0,36.404
		c-1.358,11.774-1.81,15.699-2.715,18.315s-2.264,21.804,0,24.855c2.263,3.053,6.789,23.112,5.884,27.909
		c-0.905,4.796-3.621,20.059-0.905,23.547c2.715,3.489,14.151,8.286,15.901,6.978s-1.871-5.669-1.871-5.669s0.905-5.669,0-14.391
		c-0.905-8.721-3.621-9.157-3.621-9.157l1.358-23.548c0,0,0.905-6.977-0.905-17.878c0,0-1.812-4.361-1.358-8.722
		c0.452-4.36,6.457-25.292,6.397-30.089c0,0,6.728,27.473,4.466,47.096c-2.263,19.623-7.242,40.99-0.453,76.312
		s4.527,35.758,4.979,40.118c0.453,4.36-4.074,26.601-2.716,37.502c1.357,10.901,9.505,28.78,9.958,38.374
		c0.452,9.593,0,13.954,0.452,18.314c0.453,4.36,0,8.285-2.264,11.338h15.39c0,0-1.358-0.872,0-7.413
		c1.357-6.541,0.452-3.488,0-9.594c-0.453-6.104-2.716-6.541-2.263-13.954c0.452-7.413,1.435-23.111,2.981-39.682
		c1.545-16.571-2.076-31.397-2.529-35.322c-0.452-3.924,3.557-6.104,2.911-13.518c-0.647-7.413,1.881-43.606,1.881-43.606V172.871
		L405.746,176.36z"/>
	<path fill="#EAC1B0" stroke="#000000" stroke-width="0.5" stroke-miterlimit="10" d="M427.096,176.36c0,0,0.904,9.157,4.074,12.209
		c3.168,3.053,18.557,4.361,21.725,4.797s11.674,3.504,13.484,11.563c1.809,8.06-0.359,24.63,1,36.404
		c1.355,11.774,0,15.699,0.904,18.315s2.262,21.804,0,24.855c-2.264,3.053-4.979,23.112-4.074,27.909
		c0.906,4.796,3.621,20.059,0.906,23.547c-2.717,3.489-14.152,8.286-15.902,6.978s1.871-5.669,1.871-5.669s-0.904-5.669,0-14.391
		c0.906-8.721,3.621-9.157,3.621-9.157l-1.357-23.548c0,0-0.906-6.977,0.904-17.878c0,0,1.811-4.361,1.357-8.722
		s-6.455-25.292-6.396-30.089c0,0-6.729,27.473-4.465,47.096c2.262,19.623,7.242,40.99,0.453,76.312s-4.527,35.758-4.98,40.118
		s4.074,26.601,2.717,37.502c-1.359,10.901-9.506,28.78-9.959,38.374c-0.451,9.593,0,13.954-0.451,18.314
		c-0.453,4.36,0,8.285,2.262,11.338h-15.388c0,0,1.358-0.872,0-7.413c-1.357-6.541-0.452-3.488,0-9.594
		c0.453-6.104,2.716-6.541,2.264-13.954c-0.453-7.413-1.436-23.111-2.981-39.682c-1.545-16.571,2.076-31.397,2.528-35.322
		c0.453-3.924-3.557-6.104-2.91-13.518c0.647-7.413-1.881-43.606-1.881-43.606V172.871L427.096,176.36z"/>
	<polyline fill="#EAC1B0" points="415.808,184.414 417.477,184.285 417.825,193.563 416.232,193.914 414.809,193.641 
		415.808,184.414 	"/>
</g>
<g id="suit">
	<path fill="#FCFCFC" stroke="#000000" stroke-miterlimit="10" d="M418.681,304.333c0,0-33.542-6.815-31.43-14.374
		c2.113-7.56-3.721-58.886-3.624-56.475s-2.689,28.862-3.416,30.907c-0.727,2.045-1.75,5.957-1.415,9.229
		c2.32,22.602-0.661,40.101-0.661,40.101l-10.021,1.556c0,0-0.4-0.796-0.726-3.949c-0.561-5.44-5.283-28.475-5.879-35.341
		c-0.596-6.866,0.184-3.317,1.418-16.897c1.289-14.175,0.991-43.993,2.418-53.574c1.428-9.581,13.253-11.883,16.69-12.397
		c3.437-0.515,10.549-1.479,10.549-1.479l23.484,2.275"/>
	<path fill="#FCFCFC" stroke="#000000" stroke-miterlimit="10" d="M413.378,304.332c0,0,34.397-6.813,32.286-14.373
		c-2.113-7.56,2.865-58.886,2.768-56.475s2.689,28.862,3.416,30.906c0.727,2.046,1.75,5.959,1.414,9.229
		c-2.318,22.602,0.662,40.101,0.662,40.101l10.422,0.76c0,0,0,0,0.324-3.154c0.561-5.439,5.283-28.474,5.879-35.339
		c0.598-6.868-0.182-3.318-1.418-16.897c-1.287-14.176-0.99-43.994-2.418-53.575c-1.428-9.581-13.252-11.883-16.689-12.397
		c-3.438-0.515-10.551-1.479-10.551-1.479l-23.484,2.275"/>
	<g>
		<path fill="#FCFCFC" stroke="#000000" stroke-miterlimit="10" d="M401.672,188.569c0,0,6.612,3.8,14.398,5.345l-8.249,7.451
			c0,0-6.79-3.051-15.235-9.726L401.672,188.569z"/>
		<path fill="#FCFCFC" stroke="#000000" stroke-miterlimit="10" d="M430.629,188.569c0,0-6.611,3.8-14.397,5.345l8.249,7.451
			c0,0,6.789-3.051,15.234-9.726L430.629,188.569z"/>
	</g>
	<rect x="414.578" y="199.626" fill="#FCFCFC" stroke="#000000" stroke-miterlimit="10" width="3.685" height="91.208"/>
	<g>
		<path d="M414.525,195.167c0,0,1.495-1.054,3.815-0.052c0,0,0.694,2.442-0.079,4.191c0,0-1.694,0.72-3.683,0
			C414.578,199.307,413.965,197.155,414.525,195.167z"/>
		<path d="M414.525,195.167c0,0-4.058-2.805-9.636-2.497c0,0-2.694,4.757,0,10.439c0,0,6.147-0.552,9.689-3.803L414.525,195.167z"/>
		<path d="M418.316,195.167c0,0,4.057-2.805,9.635-2.497c0,0,2.695,4.757,0,10.439c0,0-6.147-0.552-9.688-3.803L418.316,195.167z"/>
	</g>
	<g>
		<path stroke="#000000" stroke-width="0.4443" stroke-miterlimit="10" d="M387.251,289.959h29.206v50.033
			c0,0-1.959,40.507-1.918,43.063c0.041,2.557-0.529,6.844-0.987,12.714c-0.905,11.628,1.071,20.562,0.648,36.042
			c-0.443,16.281,0.23,49.411-0.167,53.883h-16.17c0,0-5.358-39.767-7.96-51.183c-2.603-11.416,1.02-32.895,0.718-42.94
			c-0.302-10.047-7.02-53.921-6.416-68.771C384.811,307.95,387.251,289.959,387.251,289.959z"/>
		<path stroke="#000000" stroke-width="0.4443" stroke-miterlimit="10" d="M445.664,289.959h-29.207v50.033
			c0,0,1.959,40.507,1.919,43.063c-0.042,2.557,0.528,6.844,0.986,12.714c0.905,11.628-1.071,20.562-0.649,36.042
			c0.444,16.281-0.229,49.411,0.169,53.883h16.17c0,0,5.355-39.767,7.959-51.183c2.602-11.416-1.02-32.895-0.719-42.94
			c0.303-10.047,7.021-53.921,6.416-68.771C448.104,307.95,445.664,289.959,445.664,289.959z"/>
	</g>
	<polygon fill="#301407" stroke="#000000" stroke-width="0.513" stroke-miterlimit="10" points="400.312,295.485 387.624,295.485 
		388.358,290.834 400.312,290.834 	"/>
	
		<rect x="401.937" y="290.834" fill="#301407" stroke="#000000" stroke-width="0.4787" stroke-miterlimit="10" width="10.411" height="4.651"/>
	<polygon fill="#301407" stroke="#000000" stroke-width="0.513" stroke-miterlimit="10" points="432.645,295.485 445.104,295.485 
		444.598,290.834 432.645,290.834 	"/>
	
		<rect x="420.609" y="290.834" fill="#301407" stroke="#000000" stroke-width="0.4787" stroke-miterlimit="10" width="10.411" height="4.651"/>
	
		<rect x="412.347" y="290.834" fill="#111111" stroke="#000000" stroke-width="0.4787" stroke-miterlimit="10" width="8.262" height="4.651"/>
	
		<rect x="419.739" y="290.834" fill="#474747" stroke="#000000" stroke-width="0.4787" stroke-miterlimit="10" width="0.87" height="4.651"/>
	<ellipse stroke="#000000" stroke-width="0.4443" stroke-miterlimit="10" cx="416.421" cy="211.61" rx="1.056" ry="1.308"/>
	<ellipse stroke="#000000" stroke-width="0.4443" stroke-miterlimit="10" cx="416.458" cy="231.233" rx="1.057" ry="1.308"/>
	<ellipse stroke="#000000" stroke-width="0.4443" stroke-miterlimit="10" cx="416.478" cy="248.965" rx="1.056" ry="1.308"/>
	<ellipse stroke="#000000" stroke-width="0.4443" stroke-miterlimit="10" cx="416.421" cy="265.827" rx="1.056" ry="1.308"/>
	<ellipse stroke="#000000" stroke-width="0.4443" stroke-miterlimit="10" cx="416.421" cy="283.704" rx="1.056" ry="1.308"/>
	<path fill="#FCFCFC" stroke="#000000" stroke-miterlimit="10" d="M371.711,196.607c0,0,10.2,24.347,11.917,36.877"/>
	<path fill="#FCFCFC" stroke="#000000" stroke-miterlimit="10" d="M448.432,233.484c0,0,7.113-30.519,11.918-36.877"/>
	<path fill="#FCFCFC" stroke="#000000" stroke-miterlimit="10" d="M453.055,306.46c0,0,11.809-0.219,12.254,0.544"/>
	<path fill="#FCFCFC" stroke="#000000" stroke-miterlimit="10" d="M366.791,307.249c0,0,10.97-1.851,12.252-1.212"/>
	<ellipse stroke="#000000" stroke-width="0.4443" stroke-miterlimit="10" cx="369.714" cy="310.889" rx="1.056" ry="1.309"/>
	<ellipse stroke="#000000" stroke-width="0.4443" stroke-miterlimit="10" cx="462.123" cy="310.74" rx="1.057" ry="1.308"/>
</g>
<g id="face">
	<g display="none">
		<path display="inline" fill="#CC6E5E" d="M545.117,126.96l-6.902-3.022c0,0-10.086,6.78-12.475,6.628c0,0,3.186,6.547,10.75,6.59
			c7.565,0.042,11.546,0,11.546,0"/>
		<path display="inline" fill="#CC6E5E" d="M545.117,126.96l6.901-3.022c0,0,10.086,6.78,12.476,6.628c0,0-3.186,6.547-10.75,6.59
			c-7.565,0.042-11.547,0-11.547,0"/>
		<g display="inline">
			<path d="M524.28,128.563c0,0,0.111,0.14,0.319,0.403c0.217,0.254,0.529,0.637,0.995,1.05c0.462,0.412,1.1,0.844,1.929,1.069
				c0.826,0.239,1.802,0.286,2.873,0.313c1.072,0.034,2.234,0.07,3.464,0.108c1.228,0.011,2.521,0.023,3.86,0.036
				c0.343,0.014,0.652-0.01,1.03,0.036c0.341,0.039,0.716,0.121,1.042,0.186c0.676,0.141,1.355,0.258,2.046,0.356
				c1.377,0.185,2.804,0.234,4.201,0.115c1.371-0.117,2.713-0.652,4.122-0.942c1.434-0.301,2.847-0.183,4.174-0.206
				c1.34-0.011,2.649,0.112,3.879,0.173c1.237,0.081,2.376,0.233,3.44,0.208c1.064-0.035,2.043-0.107,2.843-0.412
				c0.822-0.283,1.324-0.873,1.725-1.347c0.394-0.485,0.704-0.871,0.943-1.107c0.237-0.238,0.38-0.347,0.38-0.347
				s-0.138,0.116-0.362,0.364c-0.227,0.248-0.516,0.643-0.887,1.149c-0.368,0.487-0.882,1.143-1.723,1.476
				c-0.822,0.358-1.833,0.487-2.905,0.542c-1.081,0.055-2.263-0.069-3.479-0.117c-1.228-0.035-2.509-0.101-3.852-0.089
				c-1.348,0.034-2.734-0.066-4.068,0.234c-1.346,0.283-2.69,0.862-4.187,0.986c-1.453,0.107-2.904,0.043-4.317-0.159
				c-0.703-0.107-1.399-0.234-2.074-0.382c-0.351-0.071-0.646-0.144-0.98-0.186c-0.299-0.047-0.669-0.027-0.995-0.043
				c-1.344-0.042-2.643-0.084-3.874-0.123c-1.228-0.069-2.389-0.134-3.46-0.193c-1.07-0.044-2.076-0.149-2.919-0.436
				c-0.85-0.275-1.485-0.754-1.933-1.192c-0.451-0.441-0.746-0.838-0.951-1.104C524.385,128.709,524.28,128.563,524.28,128.563z"/>
		</g>
	</g>
	<g>
		<path fill="#EDC9B9" stroke="#000000" stroke-width="0.5" stroke-miterlimit="10" d="M397.339,152.647
			c0,0-1.511-3.735-3.191-1.494s0.84,4.084,1.596,6.152c0.756,2.067,0.762,3.654,0.927,4.429c0.165,0.776,1.619,1.502,2.571,1.961
			C400.195,164.153,399.522,152.797,397.339,152.647z"/>
		<path fill="#EDC9B9" stroke="#000000" stroke-width="0.5" stroke-miterlimit="10" d="M434.627,154.441c0,0,3.527-5.23,4.535-3.138
			s-0.359,2.645-0.863,4.139s0.111,1.979-0.842,4.573c-0.955,2.595-2.039,3.693-4.563,4.567
			C429.775,165.664,434.627,154.441,434.627,154.441z"/>
	</g>
	<path fill="#EDC9B9" stroke="#000000" stroke-width="0.5" stroke-miterlimit="10" d="M397.339,151.358
		c0,0,1.288,15.334,3.528,19.249c2.24,3.913,5.857,11.236,9.73,12.895c3.875,1.659,9.25,0.833,11.264-0.71
		c2.016-1.543,7.6-5.769,9.932-13.124c2.33-7.355,3.977-10.183,4.178-16.432c0.201-6.249,0-20.068-2.52-21.477
		s-24.522-4.188-30.485-0.745C397.003,134.457,395.66,145.568,397.339,151.358z"/>
	<path fill="#9B7A64" d="M395.155,132.43c0,0-3.863,8.734-1.007,18.812c0,0,1.847-2.352,3.191,1.68c0,0-0.937-13.912,5.494-19.133
		L395.155,132.43z"/>
	<path fill="#9B7A64" d="M433.451,135.957c0,0,3.746,12.379,2.234,20.105c0,0,2.469-6.5,3.477-4.652c0,0,2.52-8.734,0-20.323
		L433.451,135.957z"/>
	<path fill="#846053" d="M410.992,155.01c0,0-2.755-5.869-9.252,0.097l0.931,0.296"/>
	<path fill="#664735" d="M402.06,145.136c0,0,6.951,1.487,10.731,3.25v1.344c0,0-10.131-2.243-13.128-2.297
		C399.664,147.434,400.902,145.749,402.06,145.136z"/>
	<g>
		<path fill="#231414" d="M409.083,174.992c2.389,0.021,4.78-0.023,7.162-0.157c1.191-0.066,2.377-0.192,3.556-0.338
			c0.588-0.081,1.171-0.184,1.748-0.302c0.288-0.06,0.571-0.141,0.842-0.24c0.264-0.108,0.539-0.228,0.717-0.431l-0.01,0.017
			l0.322-0.678c0.053-0.114,0.1-0.229,0.143-0.347c0.039-0.118,0.076-0.237,0.064-0.355l0.031-0.013
			c0.031,0.135,0.004,0.264-0.02,0.39c-0.029,0.125-0.063,0.249-0.102,0.37c-0.074,0.245-0.17,0.479-0.271,0.714l-0.004,0.008
			l-0.008,0.009c-0.207,0.265-0.494,0.404-0.77,0.539c-0.282,0.123-0.571,0.224-0.863,0.304c-0.583,0.173-1.181,0.265-1.776,0.347
			c-1.192,0.164-2.392,0.207-3.587,0.256c-2.394,0.082-4.786,0.047-7.175-0.059L409.083,174.992z"/>
	</g>
	<path fill="#664735" d="M430.047,145.085c0,0-6.951,1.487-10.731,3.25v1.344c0,0,10.131-2.243,13.127-2.298
		C432.443,147.381,431.205,145.697,430.047,145.085z"/>
	<g display="none">
		<path display="inline" fill="#FCFCFC" d="M407.836,167.425c0.297,0.021,9.558,0.705,9.381,2.281
			c-0.078,0.696,0.294,2.589,0.294,2.589s-9.303,1.27-9.973,0.842C406.869,172.71,407.33,167.391,407.836,167.425z"/>
		<path display="inline" fill="#513C20" d="M413.856,170.921c0,0.394,1.372,0.764,1.167,1.084c-0.423,0.66-1.219,1.105-2.133,1.105
			c-1.356,0-2.455-0.98-2.455-2.189s1.099-2.189,2.455-2.189c0.886,0,1.662,0.418,2.093,1.046
			C415.213,170.11,413.856,170.501,413.856,170.921z"/>
		<path display="inline" d="M413.251,170.806c0,0.395,1.372,0.764,1.167,1.083c-0.423,0.661-1.219,1.106-2.133,1.106
			c-1.356,0-2.455-0.98-2.455-2.189c0-1.208,1.099-2.189,2.455-2.189c0.886,0,1.662,0.418,2.094,1.045
			C414.608,169.995,413.251,170.386,413.251,170.806z"/>
		<path display="inline" fill="#FCFCFC" d="M434.457,167.38c-0.296,0.021-9.559,0.705-9.381,2.281
			c0.077,0.696-0.295,2.589-0.295,2.589s9.304,1.27,9.974,0.842C435.425,172.665,434.964,167.346,434.457,167.38z"/>
		<path display="inline" fill="#513C20" d="M428.437,170.875c0,0.395-1.371,0.765-1.166,1.084c0.423,0.66,1.22,1.105,2.133,1.105
			c1.355,0,2.454-0.979,2.454-2.189c0-1.208-1.099-2.189-2.454-2.189c-0.886,0-1.662,0.418-2.093,1.046
			C427.081,170.064,428.437,170.456,428.437,170.875z"/>
		<path display="inline" d="M429.043,170.76c0,0.394-1.373,0.764-1.168,1.083c0.423,0.661,1.219,1.106,2.133,1.106
			c1.355,0,2.455-0.98,2.455-2.189c0-1.209-1.1-2.189-2.455-2.189c-0.885,0-1.662,0.418-2.093,1.045
			C427.686,169.949,429.043,170.341,429.043,170.76z"/>
	</g>
	<path fill="#FFEDE6" d="M402.67,155.403c0,0,3.607-5.531,8.589-0.076C411.259,155.327,409.244,158.282,402.67,155.403z"/>
	<ellipse fill="#633D2E" cx="406.862" cy="154.789" rx="2.008" ry="1.784"/>
	<polygon fill="#FFFFFF" points="405.669,154.789 407.835,154.176 407.835,155.257 405.669,155.257 	"/>
	<ellipse fill="#110703" cx="407.093" cy="154.793" rx="0.86" ry="0.943"/>
	<g>
		<path fill="#020100" d="M402.567,155.399c0.474-0.707,1.085-1.326,1.797-1.809c0.364-0.231,0.754-0.415,1.165-0.556
			c0.207-0.061,0.422-0.098,0.633-0.147c0.213-0.037,0.432-0.028,0.648-0.043c0.218-0.025,0.431,0.043,0.647,0.061
			c0.219,0.015,0.425,0.081,0.63,0.154c0.201,0.078,0.423,0.111,0.607,0.228l0.574,0.304c0.2,0.088,0.355,0.244,0.534,0.364
			l0.52,0.386l0.923,0.901l0.07,0.068l-0.06,0.081c-0.128,0.175-0.286,0.285-0.43,0.425l-0.495,0.319
			c-0.161,0.115-0.358,0.154-0.535,0.234c-0.184,0.061-0.358,0.162-0.55,0.188l-0.573,0.095c-0.191,0.024-0.381,0.078-0.573,0.078
			l-1.154-0.04c-0.388,0.014-0.753-0.133-1.131-0.192l-0.562-0.12c-0.185-0.048-0.379-0.062-0.555-0.14L402.567,155.399z
			 M402.567,155.399l2.162,0.728c0.178,0.065,0.371,0.079,0.554,0.123l0.557,0.108c0.374,0.051,0.738,0.192,1.118,0.17l1.129,0.02
			c0.188-0.002,0.37-0.059,0.554-0.085l0.552-0.1c0.186-0.028,0.348-0.129,0.523-0.189c0.167-0.079,0.356-0.118,0.504-0.23
			l0.459-0.307c0.125-0.127,0.281-0.245,0.376-0.381l0.01,0.149l-0.9-0.884l-0.499-0.383c-0.171-0.119-0.32-0.275-0.512-0.362
			l-0.549-0.303c-0.177-0.117-0.388-0.149-0.58-0.229c-0.196-0.074-0.393-0.141-0.602-0.158c-0.206-0.02-0.41-0.091-0.619-0.069
			c-0.207,0.012-0.417-0.001-0.623,0.031c-0.204,0.044-0.411,0.076-0.612,0.131c-0.399,0.129-0.782,0.301-1.142,0.521
			C403.715,154.137,403.074,154.717,402.567,155.399z"/>
	</g>
	<path d="M398.346,156.946c0,0,0.168-19.174,2.343-20.301c2.176-1.126,5.025-3.415,8.035-3.058c1.638,0.194,1.363,1.97,4.853,1.449
		c2.453-0.367,2.453-0.367,3.844-1.482c1.111-0.891,4.356-4.161,8.875-2.788c4.52,1.373,7.699,4.565,7.699,8.844
		c0,4.279,0.945,6.762,1.783,7.824c0.838,1.061-0.566,6.585-1.068,9.288c-0.33,1.776,2.5-7.336,4.426-3.481
		c1.574-3.345,0.994-3.579,1.223-4.436c0.67-2.501,2.953-15.827-1.398-21.794c-3.348-4.59-13.279-12.695-17.75-14.625
		c0,0-8.939,2.41-15.571,6.623c-4.014,2.55-10.949,8.451-11.955,15.557c-1.004,7.105-0.358,15.762,0.311,16.728
		S395.334,147.629,398.346,156.946z"/>
	<path fill="#020100" d="M403.46,120.76c0.191-0.415,0.635-1.478,1.028-1.728c0.656-0.417,1.879-0.111,2.625-0.272
		c1.555-0.336,3.16-1.612,4.472-2.5c0.992-0.671,1.931-1.851,3.031-2.219c1.312-0.439,3.162-0.031,4.594-0.031"/>
	<g>
		<path d="M422.43,121.158c0,0,0.248-0.142,0.684-0.389c0.111-0.062,0.221-0.131,0.365-0.204c0.168-0.067,0.348-0.139,0.541-0.215
			c0.387-0.158,0.822-0.319,1.27-0.398c0.225-0.051,0.461-0.104,0.705-0.158c0.242-0.029,0.492-0.06,0.75-0.091
			c0.518-0.079,1.051-0.081,1.604-0.11c1.098-0.024,2.254,0.018,3.385,0.045c1.145,0.014,2.287,0.027,3.359,0.04
			c0.537,0.003,1.066,0.056,1.561,0.089c0.494,0.076,0.963,0.106,1.387,0.223c0.426,0.088,0.811,0.187,1.139,0.318
			c0.332,0.113,0.621,0.212,0.842,0.338c0.447,0.223,0.703,0.351,0.703,0.351s-0.268-0.099-0.736-0.271
			c-0.229-0.099-0.523-0.167-0.859-0.241c-0.332-0.093-0.717-0.147-1.139-0.187c-0.414-0.068-0.879-0.046-1.357-0.068
			c-0.486,0.021-0.994,0.025-1.523,0.08c-1.066,0.104-2.203,0.216-3.34,0.327c-1.15,0.098-2.277,0.181-3.313,0.318
			c-0.51,0.085-1.012,0.141-1.457,0.263c-0.225,0.052-0.445,0.103-0.656,0.152c-0.201,0.07-0.395,0.137-0.58,0.202
			c-0.393,0.113-0.676,0.269-0.922,0.397c-0.127,0.061-0.244,0.118-0.354,0.17c-0.119,0.074-0.234,0.166-0.334,0.236
			c-0.404,0.293-0.637,0.461-0.637,0.461L422.43,121.158z"/>
	</g>
	<g>
		<path d="M428.082,128.504c0,0,0.012-0.053,0.029-0.152c0.01-0.049,0.021-0.111,0.035-0.183c0.012-0.043,0.008-0.059,0.031-0.131
			c0.027-0.076,0.057-0.157,0.088-0.243c0.066-0.162,0.158-0.373,0.258-0.52c0.1-0.121,0.205-0.251,0.32-0.391
			c0.232-0.237,0.502-0.467,0.777-0.667c0.25-0.184,0.521-0.384,0.809-0.595c0.094-0.094,0.242-0.193,0.305-0.287
			c0.119-0.153,0.242-0.31,0.365-0.469c0.504-0.633,1.025-1.316,1.521-2.016c0.246-0.334,0.502-0.72,0.795-1.026
			c0.273-0.32,0.576-0.628,0.857-0.926c0.266-0.297,0.545-0.569,0.76-0.855c0.221-0.293,0.426-0.534,0.563-0.835
			c0.168-0.283,0.242-0.551,0.352-0.789c0.098-0.245,0.182-0.458,0.252-0.634c0.16-0.343,0.252-0.539,0.252-0.539
			s-0.063,0.206-0.17,0.566c-0.045,0.183-0.096,0.406-0.156,0.661c-0.074,0.252-0.121,0.57-0.244,0.865
			c-0.088,0.308-0.283,0.644-0.467,0.969c-0.184,0.336-0.424,0.65-0.65,0.992c-0.229,0.326-0.469,0.65-0.697,1.013
			c-0.248,0.349-0.412,0.715-0.625,1.108c-0.393,0.773-0.813,1.528-1.219,2.228c-0.102,0.176-0.199,0.349-0.295,0.519
			c-0.137,0.243-0.293,0.384-0.439,0.57c-0.273,0.271-0.531,0.526-0.77,0.763c-0.219,0.213-0.373,0.4-0.486,0.555
			c-0.039,0.075-0.078,0.141-0.115,0.2c-0.018,0.046,0.01,0.037-0.006,0.043l-0.02,0.002c-0.008,0.005-0.004,0.071-0.008,0.099
			c-0.004,0.073-0.006,0.136-0.008,0.186c-0.006,0.101-0.008,0.155-0.008,0.155L428.082,128.504z"/>
	</g>
	<g>
		<path d="M412.661,117.666c0,0-0.113-0.071-0.31-0.194c-0.202-0.134-0.469-0.273-0.832-0.545c-0.361-0.254-0.761-0.55-1.144-0.873
			c-0.401-0.318-0.797-0.668-1.206-1.01c-0.805-0.686-1.622-1.34-2.282-1.774c-0.321-0.234-0.62-0.37-0.817-0.494
			c-0.202-0.116-0.318-0.182-0.318-0.182s0.127,0.037,0.35,0.103c0.219,0.074,0.555,0.141,0.926,0.295
			c0.76,0.273,1.74,0.735,2.694,1.219c0.475,0.236,0.948,0.487,1.388,0.691c0.444,0.223,0.845,0.389,1.176,0.522
			c0.313,0.143,0.667,0.238,0.877,0.315c0.221,0.074,0.347,0.116,0.347,0.116L412.661,117.666z"/>
	</g>
	<g>
		<path d="M405.585,121.409c0,0,0.018-0.103,0.048-0.282c0.025-0.169,0.062-0.411,0.105-0.701c0.086-0.597,0.11-1.447,0.34-2.354
			c0.119-0.449,0.324-0.898,0.606-1.24c0.142-0.171,0.293-0.315,0.452-0.429c0.146-0.128,0.317-0.199,0.453-0.286
			c0.296-0.138,0.541-0.233,0.721-0.277c0.175-0.051,0.275-0.08,0.275-0.08s-0.087,0.058-0.238,0.158
			c-0.155,0.092-0.357,0.255-0.577,0.454c-0.095,0.116-0.22,0.216-0.305,0.358c-0.099,0.13-0.179,0.279-0.243,0.436
			c-0.125,0.316-0.167,0.668-0.152,1.035c0.037,0.733,0.248,1.534,0.354,2.169c0.051,0.327,0.093,0.6,0.122,0.79
			c0.024,0.181,0.039,0.284,0.039,0.284L405.585,121.409z"/>
	</g>
	<g>
		<path d="M413.919,118.127c0,0,0.011-0.137,0.03-0.378c0.004-0.105,0.023-0.277,0.063-0.503c0.032-0.218,0.077-0.455,0.154-0.677
			c0.259-0.943,0.917-1.983,1.657-2.839c0.742-0.86,1.525-1.622,2.067-2.238c0.548-0.61,0.861-1.065,0.861-1.065
			s-0.202,0.514-0.605,1.245c-0.396,0.733-0.998,1.672-1.495,2.62c-0.5,0.948-0.812,1.915-0.829,2.602
			c-0.02,0.178-0.007,0.317,0.003,0.433c0.002,0.058,0.005,0.113,0.007,0.164c0.01,0.071,0.02,0.136,0.028,0.195
			c0.036,0.239,0.056,0.375,0.056,0.375L413.919,118.127z"/>
	</g>
	<g>
		<path d="M418.733,115.927c0,0,0.766,0.045,1.914,0.111c0.571,0.024,1.237,0.053,1.951,0.083c0.709,0.021,1.502,0.092,2.27,0.138
			c0.773,0.045,1.555,0.203,2.271,0.292c0.729,0.094,1.379,0.334,1.918,0.417c0.271,0.047,0.52,0.042,0.732-0.017
			c0.225-0.027,0.385-0.16,0.539-0.216c0.27-0.196,0.424-0.308,0.424-0.308s-0.135,0.137-0.373,0.378
			c-0.146,0.083-0.295,0.25-0.533,0.322c-0.221,0.103-0.51,0.156-0.809,0.153c-0.604,0.004-1.256-0.126-1.963-0.1
			c-0.713,0.03-1.455-0.001-2.211,0.079c-0.762,0.08-1.498,0.132-2.221,0.229c-0.718,0.087-1.389,0.168-1.963,0.238
			c-1.145,0.121-1.907,0.201-1.907,0.201L418.733,115.927z"/>
	</g>
	<g>
		<path d="M433.307,124.784c0,0,0.635,0.198,1.609,0.532c0.492,0.173,1.064,0.367,1.664,0.618c0.605,0.224,1.23,0.538,1.855,0.827
			c0.607,0.344,1.221,0.652,1.746,1.041c0.262,0.19,0.533,0.339,0.754,0.542c0.225,0.19,0.438,0.37,0.633,0.537
			c0.4,0.319,0.656,0.671,0.869,0.875c0.199,0.216,0.314,0.339,0.314,0.339s-0.135-0.1-0.373-0.276
			c-0.248-0.162-0.553-0.451-0.996-0.688c-0.217-0.123-0.451-0.256-0.699-0.397c-0.238-0.151-0.531-0.246-0.809-0.378
			c-0.555-0.271-1.195-0.452-1.811-0.665c-0.643-0.161-1.266-0.342-1.879-0.446c-0.602-0.129-1.174-0.21-1.658-0.285
			c-0.982-0.143-1.662-0.223-1.662-0.223L433.307,124.784z"/>
	</g>
	<g>
		<path d="M437.771,133.563c0,0,0.045-0.128,0.123-0.354c0.035-0.108,0.16-0.357,0.275-0.567c0.131-0.256,0.254-0.373,0.396-0.565
			c0.281-0.359,0.623-0.712,0.98-1.083c0.352-0.365,0.748-0.748,1.045-1.118c0.156-0.17,0.299-0.421,0.451-0.636
			c0.15-0.222,0.297-0.439,0.441-0.651c0.293-0.419,0.539-0.817,0.74-1.166c0.418-0.698,0.695-1.163,0.695-1.163
			s-0.166,0.519-0.412,1.297c-0.119,0.396-0.273,0.852-0.461,1.322c-0.092,0.238-0.186,0.483-0.279,0.733
			c-0.104,0.249-0.172,0.499-0.318,0.777c-0.264,0.551-0.561,1.001-0.82,1.441c-0.258,0.431-0.492,0.829-0.641,1.155
			c-0.066,0.153-0.166,0.337-0.156,0.389c-0.014,0.092-0.049,0.088-0.061,0.212c-0.025,0.236-0.039,0.371-0.039,0.371
			L437.771,133.563z"/>
	</g>
	<g>
		<path d="M439.113,140.491c0,0,0.252-0.13,0.633-0.326c0.365-0.196,0.936-0.457,1.463-0.697c0.559-0.208,1.088-0.431,1.52-0.525
			c0.414-0.11,0.691-0.183,0.691-0.183s-0.219,0.184-0.545,0.459c-0.33,0.253-0.711,0.679-1.092,1.067
			c-0.359,0.431-0.693,0.82-0.957,1.176c-0.26,0.34-0.434,0.566-0.434,0.566L439.113,140.491z"/>
	</g>
	<g>
		<path d="M440.801,135.728c0,0,0.088,0.113,0.242,0.31c0.07,0.08,0.184,0.244,0.311,0.448c0.137,0.198,0.25,0.416,0.344,0.646
			c0.213,0.462,0.355,1.023,0.439,1.606c0.086,0.585,0.082,1.192,0.059,1.786c-0.07,1.185-0.275,2.312-0.408,3.158
			c-0.139,0.845-0.201,1.413-0.201,1.413s-0.063-0.569-0.111-1.428c-0.053-0.856-0.102-2.003-0.279-3.091
			c-0.174-1.089-0.539-2.083-0.977-2.627c-0.102-0.15-0.201-0.26-0.285-0.331c-0.074-0.079-0.145-0.154-0.26-0.242
			c-0.193-0.159-0.305-0.25-0.305-0.25L440.801,135.728z"/>
	</g>
	<g>
		<path d="M392.135,129.089c0,0,0.021,0.078,0.057,0.214c0.019,0.068,0.041,0.151,0.065,0.246c0.016,0.101,0.087,0.183,0.134,0.285
			c0.093,0.197,0.237,0.412,0.401,0.652c0.144,0.241,0.368,0.466,0.552,0.702c0.219,0.211,0.438,0.423,0.644,0.622
			c0.181,0.217,0.321,0.442,0.44,0.644c0.11,0.214,0.208,0.383,0.262,0.531c0.062,0.138,0.09,0.235,0.09,0.235l-0.059,0.081
			c0,0-0.095-0.003-0.249-0.04c-0.162-0.026-0.378-0.101-0.599-0.23c-0.231-0.122-0.471-0.302-0.675-0.541
			c-0.206-0.238-0.335-0.563-0.51-0.843c-0.143-0.308-0.313-0.588-0.412-0.893c-0.12-0.285-0.198-0.578-0.229-0.844
			c-0.014-0.127-0.055-0.242-0.039-0.338c0.005-0.098,0.01-0.183,0.013-0.252c0.007-0.141,0.012-0.221,0.012-0.221L392.135,129.089z
			"/>
	</g>
	<g>
		<path d="M400.707,126.236c0,0-0.027-0.081-0.073-0.224c-0.023-0.071-0.052-0.158-0.084-0.257
			c-0.016-0.049-0.034-0.101-0.052-0.155l-0.053-0.092c-0.036-0.066-0.072-0.144-0.112-0.235c-0.054-0.096-0.155-0.21-0.238-0.324
			c-0.162-0.233-0.415-0.481-0.635-0.74c-0.236-0.265-0.471-0.528-0.667-0.813c-0.215-0.256-0.34-0.569-0.465-0.798
			c-0.07-0.112-0.085-0.243-0.117-0.344c-0.026-0.104-0.049-0.193-0.068-0.268c-0.037-0.145-0.057-0.227-0.057-0.227
			s0.05,0.071,0.137,0.194c0.042,0.06,0.094,0.133,0.153,0.216c0.063,0.08,0.11,0.18,0.213,0.258
			c0.194,0.162,0.373,0.367,0.647,0.518c0.245,0.169,0.541,0.322,0.835,0.474c0.304,0.167,0.612,0.296,0.914,0.494
			c0.152,0.098,0.294,0.17,0.441,0.283c0.151,0.127,0.294,0.256,0.424,0.381c0.065,0.063,0.127,0.125,0.186,0.182
			c0.038,0.046,0.074,0.09,0.107,0.131c0.066,0.081,0.124,0.152,0.171,0.21c0.095,0.116,0.149,0.183,0.149,0.183L400.707,126.236z"
			/>
	</g>
	<g>
		<path d="M398.753,127.126c0,0-0.061-0.052-0.167-0.143c-0.053-0.045-0.117-0.1-0.191-0.163c-0.077-0.066-0.109-0.069-0.175-0.118
			c-0.065-0.039-0.116-0.093-0.215-0.144c-0.11-0.048-0.227-0.098-0.348-0.15c-0.241-0.115-0.531-0.176-0.817-0.267
			c-0.289-0.049-0.591-0.137-0.871-0.148c-0.286-0.036-0.553-0.045-0.781-0.026c-0.114,0.009-0.229-0.003-0.316,0.024
			c-0.092,0.02-0.172,0.038-0.239,0.052c-0.137,0.031-0.215,0.049-0.215,0.049s0.065-0.046,0.178-0.126
			c0.059-0.042,0.13-0.091,0.213-0.148c0.082-0.066,0.188-0.096,0.298-0.153c0.224-0.115,0.496-0.219,0.797-0.302
			c0.301-0.109,0.629-0.147,0.966-0.222c0.336-0.032,0.679-0.093,1.012-0.082c0.168,0.002,0.331,0.004,0.485,0.006
			c0.163,0.01,0.349,0.052,0.509,0.082c0.153,0.032,0.337,0.07,0.425,0.1c0.093,0.03,0.174,0.056,0.24,0.078
			c0.133,0.043,0.209,0.067,0.209,0.067L398.753,127.126z"/>
	</g>
	<path stroke="#000000" stroke-width="0.25" stroke-miterlimit="10" d="M395.086,133.924c-1.754,2.059-3.429,5.073-3.665,7.783
		c0.347-1.121,1.396-1.987,2.498-2.45"/>
	<path stroke="#000000" stroke-width="0.25" stroke-miterlimit="10" d="M413.753,115.424c3.092-1.629,5.586-3.454,8.295-5.487
		c1.156,3.825,4.418,5.223,7.371,7.487"/>
	<path stroke="#000000" stroke-width="0.25" stroke-miterlimit="10" d="M423.586,113.591c1.203,1.486,3.617,1.11,5.047,2.463
		c1.418,1.342,3.201,2.879,3.816,4.842c1.432,0.504,3.172,1.626,4.18,2.515c0.424,0.375,1.682,1.237,1.934,1.713
		c0.457,0.865-0.014,2.021,0.229,2.93c0.369,1.38,1.977,2.28,2.43,3.57c0.523,1.493,0.033,4.037,0.033,5.633"/>
	<g display="none">
		<path display="inline" fill="#020100" d="M415.922,169.581c0,0-0.005-0.044-0.014-0.127c-0.004-0.096-0.042-0.17-0.09-0.303
			c-0.113-0.264-0.366-0.623-0.749-0.976c-0.755-0.707-2.065-1.42-3.486-1.45c-0.351-0.02-0.693,0.042-1.026,0.158
			c-0.317,0.126-0.627,0.267-0.916,0.438c-0.585,0.32-1.101,0.675-1.542,0.977c-0.867,0.629-1.444,1.049-1.444,1.049
			s0.567-0.435,1.417-1.087c0.434-0.314,0.941-0.683,1.522-1.021c0.284-0.179,0.599-0.333,0.934-0.474
			c0.325-0.125,0.693-0.2,1.059-0.189c1.467-0.007,2.84,0.689,3.654,1.412c0.413,0.363,0.698,0.738,0.84,1.045
			c0.068,0.155,0.122,0.314,0.123,0.387c0.012,0.083,0.018,0.127,0.018,0.127L415.922,169.581z"/>
	</g>
	<path fill="none" stroke="#020100" stroke-miterlimit="10" d="M402.255,154.716"/>
	<g>
		<path fill="#231414" d="M415.03,160.51c-0.122,1.264-0.286,2.521-0.474,3.774c-0.184,1.254-0.391,2.504-0.62,3.75l-0.146-0.171
			c1.345,0.02,2.689,0.062,4.034,0.147c-1.345,0.085-2.689,0.127-4.034,0.147l-0.171,0.002l0.025-0.174
			c0.184-1.254,0.39-2.504,0.619-3.75C414.491,162.989,414.739,161.746,415.03,160.51z"/>
	</g>
	<g>
		<path fill="#846053" d="M421.26,155.18c0,0,2.755-5.869,9.251,0.097l-0.93,0.296"/>
		<path fill="#FFEDE6" d="M429.582,155.573c0,0-3.607-5.531-8.589-0.076C420.993,155.497,423.008,158.452,429.582,155.573z"/>
		<ellipse fill="#633D2E" cx="425.391" cy="154.959" rx="2.008" ry="1.784"/>
		<polygon fill="#FFFFFF" points="426.582,154.959 424.416,154.346 424.416,155.427 426.582,155.427 		"/>
		<ellipse fill="#110703" cx="425.159" cy="154.963" rx="0.86" ry="0.943"/>
		<g>
			<path fill="#020100" d="M429.686,155.569c-0.508-0.682-1.148-1.262-1.865-1.702c-0.359-0.22-0.742-0.392-1.141-0.521
				c-0.201-0.055-0.408-0.086-0.611-0.131c-0.205-0.032-0.416-0.019-0.623-0.031c-0.209-0.021-0.412,0.05-0.619,0.069
				c-0.209,0.017-0.406,0.084-0.602,0.158c-0.193,0.08-0.404,0.112-0.58,0.229l-0.549,0.303c-0.191,0.087-0.34,0.243-0.512,0.362
				l-0.498,0.383l-0.901,0.884l0.011-0.149c0.095,0.136,0.251,0.253,0.376,0.381l0.459,0.307c0.148,0.112,0.338,0.151,0.504,0.23
				c0.176,0.061,0.338,0.162,0.523,0.189l0.553,0.1c0.184,0.026,0.367,0.083,0.555,0.085l1.129-0.02
				c0.379,0.021,0.744-0.119,1.117-0.17l0.557-0.108c0.184-0.043,0.377-0.057,0.555-0.123L429.686,155.569z M429.686,155.569
				l-2.129,0.838c-0.176,0.078-0.371,0.092-0.557,0.14l-0.561,0.12c-0.379,0.059-0.744,0.206-1.131,0.192l-1.154,0.04
				c-0.193,0-0.383-0.053-0.574-0.078l-0.572-0.095c-0.193-0.026-0.367-0.127-0.551-0.188c-0.178-0.08-0.375-0.119-0.536-0.234
				l-0.495-0.319c-0.144-0.141-0.302-0.25-0.43-0.425l-0.06-0.081l0.07-0.068l0.924-0.901l0.52-0.386
				c0.178-0.12,0.332-0.275,0.533-0.364l0.574-0.304c0.184-0.117,0.406-0.15,0.607-0.228c0.205-0.073,0.41-0.139,0.629-0.154
				c0.217-0.018,0.43-0.086,0.648-0.061c0.215,0.016,0.436,0.006,0.648,0.043c0.211,0.049,0.426,0.086,0.633,0.147
				c0.41,0.141,0.801,0.324,1.164,0.556C428.6,154.243,429.211,154.863,429.686,155.569z"/>
		</g>
		<path fill="none" stroke="#020100" stroke-miterlimit="10" d="M429.996,154.886"/>
	</g>
</g>
<g id="图层_5">
	<g>
		<path fill="#5B5B5B" d="M411.92,128.257c0,0-0.152-0.07-0.417-0.193c-0.265-0.124-0.65-0.268-1.111-0.448
			c-0.463-0.176-1.014-0.349-1.606-0.518c-0.591-0.174-1.229-0.326-1.871-0.449c-1.28-0.235-2.597-0.326-3.539-0.093
			c-0.225,0.081-0.456,0.105-0.626,0.203c-0.173,0.09-0.352,0.136-0.456,0.234c-0.237,0.168-0.373,0.264-0.373,0.264
			s0.114-0.124,0.313-0.341c0.094-0.122,0.262-0.196,0.43-0.322c0.166-0.137,0.395-0.202,0.632-0.308
			c0.487-0.161,1.083-0.295,1.725-0.297c0.643-0.032,1.319,0.061,1.987,0.169c0.663,0.138,1.319,0.303,1.913,0.521
			c0.598,0.205,1.131,0.46,1.584,0.68C411.409,127.818,411.919,128.257,411.92,128.257z"/>
	</g>
	<g>
		<path fill="#5B5B5B" d="M405.253,128.257c0,0,0.085-0.047,0.236-0.117c0.156-0.059,0.359-0.19,0.646-0.249
			c0.283-0.076,0.617-0.165,0.974-0.201c0.358-0.061,0.74-0.058,1.123-0.077c1.527-0.005,3.021,0.31,3.021,0.31
			s-0.378,0.079-0.947,0.123c-0.569,0.043-1.323,0.069-2.07,0.066c-0.371,0.009-0.746-0.002-1.092,0.015
			c-0.352,0.004-0.671,0.008-0.945,0.037c-0.276,0.009-0.518,0.048-0.682,0.068C405.35,128.253,405.253,128.257,405.253,128.257z"/>
	</g>
	<g>
		<path fill="#5B5B5B" d="M426.449,127.135c0,0-2.236-0.686-4.307-1.786c-0.512-0.28-1.026-0.562-1.484-0.87
			c-0.465-0.293-0.867-0.623-1.206-0.907c-0.34-0.288-0.568-0.588-0.721-0.796c-0.128-0.23-0.183-0.363-0.183-0.363
			s0.094,0.11,0.258,0.302c0.181,0.178,0.464,0.393,0.818,0.635c0.715,0.476,1.731,1.017,2.751,1.557
			c1.021,0.535,2.047,1.075,2.813,1.494C425.955,126.818,426.449,127.135,426.449,127.135z"/>
	</g>
	<g>
		<path fill="#5B5B5B" d="M414.463,128.86c0,0,0.199-0.342,0.643-0.727c0.224-0.185,0.482-0.41,0.791-0.604
			c0.302-0.206,0.652-0.381,1.008-0.545c0.366-0.144,0.739-0.279,1.116-0.328c0.368-0.073,0.739-0.03,1.036,0.037
			c0.146,0.061,0.288,0.088,0.382,0.182c0.097,0.084,0.194,0.131,0.236,0.214c0.102,0.146,0.146,0.227,0.146,0.227
			s-0.077-0.056-0.211-0.155c-0.054-0.06-0.161-0.076-0.256-0.121c-0.093-0.053-0.229-0.036-0.35-0.071
			c-0.527-0.038-1.229,0.189-1.903,0.474c-0.674,0.295-1.341,0.637-1.831,0.917c-0.242,0.147-0.45,0.256-0.586,0.351
			C414.543,128.806,414.463,128.86,414.463,128.86z"/>
	</g>
	<g>
		<path fill="#5B5B5B" d="M423.271,126.772c0,0-0.479,0.041-1.189,0.042c-0.177-0.008-0.37-0.065-0.577-0.1
			c-0.206-0.042-0.427-0.083-0.651-0.14c-0.436-0.134-0.875-0.329-1.32-0.513c-0.212-0.11-0.423-0.22-0.631-0.329l-0.307-0.165
			c-0.059-0.035-0.083-0.04-0.168-0.098l-0.13-0.106c-0.344-0.282-0.654-0.559-0.92-0.802c-0.516-0.51-0.826-0.875-0.826-0.875
			s0.414,0.242,0.984,0.643c0.286,0.204,0.646,0.412,1.006,0.668l0.137,0.096c0.008,0.007,0.09,0.042,0.132,0.063l0.31,0.147
			c0.207,0.102,0.418,0.205,0.628,0.309c0.212,0.094,0.424,0.187,0.633,0.279c0.211,0.084,0.41,0.202,0.612,0.268
			c0.403,0.12,0.771,0.288,1.112,0.377C422.807,126.653,423.271,126.772,423.271,126.772z"/>
	</g>
	<g>
		<path fill="#5B5B5B" d="M412.252,126.926c0,0-0.022-0.126-0.062-0.348c-0.034-0.227-0.121-0.517-0.273-0.854
			c-0.134-0.343-0.384-0.697-0.666-1.056c-0.285-0.36-0.641-0.705-1.01-1.036c-0.747-0.655-1.561-1.257-2.167-1.724
			c-0.608-0.465-0.989-0.815-0.989-0.815s0.468,0.214,1.143,0.58c0.672,0.367,1.563,0.893,2.346,1.586
			c0.381,0.356,0.755,0.729,1.03,1.147c0.281,0.41,0.476,0.84,0.578,1.225c0.062,0.188,0.091,0.37,0.096,0.535
			c0.016,0.162,0.025,0.298,0.01,0.409C412.265,126.798,412.252,126.926,412.252,126.926z"/>
	</g>
	<g>
		<path fill="#5B5B5B" d="M406.419,129.926c0,0-0.039,0.03-0.11,0.07c-0.067,0.039-0.181,0.093-0.287,0.16
			c-0.106,0.07-0.213,0.14-0.332,0.242c-0.122,0.085-0.24,0.197-0.363,0.301c-0.235,0.225-0.493,0.452-0.698,0.626
			c-0.208,0.171-0.377,0.267-0.377,0.267s0.039-0.19,0.154-0.438c0.112-0.249,0.307-0.567,0.587-0.826
			c0.153-0.117,0.3-0.241,0.474-0.309c0.156-0.089,0.35-0.104,0.488-0.136c0.141-0.029,0.254,0.018,0.335,0.017
			C406.372,129.913,406.419,129.926,406.419,129.926z"/>
	</g>
	<g>
		<path fill="#5B5B5B" d="M397.752,132.593c0,0-0.05,0.083-0.147,0.218c-0.049,0.067-0.109,0.149-0.177,0.243
			c-0.06,0.098-0.164,0.192-0.214,0.318c-0.06,0.119-0.125,0.249-0.194,0.385c-0.079,0.126-0.119,0.289-0.176,0.447
			c-0.051,0.162-0.125,0.316-0.161,0.494c-0.043,0.174-0.087,0.351-0.131,0.528c-0.15,0.721-0.314,1.47-0.527,2.012
			c-0.08,0.276-0.238,0.479-0.305,0.629c-0.082,0.146-0.134,0.226-0.134,0.226s0.016-0.095,0.043-0.261
			c0.029-0.165,0.088-0.388,0.123-0.667c0.091-0.549,0.148-1.294,0.311-2.047c0.053-0.187,0.105-0.375,0.157-0.559
			c0.041-0.187,0.15-0.355,0.218-0.525c0.127-0.345,0.399-0.611,0.566-0.848c0.081-0.129,0.203-0.184,0.291-0.26
			c0.093-0.07,0.173-0.131,0.24-0.181C397.67,132.645,397.752,132.593,397.752,132.593z"/>
	</g>
	<g>
		<path fill="#5B5B5B" d="M397.585,134.426c0,0,0.021,0.236-0.005,0.575c-0.031,0.34-0.083,0.778-0.163,1.203
			c-0.028,0.211-0.077,0.424-0.095,0.62c-0.03,0.198-0.061,0.382-0.06,0.542c-0.019,0.164-0.008,0.297-0.006,0.397
			c0.001,0.1-0.003,0.163-0.003,0.163s-0.036-0.044-0.089-0.132c-0.042-0.089-0.152-0.216-0.181-0.39
			c-0.046-0.172-0.102-0.378-0.101-0.599c-0.023-0.224,0.021-0.451,0.042-0.684c0.079-0.455,0.24-0.883,0.384-1.19
			C397.452,134.622,397.585,134.426,397.585,134.426z"/>
	</g>
	<g>
		<path fill="#5B5B5B" d="M399.085,131.76c0,0,0.012,0.375-0.029,0.927c-0.033,0.274-0.053,0.599-0.041,0.934
			c0.001,0.337-0.018,0.692-0.033,1.048c0.005,0.728-0.05,1.455-0.1,2.008c-0.053,0.551-0.129,0.917-0.129,0.917
			s-0.085-0.366-0.152-0.914c-0.07-0.545-0.119-1.284-0.118-2.021c0.026-0.375,0.055-0.751,0.098-1.1
			c0.023-0.354,0.125-0.66,0.2-0.924C398.94,132.105,399.085,131.76,399.085,131.76z"/>
	</g>
	<g>
		<path fill="#5B5B5B" d="M434.92,132.426c0,0,0.125,0.256,0.252,0.651c0.127,0.394,0.271,0.924,0.359,1.463
			c0.039,0.557,0.021,1.119-0.014,1.534c-0.035,0.416-0.098,0.686-0.098,0.686s-0.098-0.275-0.184-0.677
			c-0.084-0.402-0.17-0.93-0.197-1.464c-0.094-0.538-0.133-1.084-0.145-1.498C434.887,132.708,434.92,132.426,434.92,132.426z"/>
	</g>
	<g>
		<path fill="#5B5B5B" d="M436.92,134.926c0,0,0.1,0.155,0.191,0.396c0.09,0.241,0.186,0.566,0.225,0.899
			c0.004,0.345-0.049,0.695-0.109,0.951c-0.061,0.257-0.141,0.421-0.141,0.421s-0.08-0.17-0.141-0.416
			c-0.059-0.246-0.109-0.565-0.105-0.89c-0.045-0.332-0.033-0.671-0.006-0.928C436.861,135.103,436.92,134.926,436.92,134.926z"/>
	</g>
	<g>
		<path fill="#5B5B5B" d="M437.42,132.093c0,0,0.08,0.073,0.221,0.202c0.131,0.138,0.342,0.31,0.549,0.561
			c0.189,0.266,0.473,0.546,0.662,0.916c0.096,0.183,0.225,0.359,0.305,0.564c0.08,0.203,0.164,0.41,0.246,0.616
			c0.055,0.215,0.109,0.431,0.164,0.643c0.064,0.21,0.063,0.427,0.094,0.63c0.064,0.41,0.027,0.795,0.037,1.121
			c-0.002,0.326-0.057,0.597-0.068,0.785c-0.027,0.188-0.043,0.296-0.043,0.296s-0.082-0.431-0.17-1.066
			c-0.053-0.315-0.1-0.686-0.189-1.068c-0.066-0.389-0.186-0.787-0.299-1.185c-0.141-0.39-0.283-0.778-0.463-1.127
			c-0.15-0.364-0.352-0.669-0.498-0.954C437.631,132.477,437.42,132.093,437.42,132.093z"/>
	</g>
	<g>
		<path fill="#5B5B5B" d="M436.086,139.093c0,0,0.145,0.175,0.303,0.457c0.145,0.295,0.387,0.634,0.551,1.006
			c0.082,0.197,0.166,0.402,0.227,0.596c0.078,0.187,0.086,0.39,0.098,0.558c0.02,0.338-0.012,0.55-0.012,0.55
			s-0.131-0.199-0.26-0.478c-0.053-0.144-0.133-0.299-0.236-0.469c-0.098-0.17-0.178-0.355-0.268-0.544
			c-0.088-0.201-0.178-0.402-0.242-0.595c-0.08-0.19-0.09-0.379-0.123-0.536C436.078,139.318,436.086,139.093,436.086,139.093z"/>
	</g>
	<g>
		<path fill="#5B5B5B" d="M424.086,123.26c0,0,0.109-0.011,0.301-0.029c0.188,0,0.49,0.024,0.811,0.138
			c0.314,0.122,0.682,0.283,1.027,0.516c0.355,0.222,0.701,0.496,1.045,0.764c0.678,0.547,1.32,1.111,1.861,1.448
			c0.27,0.171,0.502,0.306,0.678,0.376c0.176,0.078,0.277,0.122,0.277,0.122s-0.109-0.005-0.305-0.028
			c-0.189-0.032-0.475-0.08-0.779-0.22c-0.631-0.249-1.373-0.758-2.045-1.308c-0.68-0.545-1.32-1.106-1.875-1.413
			c-0.141-0.06-0.268-0.15-0.385-0.188c-0.117-0.041-0.219-0.098-0.316-0.11C424.193,123.284,424.086,123.26,424.086,123.26z"/>
	</g>
	<g>
		<path fill="#5B5B5B" d="M429.252,122.593c0,0,0.064,0.197,0.135,0.473c0.068,0.263,0.162,0.613,0.256,0.963
			c0.045,0.172,0.092,0.346,0.141,0.505c0.051,0.16,0.078,0.319,0.135,0.442c0.084,0.261,0.176,0.442,0.168,0.45
			c0,0-0.047-0.02-0.121-0.067c-0.068-0.051-0.195-0.113-0.285-0.234c-0.221-0.219-0.412-0.583-0.52-0.968
			c-0.105-0.387-0.104-0.79-0.055-1.092c0.008-0.151,0.076-0.26,0.094-0.344C429.229,122.64,429.252,122.593,429.252,122.593z"/>
	</g>
</g>
<g id="图层_4">
	<path fill="#565656" stroke="#000000" stroke-width="0.2306" stroke-miterlimit="10" d="M396.387,507.721l0.001,1.695
		c0,0,2.379,0.594,8.607,0.344s9.678-0.156,9.575-0.219c-0.103-0.063-0.078-1.82-0.078-1.82S404.515,499.369,396.387,507.721z"/>
	<path stroke="#000000" stroke-width="0.2306" stroke-miterlimit="10" d="M396.387,507.721c3.926-1.711,5.778-3.121,9.321-3.655
		c2.018-0.305,3.532,1.003,5.125,1.77c1.259,0.606,2.24,1.787,3.659,1.886c1.389-8.687-16.451-10.742-18.105-2.555
		C396.387,505.166,396.178,506.624,396.387,507.721z"/>
	<path fill="#191919" stroke="#000000" stroke-width="0.2306" stroke-miterlimit="10" d="M396.387,509.135
		c0,0,8.165-7.5,18.182,0.125l-0.077-1.539c0,0-9.014-8.398-18.105,0V509.135z"/>
	<path stroke="#000000" stroke-width="0.2306" stroke-miterlimit="10" d="M397.787,502.475c0,0,2.652-4.469,2.667-5.592
		c0,0,8.263-2.518,12.986,0.242c0,0-0.477,2.874,0.906,8.151C414.346,505.276,398.409,501.679,397.787,502.475z"/>
	<g>
		<path fill="#565656" stroke="#000000" stroke-width="0.2306" stroke-miterlimit="10" d="M436.795,507.893l-0.002,1.695
			c0,0-2.379,0.594-8.605,0.344c-6.228-0.25-9.678-0.156-9.575-0.219c0.102-0.063,0.077-1.82,0.077-1.82
			S428.666,499.541,436.795,507.893z"/>
		<path stroke="#000000" stroke-width="0.2306" stroke-miterlimit="10" d="M436.795,507.893c-3.926-1.711-5.779-3.121-9.322-3.655
			c-2.016-0.305-3.531,1.003-5.125,1.77c-1.258,0.606-2.239,1.787-3.658,1.886c-1.39-8.687,16.451-10.742,18.105-2.555
			C436.795,505.338,437.004,506.796,436.795,507.893z"/>
		<path fill="#191919" stroke="#000000" stroke-width="0.2306" stroke-miterlimit="10" d="M436.795,509.307
			c0,0-8.164-7.5-18.182,0.125l0.077-1.539c0,0,9.013-8.398,18.105,0V509.307z"/>
		<path stroke="#000000" stroke-width="0.2306" stroke-miterlimit="10" d="M435.395,502.646c0,0-2.652-4.469-2.666-5.592
			c0,0-8.264-2.518-12.987,0.242c0,0,0.477,2.874-0.906,8.151C418.835,505.448,434.771,501.851,435.395,502.646z"/>
	</g>
</g>
</svg>
