<?xml version="1.0" encoding="utf-8"?>
<!-- Generator: Adobe Illustrator 16.0.0, SVG Export Plug-In . SVG Version: 6.00 Build 0)  -->
<!DOCTYPE svg PUBLIC "-//W3C//DTD SVG 1.1//EN" "http://www.w3.org/Graphics/SVG/1.1/DTD/svg11.dtd">
<svg version="1.1" id="图层_1" xmlns="http://www.w3.org/2000/svg" xmlns:xlink="http://www.w3.org/1999/xlink" x="0px" y="0px"
	 width="841.89px" height="595.28px" viewBox="0 0 841.89 595.28" enable-background="new 0 0 841.89 595.28" xml:space="preserve">
<g>
	<path fill="#FFBA48" stroke="#000000" stroke-width="0.25" stroke-miterlimit="10" d="M404.669,183.963
		c0,0-0.521,6.403,0.343,8.403s4.863,5.125,5.363,6.25s-0.75,5.5-1.25,7.375s24.875,2,24.875,0c0,0-1.5-2.25-1.75-7
		c0,0,2.395-2.184,4.465-5.184c0,0,0.59-1.331,1.16-5.566c0.22-1.629,0-4.875,0-4.875"/>
	<path fill="#FFBA48" stroke="#000000" stroke-width="0.25" stroke-miterlimit="10" d="M401.333,174.491
		c-0.771-0.438-3.413-2.334-3.873,0s-0.334,5.667,1.937,8.334s4.127,3.19,5.615,3.241"/>
	<path fill="#FFBA48" stroke="#000000" stroke-width="0.25" stroke-miterlimit="10" d="M442.19,175.105c0,0,1.274-0.717,2.503-0.756
		c0,0,3.424,1.214-0.758,8.267c0,0-2.631,4.434-7.269,4.193"/>
	<polyline fill="#FFBA48" points="442.19,175.105 436.667,175.105 437.972,186.062 	"/>
	<path fill="none" stroke="#000000" stroke-width="0.25" stroke-miterlimit="10" d="M400.182,174.446c0,0-1.893-0.149-1.605,2.862
		c0.396,4.148,2.553,5.262,5.392,5.867"/>
	<path fill="none" stroke="#000000" stroke-width="0.25" stroke-miterlimit="10" d="M437.667,184.157c0,0,2.981,0.997,4.523-2.166
		c1.889-3.875,1.977-4.833,1.503-5.5c-0.498-0.701-2.431-0.5-4.692,0.333"/>
	<path stroke="#000000" stroke-miterlimit="10" d="M407.957,191.687c0,0,5.918,4.053,14.043,3.804s12-3.333,12-3.333
		s1.574-2.073,3.667-8c1-6.667,2.666-7.333,4.333-8.333c0,0,3.001-11,2.667-15.667s-7-11.667-7-11.667S437,150.824,436,153.157
		c0,0-2.55-6.005-7-9.333c0,0-4.667,3-6.667,4.333c0,0-4-6-5.333-6.333c0,0,1.667,4-0.333,6.333s-2,2.333-2,2.333l0,0
		c0,0-0.665-6.791-2.667-8.667c0,0-4.666,3.667-5.333,5L405,143.157c0,0-5.333,7-5.667,11.333c0,0-5.334,16.667,2,20
		c0,0,1.334,2.333,2.334,6.333S407.957,191.687,407.957,191.687z"/>
	<path fill="#1B260E" d="M379.25,237.616c0,0-0.125,1.563,1.938,2.875c0,0,0.026-3.356,0-3.529
		C381,235.741,379.25,237.616,379.25,237.616z"/>
	<path fill="#1A1D08" d="M462.25,237.491c-0.625,1.188-0.563,1.625-1.5,2.563c0,0-0.502-1.661-0.313-2.674L462.25,237.491z"/>
	<path fill="#FFBB48" stroke="#000000" stroke-width="0.25" stroke-miterlimit="10" d="M381.188,236.962
		c0,0-1.188,7.349-1.938,13.939s-1,8.59-1.75,11.34s-1.19,5.363-0.804,11.356c0.963,14.904,0.595,11.394,1.449,17.894
		s1.944,8.351,2.078,11.75c0.121,3.083,0.175,13.25,0.976,14.5c0,0,1.884,1.868,3.968,1c0,0,1.834,1.25,3.667,0.75
		c0,0,3.166,0.563,3.579-1.833c0,0,0.337-1.292-1.246-1.334c-1.054-0.027-1.667-0.334-2-1.166c-0.333-0.834-1-3-0.333-3.334
		c0.667-0.333,1-0.666,1.5-0.666s1.126,3.114,2.079,3.5c0.953,0.385,2.003,1,2.462,0.666c0.459-0.333-0.793-5.129-0.793-5.129
		s-5.063-8.97-5.415-10.954c-0.667-3.753,0.04-11.264,0.334-13.249c0.415-2.806,1.289-4.31,1.333-7.729
		c0.044-3.444-0.166-4.937-0.333-5.771s0.167-5,0.5-7.333s3.785-12.333,4.476-15.833S394.208,230.597,381.188,236.962z"/>
	<path fill="none" stroke="#000000" stroke-width="0.25" stroke-miterlimit="10" d="M379.25,265.326c0,0-1,2.833-0.75,4.75"/>
	<path fill="none" stroke="#000000" stroke-width="0.25" stroke-miterlimit="10" d="M383.083,265.326c0,0,0.666,2.583,0,5.333"/>
	<path fill="none" stroke="#000000" stroke-width="0.25" stroke-miterlimit="10" d="M383.417,315.657c0,0,0.582,0.833,1.666,0.667
		c1.084-0.167,2.167-1.417,3.167-1.25c1,0.166,1.75,2.584-3.083,3.667"/>
	<path fill="none" stroke="#000000" stroke-width="0.25" stroke-miterlimit="10" d="M388.936,316.774c0,0,1.563-0.368,1.647,0.716
		c0.084,1.083-1.749,2.001-1.749,2.001"/>
	<path fill="none" stroke="#000000" stroke-width="0.25" stroke-miterlimit="10" d="M386.667,305.74c0,0-0.5,4.25-2.417,5.916"/>
	<path fill="none" stroke="#000000" stroke-width="0.25" stroke-miterlimit="10" d="M390.334,311.158c0,0-3-0.252-3.667-3.168"/>
	<path fill="#FFBB48" stroke="#000000" stroke-width="0.25" stroke-miterlimit="10" d="M460.429,237.067
		c0,0,1.188,7.349,1.938,13.939s1,8.59,1.75,11.34s1.19,5.363,0.804,11.356c-0.963,14.904-0.595,11.394-1.449,17.894
		s-1.944,8.351-2.078,11.75c-0.121,3.084-0.175,13.25-0.976,14.5c0,0-1.884,1.869-3.968,1c0,0-1.834,1.25-3.667,0.75
		c0,0-3.166,0.563-3.579-1.833c0,0-0.337-1.292,1.246-1.333c1.054-0.027,1.667-0.334,2-1.167s1-2.999,0.333-3.333
		s-1-0.667-1.5-0.667s-1.126,3.114-2.079,3.5s-2.003,1.001-2.462,0.667s0.793-5.129,0.793-5.129s5.063-8.971,5.415-10.955
		c0.667-3.753-0.04-11.263-0.334-13.249c-0.415-2.806-1.289-4.31-1.333-7.729c-0.044-3.444,0.166-4.937,0.333-5.771
		s-0.167-5-0.5-7.333s-3.785-12.333-4.476-15.833S447.408,230.702,460.429,237.067z"/>
	<path fill="none" stroke="#000000" stroke-width="0.25" stroke-miterlimit="10" d="M462.366,265.431c0,0,1,2.833,0.75,4.75"/>
	<path fill="none" stroke="#000000" stroke-width="0.25" stroke-miterlimit="10" d="M458.533,265.431c0,0-0.666,2.583,0,5.333"/>
	<path fill="none" stroke="#000000" stroke-width="0.25" stroke-miterlimit="10" d="M458.199,315.762c0,0-0.582,0.834-1.666,0.667
		s-2.167-1.417-3.167-1.25s-1.75,2.584,3.083,3.667"/>
	<path fill="none" stroke="#000000" stroke-width="0.25" stroke-miterlimit="10" d="M452.681,316.879c0,0-1.563-0.367-1.647,0.716
		s1.749,2.001,1.749,2.001"/>
	<path fill="none" stroke="#000000" stroke-width="0.25" stroke-miterlimit="10" d="M454.949,305.845c0,0,0.5,4.251,2.417,5.917"/>
	<path fill="none" stroke="#000000" stroke-width="0.25" stroke-miterlimit="10" d="M451.282,311.263c0,0,3-0.251,3.667-3.168"/>
	<path fill="#031C1C" stroke="#000000" stroke-width="0.25" stroke-miterlimit="10" d="M397.625,437.241
		c0.75-1.75-2.625,13.125,0.75,14.875s12.625,1,14.5,0.75s3.236-12.222,2-15C411.667,430.658,397.625,437.241,397.625,437.241z"/>
	
		<rect x="404.25" y="435.689" fill="#FFFFFF" stroke="#000000" stroke-width="0.25" stroke-miterlimit="10" width="2.625" height="14.552"/>
	<path fill="#FFFFFF" stroke="#000000" stroke-width="0.25" stroke-miterlimit="10" d="M406.483,453.241c8.221,0,6.803,0,7.71-3
		h-16.999C397.194,450.241,397.063,453.241,406.483,453.241z"/>
	<path fill="#031C1C" stroke="#000000" stroke-width="0.25" stroke-miterlimit="10" d="M443.762,437.571
		c0.431,4.379,2.625,13.125-0.75,14.875s-12.625,1-14.5,0.75s-3.052-12.146-2-15C429.167,430.992,443.762,437.571,443.762,437.571z"
		/>
	
		<rect x="434.512" y="436.02" fill="#FFFFFF" stroke="#000000" stroke-width="0.25" stroke-miterlimit="10" width="2.625" height="14.552"/>
	<path fill="#FFFFFF" stroke="#000000" stroke-width="0.25" stroke-miterlimit="10" d="M434.903,453.571c-8.221,0-6.803,0-7.71-3
		h16.999C444.192,450.571,444.324,453.571,434.903,453.571z"/>
	<path stroke="#000000" stroke-width="0.25" stroke-miterlimit="10" d="M396,298.241c0,0-3.75,22.25-3.5,25s-0.273,17.25-0.012,22.5
		s4.639,32.375,4.512,37.25c0,0-1,3.5-1.25,7.5c0,0,0.131,22.25,1.253,27.125s2.497,11,2.622,12s-3.213,4.5-3.606,6
		s0.002,3.625,0.002,3.625s10.729-6.375,18.854-1.375c0,0,2.625-2.125,2.75-2.875s1.125-11.5,0.75-14.625s-0.75-4-0.75-4.5
		s0.25-20.375,0-22.875s-1.125-7.75-1.125-8.375s1.875-5,2.625-16.25s1.875-33.75,1.875-33.75s-0.25,23.5,1.25,35.75
		s2.375,13.125,2.75,14.5s-1,4.5-1.25,7.25s0.125,19.25,0.25,23.375s-0.875,1.125-1.125,4.125s0.125,14.375,0.875,15.625
		s2.375,2.625,2.375,2.625s12-4.625,18.875,1.375c0,0,0.125-2-0.625-4s-2.875-5.25-2.875-5.25s2-7.375,3-11.875
		s0.508-30.875,0.508-30.875s0.117,0.125-1.008-2.125c0,0,5.125-38.875,5.25-43s-0.125-13.75-0.625-20.5s-3-23.375-3-23.375H396z"/>
	
		<rect x="394.875" y="296.866" fill="#123F3F" stroke="#000000" stroke-width="0.25" stroke-miterlimit="10" width="51.625" height="2.375"/>
	<path fill="#088487" stroke="#000000" stroke-width="0.25" stroke-miterlimit="10" d="M409.125,205.991c0,0-6.625,3.125-9.25,3.75
		s-9.75,4.75-12.375,8s-8.25,17.313-8.25,19.875c0,0,1.625-2.75,13.25,3c0,0,2.125,7,2.625,14s0,41.875-0.25,42.25h51.75
		c0,0-0.875-40.375,0-43.125c0,0,0.5-10.25,2.25-12.875c0,0,8.25-4.25,13.375-3.375c0,0-3.25-11.25-9.125-20.375
		c0,0-2.875-4-10.75-7.25s-3.25-1.5-8.375-3.875S409.125,205.991,409.125,205.991z"/>
</g>
</svg>
