<?xml version="1.0" encoding="utf-8"?>
<!-- Generator: Adobe Illustrator 18.1.1, SVG Export Plug-In . SVG Version: 6.00 Build 0)  -->
<!DOCTYPE svg PUBLIC "-//W3C//DTD SVG 1.1//EN" "http://www.w3.org/Graphics/SVG/1.1/DTD/svg11.dtd">
<svg version="1.1" id="图层_1" xmlns="http://www.w3.org/2000/svg" xmlns:xlink="http://www.w3.org/1999/xlink" x="0px" y="0px"
	 viewBox="477.4 164.8 88.8 312.6" enable-background="new 477.4 164.8 88.8 312.6" xml:space="preserve">
<g>
	<path fill="#FFBA48" stroke="#000000" stroke-width="0.25" stroke-miterlimit="10" d="M505.7,207.7c0,0-0.5,6.4,0.3,8.4
		s4.9,5.1,5.4,6.2s-0.8,5.5-1.2,7.4s24.9,2,24.9,0c0,0-1.5-2.2-1.8-7c0,0,2.4-2.2,4.5-5.2c0,0,0.6-1.3,1.2-5.6c0.2-1.6,0-4.9,0-4.9"
		/>
	<path fill="#FFBA48" stroke="#000000" stroke-width="0.25" stroke-miterlimit="10" d="M502.3,198.2c-0.8-0.4-3.4-2.3-3.9,0
		s-0.3,5.7,1.9,8.3s4.1,3.2,5.6,3.2"/>
	<path fill="#FFBA48" stroke="#000000" stroke-width="0.25" stroke-miterlimit="10" d="M543.2,198.8c0,0,1.3-0.7,2.5-0.8
		c0,0,3.4,1.2-0.8,8.3c0,0-2.6,4.4-7.3,4.2"/>
	<polyline fill="#FFBA48" points="543.2,198.8 537.7,198.8 539,209.8 	"/>
	<path fill="none" stroke="#000000" stroke-width="0.25" stroke-miterlimit="10" d="M501.2,198.2c0,0-1.9-0.1-1.6,2.9
		c0.4,4.1,2.6,5.3,5.4,5.9"/>
	<path fill="none" stroke="#000000" stroke-width="0.25" stroke-miterlimit="10" d="M538.7,207.9c0,0,3,1,4.5-2.2
		c1.9-3.9,2-4.8,1.5-5.5c-0.5-0.7-2.4-0.5-4.7,0.3"/>
	<path stroke="#000000" stroke-miterlimit="10" d="M509,215.4c0,0,5.9,4.1,14,3.8s12-3.3,12-3.3s1.6-2.1,3.7-8
		c1-6.7,2.7-7.3,4.3-8.3c0,0,3-11,2.7-15.7c-0.3-4.7-7-11.7-7-11.7s-0.7,2.3-1.7,4.7c0,0-2.5-6-7-9.3c0,0-4.7,3-6.7,4.3
		c0,0-4-6-5.3-6.3c0,0,1.7,4-0.3,6.3s-2,2.3-2,2.3l0,0c0,0-0.7-6.8-2.7-8.7c0,0-4.7,3.7-5.3,5l-1.7-3.7c0,0-5.3,7-5.7,11.3
		c0,0-5.3,16.7,2,20c0,0,1.3,2.3,2.3,6.3S509,215.4,509,215.4z"/>
	<path fill="#1B260E" d="M480.2,261.3c0,0-0.1,1.6,1.9,2.9c0,0,0-3.4,0-3.5C482,259.5,480.2,261.3,480.2,261.3z"/>
	<path fill="#1A1D08" d="M563.2,261.2c-0.6,1.2-0.6,1.6-1.5,2.6c0,0-0.5-1.7-0.3-2.7L563.2,261.2z"/>
	<path fill="#FFBB48" stroke="#000000" stroke-width="0.25" stroke-miterlimit="10" d="M482.2,260.7c0,0-1.2,7.3-1.9,13.9
		s-1,8.6-1.8,11.3s-1.2,5.4-0.8,11.4c1,14.9,0.6,11.4,1.4,17.9s1.9,8.4,2.1,11.8c0.1,3.1,0.2,13.2,1,14.5c0,0,1.9,1.9,4,1
		c0,0,1.8,1.2,3.7,0.8c0,0,3.2,0.6,3.6-1.8c0,0,0.3-1.3-1.2-1.3c-1.1,0-1.7-0.3-2-1.2c-0.3-0.8-1-3-0.3-3.3c0.7-0.3,1-0.7,1.5-0.7
		s1.1,3.1,2.1,3.5c1,0.4,2,1,2.5,0.7c0.5-0.3-0.8-5.1-0.8-5.1s-5.1-9-5.4-11c-0.7-3.8,0-11.3,0.3-13.2c0.4-2.8,1.3-4.3,1.3-7.7
		c0-3.4-0.2-4.9-0.3-5.8s0.2-5,0.5-7.3s3.8-12.3,4.5-15.8S495.2,254.3,482.2,260.7z"/>
	<path fill="none" stroke="#000000" stroke-width="0.25" stroke-miterlimit="10" d="M480.2,289c0,0-1,2.8-0.8,4.8"/>
	<path fill="none" stroke="#000000" stroke-width="0.25" stroke-miterlimit="10" d="M484.1,289c0,0,0.7,2.6,0,5.3"/>
	<path fill="none" stroke="#000000" stroke-width="0.25" stroke-miterlimit="10" d="M484.4,339.4c0,0,0.6,0.8,1.7,0.7
		c1.1-0.2,2.2-1.4,3.2-1.2c1,0.2,1.8,2.6-3.1,3.7"/>
	<path fill="none" stroke="#000000" stroke-width="0.25" stroke-miterlimit="10" d="M489.9,340.5c0,0,1.6-0.4,1.6,0.7
		c0.1,1.1-1.7,2-1.7,2"/>
	<path fill="none" stroke="#000000" stroke-width="0.25" stroke-miterlimit="10" d="M487.7,329.5c0,0-0.5,4.2-2.4,5.9"/>
	<path fill="none" stroke="#000000" stroke-width="0.25" stroke-miterlimit="10" d="M491.3,334.9c0,0-3-0.3-3.7-3.2"/>
	<path fill="#FFBB48" stroke="#000000" stroke-width="0.25" stroke-miterlimit="10" d="M561.4,260.8c0,0,1.2,7.3,1.9,13.9
		s1,8.6,1.8,11.3s1.2,5.4,0.8,11.4c-1,14.9-0.6,11.4-1.4,17.9s-1.9,8.4-2.1,11.8c-0.1,3.1-0.2,13.2-1,14.5c0,0-1.9,1.9-4,1
		c0,0-1.8,1.2-3.7,0.8c0,0-3.2,0.6-3.6-1.8c0,0-0.3-1.3,1.2-1.3c1.1,0,1.7-0.3,2-1.2s1-3,0.3-3.3s-1-0.7-1.5-0.7s-1.1,3.1-2.1,3.5
		s-2,1-2.5,0.7c-0.5-0.3,0.8-5.1,0.8-5.1s5.1-9,5.4-11c0.7-3.8,0-11.3-0.3-13.2c-0.4-2.8-1.3-4.3-1.3-7.7c0-3.4,0.2-4.9,0.3-5.8
		c0.2-0.8-0.2-5-0.5-7.3s-3.8-12.3-4.5-15.8C546.9,269.7,548.4,254.4,561.4,260.8z"/>
	<path fill="none" stroke="#000000" stroke-width="0.25" stroke-miterlimit="10" d="M563.4,289.2c0,0,1,2.8,0.8,4.8"/>
	<path fill="none" stroke="#000000" stroke-width="0.25" stroke-miterlimit="10" d="M559.5,289.2c0,0-0.7,2.6,0,5.3"/>
	<path fill="none" stroke="#000000" stroke-width="0.25" stroke-miterlimit="10" d="M559.2,339.5c0,0-0.6,0.8-1.7,0.7
		s-2.2-1.4-3.2-1.2s-1.8,2.6,3.1,3.7"/>
	<path fill="none" stroke="#000000" stroke-width="0.25" stroke-miterlimit="10" d="M553.7,340.6c0,0-1.6-0.4-1.6,0.7
		c-0.1,1.1,1.7,2,1.7,2"/>
	<path fill="none" stroke="#000000" stroke-width="0.25" stroke-miterlimit="10" d="M555.9,329.6c0,0,0.5,4.3,2.4,5.9"/>
	<path fill="none" stroke="#000000" stroke-width="0.25" stroke-miterlimit="10" d="M552.3,335c0,0,3-0.3,3.7-3.2"/>
	<path fill="#031C1C" stroke="#000000" stroke-width="0.25" stroke-miterlimit="10" d="M498.6,461c0.8-1.8-2.6,13.1,0.8,14.9
		s12.6,1,14.5,0.8s3.2-12.2,2-15C512.7,454.4,498.6,461,498.6,461z"/>
	
		<rect x="505.2" y="459.4" fill="#FFFFFF" stroke="#000000" stroke-width="0.25" stroke-miterlimit="10" width="2.6" height="14.6"/>
	<path fill="#FFFFFF" stroke="#000000" stroke-width="0.25" stroke-miterlimit="10" d="M507.5,477c8.2,0,6.8,0,7.7-3h-17
		C498.2,474,498.1,477,507.5,477z"/>
	<path fill="#031C1C" stroke="#000000" stroke-width="0.25" stroke-miterlimit="10" d="M544.8,461.3c0.4,4.4,2.6,13.1-0.8,14.9
		s-12.6,1-14.5,0.8s-3.1-12.1-2-15C530.2,454.7,544.8,461.3,544.8,461.3z"/>
	
		<rect x="535.5" y="459.7" fill="#FFFFFF" stroke="#000000" stroke-width="0.25" stroke-miterlimit="10" width="2.6" height="14.6"/>
	<path fill="#FFFFFF" stroke="#000000" stroke-width="0.25" stroke-miterlimit="10" d="M535.9,477.3c-8.2,0-6.8,0-7.7-3h17
		C545.2,474.3,545.3,477.3,535.9,477.3z"/>
	<path stroke="#000000" stroke-width="0.25" stroke-miterlimit="10" d="M497,322c0,0-3.8,22.2-3.5,25s-0.3,17.2,0,22.5
		s4.6,32.4,4.5,37.2c0,0-1,3.5-1.2,7.5c0,0,0.1,22.2,1.3,27.1s2.5,11,2.6,12s-3.2,4.5-3.6,6s0,3.6,0,3.6s10.7-6.4,18.9-1.4
		c0,0,2.6-2.1,2.8-2.9s1.1-11.5,0.8-14.6s-0.8-4-0.8-4.5s0.2-20.4,0-22.9s-1.1-7.8-1.1-8.4s1.9-5,2.6-16.2s1.9-33.8,1.9-33.8
		s-0.2,23.5,1.2,35.8s2.4,13.1,2.8,14.5s-1,4.5-1.2,7.2s0.1,19.2,0.2,23.4s-0.9,1.1-1.1,4.1s0.1,14.4,0.9,15.6s2.4,2.6,2.4,2.6
		s12-4.6,18.9,1.4c0,0,0.1-2-0.6-4s-2.9-5.2-2.9-5.2s2-7.4,3-11.9S546,411,546,411s0.1,0.1-1-2.1c0,0,5.1-38.9,5.2-43
		s-0.1-13.8-0.6-20.5s-3-23.4-3-23.4H497z"/>
	
		<rect x="495.9" y="320.6" fill="#123F3F" stroke="#000000" stroke-width="0.25" stroke-miterlimit="10" width="51.6" height="2.4"/>
	<path fill="#088487" stroke="#000000" stroke-width="0.25" stroke-miterlimit="10" d="M510.1,229.7c0,0-6.6,3.1-9.2,3.8
		s-9.8,4.8-12.4,8s-8.2,17.3-8.2,19.9c0,0,1.6-2.8,13.2,3c0,0,2.1,7,2.6,14s0,41.9-0.2,42.2h51.8c0,0-0.9-40.4,0-43.1
		c0,0,0.5-10.2,2.2-12.9c0,0,8.2-4.2,13.4-3.4c0,0-3.2-11.2-9.1-20.4c0,0-2.9-4-10.8-7.2s-3.2-1.5-8.4-3.9S510.1,229.7,510.1,229.7z
		"/>
</g>
</svg>
