<?xml version="1.0" encoding="utf-8"?>
<!-- Generator: Adobe Illustrator 16.0.0, SVG Export Plug-In . SVG Version: 6.00 Build 0)  -->
<!DOCTYPE svg PUBLIC "-//W3C//DTD SVG 1.1//EN" "http://www.w3.org/Graphics/SVG/1.1/DTD/svg11.dtd">
<svg version="1.1" id="图层_1" xmlns="http://www.w3.org/2000/svg" xmlns:xlink="http://www.w3.org/1999/xlink" x="0px" y="0px"
	 width="841.89px" height="595.28px" viewBox="0 0 841.89 595.28" enable-background="new 0 0 841.89 595.28" xml:space="preserve">
<path fill="#F9D1BB" d="M422.806,290.033c0,0-4.648-9.787-3.688-0.208c0.96,9.579,0.581,20.135-0.032,26.764
	s-0.854,20.258-0.286,25.906c0.569,5.648-0.01,8.84-0.01,8.84c-0.437,4.666-2.017,7-2.595,9.822s1.425,9.465,1.419,14.988
	c-0.007,5.525-1.451,11.174-1.886,14.736c-0.435,3.561-0.889,23.941-0.317,26.643c0.57,2.701,0.86,1.35,1.001,3.07
	c0.141,1.719-0.009,6.875-0.009,6.875c-6.185,10.797-9.185-0.875-9.183-1.98s-1.146-1.965-1.288-3.684
	c-0.142-1.719,1.006-0.613,1.298-4.908c0.292-4.299-2.275-18.672-2.414-22.848c-0.137-4.174-3.142-12.771-4.14-19.893
	c-0.997-7.121,2.758-24.797,2.758-24.797c0.292-5.404-5.994-29.104-9.988-51.05c-3.994-21.945,7.797-39.314,7.797-39.314
	c2.302-3.434,3.307-4.907,4.177-12.519c0.869-7.61-4.422-21.859-4.422-21.859s-0.705,1.366-2.207,13.313
	c-0.646,5.147-0.109,2.153-1.702,14.553c-1.593,12.398-11.535,42.096-11.535,42.096s0.857,4.419-0.581,7.12
	c-1.439,2.699-3.88,4.416-3.88,4.416c-0.432,1.471-3.164,4.416-3.88,3.924c-0.718-0.492,2.016-6.014,2.016-6.014
	c-2.01,0.979-5.317,3.799-5.317,3.799s0.291-0.613,1.581,0.492c1.291,1.107,0.86,1.354,0.86,1.354
	c-0.576,0.738-1.867,0.119-1.867,0.119c-1.723-0.123-2.584-0.492-2.584-0.492c0.143,0.859,1.864,2.58,1.864,2.58
	c0.43,1.598-0.863,1.842-0.863,1.842c-0.43-0.248-3.011-2.707-3.011-2.707c-2.156,1.963-3.017,1.715-3.016,0.98
	c0-0.738,2.013-3.191,2.013-3.191c-0.575-0.494-0.574-1.596-0.574-1.596s2.592-6.75,3.744-8.1c1.148-1.35,3.087-2.453,3.087-2.453
	c2.803-1.838,4.958-3.677,4.958-3.677c0.865-2.762,3.054-33.516,3.707-38.857c0.652-5.338,1.525-5.695,2.594-8.284
	c0.589-1.432,0.583-2.394,1.081-4.787c0.743-3.562,0.248-26.705,1.548-33.149c1.3-6.444,3.669-7.362,6.037-7.911
	c2.37-0.551,12.492-2.564,15.079-5.324c2.586-2.758,3.24-8.836,3.24-8.836l15.416,0.019c0,0,0.639,6.079,3.219,8.843
	c2.58,2.766,12.697,4.804,15.065,5.36c2.367,0.555,4.736,1.478,6.021,7.927c1.283,6.446,0.395,29.651,1.468,33.152
	c0,0,0.169,2.563,1.07,4.789c1.315,3.252,1.935,2.95,2.573,8.291c0.64,5.342,2.757,36.1,3.614,38.865c0,0,2.151,1.844,4.948,3.688
	c0,0,1.936,1.108,3.082,2.46c1.147,1.352,3.723,8.107,3.723,8.107s0,1.104-0.576,1.596c0,0,2.007,2.459,2.006,3.195
	c0,0.736-0.862,0.98-3.013-0.986c0,0-2.587,2.455-3.019,2.699c0,0-1.292-0.246-0.858-1.844c0,0,1.724-1.715,1.87-2.574
	c0,0-0.861,0.365-2.585,0.486c0,0-1.294,0.613-1.866-0.125c0,0-0.431-0.246,0.863-1.35c1.291-1.104,1.58-0.488,1.58-0.488
	s-3.299-2.83-5.307-3.814c0,0,2.721,5.529,2,6.02c-0.716,0.49-3.44-2.459-3.869-3.934c0,0-2.439-1.723-3.871-4.426
	c-1.431-2.701-0.563-7.121-0.563-7.121s-9.872-29.721-11.437-42.122c-1.563-12.403-1.095-10.821-1.688-14.741
	c-1.808-11.919-2.153-13.136-2.153-13.136s-5.327,14.237-4.475,21.849c0.852,7.614,1.853,9.089,4.146,12.528
	c0,0,11.75,17.398,7.705,39.334c-4.047,21.936-10.389,45.624-10.111,51.026c0,0,3.715,17.684,2.7,24.801
	c-1.015,7.123-4.04,15.713-4.187,19.887c-0.148,4.176-2.748,18.541-2.469,22.84c0.283,4.297,1.434,3.195,1.287,4.912
	c-0.145,1.721-1.296,2.576-1.298,3.682c-0.001,1.105-3.028,12.768-9.187,1.959c0,0-0.139-5.156,0.008-6.877
	c0.145-1.721,0.43-0.369,1.007-3.068c0.579-2.699,0.173-23.082-0.253-26.643c-0.428-3.564-1.857-9.213-1.85-14.74
	c0.006-5.523,2.025-12.16,1.453-14.984c-0.571-2.822-2.146-5.162-2.572-9.826c0,0-0.571-3.195,0.01-8.844
	c0.584-5.645,0.373-19.275-0.225-25.906c-0.597-6.629-0.951-17.188,0.033-26.764"/>
<path fill="#140604" stroke="#000000" stroke-width="0.1593" stroke-miterlimit="10" d="M437.69,198.984
	c-7.251-1.356-13.161,0.257-19.757-3.276c-6.357-3.406-14.395-5.667-15.231-26.539c-0.835-20.872,17.918-19.167,17.918-19.167
	s11.387-0.197,15.974,3.982c3.815,3.475,4.036,12.986,3.133,22.595c-1.294,13.787,1.399,19.461,1.115,22.623L437.69,198.984z"/>
<g>
	<path fill="#3D4097" d="M440.938,198.938c0,0,14.788,0.019,14.775,10.319c0,0-10.849,9.629-12.447,14.042
		c-3.586,9.891-3.996,12.892-4.003,16.591c-0.01,9.484,7.453,17.258,10.444,27.129c6.527,21.505-0.146,46.853-4.459,61.795
		c-0.891,3.079-22.558,4.972-22.558,4.972l-2.569-100.358L440.938,198.938z"/>
	<g>
		<path d="M440.938,201.438c6.476,0.063,14.389,2.735,14.769,10.23c0.002-1.637,0.005-3.274,0.007-4.911
			c-6.261,5.584-11.445,10.884-14.147,18.928c-2.044,6.083-2.502,11.759-2.251,18.099c0.22,5.525,3.351,10.737,5.863,15.488
			c3.414,6.458,5.591,12.892,6.628,20.135c2.002,13.979-1.555,28.68-5.208,42.126c-1.07,3.937-1.113,5.588-5.056,6.801
			c-3.962,1.218-8.2,1.705-12.297,2.234c-0.428,0.055-6.553,0.608-6.549,0.793c-0.021-0.805-0.041-1.61-0.062-2.415
			c-0.311-12.125-0.62-24.25-0.931-36.375c-0.525-20.519-1.051-41.037-1.576-61.555c-0.002,1.637-0.004,3.274-0.007,4.911
			C427.062,224.432,434,212.935,440.938,201.438c0.747-1.238-0.727-3.796,0-5c-6.343,10.51-12.687,21.02-19.029,31.53
			c-1.813,3.003-1.884,4.337-1.79,7.988c0.076,2.985,0.152,5.97,0.229,8.956c0.725,28.336,1.451,56.672,2.176,85.009
			c0.054,2.092,0.106,4.184,0.16,6.276c0.002,0.029,0.005,0.06,0.007,0.089c5.466-0.485,10.944-1.176,16.313-2.314
			c1.741-0.369,5.337-0.825,6.244-2.657c2.065-4.169,2.729-9.879,3.771-14.392c4.214-18.272,6.36-40.848-1.684-58.395
			c-2.366-5.161-5.448-9.902-7.196-15.34c-1.033-3.216-0.644-5.518,0.611-9.903c1.256-4.394,2.583-8.404,5.479-11.959
			c2.421-2.97,5.241-5.642,8.038-8.25c2.633-2.456,1.86-7.888,0.205-10.911c-2.383-4.35-8.998-5.682-13.535-5.727
			C440.917,196.438,440.885,201.438,440.938,201.438z"/>
	</g>
</g>
<g>
	<path fill="#3D4097" d="M403.717,198.944c0,0-15.761-0.019-15.775,10.28c0,0,11.539,9.653,13.231,14.067
		c3.797,9.897,4.227,12.9,4.225,16.598c-0.012,9.481-7.98,17.234-11.2,27.096c-7.003,21.482,0.044,46.844,4.604,61.791
		c0.939,3.08,24.303,5.026,24.303,5.026l2.713-100.326L403.717,198.944z"/>
	<g>
		<path d="M403.717,196.444c-4.949,0.032-10.633,1.294-14.023,5.121c-2.291,2.586-3.005,9.058-0.336,11.375
			c2.837,2.461,5.572,5.042,8.137,7.785c3.424,3.664,4.815,7.825,6.341,12.557c0.512,1.587,0.916,3.203,1.228,4.84
			c0.176,0.926,0.25,1.871,0.303,2.809c-0.133-2.38-0.803,1.877-0.828,1.971c-1.517,5.673-5.27,10.727-7.939,15.889
			c-9,17.401-5.848,41.356-1.424,59.546c1.017,4.18,1.8,9.345,3.757,13.193c0.94,1.851,5.805,2.262,7.504,2.601
			c5.482,1.096,11.1,1.701,16.669,2.172c0.002-0.029,0.004-0.06,0.006-0.089c0.664-24.575,1.33-49.149,1.994-73.724
			c0.24-8.863,0.479-17.727,0.719-26.59c0.115-4.278-0.268-5.333-2.514-8.842c-4.074-6.366-8.148-12.731-12.222-19.097
			C408.631,204.122,406.174,200.283,403.717,196.444c0.745,1.165-0.767,3.801,0,5c7.367,11.511,14.734,23.022,22.101,34.533
			c-0.002-1.637-0.006-3.274-0.008-4.911c-0.664,24.574-1.328,49.149-1.992,73.723c-0.24,8.863-0.48,17.727-0.719,26.59
			c-0.002,0.034-17.062-2.319-18.461-2.62c-2.546-0.546-5.359-0.914-6.182-3.623c-1.781-5.862-3.364-11.776-4.647-17.769
			c-2.902-13.563-3.801-27.672,1.485-40.781c3.608-8.95,10.101-15.932,10.128-26.033c0.02-7.103-1.717-13.08-4.249-19.763
			c-2.104-5.555-8.807-10.349-13.231-14.067c0.002,1.637,0.004,3.274,0.007,4.911c0.425-7.768,9.225-10.148,15.769-10.191
			C403.766,201.443,403.744,196.444,403.717,196.444z"/>
	</g>
</g>
<g>
	<path fill="#141414" d="M416.086,429.551c0,0-3.135,5.575-3.139,9.067c-0.004,3.491,1.448,4.424,2.174,4.19
		c0.725-0.231,1.362-0.774,1.362-0.774v0.81c0,0-4.27,3.986-12.158-0.014c0,0,0.457-5.081,0.917-9.966
		C405.413,431.061,410.236,425.443,416.086,429.551z"/>
	<path fill="#673632" stroke="#000000" stroke-width="0.042" stroke-miterlimit="10" d="M416.086,429.551
		c0,0-0.325,10.775,0.397,12.483c0,0-0.596,2.32-3.541,0.928C409.999,441.564,413.769,429.636,416.086,429.551z"/>
	<path fill="#B60503" d="M411.703,418.128l-1.904-0.001c0,0-2.536,3.896-3.718,5.447c-1.182,1.552-1.284,2.149-1.287,4.554
		c-0.003,2.407,0.177,4.039,0.448,4.736c0,0,2.544-2.481,4.083,1.865c0.748,2.116,0.711,11.178,0.711,11.178h1.635
		c0,0-0.356-7.986,0.013-11.097c0.184-1.552,2.825-2.213,3.825-3.996c1-1.784,1.405-3.901,0.449-6.009
		C415.383,423.541,412.066,418.746,411.703,418.128z"/>
	<polygon fill="#141414" points="411.621,444.612 410.031,444.57 410.035,445.907 411.67,445.907 	"/>
</g>
<g>
	<path fill="#141414" d="M423.752,429.562c0,0,3.12,5.581,3.115,9.073c-0.004,3.491-1.454,4.417-2.183,4.187
		c-0.726-0.233-1.36-0.776-1.36-0.776l-0.001,0.808c0,0,4.262,3.997,12.159,0.014c0,0-0.449-5.078-0.895-9.968
		C434.422,431.093,429.611,425.465,423.752,429.562z"/>
	<path fill="#673632" stroke="#000000" stroke-width="0.042" stroke-miterlimit="10" d="M423.752,429.562
		c0,0,0.3,10.774-0.428,12.483c0,0,0.592,2.318,3.539,0.933C429.81,441.59,426.07,429.651,423.752,429.562z"/>
	<path fill="#B60503" d="M428.162,418.146l1.904,0.001c0,0,2.526,3.907,3.705,5.458c1.18,1.554,1.277,2.155,1.273,4.561
		c-0.002,2.406-0.186,4.034-0.457,4.732c0,0-2.537-2.485-4.086,1.86c-0.752,2.109-0.74,11.173-0.74,11.173l-1.633-0.001
		c0,0,0.375-7.985,0.014-11.101c-0.178-1.551-2.819-2.223-3.813-4.008c-0.997-1.784-1.399-3.902-0.438-6.006
		C424.467,423.552,427.799,418.765,428.162,418.146z"/>
	<polygon fill="#141414" points="428.183,444.63 429.773,444.592 429.762,445.932 428.129,445.931 	"/>
</g>
</svg>
