<?xml version="1.0" encoding="utf-8"?>
<!-- Generator: Adobe Illustrator 18.1.1, SVG Export Plug-In . SVG Version: 6.00 Build 0)  -->
<!DOCTYPE svg PUBLIC "-//W3C//DTD SVG 1.1//EN" "http://www.w3.org/Graphics/SVG/1.1/DTD/svg11.dtd">
<svg version="1.1" id="图层_1" xmlns="http://www.w3.org/2000/svg" xmlns:xlink="http://www.w3.org/1999/xlink" x="0px" y="0px"
	 viewBox="467.9 173.6 108.1 296" enable-background="new 467.9 173.6 108.1 296" xml:space="preserve">
<path fill="#F9D1BB" d="M523.8,313.8c0,0-4.6-9.8-3.7-0.2c1,9.6,0.6,20.1,0,26.8c-0.6,6.6-0.9,20.3-0.3,25.9c0.6,5.6,0,8.8,0,8.8
	c-0.4,4.7-2,7-2.6,9.8s1.4,9.5,1.4,15c0,5.5-1.5,11.2-1.9,14.7c-0.4,3.6-0.9,23.9-0.3,26.6c0.6,2.7,0.9,1.4,1,3.1
	c0.1,1.7,0,6.9,0,6.9c-6.2,10.8-9.2-0.9-9.2-2s-1.1-2-1.3-3.7s1-0.6,1.3-4.9c0.3-4.3-2.3-18.7-2.4-22.8c-0.1-4.2-3.1-12.8-4.1-19.9
	c-1-7.1,2.8-24.8,2.8-24.8c0.3-5.4-6-29.1-10-51c-4-21.9,7.8-39.3,7.8-39.3c2.3-3.4,3.3-4.9,4.2-12.5c0.9-7.6-4.4-21.9-4.4-21.9
	s-0.7,1.4-2.2,13.3c-0.6,5.1-0.1,2.2-1.7,14.6c-1.6,12.4-11.5,42.1-11.5,42.1s0.9,4.4-0.6,7.1c-1.4,2.7-3.9,4.4-3.9,4.4
	c-0.4,1.5-3.2,4.4-3.9,3.9c-0.7-0.5,2-6,2-6c-2,1-5.3,3.8-5.3,3.8s0.3-0.6,1.6,0.5c1.3,1.1,0.9,1.4,0.9,1.4
	c-0.6,0.7-1.9,0.1-1.9,0.1c-1.7-0.1-2.6-0.5-2.6-0.5c0.1,0.9,1.9,2.6,1.9,2.6c0.4,1.6-0.9,1.8-0.9,1.8c-0.4-0.2-3-2.7-3-2.7
	c-2.2,2-3,1.7-3,1c0-0.7,2-3.2,2-3.2c-0.6-0.5-0.6-1.6-0.6-1.6s2.6-6.8,3.7-8.1c1.1-1.4,3.1-2.5,3.1-2.5c2.8-1.8,5-3.7,5-3.7
	c0.9-2.8,3.1-33.5,3.7-38.9c0.7-5.3,1.5-5.7,2.6-8.3c0.6-1.4,0.6-2.4,1.1-4.8c0.7-3.6,0.2-26.7,1.5-33.1c1.3-6.4,3.7-7.4,6-7.9
	c2.4-0.6,12.5-2.6,15.1-5.3c2.6-2.8,3.2-8.8,3.2-8.8l15.4,0c0,0,0.6,6.1,3.2,8.8c2.6,2.8,12.7,4.8,15.1,5.4c2.4,0.6,4.7,1.5,6,7.9
	c1.3,6.4,0.4,29.7,1.5,33.2c0,0,0.2,2.6,1.1,4.8c1.3,3.3,1.9,2.9,2.6,8.3c0.6,5.3,2.8,36.1,3.6,38.9c0,0,2.2,1.8,4.9,3.7
	c0,0,1.9,1.1,3.1,2.5c1.1,1.4,3.7,8.1,3.7,8.1s0,1.1-0.6,1.6c0,0,2,2.5,2,3.2c0,0.7-0.9,1-3-1c0,0-2.6,2.5-3,2.7
	c0,0-1.3-0.2-0.9-1.8c0,0,1.7-1.7,1.9-2.6c0,0-0.9,0.4-2.6,0.5c0,0-1.3,0.6-1.9-0.1c0,0-0.4-0.2,0.9-1.4c1.3-1.1,1.6-0.5,1.6-0.5
	s-3.3-2.8-5.3-3.8c0,0,2.7,5.5,2,6c-0.7,0.5-3.4-2.5-3.9-3.9c0,0-2.4-1.7-3.9-4.4c-1.4-2.7-0.6-7.1-0.6-7.1s-9.9-29.7-11.4-42.1
	c-1.6-12.4-1.1-10.8-1.7-14.7c-1.8-11.9-2.2-13.1-2.2-13.1s-5.3,14.2-4.5,21.8c0.9,7.6,1.9,9.1,4.1,12.5c0,0,11.8,17.4,7.7,39.3
	c-4,21.9-10.4,45.6-10.1,51c0,0,3.7,17.7,2.7,24.8c-1,7.1-4,15.7-4.2,19.9c-0.1,4.2-2.7,18.5-2.5,22.8c0.3,4.3,1.4,3.2,1.3,4.9
	c-0.1,1.7-1.3,2.6-1.3,3.7c0,1.1-3,12.8-9.2,2c0,0-0.1-5.2,0-6.9c0.1-1.7,0.4-0.4,1-3.1c0.6-2.7,0.2-23.1-0.3-26.6
	c-0.4-3.6-1.9-9.2-1.9-14.7c0-5.5,2-12.2,1.5-15c-0.6-2.8-2.1-5.2-2.6-9.8c0,0-0.6-3.2,0-8.8c0.6-5.6,0.4-19.3-0.2-25.9
	c-0.6-6.6-1-17.2,0-26.8"/>
<path fill="#140604" stroke="#000000" stroke-width="0.1593" stroke-miterlimit="10" d="M538.7,222.7c-7.3-1.4-13.2,0.3-19.8-3.3
	c-6.4-3.4-14.4-5.7-15.2-26.5c-0.8-20.9,17.9-19.2,17.9-19.2s11.4-0.2,16,4c3.8,3.5,4,13,3.1,22.6c-1.3,13.8,1.4,19.5,1.1,22.6
	L538.7,222.7z"/>
<g>
	<path fill="#3D4097" d="M541.9,222.7c0,0,14.8,0,14.8,10.3c0,0-10.8,9.6-12.4,14c-3.6,9.9-4,12.9-4,16.6c0,9.5,7.5,17.3,10.4,27.1
		c6.5,21.5-0.1,46.9-4.5,61.8c-0.9,3.1-22.6,5-22.6,5l-2.6-100.4L541.9,222.7z"/>
	<g>
		<path d="M541.9,225.2c6.5,0.1,14.4,2.7,14.8,10.2c0-1.6,0-3.3,0-4.9c-6.3,5.6-11.4,10.9-14.1,18.9c-2,6.1-2.5,11.8-2.3,18.1
			c0.2,5.5,3.4,10.7,5.9,15.5c3.4,6.5,5.6,12.9,6.6,20.1c2,14-1.6,28.7-5.2,42.1c-1.1,3.9-1.1,5.6-5.1,6.8c-4,1.2-8.2,1.7-12.3,2.2
			c-0.4,0.1-6.6,0.6-6.5,0.8c0-0.8,0-1.6-0.1-2.4c-0.3-12.1-0.6-24.2-0.9-36.4c-0.5-20.5-1.1-41-1.6-61.6c0,1.6,0,3.3,0,4.9
			C528.1,248.2,535,236.7,541.9,225.2c0.7-1.2-0.7-3.8,0-5c-6.3,10.5-12.7,21-19,31.5c-1.8,3-1.9,4.3-1.8,8c0.1,3,0.2,6,0.2,9
			c0.7,28.3,1.5,56.7,2.2,85c0.1,2.1,0.1,4.2,0.2,6.3c0,0,0,0.1,0,0.1c5.5-0.5,10.9-1.2,16.3-2.3c1.7-0.4,5.3-0.8,6.2-2.7
			c2.1-4.2,2.7-9.9,3.8-14.4c4.2-18.3,6.4-40.8-1.7-58.4c-2.4-5.2-5.4-9.9-7.2-15.3c-1-3.2-0.6-5.5,0.6-9.9c1.3-4.4,2.6-8.4,5.5-12
			c2.4-3,5.2-5.6,8-8.2c2.6-2.5,1.9-7.9,0.2-10.9c-2.4-4.4-9-5.7-13.5-5.7C541.9,220.2,541.9,225.2,541.9,225.2z"/>
	</g>
</g>
<g>
	<path fill="#3D4097" d="M504.7,222.7c0,0-15.8,0-15.8,10.3c0,0,11.5,9.7,13.2,14.1c3.8,9.9,4.2,12.9,4.2,16.6
		c0,9.5-8,17.2-11.2,27.1c-7,21.5,0,46.8,4.6,61.8c0.9,3.1,24.3,5,24.3,5l2.7-100.3L504.7,222.7z"/>
	<g>
		<path d="M504.7,220.2c-4.9,0-10.6,1.3-14,5.1c-2.3,2.6-3,9.1-0.3,11.4c2.8,2.5,5.6,5,8.1,7.8c3.4,3.7,4.8,7.8,6.3,12.6
			c0.5,1.6,0.9,3.2,1.2,4.8c0.2,0.9,0.2,1.9,0.3,2.8c-0.1-2.4-0.8,1.9-0.8,2c-1.5,5.7-5.3,10.7-7.9,15.9c-9,17.4-5.8,41.4-1.4,59.5
			c1,4.2,1.8,9.3,3.8,13.2c0.9,1.9,5.8,2.3,7.5,2.6c5.5,1.1,11.1,1.7,16.7,2.2c0,0,0-0.1,0-0.1c0.7-24.6,1.3-49.1,2-73.7
			c0.2-8.9,0.5-17.7,0.7-26.6c0.1-4.3-0.3-5.3-2.5-8.8c-4.1-6.4-8.1-12.7-12.2-19.1C509.6,227.8,507.2,224,504.7,220.2
			c0.7,1.2-0.8,3.8,0,5c7.4,11.5,14.7,23,22.1,34.5c0-1.6,0-3.3,0-4.9c-0.7,24.6-1.3,49.1-2,73.7c-0.2,8.9-0.5,17.7-0.7,26.6
			c0,0-17.1-2.3-18.5-2.6c-2.5-0.5-5.4-0.9-6.2-3.6c-1.8-5.9-3.4-11.8-4.6-17.8c-2.9-13.6-3.8-27.7,1.5-40.8
			c3.6-9,10.1-15.9,10.1-26c0-7.1-1.7-13.1-4.2-19.8c-2.1-5.6-8.8-10.3-13.2-14.1c0,1.6,0,3.3,0,4.9c0.4-7.8,9.2-10.1,15.8-10.2
			C504.8,225.2,504.7,220.2,504.7,220.2z"/>
	</g>
</g>
<g>
	<path fill="#141414" d="M517.1,453.3c0,0-3.1,5.6-3.1,9.1c0,3.5,1.4,4.4,2.2,4.2c0.7-0.2,1.4-0.8,1.4-0.8v0.8c0,0-4.3,4-12.2,0
		c0,0,0.5-5.1,0.9-10C506.4,454.8,511.2,449.2,517.1,453.3z"/>
	<path fill="#673632" stroke="#000000" stroke-width="4.200000e-02" stroke-miterlimit="10" d="M517.1,453.3c0,0-0.3,10.8,0.4,12.5
		c0,0-0.6,2.3-3.5,0.9C511,465.3,514.8,453.4,517.1,453.3z"/>
	<path fill="#B60503" d="M512.7,441.8l-1.9,0c0,0-2.5,3.9-3.7,5.4c-1.2,1.6-1.3,2.1-1.3,4.6c0,2.4,0.2,4,0.4,4.7
		c0,0,2.5-2.5,4.1,1.9c0.7,2.1,0.7,11.2,0.7,11.2h1.6c0,0-0.4-8,0-11.1c0.2-1.6,2.8-2.2,3.8-4c1-1.8,1.4-3.9,0.4-6
		C516.4,447.3,513.1,442.5,512.7,441.8z"/>
	<polygon fill="#141414" points="512.6,468.3 511,468.3 511,469.6 512.7,469.6 	"/>
</g>
<g>
	<path fill="#141414" d="M524.8,453.3c0,0,3.1,5.6,3.1,9.1c0,3.5-1.5,4.4-2.2,4.2c-0.7-0.2-1.4-0.8-1.4-0.8l0,0.8c0,0,4.3,4,12.2,0
		c0,0-0.4-5.1-0.9-10C535.4,454.8,530.6,449.2,524.8,453.3z"/>
	<path fill="#673632" stroke="#000000" stroke-width="4.200000e-02" stroke-miterlimit="10" d="M524.8,453.3c0,0,0.3,10.8-0.4,12.5
		c0,0,0.6,2.3,3.5,0.9C530.8,465.3,527.1,453.4,524.8,453.3z"/>
	<path fill="#B60503" d="M529.2,441.9l1.9,0c0,0,2.5,3.9,3.7,5.5c1.2,1.6,1.3,2.2,1.3,4.6c0,2.4-0.2,4-0.5,4.7c0,0-2.5-2.5-4.1,1.9
		c-0.8,2.1-0.7,11.2-0.7,11.2l-1.6,0c0,0,0.4-8,0-11.1c-0.2-1.6-2.8-2.2-3.8-4c-1-1.8-1.4-3.9-0.4-6
		C525.5,447.3,528.8,442.5,529.2,441.9z"/>
	<polygon fill="#141414" points="529.2,468.3 530.8,468.3 530.8,469.7 529.1,469.7 	"/>
</g>
</svg>
