<?xml version="1.0" encoding="utf-8"?>
<!-- Generator: Adobe Illustrator 16.0.0, SVG Export Plug-In . SVG Version: 6.00 Build 0)  -->
<!DOCTYPE svg PUBLIC "-//W3C//DTD SVG 1.1//EN" "http://www.w3.org/Graphics/SVG/1.1/DTD/svg11.dtd">
<svg version="1.1" id="图层_1" xmlns="http://www.w3.org/2000/svg" xmlns:xlink="http://www.w3.org/1999/xlink" x="0px" y="0px"
	 width="595.28px" height="841.89px" viewBox="0 0 595.28 841.89" enable-background="new 0 0 595.28 841.89" xml:space="preserve">
<g>
	<path fill="#EFB291" d="M299.514,420.196c0,0-4.648-9.787-3.688-0.209c0.96,9.578,0.581,20.135-0.032,26.764
		c-0.613,6.63-0.854,20.258-0.286,25.906s-0.01,8.84-0.01,8.84c-0.438,4.666-2.018,7-2.596,9.822s1.426,9.465,1.42,14.988
		c-0.008,5.525-1.451,11.174-1.887,14.736c-0.436,3.561-0.889,23.941-0.316,26.643c0.57,2.701,0.859,1.35,1,3.071
		c0.142,1.719-0.009,6.875-0.009,6.875c-6.185,10.797-9.185-0.875-9.183-1.981c0.001-1.105-1.146-1.964-1.289-3.683
		c-0.142-1.719,1.007-0.614,1.299-4.909c0.291-4.298-2.275-18.671-2.414-22.847c-0.137-4.174-3.142-12.772-4.14-19.894
		c-0.997-7.121,2.758-24.797,2.758-24.797c0.292-5.403-5.994-29.104-9.987-51.05c-3.994-21.944,7.797-39.314,7.797-39.314
		c2.303-3.434,3.307-4.907,4.177-12.52c0.869-7.609-4.422-21.858-4.422-21.858s-0.705,1.366-2.207,13.313
		c-0.646,5.146-0.108,2.153-1.702,14.553c-1.594,12.398-11.535,42.097-11.535,42.097s0.857,4.42-0.58,7.119
		c-1.439,2.699-3.881,4.416-3.881,4.416c-0.432,1.472-3.164,4.416-3.881,3.924c-0.718-0.491,2.016-6.014,2.016-6.014
		c-2.01,0.979-5.316,3.799-5.316,3.799s0.291-0.613,1.58,0.493c1.291,1.106,0.86,1.353,0.86,1.353
		c-0.575,0.738-1.866,0.119-1.866,0.119c-1.724-0.123-2.584-0.492-2.584-0.492c0.143,0.859,1.863,2.58,1.863,2.58
		c0.43,1.598-0.863,1.842-0.863,1.842c-0.43-0.247-3.011-2.707-3.011-2.707c-2.156,1.963-3.017,1.716-3.017,0.98
		c0.001-0.738,2.014-3.19,2.014-3.19c-0.576-0.494-0.574-1.597-0.574-1.597s2.592-6.75,3.744-8.099
		c1.148-1.351,3.088-2.454,3.088-2.454c2.803-1.838,4.957-3.677,4.957-3.677c0.865-2.762,3.055-33.516,3.707-38.857
		c0.651-5.338,1.525-5.694,2.594-8.283c0.589-1.432,0.583-2.395,1.08-4.787c0.744-3.562,0.248-26.705,1.549-33.149
		c1.299-6.444,3.668-7.362,6.037-7.911c2.369-0.551,12.491-2.564,15.078-5.324c2.586-2.758,3.24-8.836,3.24-8.836l15.415,0.019
		c0,0,0.639,6.079,3.219,8.843c2.58,2.767,12.697,4.805,15.065,5.36c2.367,0.555,4.736,1.478,6.021,7.927
		c1.283,6.446,0.395,29.65,1.468,33.152c0,0,0.169,2.563,1.07,4.789c1.315,3.252,1.935,2.949,2.573,8.291
		c0.64,5.342,2.757,36.1,3.614,38.864c0,0,2.151,1.845,4.948,3.689c0,0,1.936,1.107,3.082,2.46c1.147,1.352,3.723,8.106,3.723,8.106
		s0,1.104-0.576,1.596c0,0,2.007,2.459,2.006,3.196c0,0.736-0.862,0.979-3.013-0.987c0,0-2.587,2.455-3.019,2.699
		c0,0-1.292-0.246-0.858-1.844c0,0,1.724-1.715,1.87-2.574c0,0-0.861,0.366-2.585,0.487c0,0-1.294,0.612-1.866-0.126
		c0,0-0.431-0.246,0.863-1.35c1.291-1.104,1.58-0.488,1.58-0.488s-3.299-2.83-5.307-3.814c0,0,2.721,5.529,2,6.021
		c-0.716,0.489-3.44-2.46-3.869-3.935c0,0-2.439-1.722-3.871-4.425c-1.431-2.702-0.563-7.121-0.563-7.121
		s-9.872-29.721-11.437-42.122c-1.563-12.403-1.095-10.821-1.688-14.741c-1.808-11.919-2.153-13.136-2.153-13.136
		s-5.327,14.237-4.475,21.849c0.852,7.614,1.853,9.09,4.146,12.528c0,0,11.75,17.398,7.705,39.334
		c-4.047,21.936-10.389,45.623-10.111,51.026c0,0,3.715,17.683,2.7,24.801c-1.015,7.122-4.04,15.713-4.187,19.887
		c-0.148,4.176-2.748,18.54-2.469,22.839c0.283,4.297,1.434,3.195,1.287,4.912c-0.145,1.721-1.296,2.576-1.298,3.683
		c-0.001,1.105-3.028,12.768-9.187,1.958c0,0-0.139-5.156,0.008-6.876c0.145-1.721,0.43-0.37,1.007-3.068
		c0.579-2.7,0.173-23.082-0.253-26.644c-0.428-3.563-1.857-9.212-1.85-14.739c0.006-5.524,2.025-12.161,1.453-14.985
		c-0.571-2.822-2.146-5.162-2.572-9.826c0,0-0.571-3.195,0.01-8.843c0.584-5.646,0.373-19.276-0.225-25.907
		c-0.597-6.629-0.951-17.188,0.033-26.764"/>
	<path fill="#141413" d="M293.31,558.679c0,0-3.136,5.575-3.14,9.067c-0.004,3.491,1.449,4.424,2.174,4.19
		c0.726-0.231,1.363-0.774,1.363-0.774v0.81c0,0-4.27,3.986-12.158-0.014c0,0,0.457-5.081,0.916-9.966
		C282.637,560.188,287.459,554.571,293.31,558.679z"/>
	<path fill="#101111" stroke="#040000" stroke-width="0.042" stroke-miterlimit="10" d="M293.31,558.679
		c0,0-0.325,10.775,0.397,12.483c0,0-0.597,2.32-3.541,0.928C287.223,570.692,290.992,558.764,293.31,558.679z"/>
	<path fill="#040000" d="M288.927,547.256l-1.904-0.001c0,0-2.536,3.896-3.718,5.447c-1.182,1.552-1.283,2.149-1.287,4.554
		c-0.003,2.407,0.178,4.039,0.447,4.736c0,0,2.545-2.481,4.083,1.865c0.748,2.116,0.711,11.178,0.711,11.178h1.636
		c0,0-0.356-7.986,0.012-11.097c0.185-1.552,2.826-2.213,3.826-3.996c1-1.784,1.404-3.901,0.448-6.009
		C292.607,552.669,289.289,547.874,288.927,547.256z"/>
	<polygon fill="#141413" points="288.845,573.74 287.254,573.698 287.259,575.035 288.895,575.035 	"/>
	<path fill="#141413" d="M300.976,558.689c0,0,3.12,5.581,3.115,9.073c-0.004,3.491-1.454,4.417-2.183,4.187
		c-0.726-0.233-1.36-0.776-1.36-0.776l-0.001,0.808c0,0,4.262,3.997,12.159,0.014c0,0-0.449-5.078-0.895-9.968
		C311.646,560.221,306.835,554.593,300.976,558.689z"/>
	<path fill="#101111" stroke="#040000" stroke-width="0.042" stroke-miterlimit="10" d="M300.976,558.689
		c0,0,0.3,10.774-0.428,12.483c0,0,0.592,2.318,3.539,0.933C307.033,570.718,303.294,558.779,300.976,558.689z"/>
	<path fill="#040000" d="M305.386,547.274l1.904,0.001c0,0,2.526,3.907,3.705,5.458c1.18,1.554,1.277,2.155,1.273,4.561
		c-0.002,2.406-0.186,4.034-0.457,4.732c0,0-2.537-2.485-4.086,1.86c-0.752,2.109-0.74,11.173-0.74,11.173l-1.633-0.001
		c0,0,0.375-7.985,0.014-11.101c-0.178-1.551-2.819-2.223-3.813-4.008c-0.997-1.784-1.399-3.902-0.438-6.006
		C301.69,552.68,305.022,547.893,305.386,547.274z"/>
	<polygon fill="#141413" points="305.406,573.758 306.997,573.72 306.985,575.06 305.353,575.059 	"/>
	<path fill="#040000" stroke="#040000" stroke-width="0.25" stroke-miterlimit="10" d="M279.257,387.148h36.897
		c0,0,9.644,13.149,9.856,30.647c0.213,17.499-1.286,18.666-1.453,20.166s-53.167,0-53.167,0s-3.334-11.193-1.75-24.457
		C271.014,402.016,273.623,394.668,279.257,387.148z"/>
	<g>
		<path fill="#040000" stroke="#040000" stroke-width="0.25" stroke-miterlimit="10" d="M280.735,327.786l-1.552,0.545
			c0,0,6.641,13.811,3.18,21.297c-2.465,5.333-4.657,5.152-4.657,5.152s5.896,14.704,4.342,22.538c8.676,0,16.863-0.02,16.863-0.02
			l-1.288-22.046C297.623,355.253,286.724,357.378,280.735,327.786z"/>
		<path fill="#040000" stroke="#040000" stroke-width="0.25" stroke-miterlimit="10" d="M315.059,327.786l1.552,0.545
			c0,0-6.641,13.811-3.181,21.297c2.466,5.333,4.38,5.199,4.38,5.199s-5.086,14.426-4.443,22.126
			c-8.581,0.488-16.483,0.346-16.483,0.346l0.74-22.046C297.623,355.253,309.07,357.378,315.059,327.786z"/>
	</g>
	<path fill="#FFFFFF" stroke="#040000" stroke-width="0.25" stroke-miterlimit="10" d="M315.974,360.253l-11.25,11.625l8.596,3.116
		C313.319,374.994,314.224,366.878,315.974,360.253z"/>
	<path fill="#FFFFFF" stroke="#040000" stroke-width="0.25" stroke-miterlimit="10" d="M279.599,359.94l11.625,11.313l-8.688,3.116
		C282.536,374.369,282.036,366.815,279.599,359.94z"/>
	<path fill="#FFFFFF" stroke="#040000" stroke-width="0.25" stroke-miterlimit="10" d="M324.474,412.888l-8.5,24.49h7.488
		C323.462,437.378,326.224,424.148,324.474,412.888z"/>
	<path fill="#FFFFFF" stroke="#040000" stroke-width="0.25" stroke-miterlimit="10" d="M271.398,412.388l8.5,24.49h-7.488
		C272.41,436.878,269.648,423.648,271.398,412.388z"/>
	<g>
		<path fill="#4D3316" d="M280.811,300.232c0,0-0.063,0.093-0.18,0.268c-0.12,0.192-0.18,0.325-0.269,0.67
			c-0.063,0.32-0.085,0.737-0.001,1.232c0.082,0.494,0.264,1.056,0.515,1.657c0.249,0.604,0.578,1.243,0.928,1.937
			c0.313,0.715,0.743,1.322,1.195,2.09c0.206,0.387,0.435,0.789,0.503,1.311c0.057,0.455-0.052,1.021-0.238,1.434
			c-0.181,0.432-0.39,0.809-0.507,1.204c-0.11,0.35-0.148,0.865-0.203,1.284c-0.019,0.847-0.021,1.752,0.22,2.569
			c0.146,0.849,0.756,1.475,1.159,2.259c0.183,0.392,0.341,0.832,0.28,1.268c-0.029,0.463-0.184,0.791-0.395,1.166
			c-0.422,0.682-0.963,1.177-1.334,1.729c-0.379,0.55-0.586,1.117-0.609,1.675c-0.055,0.543-0.029,1.015-0.018,1.409
			c0.035,0.785,0.033,1.234,0.033,1.234s-0.014-0.449-0.076-1.232c-0.025-0.389-0.068-0.876-0.031-1.422
			c0-0.544,0.199-1.183,0.571-1.751c0.362-0.579,0.894-1.107,1.262-1.755c0.38-0.635,0.464-1.483,0.036-2.175
			c-0.38-0.693-1.068-1.37-1.27-2.293c-0.287-0.878-0.319-1.798-0.326-2.739c0.049-0.469,0.047-0.862,0.174-1.375
			c0.123-0.468,0.336-0.884,0.481-1.272c0.149-0.404,0.208-0.724,0.156-1.133c-0.052-0.346-0.257-0.708-0.459-1.049
			c-0.426-0.669-0.956-1.385-1.286-2.079c-0.369-0.673-0.731-1.321-1.02-1.953c-0.289-0.632-0.515-1.244-0.635-1.827
			c-0.121-0.583-0.121-1.134-0.046-1.584c0.069-0.426,0.273-0.864,0.377-1.024c0.111-0.179,0.171-0.274,0.171-0.274L280.811,300.232
			z"/>
	</g>
	<g>
		<path fill="#4D3316" d="M314.006,297.891c0.109-0.004,0.242-0.007,0.416,0.006c0.152,0.018,0.308,0.04,0.473,0.101
			c0.324,0.099,0.672,0.404,0.791,0.752c0.231,0.691,0.047,1.222-0.09,1.715c-0.152,0.489-0.383,0.951-0.566,1.367
			c-0.181,0.42-0.342,0.859-0.477,1.302c-0.267,0.884-0.453,1.803-0.425,2.697c0.02,0.889,0.327,1.761,1.05,2.187l0.129,0.077
			l0.026,0.154c0.077,0.455-0.097,0.982-0.388,1.313c-0.283,0.336-0.601,0.563-0.838,0.821c-0.232,0.255-0.365,0.534-0.359,0.862
			c0.012,0.31,0.135,0.714,0.243,1.063c0.225,0.707,0.554,1.421,0.78,2.175c0.231,0.745,0.338,1.574,0.261,2.342
			c-0.067,0.799-0.302,1.549-0.563,2.277c-0.129,0.362-0.271,0.728-0.385,1.085c-0.114,0.372-0.195,0.745-0.254,1.121
			c-0.252,1.514-0.242,3.079-0.606,4.583c0.321-1.514,0.265-3.067,0.476-4.604c0.168-1.552,1.002-2.963,1.041-4.473
			c0.045-0.773-0.08-1.498-0.324-2.218c-0.242-0.718-0.588-1.398-0.857-2.153c-0.128-0.382-0.259-0.718-0.307-1.179
			c-0.039-0.45,0.166-0.925,0.445-1.241c0.275-0.32,0.581-0.564,0.781-0.832c0.198-0.267,0.273-0.535,0.218-0.849l0.155,0.231
			c-0.471-0.271-0.865-0.7-1.086-1.189c-0.232-0.488-0.328-1.009-0.362-1.517c-0.06-1.021,0.118-2.008,0.374-2.959
			c0.131-0.478,0.286-0.941,0.471-1.405c0.189-0.464,0.371-0.869,0.489-1.299c0.12-0.41,0.177-0.876,0.069-1.099
			c-0.051-0.104-0.099-0.144-0.229-0.187c-0.062-0.021-0.146-0.031-0.229-0.038c-0.064-0.003-0.172-0.001-0.301,0.01
			L314.006,297.891z"/>
	</g>
	<g>
		<path fill="#4D3316" d="M306.719,317.004l-9.183,4.103l-0.26-54.732c5.644-0.265,17.933,2.061,21.91,14.5
			c1.199,3.75,0.965,14.125-5.535,22.25C305.799,312.94,307.169,312.289,306.719,317.004"/>
		<path fill="#4D3316" d="M288.587,317.004l9.183,4.103l0.26-54.732c-5.644-0.265-17.933,2.061-21.91,14.5
			c-1.199,3.75-0.965,14.125,5.535,22.25C289.507,312.94,288.137,312.289,288.587,317.004"/>
	</g>
	<path fill="#5E3D1B" d="M296.401,312.545c0.855-1.941,6.916-10.066,16.155-8.584c-2.833,6.667-13.081,11.22-15.514,11.363"/>
	<path fill="#5E3D1B" d="M281.257,302.611c4.217,6.201,11.052,14.121,17.853,12.09c-2.686-4.434-6.219-9.156-12.744-11.35"/>
	<path fill="#4D3316" d="M295.333,315.557c0.877-1.983,8.891-8.092,11.394-5.676c3.374,3.256-7.277,10.051-9.769,10.197"/>
	<path fill="#6D451F" d="M290.082,310.667c-6.188,1.552,4.688,11.63,8.869,10.569C296.612,317.146,295.771,310.798,290.082,310.667"
		/>
	<path fill="#5E3D1B" d="M296.401,320.771c0.877-1.983,7.499-7.854,9.807-5.252c2.667,3.007-5.69,9.626-8.182,9.772"/>
	<path fill="#4D3316" d="M290.443,315.291c-6.34,0.719,4.005,11.439,8.29,10.941C296.957,321.87,296.064,316.175,290.443,315.291"/>
	<path fill="#6D451F" d="M297.026,326.197c0.877-1.984,7.499-7.854,9.807-5.252c2.667,3.008-5.69,9.626-8.182,9.772"/>
	<path fill="#5E3D1B" d="M289.937,321.106c-6.149,1.702,5.747,10.671,9.901,9.508C297.4,326.584,295.626,321.099,289.937,321.106"/>
	<path fill="#4D3316" d="M297.043,331.068c0.855-1.94,7.322-7.684,9.575-5.137c2.604,2.941-5.557,9.416-7.989,9.56"/>
	<path fill="#6D451F" d="M289.899,325.902c-6.057,2.008,6.272,10.371,10.363,9.002C297.627,331.001,295.581,325.611,289.899,325.902
		"/>
	<path fill="#5E3D1B" d="M297.536,335.039c0.856-1.939,7.323-7.684,9.576-5.137c2.604,2.941-5.557,9.416-7.989,9.56"/>
	<path fill="#4D3316" d="M291.015,330.15c-6.035,1.545,5.403,10.549,9.481,9.493C298.195,335.654,296.57,330.254,291.015,330.15"/>
	<path fill="#6D451F" d="M298.146,340.349c0.856-1.94,7.323-7.685,9.576-5.138c2.604,2.941-5.557,9.416-7.989,9.56"/>
	<path fill="#5E3D1B" d="M291.456,335.028c-6.005,1.665,5.611,10.438,9.668,9.301C298.744,340.387,297.011,335.021,291.456,335.028"
		/>
	<path fill="#4D3316" d="M298.476,344.654c0.816-1.882,6.985-7.449,9.135-4.98c2.484,2.852-4.149,8.387-6.469,8.525"/>
	<path fill="#6D451F" d="M291.489,339.662c-5.643,1.904,5.843,9.834,9.652,8.537C298.688,344.498,296.781,339.386,291.489,339.662"
		/>
	<ellipse fill="#261507" cx="299.838" cy="348.04" rx="2.521" ry="0.45"/>
	<path fill="#5E3D1B" d="M297.317,348.04c-0.804,1.733-2.533,3.667-0.201,5.106c1.031,0.637,2.455,0.832,2.725,2.204
		c0.22,1.115-0.139,1.699-1.211,2.026c2.073-0.035,7.738-1.158,7.15-4.316c-0.186-0.997-1.274-2.226-1.921-2.938
		c-0.448-0.494-1.984-1.052-1.833-1.75"/>
	<g>
		<path fill="#2C1909" d="M281.257,293.374c0,0,0.046,0.066,0.134,0.191c0.091,0.12,0.205,0.317,0.379,0.534
			c0.176,0.216,0.381,0.475,0.668,0.73c0.277,0.259,0.607,0.531,0.997,0.781c0.771,0.517,1.772,0.938,2.896,1.322
			c1.117,0.393,2.368,0.75,3.577,1.298c0.291,0.14,0.618,0.277,0.907,0.46c0.334,0.202,0.59,0.429,0.834,0.687
			c0.482,0.51,0.828,1.089,1.1,1.659c0.523,1.152,0.786,2.267,1.004,3.21c0.205,0.948,0.359,1.734,0.506,2.277
			c0.135,0.546,0.236,0.854,0.236,0.854s-0.169-0.277-0.402-0.796c-0.227-0.521-0.518-1.28-0.846-2.188
			c-0.328-0.904-0.688-1.969-1.242-2.98c-0.277-0.502-0.604-0.991-1.016-1.383c-0.199-0.194-0.439-0.377-0.655-0.506
			c-0.255-0.157-0.528-0.262-0.819-0.396c-1.151-0.482-2.369-0.874-3.508-1.34c-1.136-0.454-2.185-1.017-2.942-1.689
			c-0.383-0.326-0.7-0.669-0.931-1.003c-0.246-0.323-0.41-0.641-0.546-0.895c-0.14-0.251-0.19-0.47-0.25-0.61
			C281.285,293.45,281.257,293.374,281.257,293.374z"/>
	</g>
	<g>
		<path fill="#2C1909" d="M301.564,305.545c0.018-0.002-0.131-0.278-0.072-0.828c0.066-0.543,0.449-1.26,1.082-1.931
			c1.28-1.349,3.42-2.542,5.543-3.604c0.532-0.263,1.064-0.523,1.568-0.791c0.248-0.133,0.495-0.274,0.695-0.406
			c0.25-0.162,0.457-0.32,0.646-0.472c0.795-0.661,1.377-1.455,1.792-2.206c0.409-0.754,0.699-1.438,0.897-1.919
			c0.184-0.486,0.31-0.764,0.31-0.764c0.001,0,0.002,0.304-0.071,0.825c-0.063,0.523-0.174,1.277-0.496,2.15
			c-0.324,0.864-0.894,1.86-1.8,2.651c-0.239,0.203-0.479,0.393-0.708,0.548c-0.272,0.193-0.537,0.328-0.805,0.47
			c-0.534,0.272-1.073,0.525-1.609,0.78c-2.148,0.993-4.283,1.998-5.629,3.096c-0.679,0.532-1.12,1.123-1.257,1.607
			c-0.075,0.24-0.099,0.437-0.095,0.578C301.563,305.471,301.564,305.545,301.564,305.545z"/>
	</g>
	<g>
		<path fill="#2C1909" d="M296.401,307.378c0,0-0.051-0.227-0.14-0.623c-0.039-0.198-0.086-0.439-0.14-0.716
			c-0.038-0.28-0.14-0.579-0.21-0.912c-0.08-0.331-0.165-0.688-0.242-1.064c-0.096-0.381-0.201-0.781-0.291-1.199
			c-0.191-0.83-0.389-1.73-0.574-2.626c-0.15-0.91-0.343-1.807-0.417-2.678c-0.113-0.859-0.153-1.675-0.132-2.378
			c0.005-0.35-0.012-0.666,0.043-0.952c0.043-0.282,0.08-0.528,0.111-0.73c0.074-0.397,0.116-0.625,0.116-0.625
			s0.03,0.23,0.083,0.635c0.02,0.198,0.045,0.438,0.072,0.715c0.01,0.272,0.098,0.582,0.146,0.918
			c0.061,0.335,0.125,0.697,0.18,1.079c0.083,0.383,0.174,0.785,0.25,1.203c0.168,0.836,0.348,1.729,0.527,2.62
			c0.166,0.903,0.346,1.797,0.457,2.658c0.133,0.849,0.213,1.662,0.238,2.367c0.062,0.698,0.004,1.27-0.021,1.674
			C296.422,307.147,296.401,307.378,296.401,307.378z"/>
	</g>
	<g>
		<path fill="#2C1909" d="M306.526,292.624c0,0-0.015,0.241-0.041,0.664c-0.022,0.42-0.011,1.019-0.134,1.764
			c-0.061,0.357-0.207,0.833-0.4,1.186c-0.22,0.435-0.534,0.802-0.806,1.123c-0.27,0.332-0.488,0.673-0.757,1.08
			c-0.258,0.394-0.52,0.794-0.781,1.193c-1.059,1.585-2.097,3.175-2.788,4.417c-0.728,1.226-0.981,2.16-0.981,2.16
			s0-0.242,0.068-0.663s0.234-1.008,0.479-1.697c0.501-1.374,1.414-3.089,2.414-4.731c0.254-0.405,0.51-0.812,0.76-1.211
			c0.234-0.39,0.528-0.825,0.844-1.176c0.311-0.359,0.595-0.629,0.779-0.917c0.223-0.357,0.367-0.608,0.486-0.947
			c0.23-0.647,0.412-1.236,0.574-1.634c0.075-0.204,0.143-0.355,0.202-0.455C306.498,292.678,306.526,292.624,306.526,292.624z"/>
	</g>
	<g>
		<path fill="#2C1909" d="M300.776,294.874c0,0,0.017,0.193,0.044,0.53c0.037,0.338,0.035,0.815-0.039,1.404
			c-0.045,0.599-0.166,1.258-0.307,1.967c-0.134,0.711-0.334,1.446-0.52,2.19c-0.205,0.733-0.42,1.468-0.633,2.146
			c-0.207,0.682-0.43,1.312-0.596,1.853c-0.084,0.271-0.172,0.52-0.25,0.74c-0.061,0.223-0.112,0.416-0.155,0.575
			c-0.097,0.327-0.153,0.515-0.153,0.515s-0.022-0.188-0.045-0.53c-0.036-0.347-0.031-0.84,0.041-1.414
			c0.043-0.587,0.164-1.249,0.305-1.957c0.133-0.711,0.335-1.446,0.521-2.19c0.205-0.733,0.421-1.468,0.633-2.146
			c0.207-0.682,0.432-1.313,0.594-1.843c0.092-0.269,0.176-0.516,0.25-0.734c0.061-0.229,0.113-0.428,0.157-0.591
			C300.721,295.061,300.776,294.874,300.776,294.874z"/>
	</g>
</g>
</svg>
