<?xml version="1.0" encoding="utf-8"?>
<!-- Generator: Adobe Illustrator 18.1.1, SVG Export Plug-In . SVG Version: 6.00 Build 0)  -->
<!DOCTYPE svg PUBLIC "-//W3C//DTD SVG 1.1//EN" "http://www.w3.org/Graphics/SVG/1.1/DTD/svg11.dtd">
<svg version="1.1" id="图层_1" xmlns="http://www.w3.org/2000/svg" xmlns:xlink="http://www.w3.org/1999/xlink" x="0px" y="0px"
	 viewBox="222.6 165.5 108.1 308.7" enable-background="new 222.6 165.5 108.1 308.7" xml:space="preserve">
<g>
	<path fill="#EFB291" d="M278.5,319.3c0,0-4.6-9.8-3.7-0.2c1,9.6,0.6,20.1,0,26.8c-0.6,6.6-0.9,20.3-0.3,25.9s0,8.8,0,8.8
		c-0.4,4.7-2,7-2.6,9.8s1.4,9.5,1.4,15c0,5.5-1.5,11.2-1.9,14.7c-0.4,3.6-0.9,23.9-0.3,26.6c0.6,2.7,0.9,1.3,1,3.1
		c0.1,1.7,0,6.9,0,6.9c-6.2,10.8-9.2-0.9-9.2-2c0-1.1-1.1-2-1.3-3.7c-0.1-1.7,1-0.6,1.3-4.9c0.3-4.3-2.3-18.7-2.4-22.8
		c-0.1-4.2-3.1-12.8-4.1-19.9c-1-7.1,2.8-24.8,2.8-24.8c0.3-5.4-6-29.1-10-51c-4-21.9,7.8-39.3,7.8-39.3c2.3-3.4,3.3-4.9,4.2-12.5
		c0.9-7.6-4.4-21.9-4.4-21.9s-0.7,1.4-2.2,13.3c-0.6,5.1-0.1,2.2-1.7,14.6c-1.6,12.4-11.5,42.1-11.5,42.1s0.9,4.4-0.6,7.1
		c-1.4,2.7-3.9,4.4-3.9,4.4c-0.4,1.5-3.2,4.4-3.9,3.9c-0.7-0.5,2-6,2-6c-2,1-5.3,3.8-5.3,3.8s0.3-0.6,1.6,0.5
		c1.3,1.1,0.9,1.4,0.9,1.4c-0.6,0.7-1.9,0.1-1.9,0.1c-1.7-0.1-2.6-0.5-2.6-0.5c0.1,0.9,1.9,2.6,1.9,2.6c0.4,1.6-0.9,1.8-0.9,1.8
		c-0.4-0.2-3-2.7-3-2.7c-2.2,2-3,1.7-3,1c0-0.7,2-3.2,2-3.2c-0.6-0.5-0.6-1.6-0.6-1.6s2.6-6.8,3.7-8.1c1.1-1.4,3.1-2.5,3.1-2.5
		c2.8-1.8,5-3.7,5-3.7c0.9-2.8,3.1-33.5,3.7-38.9c0.7-5.3,1.5-5.7,2.6-8.3c0.6-1.4,0.6-2.4,1.1-4.8c0.7-3.6,0.2-26.7,1.5-33.1
		c1.3-6.4,3.7-7.4,6-7.9c2.4-0.6,12.5-2.6,15.1-5.3c2.6-2.8,3.2-8.8,3.2-8.8l15.4,0c0,0,0.6,6.1,3.2,8.8c2.6,2.8,12.7,4.8,15.1,5.4
		c2.4,0.6,4.7,1.5,6,7.9c1.3,6.4,0.4,29.6,1.5,33.2c0,0,0.2,2.6,1.1,4.8c1.3,3.3,1.9,2.9,2.6,8.3c0.6,5.3,2.8,36.1,3.6,38.9
		c0,0,2.2,1.8,4.9,3.7c0,0,1.9,1.1,3.1,2.5c1.1,1.4,3.7,8.1,3.7,8.1s0,1.1-0.6,1.6c0,0,2,2.5,2,3.2c0,0.7-0.9,1-3-1
		c0,0-2.6,2.5-3,2.7c0,0-1.3-0.2-0.9-1.8c0,0,1.7-1.7,1.9-2.6c0,0-0.9,0.4-2.6,0.5c0,0-1.3,0.6-1.9-0.1c0,0-0.4-0.2,0.9-1.4
		c1.3-1.1,1.6-0.5,1.6-0.5s-3.3-2.8-5.3-3.8c0,0,2.7,5.5,2,6c-0.7,0.5-3.4-2.5-3.9-3.9c0,0-2.4-1.7-3.9-4.4
		c-1.4-2.7-0.6-7.1-0.6-7.1s-9.9-29.7-11.4-42.1c-1.6-12.4-1.1-10.8-1.7-14.7c-1.8-11.9-2.2-13.1-2.2-13.1s-5.3,14.2-4.5,21.8
		c0.9,7.6,1.9,9.1,4.1,12.5c0,0,11.8,17.4,7.7,39.3c-4,21.9-10.4,45.6-10.1,51c0,0,3.7,17.7,2.7,24.8c-1,7.1-4,15.7-4.2,19.9
		c-0.1,4.2-2.7,18.5-2.5,22.8c0.3,4.3,1.4,3.2,1.3,4.9c-0.1,1.7-1.3,2.6-1.3,3.7c0,1.1-3,12.8-9.2,2c0,0-0.1-5.2,0-6.9
		c0.1-1.7,0.4-0.4,1-3.1c0.6-2.7,0.2-23.1-0.3-26.6c-0.4-3.6-1.9-9.2-1.9-14.7c0-5.5,2-12.2,1.5-15c-0.6-2.8-2.1-5.2-2.6-9.8
		c0,0-0.6-3.2,0-8.8c0.6-5.6,0.4-19.3-0.2-25.9c-0.6-6.6-1-17.2,0-26.8"/>
	<path fill="#141413" d="M272.3,457.8c0,0-3.1,5.6-3.1,9.1c0,3.5,1.4,4.4,2.2,4.2c0.7-0.2,1.4-0.8,1.4-0.8v0.8c0,0-4.3,4-12.2,0
		c0,0,0.5-5.1,0.9-10C261.6,459.3,266.5,453.7,272.3,457.8z"/>
	<path fill="#101111" stroke="#040000" stroke-width="4.200000e-02" stroke-miterlimit="10" d="M272.3,457.8c0,0-0.3,10.8,0.4,12.5
		c0,0-0.6,2.3-3.5,0.9C266.2,469.8,270,457.9,272.3,457.8z"/>
	<path fill="#040000" d="M267.9,446.4l-1.9,0c0,0-2.5,3.9-3.7,5.4c-1.2,1.6-1.3,2.1-1.3,4.6c0,2.4,0.2,4,0.4,4.7
		c0,0,2.5-2.5,4.1,1.9c0.7,2.1,0.7,11.2,0.7,11.2h1.6c0,0-0.4-8,0-11.1c0.2-1.6,2.8-2.2,3.8-4c1-1.8,1.4-3.9,0.4-6
		C271.6,451.8,268.3,447,267.9,446.4z"/>
	<polygon fill="#141413" points="267.8,472.8 266.3,472.8 266.3,474.1 267.9,474.1 	"/>
	<path fill="#141413" d="M280,457.8c0,0,3.1,5.6,3.1,9.1c0,3.5-1.5,4.4-2.2,4.2c-0.7-0.2-1.4-0.8-1.4-0.8l0,0.8c0,0,4.3,4,12.2,0
		c0,0-0.4-5.1-0.9-10C290.6,459.3,285.8,453.7,280,457.8z"/>
	<path fill="#101111" stroke="#040000" stroke-width="4.200000e-02" stroke-miterlimit="10" d="M280,457.8c0,0,0.3,10.8-0.4,12.5
		c0,0,0.6,2.3,3.5,0.9C286,469.8,282.3,457.9,280,457.8z"/>
	<path fill="#040000" d="M284.4,446.4l1.9,0c0,0,2.5,3.9,3.7,5.5c1.2,1.6,1.3,2.2,1.3,4.6c0,2.4-0.2,4-0.5,4.7c0,0-2.5-2.5-4.1,1.9
		c-0.8,2.1-0.7,11.2-0.7,11.2l-1.6,0c0,0,0.4-8,0-11.1c-0.2-1.6-2.8-2.2-3.8-4c-1-1.8-1.4-3.9-0.4-6
		C280.7,451.8,284,447,284.4,446.4z"/>
	<polygon fill="#141413" points="284.4,472.9 286,472.8 286,474.2 284.4,474.2 	"/>
	<path fill="#040000" stroke="#040000" stroke-width="0.25" stroke-miterlimit="10" d="M258.3,286.3h36.9c0,0,9.6,13.1,9.9,30.6
		c0.2,17.5-1.3,18.7-1.5,20.2s-53.2,0-53.2,0s-3.3-11.2-1.8-24.5C250,301.1,252.6,293.8,258.3,286.3z"/>
	<g>
		<path fill="#040000" stroke="#040000" stroke-width="0.25" stroke-miterlimit="10" d="M259.7,226.9l-1.6,0.5
			c0,0,6.6,13.8,3.2,21.3c-2.5,5.3-4.7,5.2-4.7,5.2s5.9,14.7,4.3,22.5c8.7,0,16.9,0,16.9,0l-1.3-22
			C276.6,254.4,265.7,256.5,259.7,226.9z"/>
		<path fill="#040000" stroke="#040000" stroke-width="0.25" stroke-miterlimit="10" d="M294.1,226.9l1.6,0.5c0,0-6.6,13.8-3.2,21.3
			c2.5,5.3,4.4,5.2,4.4,5.2s-5.1,14.4-4.4,22.1c-8.6,0.5-16.5,0.3-16.5,0.3l0.7-22C276.6,254.4,288.1,256.5,294.1,226.9z"/>
	</g>
	<path fill="#FFFFFF" stroke="#040000" stroke-width="0.25" stroke-miterlimit="10" d="M295,259.4L283.7,271l8.6,3.1
		C292.3,274.1,293.2,266,295,259.4z"/>
	<path fill="#FFFFFF" stroke="#040000" stroke-width="0.25" stroke-miterlimit="10" d="M258.6,259l11.6,11.3l-8.7,3.1
		C261.5,273.5,261,265.9,258.6,259z"/>
	<path fill="#FFFFFF" stroke="#040000" stroke-width="0.25" stroke-miterlimit="10" d="M303.5,312l-8.5,24.5h7.5
		C302.5,336.5,305.2,323.3,303.5,312z"/>
	<path fill="#FFFFFF" stroke="#040000" stroke-width="0.25" stroke-miterlimit="10" d="M250.4,311.5l8.5,24.5h-7.5
		C251.4,336,248.6,322.8,250.4,311.5z"/>
	<g>
		<path fill="#4D3316" d="M259.8,199.3c0,0-0.1,0.1-0.2,0.3c-0.1,0.2-0.2,0.3-0.3,0.7c-0.1,0.3-0.1,0.7,0,1.2
			c0.1,0.5,0.3,1.1,0.5,1.7c0.2,0.6,0.6,1.2,0.9,1.9c0.3,0.7,0.7,1.3,1.2,2.1c0.2,0.4,0.4,0.8,0.5,1.3c0.1,0.5-0.1,1-0.2,1.4
			c-0.2,0.4-0.4,0.8-0.5,1.2c-0.1,0.4-0.1,0.9-0.2,1.3c0,0.8,0,1.8,0.2,2.6c0.1,0.8,0.8,1.5,1.2,2.3c0.2,0.4,0.3,0.8,0.3,1.3
			c0,0.5-0.2,0.8-0.4,1.2c-0.4,0.7-1,1.2-1.3,1.7c-0.4,0.5-0.6,1.1-0.6,1.7c-0.1,0.5,0,1,0,1.4c0,0.8,0,1.2,0,1.2s0-0.4-0.1-1.2
			c0-0.4-0.1-0.9,0-1.4c0-0.5,0.2-1.2,0.6-1.8c0.4-0.6,0.9-1.1,1.3-1.8c0.4-0.6,0.5-1.5,0-2.2c-0.4-0.7-1.1-1.4-1.3-2.3
			c-0.3-0.9-0.3-1.8-0.3-2.7c0-0.5,0-0.9,0.2-1.4c0.1-0.5,0.3-0.9,0.5-1.3c0.1-0.4,0.2-0.7,0.2-1.1c-0.1-0.3-0.3-0.7-0.5-1
			c-0.4-0.7-1-1.4-1.3-2.1c-0.4-0.7-0.7-1.3-1-2s-0.5-1.2-0.6-1.8c-0.1-0.6-0.1-1.1,0-1.6c0.1-0.4,0.3-0.9,0.4-1
			c0.1-0.2,0.2-0.3,0.2-0.3L259.8,199.3z"/>
	</g>
	<g>
		<path fill="#4D3316" d="M293,197c0.1,0,0.2,0,0.4,0c0.2,0,0.3,0,0.5,0.1c0.3,0.1,0.7,0.4,0.8,0.8c0.2,0.7,0,1.2-0.1,1.7
			c-0.2,0.5-0.4,1-0.6,1.4c-0.2,0.4-0.3,0.9-0.5,1.3c-0.3,0.9-0.5,1.8-0.4,2.7c0,0.9,0.3,1.8,1,2.2l0.1,0.1l0,0.2
			c0.1,0.5-0.1,1-0.4,1.3c-0.3,0.3-0.6,0.6-0.8,0.8c-0.2,0.3-0.4,0.5-0.4,0.9c0,0.3,0.1,0.7,0.2,1.1c0.2,0.7,0.6,1.4,0.8,2.2
			c0.2,0.7,0.3,1.6,0.3,2.3c-0.1,0.8-0.3,1.5-0.6,2.3c-0.1,0.4-0.3,0.7-0.4,1.1c-0.1,0.4-0.2,0.7-0.3,1.1c-0.3,1.5-0.2,3.1-0.6,4.6
			c0.3-1.5,0.3-3.1,0.5-4.6c0.2-1.6,1-3,1-4.5c0-0.8-0.1-1.5-0.3-2.2c-0.2-0.7-0.6-1.4-0.9-2.2c-0.1-0.4-0.3-0.7-0.3-1.2
			c0-0.5,0.2-0.9,0.4-1.2c0.3-0.3,0.6-0.6,0.8-0.8c0.2-0.3,0.3-0.5,0.2-0.8l0.2,0.2c-0.5-0.3-0.9-0.7-1.1-1.2
			c-0.2-0.5-0.3-1-0.4-1.5c-0.1-1,0.1-2,0.4-3c0.1-0.5,0.3-0.9,0.5-1.4c0.2-0.5,0.4-0.9,0.5-1.3c0.1-0.4,0.2-0.9,0.1-1.1
			c-0.1-0.1-0.1-0.1-0.2-0.2c-0.1,0-0.1,0-0.2,0c-0.1,0-0.2,0-0.3,0L293,197z"/>
	</g>
	<g>
		<path fill="#4D3316" d="M285.7,216.1l-9.2,4.1l-0.3-54.7c5.6-0.3,17.9,2.1,21.9,14.5c1.2,3.8,1,14.1-5.5,22.2
			C284.8,212,286.2,211.4,285.7,216.1"/>
		<path fill="#4D3316" d="M267.6,216.1l9.2,4.1l0.3-54.7c-5.6-0.3-17.9,2.1-21.9,14.5c-1.2,3.8-1,14.1,5.5,22.2
			C268.5,212,267.1,211.4,267.6,216.1"/>
	</g>
	<path fill="#5E3D1B" d="M275.4,211.7c0.9-1.9,6.9-10.1,16.2-8.6c-2.8,6.7-13.1,11.2-15.5,11.4"/>
	<path fill="#5E3D1B" d="M260.3,201.7c4.2,6.2,11.1,14.1,17.9,12.1c-2.7-4.4-6.2-9.2-12.7-11.4"/>
	<path fill="#4D3316" d="M274.3,214.7c0.9-2,8.9-8.1,11.4-5.7c3.4,3.3-7.3,10.1-9.8,10.2"/>
	<path fill="#6D451F" d="M269.1,209.8c-6.2,1.6,4.7,11.6,8.9,10.6C275.6,216.3,274.8,209.9,269.1,209.8"/>
	<path fill="#5E3D1B" d="M275.4,219.9c0.9-2,7.5-7.9,9.8-5.3c2.7,3-5.7,9.6-8.2,9.8"/>
	<path fill="#4D3316" d="M269.4,214.4c-6.3,0.7,4,11.4,8.3,10.9C276,221,275.1,215.3,269.4,214.4"/>
	<path fill="#6D451F" d="M276,225.3c0.9-2,7.5-7.9,9.8-5.3c2.7,3-5.7,9.6-8.2,9.8"/>
	<path fill="#5E3D1B" d="M268.9,220.2c-6.1,1.7,5.7,10.7,9.9,9.5C276.4,225.7,274.6,220.2,268.9,220.2"/>
	<path fill="#4D3316" d="M276,230.2c0.9-1.9,7.3-7.7,9.6-5.1c2.6,2.9-5.6,9.4-8,9.6"/>
	<path fill="#6D451F" d="M268.9,225c-6.1,2,6.3,10.4,10.4,9C276.6,230.1,274.6,224.7,268.9,225"/>
	<path fill="#5E3D1B" d="M276.5,234.1c0.9-1.9,7.3-7.7,9.6-5.1c2.6,2.9-5.6,9.4-8,9.6"/>
	<path fill="#4D3316" d="M270,229.3c-6,1.5,5.4,10.5,9.5,9.5C277.2,234.8,275.6,229.4,270,229.3"/>
	<path fill="#6D451F" d="M277.1,239.5c0.9-1.9,7.3-7.7,9.6-5.1c2.6,2.9-5.6,9.4-8,9.6"/>
	<path fill="#5E3D1B" d="M270.5,234.1c-6,1.7,5.6,10.4,9.7,9.3C277.7,239.5,276,234.1,270.5,234.1"/>
	<path fill="#4D3316" d="M277.5,243.8c0.8-1.9,7-7.4,9.1-5c2.5,2.9-4.1,8.4-6.5,8.5"/>
	<path fill="#6D451F" d="M270.5,238.8c-5.6,1.9,5.8,9.8,9.7,8.5C277.7,243.6,275.8,238.5,270.5,238.8"/>
	<ellipse fill="#261507" cx="278.8" cy="247.1" rx="2.5" ry="0.5"/>
	<path fill="#5E3D1B" d="M276.3,247.1c-0.8,1.7-2.5,3.7-0.2,5.1c1,0.6,2.5,0.8,2.7,2.2c0.2,1.1-0.1,1.7-1.2,2c2.1,0,7.7-1.2,7.1-4.3
		c-0.2-1-1.3-2.2-1.9-2.9c-0.4-0.5-2-1.1-1.8-1.8"/>
	<g>
		<path fill="#2C1909" d="M260.3,192.5c0,0,0,0.1,0.1,0.2c0.1,0.1,0.2,0.3,0.4,0.5c0.2,0.2,0.4,0.5,0.7,0.7c0.3,0.3,0.6,0.5,1,0.8
			c0.8,0.5,1.8,0.9,2.9,1.3c1.1,0.4,2.4,0.8,3.6,1.3c0.3,0.1,0.6,0.3,0.9,0.5c0.3,0.2,0.6,0.4,0.8,0.7c0.5,0.5,0.8,1.1,1.1,1.7
			c0.5,1.2,0.8,2.3,1,3.2c0.2,0.9,0.4,1.7,0.5,2.3c0.1,0.5,0.2,0.9,0.2,0.9s-0.2-0.3-0.4-0.8c-0.2-0.5-0.5-1.3-0.8-2.2
			c-0.3-0.9-0.7-2-1.2-3c-0.3-0.5-0.6-1-1-1.4c-0.2-0.2-0.4-0.4-0.7-0.5c-0.3-0.2-0.5-0.3-0.8-0.4c-1.2-0.5-2.4-0.9-3.5-1.3
			c-1.1-0.5-2.2-1-2.9-1.7c-0.4-0.3-0.7-0.7-0.9-1c-0.2-0.3-0.4-0.6-0.5-0.9c-0.1-0.3-0.2-0.5-0.2-0.6
			C260.3,192.6,260.3,192.5,260.3,192.5z"/>
	</g>
	<g>
		<path fill="#2C1909" d="M280.6,204.7c0,0-0.1-0.3-0.1-0.8c0.1-0.5,0.4-1.3,1.1-1.9c1.3-1.3,3.4-2.5,5.5-3.6
			c0.5-0.3,1.1-0.5,1.6-0.8c0.2-0.1,0.5-0.3,0.7-0.4c0.2-0.2,0.5-0.3,0.6-0.5c0.8-0.7,1.4-1.5,1.8-2.2c0.4-0.8,0.7-1.4,0.9-1.9
			c0.2-0.5,0.3-0.8,0.3-0.8c0,0,0,0.3-0.1,0.8c-0.1,0.5-0.2,1.3-0.5,2.1c-0.3,0.9-0.9,1.9-1.8,2.7c-0.2,0.2-0.5,0.4-0.7,0.5
			c-0.3,0.2-0.5,0.3-0.8,0.5c-0.5,0.3-1.1,0.5-1.6,0.8c-2.1,1-4.3,2-5.6,3.1c-0.7,0.5-1.1,1.1-1.3,1.6c-0.1,0.2-0.1,0.4-0.1,0.6
			C280.6,204.6,280.6,204.7,280.6,204.7z"/>
	</g>
	<g>
		<path fill="#2C1909" d="M275.4,206.5c0,0-0.1-0.2-0.1-0.6c0-0.2-0.1-0.4-0.1-0.7c0-0.3-0.1-0.6-0.2-0.9c-0.1-0.3-0.2-0.7-0.2-1.1
			c-0.1-0.4-0.2-0.8-0.3-1.2c-0.2-0.8-0.4-1.7-0.6-2.6c-0.1-0.9-0.3-1.8-0.4-2.7c-0.1-0.9-0.2-1.7-0.1-2.4c0-0.4,0-0.7,0-1
			c0-0.3,0.1-0.5,0.1-0.7c0.1-0.4,0.1-0.6,0.1-0.6s0,0.2,0.1,0.6c0,0.2,0,0.4,0.1,0.7c0,0.3,0.1,0.6,0.1,0.9
			c0.1,0.3,0.1,0.7,0.2,1.1c0.1,0.4,0.2,0.8,0.2,1.2c0.2,0.8,0.3,1.7,0.5,2.6c0.2,0.9,0.3,1.8,0.5,2.7c0.1,0.8,0.2,1.7,0.2,2.4
			c0.1,0.7,0,1.3,0,1.7C275.4,206.3,275.4,206.5,275.4,206.5z"/>
	</g>
	<g>
		<path fill="#2C1909" d="M285.5,191.7c0,0,0,0.2,0,0.7c0,0.4,0,1-0.1,1.8c-0.1,0.4-0.2,0.8-0.4,1.2c-0.2,0.4-0.5,0.8-0.8,1.1
			c-0.3,0.3-0.5,0.7-0.8,1.1c-0.3,0.4-0.5,0.8-0.8,1.2c-1.1,1.6-2.1,3.2-2.8,4.4c-0.7,1.2-1,2.2-1,2.2s0-0.2,0.1-0.7s0.2-1,0.5-1.7
			c0.5-1.4,1.4-3.1,2.4-4.7c0.3-0.4,0.5-0.8,0.8-1.2c0.2-0.4,0.5-0.8,0.8-1.2c0.3-0.4,0.6-0.6,0.8-0.9c0.2-0.4,0.4-0.6,0.5-0.9
			c0.2-0.6,0.4-1.2,0.6-1.6c0.1-0.2,0.1-0.4,0.2-0.5C285.5,191.8,285.5,191.7,285.5,191.7z"/>
	</g>
	<g>
		<path fill="#2C1909" d="M279.8,194c0,0,0,0.2,0,0.5c0,0.3,0,0.8,0,1.4c0,0.6-0.2,1.3-0.3,2c-0.1,0.7-0.3,1.4-0.5,2.2
			c-0.2,0.7-0.4,1.5-0.6,2.1c-0.2,0.7-0.4,1.3-0.6,1.9c-0.1,0.3-0.2,0.5-0.2,0.7c-0.1,0.2-0.1,0.4-0.2,0.6c-0.1,0.3-0.2,0.5-0.2,0.5
			s0-0.2,0-0.5c0-0.3,0-0.8,0-1.4c0-0.6,0.2-1.2,0.3-2c0.1-0.7,0.3-1.4,0.5-2.2c0.2-0.7,0.4-1.5,0.6-2.1c0.2-0.7,0.4-1.3,0.6-1.8
			c0.1-0.3,0.2-0.5,0.2-0.7c0.1-0.2,0.1-0.4,0.2-0.6C279.7,194.2,279.8,194,279.8,194z"/>
	</g>
</g>
</svg>
