<?xml version="1.0" encoding="utf-8"?>
<!-- Generator: Adobe Illustrator 16.0.0, SVG Export Plug-In . SVG Version: 6.00 Build 0)  -->
<!DOCTYPE svg PUBLIC "-//W3C//DTD SVG 1.1//EN" "http://www.w3.org/Graphics/SVG/1.1/DTD/svg11.dtd">
<svg version="1.1" id="图层_1" xmlns="http://www.w3.org/2000/svg" xmlns:xlink="http://www.w3.org/1999/xlink" x="0px" y="0px"
	 width="841.89px" height="595.28px" viewBox="0 0 841.89 595.28" enable-background="new 0 0 841.89 595.28" xml:space="preserve">
<path fill="#F6B593" d="M422.29,291.068c0,0-4.648-9.787-3.688-0.208c0.96,9.578,0.581,20.135-0.032,26.764
	c-0.613,6.63-0.854,20.258-0.286,25.906c0.569,5.648-0.01,8.84-0.01,8.84c-0.437,4.666-2.017,7-2.595,9.822
	s1.425,9.465,1.419,14.988c-0.007,5.525-1.451,11.174-1.886,14.736c-0.435,3.561-0.889,23.941-0.317,26.643
	c0.57,2.701,0.86,1.35,1.001,3.071c0.141,1.719-0.009,6.875-0.009,6.875c-6.185,10.797-9.185-0.875-9.183-1.981
	c0.001-1.105-1.146-1.964-1.288-3.683c-0.142-1.719,1.006-0.614,1.298-4.909c0.292-4.298-2.275-18.671-2.414-22.847
	c-0.137-4.174-3.142-12.772-4.14-19.894c-0.997-7.121,2.758-24.797,2.758-24.797c0.292-5.403-5.994-29.104-9.988-51.05
	c-3.994-21.945,7.797-39.314,7.797-39.314c2.302-3.434,3.307-4.907,4.177-12.519c0.869-7.61-4.422-21.859-4.422-21.859
	s-0.705,1.366-2.207,13.313c-0.646,5.147-0.109,2.153-1.702,14.553c-1.593,12.398-11.535,42.096-11.535,42.096
	s0.857,4.42-0.581,7.119c-1.439,2.699-3.88,4.416-3.88,4.416c-0.432,1.472-3.164,4.416-3.88,3.924
	c-0.718-0.491,2.016-6.014,2.016-6.014c-2.01,0.979-5.317,3.799-5.317,3.799s0.291-0.613,1.581,0.493
	c1.291,1.106,0.86,1.353,0.86,1.353c-0.576,0.738-1.867,0.119-1.867,0.119c-1.723-0.123-2.584-0.492-2.584-0.492
	c0.143,0.859,1.864,2.58,1.864,2.58c0.43,1.598-0.863,1.842-0.863,1.842c-0.43-0.247-3.011-2.707-3.011-2.707
	c-2.156,1.963-3.017,1.716-3.016,0.98c0-0.738,2.013-3.19,2.013-3.19c-0.575-0.494-0.574-1.597-0.574-1.597s2.592-6.75,3.744-8.099
	c1.148-1.351,3.087-2.454,3.087-2.454c2.803-1.838,4.958-3.677,4.958-3.677c0.865-2.762,3.054-33.516,3.707-38.857
	c0.652-5.338,1.525-5.695,2.594-8.284c0.589-1.432,0.583-2.394,1.081-4.787c0.743-3.562,0.248-26.705,1.548-33.149
	c1.3-6.444,3.669-7.362,6.037-7.911c2.37-0.551,12.492-2.564,15.079-5.324c2.586-2.758,3.24-8.836,3.24-8.836l15.416,0.019
	c0,0,0.639,6.079,3.219,8.843c2.58,2.766,12.697,4.804,15.065,5.36c2.367,0.555,4.736,1.478,6.021,7.927
	c1.283,6.446,0.395,29.651,1.468,33.152c0,0,0.169,2.563,1.07,4.789c1.315,3.252,1.935,2.95,2.573,8.291
	c0.64,5.342,2.757,36.1,3.614,38.865c0,0,2.151,1.844,4.948,3.688c0,0,1.936,1.108,3.082,2.46c1.147,1.352,3.723,8.106,3.723,8.106
	s0,1.104-0.576,1.596c0,0,2.007,2.459,2.006,3.196c0,0.736-0.862,0.979-3.013-0.987c0,0-2.587,2.455-3.019,2.699
	c0,0-1.292-0.246-0.858-1.844c0,0,1.724-1.715,1.87-2.574c0,0-0.861,0.366-2.585,0.487c0,0-1.294,0.612-1.866-0.126
	c0,0-0.431-0.246,0.863-1.35c1.291-1.104,1.58-0.488,1.58-0.488s-3.299-2.83-5.307-3.814c0,0,2.721,5.529,2,6.021
	c-0.716,0.489-3.44-2.46-3.869-3.935c0,0-2.439-1.722-3.871-4.425c-1.431-2.702-0.563-7.121-0.563-7.121
	s-9.872-29.721-11.437-42.122c-1.563-12.403-1.095-10.821-1.688-14.741c-1.808-11.919-2.153-13.136-2.153-13.136
	s-5.327,14.237-4.475,21.849c0.852,7.614,1.853,9.089,4.146,12.528c0,0,11.75,17.398,7.705,39.334
	c-4.047,21.936-10.389,45.623-10.111,51.026c0,0,3.715,17.683,2.7,24.801c-1.015,7.122-4.04,15.713-4.187,19.887
	c-0.148,4.176-2.748,18.54-2.469,22.839c0.283,4.297,1.434,3.195,1.287,4.912c-0.145,1.721-1.296,2.576-1.298,3.683
	c-0.001,1.105-3.028,12.768-9.187,1.958c0,0-0.139-5.156,0.008-6.876c0.145-1.721,0.43-0.37,1.007-3.068
	c0.579-2.7,0.173-23.082-0.253-26.644c-0.428-3.563-1.857-9.212-1.85-14.739c0.006-5.524,2.025-12.161,1.453-14.985
	c-0.571-2.822-2.146-5.162-2.572-9.826c0,0-0.571-3.195,0.01-8.843c0.584-5.646,0.373-19.276-0.225-25.907
	c-0.597-6.629-0.951-17.188,0.033-26.764"/>
<path fill="#332101" stroke="#000000" stroke-width="0.1593" stroke-miterlimit="10" d="M437.69,198.984
	c-7.251-1.356-13.161,0.257-19.757-3.276c-6.357-3.406-14.395-5.667-15.231-26.539c-0.835-20.872,17.918-19.167,17.918-19.167
	s11.387-0.197,15.974,3.982c3.815,3.475,4.036,12.986,3.133,22.595c-1.294,13.787,1.399,19.461,1.115,22.623L437.69,198.984z"/>
<path stroke="#000000" stroke-width="0.3983" stroke-miterlimit="10" d="M438.303,198.985c0,0,14.504,0.017,14.489,11.313
	c0,0-10.64,10.563-12.206,15.4c-3.52,10.849-3.924,14.141-3.929,18.198c-0.013,10.4,7.303,18.925,10.238,29.75
	c6.396,23.583-0.149,51.387-4.382,67.773c-0.873,3.376-22.124,5.454-22.124,5.454l-2.506-110.062L438.303,198.985z"/>
<path stroke="#000000" stroke-width="0.3983" stroke-miterlimit="10" d="M402.578,198.942c0,0-14.504-0.017-14.519,11.281
	c0,0,10.617,10.586,12.172,15.429c3.492,10.856,3.888,14.148,3.883,18.206c-0.012,10.4-7.346,18.908-10.31,29.726
	c-6.449,23.568,0.03,51.387,4.224,67.784c0.863,3.378,22.362,5.507,22.362,5.507l2.516-110.056L402.578,198.942z"/>
<g>
	<path fill="#141414" d="M416.086,429.551c0,0-3.135,5.575-3.139,9.067c-0.004,3.491,1.448,4.424,2.174,4.19
		c0.725-0.231,1.362-0.774,1.362-0.774v0.81c0,0-4.27,3.986-12.158-0.014c0,0,0.457-5.081,0.917-9.966
		C405.413,431.061,410.236,425.443,416.086,429.551z"/>
	<path fill="#673632" stroke="#000000" stroke-width="0.042" stroke-miterlimit="10" d="M416.086,429.551
		c0,0-0.325,10.775,0.397,12.483c0,0-0.596,2.32-3.541,0.928C409.999,441.564,413.769,429.636,416.086,429.551z"/>
	<path fill="#B60503" d="M411.703,418.128l-1.904-0.001c0,0-2.536,3.896-3.718,5.447c-1.182,1.552-1.284,2.149-1.287,4.554
		c-0.003,2.407,0.177,4.039,0.448,4.736c0,0,2.544-2.481,4.083,1.865c0.748,2.116,0.711,11.178,0.711,11.178h1.635
		c0,0-0.356-7.986,0.013-11.097c0.184-1.552,2.825-2.213,3.825-3.996c1-1.784,1.405-3.901,0.449-6.009
		C415.383,423.541,412.066,418.746,411.703,418.128z"/>
	<polygon fill="#141414" points="411.621,444.612 410.031,444.57 410.035,445.907 411.67,445.907 	"/>
</g>
<g>
	<path fill="#141414" d="M423.752,429.562c0,0,3.12,5.581,3.115,9.073c-0.004,3.491-1.454,4.417-2.183,4.187
		c-0.726-0.233-1.36-0.776-1.36-0.776l-0.001,0.808c0,0,4.262,3.997,12.159,0.014c0,0-0.449-5.078-0.895-9.968
		C434.422,431.093,429.611,425.465,423.752,429.562z"/>
	<path fill="#673632" stroke="#000000" stroke-width="0.042" stroke-miterlimit="10" d="M423.752,429.562
		c0,0,0.3,10.774-0.428,12.483c0,0,0.592,2.318,3.539,0.933C429.81,441.59,426.07,429.651,423.752,429.562z"/>
	<path fill="#B60503" d="M428.162,418.146l1.904,0.001c0,0,2.526,3.907,3.705,5.458c1.18,1.554,1.277,2.155,1.273,4.561
		c-0.002,2.406-0.186,4.034-0.457,4.732c0,0-2.537-2.485-4.086,1.86c-0.752,2.109-0.74,11.173-0.74,11.173l-1.633-0.001
		c0,0,0.375-7.985,0.014-11.101c-0.178-1.551-2.819-2.223-3.813-4.008c-0.997-1.784-1.399-3.902-0.438-6.006
		C424.467,423.552,427.799,418.765,428.162,418.146z"/>
	<polygon fill="#141414" points="428.183,444.63 429.773,444.592 429.762,445.932 428.129,445.931 	"/>
</g>
</svg>
