<?xml version="1.0" encoding="utf-8"?>
<!-- Generator: Adobe Illustrator 16.0.0, SVG Export Plug-In . SVG Version: 6.00 Build 0)  -->
<!DOCTYPE svg PUBLIC "-//W3C//DTD SVG 1.1//EN" "http://www.w3.org/Graphics/SVG/1.1/DTD/svg11.dtd">
<svg version="1.1" id="图层_1" xmlns="http://www.w3.org/2000/svg" xmlns:xlink="http://www.w3.org/1999/xlink" x="0px" y="0px"
	 width="841.89px" height="595.28px" viewBox="0 0 841.89 595.28" enable-background="new 0 0 841.89 595.28" xml:space="preserve">
<g>
	<path fill="#191503" d="M427.917,182.141c0,0-0.001,0.083-0.001,0.24c0.004,0.152-0.013,0.396,0.006,0.668
		c0.03,0.272,0.038,0.583,0.103,0.987c0.06,0.4,0.126,0.852,0.198,1.344c0.074,0.503,0.141,1.055,0.174,1.654
		c0.005,0.301-0.006,0.615-0.016,0.932c-0.064,0.33-0.07,0.63-0.191,0.998l-0.081,0.221l-0.141,0.257
		c-0.094,0.183-0.208,0.304-0.316,0.447c-0.226,0.271-0.48,0.502-0.741,0.724c-0.527,0.433-1.093,0.801-1.639,1.178
		c-0.526,0.378-1.121,0.753-1.406,1.235c-0.076,0.118-0.103,0.236-0.102,0.354c-0.002,0.19,0.038,0.268,0.09,0.375
		c0.123,0.223,0.383,0.385,0.654,0.507c0.547,0.254,1.149,0.403,1.674,0.685c0.264,0.135,0.502,0.32,0.689,0.541
		c0.164,0.237,0.285,0.501,0.287,0.771c0.078,0.5-0.127,1.004-0.346,1.333c-0.215,0.355-0.486,0.597-0.699,0.796
		c-0.444,0.383-0.729,0.56-0.729,0.56s0.275-0.192,0.697-0.594c0.201-0.207,0.456-0.46,0.646-0.813
		c0.195-0.353,0.361-0.766,0.264-1.268c-0.012-0.234-0.133-0.459-0.28-0.655c-0.173-0.181-0.388-0.337-0.642-0.45
		c-0.502-0.24-1.094-0.355-1.697-0.597c-0.296-0.12-0.629-0.282-0.848-0.615c-0.107-0.169-0.171-0.408-0.168-0.546
		c-0.021-0.199,0.031-0.423,0.123-0.583c0.371-0.674,0.959-1.041,1.479-1.467c0.533-0.408,1.068-0.798,1.538-1.224
		c0.474-0.443,0.847-0.866,1.002-1.401c0.065-0.229,0.07-0.555,0.11-0.816c-0.008-0.285-0.012-0.561-0.028-0.833
		c-0.059-0.546-0.147-1.067-0.243-1.552c-0.098-0.494-0.188-0.947-0.268-1.348c-0.084-0.396-0.121-0.795-0.166-1.103
		c-0.034-0.309-0.029-0.526-0.041-0.686c-0.007-0.156-0.011-0.24-0.011-0.24L427.917,182.141z"/>
</g>
<g>
	<path fill="#191503" d="M450.699,179.157c0,0-0.004,0.083-0.012,0.24c-0.012,0.16-0.006,0.377-0.041,0.686
		c-0.044,0.307-0.081,0.707-0.166,1.103c-0.079,0.401-0.169,0.854-0.268,1.348c-0.096,0.484-0.184,1.006-0.242,1.552
		c-0.018,0.271-0.021,0.548-0.029,0.833c0.041,0.261,0.045,0.588,0.111,0.816c0.154,0.535,0.527,0.958,1.002,1.401
		c0.469,0.426,1.004,0.816,1.538,1.224c0.519,0.427,1.106,0.793,1.478,1.467c0.092,0.159,0.145,0.383,0.124,0.583
		c0.003,0.138-0.061,0.376-0.169,0.546c-0.219,0.333-0.551,0.495-0.847,0.615c-0.604,0.242-1.196,0.356-1.698,0.597
		c-0.254,0.113-0.468,0.269-0.641,0.45c-0.148,0.196-0.27,0.421-0.281,0.655c-0.098,0.502,0.068,0.915,0.264,1.268
		c0.191,0.353,0.445,0.606,0.646,0.813c0.422,0.401,0.697,0.594,0.697,0.594s-0.283-0.177-0.729-0.56
		c-0.213-0.199-0.483-0.441-0.699-0.796c-0.219-0.328-0.423-0.832-0.346-1.333c0.002-0.27,0.123-0.534,0.288-0.771
		c0.188-0.22,0.425-0.406,0.689-0.541c0.524-0.282,1.127-0.431,1.673-0.685c0.271-0.122,0.531-0.285,0.655-0.507
		c0.052-0.107,0.092-0.185,0.089-0.375c0.002-0.118-0.024-0.236-0.102-0.354c-0.285-0.482-0.879-0.857-1.406-1.235
		c-0.545-0.376-1.111-0.745-1.639-1.178c-0.26-0.222-0.516-0.453-0.74-0.724c-0.109-0.143-0.223-0.264-0.316-0.447l-0.141-0.257
		l-0.082-0.221c-0.121-0.368-0.127-0.668-0.191-0.998c-0.01-0.317-0.02-0.631-0.016-0.932c0.034-0.599,0.101-1.15,0.174-1.654
		c0.073-0.492,0.14-0.944,0.199-1.344c0.064-0.404,0.072-0.715,0.102-0.987c0.02-0.273,0.003-0.516,0.007-0.668
		c-0.001-0.156-0.001-0.24-0.001-0.24L450.699,179.157z"/>
</g>
<path fill="#F6B593" d="M439.931,288.646c0,0-4.648-9.787-3.688-0.208c0.96,9.578,0.581,20.135-0.032,26.763
	c-0.613,6.631-0.854,20.259-0.286,25.906c0.569,5.648-0.011,8.841-0.011,8.841c-0.436,4.667-2.016,7.001-2.595,9.823
	c-0.579,2.82,1.425,9.464,1.419,14.987c-0.006,5.525-1.451,11.174-1.886,14.736c-0.435,3.561-0.89,23.941-0.317,26.643
	c0.57,2.701,0.86,1.35,1.002,3.071c0.141,1.719-0.01,6.875-0.01,6.875c-6.185,10.797-9.185-0.875-9.184-1.981
	c0.002-1.105-1.146-1.964-1.287-3.683c-0.143-1.719,1.006-0.614,1.298-4.909c0.292-4.298-2.275-18.671-2.414-22.847
	c-0.138-4.174-3.142-12.772-4.14-19.894c-0.996-7.122,2.758-24.797,2.758-24.797c0.293-5.403-5.994-29.104-9.988-51.05
	c-3.994-21.945,7.798-39.314,7.798-39.314c2.302-3.434,3.307-4.907,4.177-12.519c0.869-7.61-4.422-21.859-4.422-21.859
	s-0.705,1.366-2.207,13.313c-0.646,5.147-0.109,2.153-1.702,14.553c-1.593,12.398-11.535,42.096-11.535,42.096
	s0.856,4.419-0.581,7.119c-1.438,2.699-3.88,4.416-3.88,4.416c-0.432,1.472-3.163,4.416-3.88,3.924
	c-0.719-0.491,2.016-6.014,2.016-6.014c-2.011,0.979-5.317,3.799-5.317,3.799s0.29-0.613,1.581,0.493s0.859,1.353,0.859,1.353
	c-0.576,0.738-1.867,0.119-1.867,0.119c-1.723-0.123-2.584-0.492-2.584-0.492c0.144,0.859,1.864,2.58,1.864,2.58
	c0.43,1.598-0.862,1.842-0.862,1.842c-0.431-0.247-3.012-2.707-3.012-2.707c-2.156,1.963-3.018,1.716-3.016,0.98
	c0-0.738,2.012-3.19,2.012-3.19c-0.574-0.494-0.573-1.597-0.573-1.597s2.592-6.75,3.744-8.099c1.148-1.351,3.087-2.454,3.087-2.454
	c2.803-1.838,4.958-3.677,4.958-3.677c0.864-2.762,3.054-33.516,3.706-38.857c0.652-5.338,1.525-5.695,2.594-8.284
	c0.59-1.432,0.584-2.394,1.082-4.787c0.742-3.562,0.247-26.705,1.547-33.149c1.301-6.444,3.67-7.362,6.037-7.911
	c2.37-0.551,12.492-2.564,15.079-5.324c2.586-2.758,3.731-11.49,3.731-11.49l14.767-0.63c0,0,0.796,9.381,3.376,12.146
	c2.58,2.766,12.697,4.804,15.065,5.36c2.367,0.555,4.736,1.478,6.021,7.927c1.283,6.446,0.395,29.651,1.468,33.152
	c0,0,0.169,2.563,1.07,4.789c1.315,3.252,1.935,2.95,2.573,8.291c0.64,5.342,2.757,36.1,3.614,38.865c0,0,2.151,1.844,4.948,3.688
	c0,0,1.936,1.108,3.082,2.46c1.147,1.352,3.723,8.106,3.723,8.106s0,1.104-0.576,1.596c0,0,2.007,2.459,2.006,3.196
	c0,0.736-0.862,0.979-3.013-0.987c0,0-2.587,2.455-3.019,2.699c0,0-1.292-0.246-0.858-1.844c0,0,1.724-1.715,1.87-2.574
	c0,0-0.861,0.366-2.585,0.487c0,0-1.294,0.612-1.866-0.126c0,0-0.431-0.246,0.863-1.35c1.291-1.104,1.58-0.488,1.58-0.488
	s-3.299-2.83-5.307-3.814c0,0,2.721,5.529,2,6.021c-0.716,0.489-3.44-2.46-3.869-3.935c0,0-2.439-1.722-3.871-4.425
	c-1.431-2.703-0.563-7.121-0.563-7.121s-9.872-29.721-11.437-42.122c-1.563-12.403-1.095-10.821-1.688-14.741
	c-1.808-11.919-2.153-13.136-2.153-13.136s-5.327,14.237-4.475,21.849c0.852,7.614,1.853,9.089,4.146,12.528
	c0,0,11.75,17.398,7.705,39.334c-4.047,21.937-10.389,45.622-10.111,51.026c0,0,3.715,17.683,2.7,24.801
	c-1.015,7.122-4.04,15.713-4.187,19.887c-0.148,4.176-2.748,18.54-2.469,22.839c0.283,4.297,1.434,3.195,1.287,4.912
	c-0.145,1.721-1.296,2.576-1.298,3.683c-0.001,1.105-3.028,12.768-9.187,1.958c0,0-0.139-5.156,0.008-6.876
	c0.145-1.721,0.43-0.37,1.007-3.068c0.579-2.7,0.173-23.082-0.253-26.644c-0.428-3.563-1.857-9.212-1.85-14.739
	c0.006-5.524,2.025-12.16,1.453-14.985c-0.571-2.822-2.146-5.161-2.572-9.827c0,0-0.571-3.195,0.01-8.842
	c0.584-5.646,0.373-19.276-0.225-25.907c-0.597-6.629-0.951-17.188,0.033-26.764"/>
<path fill="#141414" d="M433.727,427.129c0,0-3.135,5.575-3.139,9.067c-0.005,3.491,1.447,4.424,2.174,4.19
	c0.725-0.231,1.361-0.774,1.361-0.774v0.81c0,0-4.27,3.986-12.157-0.014c0,0,0.457-5.081,0.917-9.966
	C423.054,428.639,427.877,423.021,433.727,427.129z"/>
<path fill="#231D1D" stroke="#000000" stroke-width="0.042" stroke-miterlimit="10" d="M433.727,427.129
	c0,0-0.325,10.775,0.396,12.483c0,0-0.596,2.32-3.541,0.928C427.639,439.143,431.409,427.214,433.727,427.129z"/>
<path d="M429.344,415.706l-1.904-0.001c0,0-2.536,3.896-3.718,5.447c-1.183,1.552-1.284,2.149-1.287,4.554
	c-0.003,2.407,0.177,4.039,0.448,4.736c0,0,2.543-2.481,4.082,1.865c0.748,2.116,0.711,11.178,0.711,11.178h1.635
	c0,0-0.355-7.986,0.014-11.097c0.184-1.552,2.824-2.213,3.824-3.996c1-1.784,1.406-3.901,0.449-6.009
	C433.023,421.119,429.707,416.324,429.344,415.706z"/>
<polygon fill="#141414" points="429.262,442.19 427.672,442.148 427.676,443.485 429.311,443.485 "/>
<path fill="#141414" d="M441.393,427.14c0,0,3.12,5.581,3.115,9.073c-0.004,3.491-1.454,4.417-2.183,4.187
	c-0.726-0.233-1.36-0.776-1.36-0.776l-0.001,0.808c0,0,4.262,3.997,12.159,0.014c0,0-0.449-5.078-0.895-9.968
	C452.063,428.671,447.252,423.043,441.393,427.14z"/>
<path fill="#231D1D" stroke="#000000" stroke-width="0.042" stroke-miterlimit="10" d="M441.393,427.14c0,0,0.3,10.774-0.428,12.483
	c0,0,0.592,2.318,3.539,0.933C447.45,439.168,443.711,427.229,441.393,427.14z"/>
<path d="M445.803,415.725l1.904,0.001c0,0,2.526,3.907,3.705,5.458c1.18,1.554,1.277,2.155,1.273,4.561
	c-0.002,2.406-0.186,4.034-0.457,4.732c0,0-2.537-2.485-4.086,1.86c-0.752,2.109-0.74,11.173-0.74,11.173l-1.633-0.001
	c0,0,0.375-7.985,0.014-11.101c-0.178-1.551-2.819-2.223-3.813-4.008c-0.997-1.784-1.399-3.902-0.438-6.006
	C442.107,421.13,445.439,416.343,445.803,415.725z"/>
<polygon fill="#141414" points="445.823,442.208 447.414,442.17 447.402,443.51 445.77,443.509 "/>
<path fill="#332101" d="M419.15,161.002c0,0,1.858,27.015,18.521,26.642c16.663-0.374,16.663-22.072,18.521-25.042"/>
<g>
	<path fill="#030303" stroke="#070000" stroke-width="1.0075" stroke-miterlimit="10" d="M419.228,162.547
		c0,0-1.173-16.392,8.543-20.154c10.274-3.978,19.647-1.921,24.006,1.549c3.077,2.45,5.638,4.5,4.366,20.157
		c0,0,9.096,9.148,32.371,8.371c0,0-1.688,12.412-17.098,15.352c-7.82,1.492-19.277-8.994-25.64-9.304
		c-14.915-0.725-20.551,9.459-32.188,10.697c-11.638,1.242-23.093-9.612-24.367-18.76
		C389.221,170.455,409.404,172.624,419.228,162.547z"/>
	<path fill="#FFFFFF" d="M419.102,161.002c0,0,14.949,11.781,37.139,1.859l-0.098,1.238c0,0-19.821,10.699-36.915-1.552
		L419.102,161.002z"/>
</g>
<path d="M418.123,223.23c0,0,19.777,16.714,20.744,20.381c0,0,12.92-20.501,19.359-20.334c0,0-7.586,17.207-2.414,28.172
	c4.326,9.17,1.711,4.514,7.089,16.611c4.099,9.219,3.679,14.677,3.536,20.712c-0.438,18.485-10.104,47.179-9.096,67.177
	c0.398,7.931,13.325,77.986,38.992,83.653c0,0-6.59,17.489-19.09,8.739c-12.276-8.594-17.621-4.323-24.121-1.062
	s-9.846-0.616-12.14-1.75c-7.345-3.631-10.65,1.583-14.483,6.25s-12.5-5.175-14.833-7.509s-0.5,4.011-9,7.011
	s-16.431-12.334-25.23-7.498c-4.322,2.375-3.773,1.489-9.853,3.58C357.506,450.83,362,442.948,344,442.84
	c3.872-2.961,77.063-56.938,75.5-95.732c-0.576-14.286-9.375-43.334-9.632-55.835c-0.535-25.988,7.19-29.141,10.911-37.818
	S419.746,225.682,418.123,223.23z"/>
</svg>
