<?xml version="1.0" encoding="utf-8"?>
<!-- Generator: Adobe Illustrator 18.1.1, SVG Export Plug-In . SVG Version: 6.00 Build 0)  -->
<!DOCTYPE svg PUBLIC "-//W3C//DTD SVG 1.1//EN" "http://www.w3.org/Graphics/SVG/1.1/DTD/svg11.dtd">
<svg version="1.1" id="图层_1" xmlns="http://www.w3.org/2000/svg" xmlns:xlink="http://www.w3.org/1999/xlink" x="0px" y="0px"
	 viewBox="474.8 166.6 94.5 309.6" enable-background="new 474.8 166.6 94.5 309.6" xml:space="preserve">
<path fill="#FFBA48" stroke="#000000" stroke-width="0.25" stroke-miterlimit="10" d="M503.3,206.5c0,0,1.1,7.2,2,9.2
	s3.2,4.3,3.7,5.5s-0.8,5.5-1.2,7.4s24.9,2,24.9,0c0,0-1.5-2.2-1.8-7c0,0,0.8-1.5,2.9-4.5c0,0,1.3-1.2,1.9-5.4
	c0.2-1.6,0.8-5.7,0.8-5.7"/>
<path fill="#FFBA48" stroke="#000000" stroke-width="0.25" stroke-miterlimit="10" d="M500,197c-0.8-0.4-3.4-2.3-3.9,0
	s-0.3,5.7,1.9,8.3s4.1,3.2,5.6,3.2"/>
<path fill="#FFBA48" stroke="#000000" stroke-width="0.25" stroke-miterlimit="10" d="M539.3,197.9c0,0,1.5-1.4,4-1.1
	c0,0,2.6,1.7-0.8,8.3c0,0-2.6,4.4-7.3,4.2"/>
<polyline fill="#FFBA48" points="540.8,197.6 535.3,197.6 536.6,208.6 "/>
<path fill="none" stroke="#000000" stroke-width="0.25" stroke-miterlimit="10" d="M498.8,197c0,0-1.9-0.1-1.6,2.9
	c0.4,4.1,2.6,5.3,5.4,5.9"/>
<path fill="none" stroke="#000000" stroke-width="0.25" stroke-miterlimit="10" d="M536,206.6c0,0,3.3,1,4.8-2.1
	c1.9-3.9,2-4.8,1.5-5.5c-0.5-0.7-2.4-0.5-4.7,0.3"/>
<path stroke="#000000" stroke-miterlimit="10" d="M534.6,175.7"/>
<path fill="#1B260E" d="M480.8,263c0,0,0-3.4,0-3.5"/>
<path fill="#FFBB48" stroke="#000000" stroke-width="0.25" stroke-miterlimit="10" d="M480.8,259.5c0,0-2.2,7.3-2.9,13.9
	s-1,8.6-1.8,11.3s-1.2,5.4-0.8,11.4c1,14.9,0.6,11.4,1.4,17.9s1.9,8.4,2.1,11.8c0.1,3.1,0.2,13.2,1,14.5c0,0,1.9,1.9,4,1
	c0,0,1.8,1.2,3.7,0.8c0,0,3.2,0.6,3.6-1.8c0,0,0.3-1.3-1.2-1.3c-1.1,0-1.7-0.3-2-1.2c-0.3-0.8-1-3-0.3-3.3c0.7-0.3,1-0.7,1.5-0.7
	s1.1,3.1,2.1,3.5c1,0.4,2,1,2.5,0.7c0.5-0.3-0.8-5.1-0.8-5.1s-5.1-9-5.4-11c-0.7-3.8,0-11.3,0.3-13.2c0.4-2.8,1.3-4.3,1.3-7.7
	c0-3.4-0.2-4.9-0.3-5.8s0.2-5,0.5-7.3s3.8-12.3,4.5-15.8S493.8,253.1,480.8,259.5z"/>
<path fill="none" stroke="#000000" stroke-width="0.25" stroke-miterlimit="10" d="M477.9,287.8c0,0-1,2.8-0.8,4.8"/>
<path fill="none" stroke="#000000" stroke-width="0.25" stroke-miterlimit="10" d="M481.7,287.8c0,0,0.7,2.6,0,5.3"/>
<path fill="none" stroke="#000000" stroke-width="0.25" stroke-miterlimit="10" d="M482,338.2c0,0,0.6,0.8,1.7,0.7
	c1.1-0.2,2.2-1.4,3.2-1.2c1,0.2,1.8,2.6-3.1,3.7"/>
<path fill="none" stroke="#000000" stroke-width="0.25" stroke-miterlimit="10" d="M487.6,339.3c0,0,1.6-0.4,1.6,0.7
	c0.1,1.1-1.7,2-1.7,2"/>
<path fill="none" stroke="#000000" stroke-width="0.25" stroke-miterlimit="10" d="M485.3,328.2c0,0-0.5,4.2-2.4,5.9"/>
<path fill="none" stroke="#000000" stroke-width="0.25" stroke-miterlimit="10" d="M489,333.7c0,0-3-0.3-3.7-3.2"/>
<path fill="#FFBB48" stroke="#000000" stroke-width="0.25" stroke-miterlimit="10" d="M558.1,257.6c0,0,2.1,9.4,2.9,15.9
	c0.8,6.6,1,8.6,1.8,11.3s1.2,5.4,0.8,11.4c-1,14.9-0.6,11.4-1.4,17.9s-1.9,8.4-2.1,11.8c-0.1,3.1-0.2,13.2-1,14.5c0,0-1.9,1.9-4,1
	c0,0-1.8,1.2-3.7,0.8c0,0-3.2,0.6-3.6-1.8c0,0-0.3-1.3,1.2-1.3c1.1,0,1.7-0.3,2-1.2s1-3,0.3-3.3s-1-0.7-1.5-0.7s-1.1,3.1-2.1,3.5
	s-2,1-2.5,0.7c-0.5-0.3,0.8-5.1,0.8-5.1s5.1-9,5.4-11c0.7-3.8,0-11.3-0.3-13.2c-0.4-2.8-1.3-4.3-1.3-7.7c0-3.4,0.2-4.9,0.3-5.8
	c0.2-0.8-0.2-5-0.5-7.3s-3.8-12.3-4.5-15.8C544.6,268.4,545.1,251.2,558.1,257.6z"/>
<path fill="none" stroke="#000000" stroke-width="0.25" stroke-miterlimit="10" d="M561,287.9c0,0,1,2.8,0.8,4.8"/>
<path fill="none" stroke="#000000" stroke-width="0.25" stroke-miterlimit="10" d="M557.2,287.9c0,0-0.7,2.6,0,5.3"/>
<path fill="none" stroke="#000000" stroke-width="0.25" stroke-miterlimit="10" d="M556.8,338.3c0,0-0.6,0.8-1.7,0.7
	s-2.2-1.4-3.2-1.2s-1.8,2.6,3.1,3.7"/>
<path fill="none" stroke="#000000" stroke-width="0.25" stroke-miterlimit="10" d="M551.3,339.4c0,0-1.6-0.4-1.6,0.7
	c-0.1,1.1,1.7,2,1.7,2"/>
<path fill="none" stroke="#000000" stroke-width="0.25" stroke-miterlimit="10" d="M553.6,328.4c0,0,0.5,4.3,2.4,5.9"/>
<path fill="none" stroke="#000000" stroke-width="0.25" stroke-miterlimit="10" d="M549.9,333.8c0,0,3-0.3,3.7-3.2"/>
<path stroke="#000000" stroke-width="0.25" stroke-miterlimit="10" d="M496.3,459.7c0.8-1.8-2.6,13.1,0.8,14.9s12.6,1,14.5,0.8
	s3.2-12.2,2-15C510.3,453.2,496.3,459.7,496.3,459.7z"/>
<rect x="502.9" y="458.2" stroke="#000000" stroke-width="0.25" stroke-miterlimit="10" width="2.6" height="14.6"/>
<path stroke="#000000" stroke-width="0.25" stroke-miterlimit="10" d="M505.1,475.7c8.2,0,6.8,0,7.7-3h-17
	C495.8,472.7,495.7,475.7,505.1,475.7z"/>
<path stroke="#000000" stroke-width="0.25" stroke-miterlimit="10" d="M542.4,460.1c0.4,4.4,2.6,13.1-0.8,14.9s-12.6,1-14.5,0.8
	s-3.1-12.1-2-15C527.8,453.5,542.4,460.1,542.4,460.1z"/>
<rect x="533.1" y="458.5" stroke="#000000" stroke-width="0.25" stroke-miterlimit="10" width="2.6" height="14.6"/>
<path stroke="#000000" stroke-width="0.25" stroke-miterlimit="10" d="M533.5,476.1c-8.2,0-6.8,0-7.7-3h17
	C542.8,473.1,543,476.1,533.5,476.1z"/>
<path fill="#031C1C" stroke="#000000" stroke-width="0.25" stroke-miterlimit="10" d="M484.7,239.5c0,0-7.6,30.9-9.5,44
	c-0.9,6.1,0.9,21.2,0.9,25.8c0,2.3,0.2,10,1.7,16.4l10.5-3.1c0,0-0.6-10.8,0.6-21.9c0.1-1.2-0.4-11.1,0.2-13.1
	c3.5-12.6,4.6-14.3,4.6-14.3s-1.3-6.8-2.7-15.5C489.6,249.2,484.7,239.5,484.7,239.5z"/>
<path fill="#031C1C" stroke="#000000" stroke-width="0.25" stroke-miterlimit="10" d="M554.4,239.6c0,0,8.9,39.8,9.3,42.9
	c0.4,3.2,0.6,6,0,22.7c-0.3,7.8-1.9,15.6-2.8,20.6l-10.3-2.6c0,0-0.2-18.7-0.9-29.9c-0.6-9.9-2.6-14.4-4.2-20.3
	S541.1,228.1,554.4,239.6z"/>
<path fill="#031C1C" stroke="#000000" stroke-width="0.25" stroke-miterlimit="10" d="M494.6,320.7c0,0-3.8,22.2-3.5,25
	s-0.3,17.2,0,22.5s2.8,32.5,2.7,37.4c0,0,0.8,3.3,0.6,7.3c0,0,0.1,22.2,1.3,27.1s-0.5,11-0.4,12s-0.2,4.5-0.6,6s1,3.6,1,3.6
	s10.2-1.6,18.3,3.4c0,0,1.6-42,1.4-44.5s-0.2-12.9-0.2-13.5s0.4-9.9,1.2-21.1s3.3-28.9,3.3-28.9s-0.2,23.5,1.2,35.8s1.8,19,1.5,21.8
	s1.4,51.8,1.4,51.8s12-7.8,19.7-2.8c0,0-1.4-18.5-0.4-23s2-25.6,2-25.6s1.1-6.1,0-8.3c0,0,2.6-37.9,2.8-42s-0.1-13.8-0.6-20.5
	s-3-23.4-3-23.4H494.6z"/>
<path fill="#031C1C" stroke="#000000" stroke-width="0.25" stroke-miterlimit="10" d="M507.8,228.5c0,0-6,2.8-6.9,3
	c-2.6,0.6-12.4,3-15.5,6.7s3.4,13.2,8.4,35.2c0,0-0.5-3.3,0,3.7s-2.5,59.7-2.7,60h26l2.5-16.4l1.5,16.4h26.8c0,0-3.4-58.2-2.5-60.9
	c0,0,0,0.2,0.4-2.5c1.2-7.2,3.3-23.8,8.7-34.2c-1-2.1-3.9-3.3-11.8-6.6s-7.9-3.7-9.9-4.5C517,228.2,507.8,228.5,507.8,228.5z"/>
<path stroke="#000000" stroke-width="0.25" stroke-miterlimit="10" d="M569.3,236.7"/>
<path stroke="#000000" stroke-width="0.25" stroke-miterlimit="10" d="M475.2,236.7"/>
<path stroke="#000000" stroke-width="0.25" stroke-miterlimit="10" d="M542.8,182.7c-0.4,4.7-2.7,15.7-2.7,15.7
	c-1.7,1-2.1,3-4.3,8.3c-2.1,5.9-3.7,8-3.7,8s-3.9,3.1-12,3.3s-14-3.8-14-3.8s-3.3-6.9-4.3-10.9s-2.3-6.3-2.3-6.3
	c-4.1-10.2-2-20-2-20s0.2-10.8,22.3-10.2S543.2,177.3,542.8,182.7z"/>
<path fill="#161616" stroke="#000000" stroke-width="0.25" stroke-miterlimit="10" d="M501.1,201.3c0,0,16.8,7.6,36.2,1.4
	c0,0-0.8,7.9-4,12.4c0,0-9.5,7.9-26.8-0.1C506.6,215,503.6,211.6,501.1,201.3z"/>
<path fill="#FFFFFF" stroke="#000000" stroke-width="0.25" stroke-miterlimit="10" d="M518.5,232.2c8.8,0.1,15.5-1.7,16.8-2.4
	l-2.7-1.3h-24.9l-2.9,1.3C504.9,229.8,506.7,232,518.5,232.2z"/>
<path fill="#000C0C" stroke="#000000" stroke-width="0.25" stroke-miterlimit="10" d="M535.3,229.8l1.6,0.7c0,0-4,3.9-18.4,3.3
	s-14.2-2.4-15.2-3.3l1.6-0.7c0,0,5.6,2,15,2S535.3,229.8,535.3,229.8z"/>
<ellipse stroke="#000000" stroke-width="0.25" stroke-miterlimit="10" cx="478.1" cy="315.1" rx="0.6" ry="0.8"/>
<ellipse stroke="#000000" stroke-width="0.25" stroke-miterlimit="10" cx="478.5" cy="318.9" rx="0.6" ry="0.8"/>
<ellipse stroke="#000000" stroke-width="0.25" stroke-miterlimit="10" cx="479.2" cy="322.4" rx="0.6" ry="0.8"/>
<ellipse stroke="#000000" stroke-width="0.25" stroke-miterlimit="10" cx="561" cy="317.6" rx="0.6" ry="0.8"/>
<ellipse stroke="#000000" stroke-width="0.25" stroke-miterlimit="10" cx="560.3" cy="320.7" rx="0.6" ry="0.8"/>
<ellipse stroke="#000000" stroke-width="0.25" stroke-miterlimit="10" cx="559.7" cy="323.7" rx="0.6" ry="0.8"/>
</svg>
