<?xml version="1.0" encoding="utf-8"?>
<!-- Generator: Adobe Illustrator 16.0.0, SVG Export Plug-In . SVG Version: 6.00 Build 0)  -->
<!DOCTYPE svg PUBLIC "-//W3C//DTD SVG 1.1//EN" "http://www.w3.org/Graphics/SVG/1.1/DTD/svg11.dtd">
<svg version="1.1" id="图层_1" xmlns="http://www.w3.org/2000/svg" xmlns:xlink="http://www.w3.org/1999/xlink" x="0px" y="0px"
	 width="841.89px" height="595.28px" viewBox="0 0 841.89 595.28" enable-background="new 0 0 841.89 595.28" xml:space="preserve">
<path fill="#F7CA8B" stroke="#000000" stroke-width="0.2106" stroke-miterlimit="10" d="M402.063,181.552
	c-0.654,5.757,1.264,9.687,2.738,11.653c1.426,1.901,4.484,3.897,5.072,4.845c0.59,0.948-0.99,3.545-1.58,5.125
	c-0.589,1.58,29.32,1.685,29.32,0c0,0-1.856,0.116-2.151-3.885c0,0,2.183-1.701,4.622-4.228c0,0,2.273-2.559,2.625-6.49
	c0.123-1.392,0.052-6.248,0.052-6.248"/>
<path fill="#F7CA8B" stroke="#000000" stroke-width="0.2106" stroke-miterlimit="10" d="M400.923,176.727
	c-0.728-0.414-3.224-2.204-3.657,0c-0.434,2.203-0.314,5.351,1.828,7.868c2.145,2.518,3.896,3.012,5.302,3.06"/>
<path fill="#F7CA8B" stroke="#000000" stroke-width="0.2106" stroke-miterlimit="10" d="M445.656,176.896
	c0,0,1.17-0.659,2.299-0.695c0,0,3.145,1.115-0.696,7.592c0,0-2.416,4.072-6.675,3.851"/>
<polyline fill="#FFBA48" points="445.656,176.896 440.584,176.896 441.781,186.958 "/>
<path fill="#F7CA8B" stroke="#000000" stroke-width="0.2106" stroke-miterlimit="10" d="M399.836,176.684
	c0,0-1.787-0.141-1.516,2.703c0.373,3.916,2.409,4.967,5.09,5.539"/>
<path fill="#F7CA8B" stroke="#000000" stroke-width="0.2106" stroke-miterlimit="10" d="M441.502,185.209
	c0,0,2.738,0.916,4.154-1.99c1.734-3.559,1.815-4.438,1.38-5.051c-0.457-0.644-2.231-0.459-4.31,0.306"/>
<path stroke="#000000" stroke-width="0.9964" stroke-miterlimit="10" d="M445.357,177.763c-1.175,2.104-1.701,3.79-3.422,7.02
	c-2.467,4.993-4.322,6.739-4.322,6.739s-4.568,2.598-14.145,2.808c-9.576,0.21-16.552-3.205-16.552-3.205s-3.735-5.834-5.058-9.151
	c-0.715-1.795-2.639-6.951-2.639-6.951s-4.002-14.11,5.367-21.48c11.982-9.426,32.16-6.911,38.582,1.264
	C449.869,163.335,446.239,176.183,445.357,177.763z"/>
<path fill="#1B260E" stroke="#000000" stroke-width="0.25" stroke-miterlimit="10" d="M364.547,235.35c0,0-0.176,1.563,2.711,2.875
	c0,0,0.036-3.356,0-3.529C366.995,233.475,364.547,235.35,364.547,235.35z"/>
<path fill="#1A1D08" stroke="#000000" stroke-width="0.25" stroke-miterlimit="10" d="M480.678,235.196
	c-0.874,1.188-2.365,1.794-3.676,2.732c0,0-0.762-2.294-0.498-3.307L480.678,235.196z"/>
<path fill="#F7CA8B" stroke="#000000" stroke-width="0.25" stroke-miterlimit="10" d="M366.826,234.685
	c0,0-3.932,9.581-4.981,16.171s-1.399,8.59-2.448,11.34c-1.05,2.75-0.666,5.363-0.125,11.356
	c1.348,14.904,0.832,11.394,2.027,17.894s2.721,8.351,2.908,11.75c0.17,3.083,0.244,13.25,1.365,14.5c0,0,2.636,1.868,5.551,1
	c0,0,2.566,1.25,5.131,0.75c0,0,4.431,0.563,5.009-1.833c0,0,0.472-1.292-1.743-1.334c-1.475-0.027-2.333-0.334-2.799-1.166
	c-0.467-0.834-1.399-3-0.467-3.334c0.934-0.333,1.4-0.666,2.1-0.666s1.575,3.114,2.909,3.5c1.333,0.385,2.802,1,3.444,0.666
	c0.643-0.333-1.109-5.129-1.109-5.129s-5.084-8.97-5.576-10.954c-0.934-3.753-0.944-11.264-0.533-13.249
	c0.58-2.806,0.804-4.31,0.865-7.729c0.062-3.444,0.768-4.937,0.534-5.771s1.233-5,1.699-7.333s4.913-13.836,5.487-18.567
	C386.513,242.942,385.045,228.319,366.826,234.685z"/>
<path fill="none" stroke="#000000" stroke-width="0.2957" stroke-miterlimit="10" d="M362.845,265.281c0,0-1.399,2.833-1.05,4.75"/>
<path fill="none" stroke="#000000" stroke-width="0.2957" stroke-miterlimit="10" d="M368.208,265.281c0,0,0.932,2.583,0,5.333"/>
<path fill="none" stroke="#000000" stroke-width="0.2957" stroke-miterlimit="10" d="M368.676,315.612c0,0,0.813,0.833,2.33,0.667
	c1.518-0.167,3.032-1.417,4.432-1.25c1.399,0.166,2.449,2.584-4.314,3.667"/>
<path fill="none" stroke="#000000" stroke-width="0.2957" stroke-miterlimit="10" d="M376.396,316.729c0,0,2.188-0.368,2.305,0.716
	c0.118,1.083-2.447,2.001-2.447,2.001"/>
<path fill="none" stroke="#000000" stroke-width="0.2957" stroke-miterlimit="10" d="M373.223,305.695c0,0-0.699,4.25-3.382,5.916"
	/>
<path fill="none" stroke="#000000" stroke-width="0.2957" stroke-miterlimit="10" d="M378.354,311.113c0,0-4.197-0.252-5.131-3.168"
	/>
<path fill="#F7CA8B" stroke="#000000" stroke-width="0.25" stroke-miterlimit="10" d="M476.383,235.175
	c0,0,1.709,9.195,2.758,15.786c1.05,6.59,1.4,8.59,2.449,11.34s1.666,5.363,1.125,11.356c-1.348,14.904-0.832,11.394-2.028,17.894
	c-1.195,6.5-2.72,8.351-2.907,11.75c-0.17,3.084-0.245,13.25-1.365,14.5c0,0-2.637,1.869-5.552,1c0,0-2.566,1.25-5.131,0.75
	c0,0-4.431,0.563-5.009-1.833c0,0-0.471-1.292,1.744-1.333c1.475-0.027,2.332-0.334,2.799-1.167
	c0.466-0.833,1.398-2.999,0.466-3.333c-0.934-0.334-1.399-0.667-2.099-0.667c-0.7,0-1.576,3.114-2.91,3.5
	c-1.333,0.386-2.802,1.001-3.443,0.667c-0.643-0.334,1.109-5.129,1.109-5.129s5.083-8.971,5.576-10.955
	c0.934-3.753,0.943-11.263,0.533-13.249c-0.581-2.806-0.805-4.31-0.865-7.729c-0.063-3.444-0.669-5.212-0.436-6.045
	c0.234-0.833-0.332-4.725-0.799-7.059c-0.466-2.333-4.296-12.333-5.262-15.833C456.17,245.885,458.164,228.81,476.383,235.175z"/>
<path fill="none" stroke="#000000" stroke-width="0.2957" stroke-miterlimit="10" d="M479.141,265.386c0,0,1.4,2.833,1.05,4.75"/>
<path fill="none" stroke="#000000" stroke-width="0.2957" stroke-miterlimit="10" d="M473.777,265.386c0,0-0.932,2.583,0,5.333"/>
<path fill="none" stroke="#000000" stroke-width="0.2957" stroke-miterlimit="10" d="M473.311,315.717c0,0-0.814,0.834-2.331,0.667
	s-3.032-1.417-4.431-1.25c-1.399,0.167-2.449,2.584,4.313,3.667"/>
<path fill="none" stroke="#000000" stroke-width="0.2957" stroke-miterlimit="10" d="M465.59,316.834c0,0-2.188-0.367-2.306,0.716
	c-0.118,1.083,2.447,2.001,2.447,2.001"/>
<path fill="none" stroke="#000000" stroke-width="0.2957" stroke-miterlimit="10" d="M468.764,305.8c0,0,0.699,4.251,3.381,5.917"/>
<path fill="none" stroke="#000000" stroke-width="0.2957" stroke-miterlimit="10" d="M463.633,311.218c0,0,4.197-0.251,5.131-3.168"
	/>
<path fill="#474747" stroke="#000000" stroke-width="0.2787" stroke-miterlimit="10" d="M392.744,433.402
	c0.932-1.75-3.264,13.125,0.932,14.875s15.695,1,18.025,0.75c2.331-0.25,4.023-12.222,2.486-15
	C410.199,426.819,392.744,433.402,392.744,433.402z"/>
<rect x="400.979" y="431.851" fill="#FFFFFF" stroke="#000000" stroke-width="0.2787" stroke-miterlimit="10" width="3.263" height="14.552"/>
<path fill="#FFFFFF" stroke="#000000" stroke-width="0.2787" stroke-miterlimit="10" d="M403.756,449.402c10.219,0,8.457,0,9.584-3
	h-21.132C392.208,446.402,392.045,449.402,403.756,449.402z"/>
<path fill="#474747" stroke="#000000" stroke-width="0.28" stroke-miterlimit="10" d="M452.744,434.401
	c0.54,4.379,3.293,13.125-0.941,14.875s-15.84,1-18.191,0.75c-2.354-0.25-3.829-12.146-2.51-15
	C434.434,427.822,452.744,434.401,452.744,434.401z"/>
<rect x="441.139" y="432.85" fill="#FFFFFF" stroke="#000000" stroke-width="0.28" stroke-miterlimit="10" width="3.293" height="14.552"/>
<path fill="#FFFFFF" stroke="#000000" stroke-width="0.28" stroke-miterlimit="10" d="M441.63,450.401c-10.313,0-8.534,0-9.673-3
	h21.327C453.284,447.401,453.449,450.401,441.63,450.401z"/>
<path stroke="#000000" stroke-width="0.2957" stroke-miterlimit="10" d="M388.281,297.196c0,0-5.247,22.25-4.896,25
	c0.35,2.75-0.383,17.25-0.018,22.5c0.367,5.25,4.491,32.375,4.313,37.25c0,0,0.601,3.5,0.251,7.5c0,0,0.184,22.25,1.753,27.125
	s0.494,11,0.669,12s-1.496,4.5-2.047,6c-0.55,1.5,0.004,3.625,0.004,3.625s15.012-6.375,26.381-1.375c0,0,3.673-2.125,3.848-2.875
	s1.574-11.5,1.049-14.625c-0.523-3.125-1.049-4-1.049-4.5s0.35-20.375,0-22.875s0.426-7.75,0.426-8.375s0.623-5,1.673-16.25
	s2.624-33.75,2.624-33.75s-0.35,23.5,1.748,35.75c2.1,12.25,1.324,13.125,1.849,14.5s0.601,4.5,0.251,7.25
	s-0.128,19.279-0.65,23.375c0.779-6.054,1.23-8.838-0.574,4.125c-0.416,2.991,0.176,14.375,1.225,15.625s3.322,2.625,3.322,2.625
	s16.791-4.625,26.41,1.375c0,0,0.176-2-0.874-4s-1.022-5.25-1.022-5.25s-0.201-7.375,1.197-11.875
	c1.399-4.5,1.711-28.875,1.711-28.875s0.589-0.694,0.59-4.125c0,0,4.171-38.875,4.346-43s-0.175-13.75-0.875-20.5
	c-0.699-6.75-3.186-17.146-3.186-17.146L388.281,297.196z"/>
<path fill="#096D09" stroke="#000000" stroke-width="0.2957" stroke-miterlimit="10" d="M408.293,203.175
	c-6.959,2.346-8.816,3.237-14.891,4.271c-3.672,0.625-13.642,4.75-17.314,8s-11.543,17.313-11.543,19.875c0,0,2.273-2.75,18.539,3
	c3.537,8.327,0.99,8.226,1.673,14c0.396,3.348-2.674,15.504-2.757,24.011c-0.107,10.945,1.621,20.195,4.854,27.093h71.875
	c0,0,3.708-19.109,3.552-29.284c-0.163-10.657-3.091-21.288-2.464-22.694c0,0-0.301-10.25,2.147-12.875
	c0,0,11.544-4.25,18.714-3.375c0,0-4.547-11.25-12.768-20.375c0,0-4.022-4-15.041-7.25s-4.547-1.5-11.719-3.875
	C433.98,201.321,408.293,203.175,408.293,203.175z"/>
<polygon fill="#211503" points="459.834,314.109 385.136,314.109 386.494,307.945 458.389,307.945 "/>
<rect x="423.334" y="306.775" width="2.15" height="8.344"/>
<rect x="448" y="307.44" width="2.151" height="8.343"/>
<rect x="395.667" y="307.545" width="2.151" height="8.344"/>
<path fill="#FFFFFF" stroke="#000000" stroke-width="0.25" stroke-miterlimit="10" d="M444.381,204.817
	c-22.024,4.71-43.121,0.751-43.121,0.751l7.033-2.393C408.293,203.175,437.75,200.694,444.381,204.817z"/>
</svg>
