<?xml version="1.0" encoding="utf-8"?>
<!-- Generator: Adobe Illustrator 16.0.0, SVG Export Plug-In . SVG Version: 6.00 Build 0)  -->
<!DOCTYPE svg PUBLIC "-//W3C//DTD SVG 1.1//EN" "http://www.w3.org/Graphics/SVG/1.1/DTD/svg11.dtd">
<svg version="1.1" id="图层_1" xmlns="http://www.w3.org/2000/svg" xmlns:xlink="http://www.w3.org/1999/xlink" x="0px" y="0px"
	 width="841.89px" height="595.28px" viewBox="0 0 841.89 595.28" enable-background="new 0 0 841.89 595.28" xml:space="preserve">
<path fill="#FFBA48" stroke="#000000" stroke-width="0.25" stroke-miterlimit="10" d="M402.296,182.752c0,0,1.135,7.195,1.998,9.195
	s3.208,4.333,3.708,5.458s-0.75,5.5-1.25,7.375s24.875,2,24.875,0c0,0-1.5-2.25-1.75-7c0,0,0.847-1.5,2.917-4.5
	c0,0,1.346-1.182,1.916-5.417c0.22-1.629,0.792-5.708,0.792-5.708"/>
<path fill="#FFBA48" stroke="#000000" stroke-width="0.25" stroke-miterlimit="10" d="M398.96,173.28
	c-0.771-0.438-3.413-2.334-3.873,0s-0.334,5.667,1.937,8.334s4.127,3.19,5.615,3.241"/>
<path fill="#FFBA48" stroke="#000000" stroke-width="0.25" stroke-miterlimit="10" d="M438.275,174.197c0,0,1.542-1.417,4.045-1.059
	c0,0,2.557,1.716-0.758,8.267c0,0-2.631,4.434-7.269,4.193"/>
<polyline fill="#FFBA48" points="439.817,173.895 434.294,173.895 435.599,184.851 "/>
<path fill="none" stroke="#000000" stroke-width="0.25" stroke-miterlimit="10" d="M397.809,173.235c0,0-1.893-0.149-1.605,2.862
	c0.396,4.148,2.553,5.262,5.392,5.867"/>
<path fill="none" stroke="#000000" stroke-width="0.25" stroke-miterlimit="10" d="M434.989,182.912c0,0,3.286,1.032,4.828-2.131
	c1.889-3.875,1.977-4.833,1.503-5.5c-0.498-0.701-2.431-0.5-4.692,0.333"/>
<path stroke="#000000" stroke-miterlimit="10" d="M433.627,151.946"/>
<path fill="#1B260E" d="M379.79,239.28c0,0,0.026-3.356,0-3.529"/>
<path fill="#FFBB48" stroke="#000000" stroke-width="0.25" stroke-miterlimit="10" d="M379.79,235.751c0,0-2.163,7.349-2.913,13.939
	s-1,8.59-1.75,11.34s-1.19,5.363-0.804,11.356c0.963,14.904,0.595,11.394,1.449,17.894s1.944,8.351,2.078,11.75
	c0.121,3.083,0.175,13.25,0.976,14.5c0,0,1.884,1.868,3.968,1c0,0,1.834,1.25,3.667,0.75c0,0,3.166,0.563,3.579-1.833
	c0,0,0.337-1.292-1.246-1.334c-1.054-0.027-1.667-0.334-2-1.166c-0.333-0.834-1-3-0.333-3.334c0.667-0.333,1-0.666,1.5-0.666
	s1.126,3.114,2.079,3.5c0.953,0.385,2.003,1,2.462,0.666c0.459-0.333-0.793-5.129-0.793-5.129s-5.063-8.97-5.415-10.954
	c-0.667-3.753,0.04-11.264,0.334-13.249c0.415-2.806,1.289-4.31,1.333-7.729c0.044-3.444-0.166-4.937-0.333-5.771s0.167-5,0.5-7.333
	s3.785-12.333,4.476-15.833S392.811,229.386,379.79,235.751z"/>
<path fill="none" stroke="#000000" stroke-width="0.25" stroke-miterlimit="10" d="M376.877,264.115c0,0-1,2.833-0.75,4.75"/>
<path fill="none" stroke="#000000" stroke-width="0.25" stroke-miterlimit="10" d="M380.71,264.115c0,0,0.666,2.583,0,5.333"/>
<path fill="none" stroke="#000000" stroke-width="0.25" stroke-miterlimit="10" d="M381.044,314.446c0,0,0.582,0.833,1.666,0.667
	c1.084-0.167,2.167-1.417,3.167-1.25c1,0.166,1.75,2.584-3.083,3.667"/>
<path fill="none" stroke="#000000" stroke-width="0.25" stroke-miterlimit="10" d="M386.563,315.563c0,0,1.563-0.368,1.647,0.716
	c0.084,1.083-1.749,2.001-1.749,2.001"/>
<path fill="none" stroke="#000000" stroke-width="0.25" stroke-miterlimit="10" d="M384.294,304.529c0,0-0.5,4.25-2.417,5.916"/>
<path fill="none" stroke="#000000" stroke-width="0.25" stroke-miterlimit="10" d="M387.961,309.947c0,0-3-0.252-3.667-3.168"/>
<path fill="#FFBB48" stroke="#000000" stroke-width="0.25" stroke-miterlimit="10" d="M457.128,233.845c0,0,2.115,9.36,2.865,15.95
	s1,8.59,1.75,11.34s1.19,5.363,0.804,11.356c-0.963,14.904-0.595,11.394-1.449,17.894s-1.944,8.351-2.078,11.75
	c-0.121,3.084-0.175,13.25-0.976,14.5c0,0-1.884,1.869-3.968,1c0,0-1.834,1.25-3.667,0.75c0,0-3.166,0.563-3.579-1.833
	c0,0-0.337-1.292,1.246-1.333c1.054-0.027,1.667-0.334,2-1.167s1-2.999,0.333-3.333s-1-0.667-1.5-0.667s-1.126,3.114-2.079,3.5
	s-2.003,1.001-2.462,0.667s0.793-5.129,0.793-5.129s5.063-8.971,5.415-10.955c0.667-3.753-0.04-11.264-0.334-13.249
	c-0.415-2.806-1.289-4.31-1.333-7.729c-0.044-3.444,0.166-4.937,0.333-5.771s-0.167-5-0.5-7.333s-3.785-12.333-4.476-15.833
	S444.107,227.479,457.128,233.845z"/>
<path fill="none" stroke="#000000" stroke-width="0.25" stroke-miterlimit="10" d="M459.993,264.22c0,0,1,2.833,0.75,4.75"/>
<path fill="none" stroke="#000000" stroke-width="0.25" stroke-miterlimit="10" d="M456.16,264.22c0,0-0.666,2.583,0,5.333"/>
<path fill="none" stroke="#000000" stroke-width="0.25" stroke-miterlimit="10" d="M455.826,314.551c0,0-0.582,0.834-1.666,0.667
	s-2.167-1.417-3.167-1.25s-1.75,2.584,3.083,3.667"/>
<path fill="none" stroke="#000000" stroke-width="0.25" stroke-miterlimit="10" d="M450.308,315.668c0,0-1.563-0.367-1.647,0.716
	s1.749,2.001,1.749,2.001"/>
<path fill="none" stroke="#000000" stroke-width="0.25" stroke-miterlimit="10" d="M452.576,304.634c0,0,0.5,4.251,2.417,5.917"/>
<path fill="none" stroke="#000000" stroke-width="0.25" stroke-miterlimit="10" d="M448.909,310.052c0,0,3-0.251,3.667-3.168"/>
<path stroke="#000000" stroke-width="0.25" stroke-miterlimit="10" d="M395.252,436.03c0.75-1.75-2.625,13.125,0.75,14.875
	s12.625,1,14.5,0.75s3.236-12.222,2-15C409.294,429.447,395.252,436.03,395.252,436.03z"/>
<rect x="401.877" y="434.479" stroke="#000000" stroke-width="0.25" stroke-miterlimit="10" width="2.625" height="14.552"/>
<path stroke="#000000" stroke-width="0.25" stroke-miterlimit="10" d="M404.11,452.03c8.221,0,6.803,0,7.71-3h-16.999
	C394.821,449.03,394.689,452.03,404.11,452.03z"/>
<path stroke="#000000" stroke-width="0.25" stroke-miterlimit="10" d="M441.389,436.36c0.431,4.379,2.625,13.125-0.75,14.875
	s-12.625,1-14.5,0.75s-3.052-12.146-2-15C426.794,429.781,441.389,436.36,441.389,436.36z"/>
<rect x="432.139" y="434.809" stroke="#000000" stroke-width="0.25" stroke-miterlimit="10" width="2.625" height="14.552"/>
<path stroke="#000000" stroke-width="0.25" stroke-miterlimit="10" d="M432.53,452.36c-8.221,0-6.803,0-7.71-3h16.999
	C441.819,449.36,441.951,452.36,432.53,452.36z"/>
<path fill="#031C1C" stroke="#000000" stroke-width="0.25" stroke-miterlimit="10" d="M383.713,215.735
	c0,0-7.626,30.88-9.533,44.047c-0.889,6.139,0.947,21.156,0.947,25.831c0,2.333,0.191,10.042,1.724,16.417l10.486-3.083
	c0,0-0.638-10.776,0.624-21.896c0.139-1.226-0.384-11.116,0.167-13.104c3.491-12.6,4.615-14.258,4.615-14.258
	s-1.297-6.751-2.703-15.477C388.627,225.447,383.713,215.735,383.713,215.735z"/>
<path fill="#031C1C" stroke="#000000" stroke-width="0.25" stroke-miterlimit="10" d="M453.383,215.853
	c0,0,8.869,39.76,9.307,42.927s0.634,5.951,0,22.667c-0.297,7.829-1.906,15.584-2.813,20.584l-10.344-2.584
	c0,0-0.208-18.693-0.876-29.893c-0.588-9.855-2.628-14.379-4.162-20.327S440.133,204.354,453.383,215.853z"/>
<path fill="#031C1C" stroke="#000000" stroke-width="0.25" stroke-miterlimit="10" d="M393.627,297.03c0,0-3.75,22.25-3.5,25
	s-0.273,17.25-0.012,22.5s2.811,32.542,2.684,37.417c0,0,0.828,3.333,0.578,7.333c0,0,0.131,22.25,1.253,27.125s-0.503,11-0.378,12
	s-0.213,4.5-0.606,6s1.002,3.625,1.002,3.625s10.204-1.626,18.329,3.374c0,0,1.634-41.961,1.384-44.461s-0.233-12.913-0.233-13.538
	s0.417-9.875,1.167-21.125s3.333-28.875,3.333-28.875s-0.25,23.5,1.25,35.75s1.75,19,1.5,21.75s1.375,51.75,1.375,51.75
	s12.012-7.847,19.735-2.751c0,0-1.36-18.499-0.36-22.999s1.985-25.625,1.985-25.625s1.125-6.083,0-8.333
	c0,0,2.64-37.917,2.765-42.042s-0.125-13.75-0.625-20.5s-3-23.375-3-23.375H393.627z"/>
<path fill="#031C1C" stroke="#000000" stroke-width="0.25" stroke-miterlimit="10" d="M406.752,204.78c0,0-6.011,2.771-6.94,2.992
	c-2.625,0.625-12.39,3.008-15.454,6.675s3.437,13.167,8.386,35.243c0,0-0.491-3.285,0.009,3.715s-2.462,59.667-2.712,60.042h25.962
	l2.474-16.417l1.526,16.417h26.75c0,0-3.375-58.167-2.5-60.917c0,0,0.006,0.152,0.445-2.519c1.187-7.208,3.347-23.814,8.686-34.159
	c-1.005-2.112-3.945-3.323-11.82-6.573s-7.936-3.666-9.936-4.5C416.047,204.515,406.752,204.78,406.752,204.78z"/>
<path stroke="#000000" stroke-width="0.25" stroke-miterlimit="10" d="M468.294,212.947"/>
<path stroke="#000000" stroke-width="0.25" stroke-miterlimit="10" d="M374.18,212.947"/>
<path stroke="#000000" stroke-width="0.25" stroke-miterlimit="10" d="M441.804,158.946c-0.362,4.665-2.667,15.667-2.667,15.667
	c-1.667,1-2.081,2.987-4.333,8.333c-2.093,5.927-3.667,8-3.667,8s-3.875,3.084-12,3.333s-14.043-3.804-14.043-3.804
	s-3.29-6.863-4.29-10.863s-2.334-6.333-2.334-6.333c-4.087-10.25-2-20-2-20s0.151-10.75,22.284-10.25
	S442.22,153.586,441.804,158.946z"/>
<path fill="#161616" stroke="#000000" stroke-width="0.25" stroke-miterlimit="10" d="M400.127,177.6c0,0,16.78,7.559,36.25,1.364
	c0,0-0.75,7.9-4,12.4c0,0-9.5,7.917-26.75-0.083C405.627,191.28,402.639,187.864,400.127,177.6z"/>
<path fill="#FFFFFF" stroke="#000000" stroke-width="0.25" stroke-miterlimit="10" d="M417.461,208.446
	c8.832,0.125,15.5-1.657,16.833-2.37l-2.667-1.295h-24.875l-2.894,1.311C403.858,206.091,405.711,208.279,417.461,208.446z"/>
<path fill="#000C0C" stroke="#000000" stroke-width="0.25" stroke-miterlimit="10" d="M434.294,206.076l1.563,0.745
	c0,0-3.979,3.875-18.396,3.292s-14.163-2.414-15.165-3.332l1.563-0.689c0,0,5.645,2.044,15.04,2.033
	S434.294,206.076,434.294,206.076z"/>
<ellipse stroke="#000000" stroke-width="0.25" stroke-miterlimit="10" cx="377.117" cy="291.343" rx="0.635" ry="0.813"/>
<ellipse stroke="#000000" stroke-width="0.25" stroke-miterlimit="10" cx="377.534" cy="295.155" rx="0.635" ry="0.813"/>
<ellipse stroke="#000000" stroke-width="0.25" stroke-miterlimit="10" cx="378.168" cy="298.635" rx="0.635" ry="0.813"/>
<ellipse stroke="#000000" stroke-width="0.25" stroke-miterlimit="10" cx="459.979" cy="293.916" rx="0.635" ry="0.813"/>
<ellipse stroke="#000000" stroke-width="0.25" stroke-miterlimit="10" cx="459.345" cy="297.03" rx="0.635" ry="0.813"/>
<ellipse stroke="#000000" stroke-width="0.25" stroke-miterlimit="10" cx="458.709" cy="299.968" rx="0.635" ry="0.813"/>
</svg>
