<?xml version="1.0" encoding="utf-8"?>
<!-- Generator: Adobe Illustrator 18.1.1, SVG Export Plug-In . SVG Version: 6.00 Build 0)  -->
<!DOCTYPE svg PUBLIC "-//W3C//DTD SVG 1.1//EN" "http://www.w3.org/Graphics/SVG/1.1/DTD/svg11.dtd">
<svg version="1.1" id="图层_1" xmlns="http://www.w3.org/2000/svg" xmlns:xlink="http://www.w3.org/1999/xlink" x="0px" y="0px"
	 viewBox="459.6 170.7 124.4 303.5" enable-background="new 459.6 170.7 124.4 303.5" xml:space="preserve">
<path fill="#F7CA8B" stroke="#000000" stroke-width="0.2106" stroke-miterlimit="10" d="M503.1,205.3c-0.7,5.8,1.3,9.7,2.7,11.7
	c1.4,1.9,4.5,3.9,5.1,4.8c0.6,0.9-1,3.5-1.6,5.1c-0.6,1.6,29.3,1.7,29.3,0c0,0-1.9,0.1-2.2-3.9c0,0,2.2-1.7,4.6-4.2
	c0,0,2.3-2.6,2.6-6.5c0.1-1.4,0.1-6.2,0.1-6.2"/>
<path fill="#F7CA8B" stroke="#000000" stroke-width="0.2106" stroke-miterlimit="10" d="M501.9,200.4c-0.7-0.4-3.2-2.2-3.7,0
	c-0.4,2.2-0.3,5.4,1.8,7.9c2.1,2.5,3.9,3,5.3,3.1"/>
<path fill="#F7CA8B" stroke="#000000" stroke-width="0.2106" stroke-miterlimit="10" d="M546.7,200.6c0,0,1.2-0.7,2.3-0.7
	c0,0,3.1,1.1-0.7,7.6c0,0-2.4,4.1-6.7,3.9"/>
<polyline fill="#FFBA48" points="546.7,200.6 541.6,200.6 542.8,210.7 "/>
<path fill="#F7CA8B" stroke="#000000" stroke-width="0.2106" stroke-miterlimit="10" d="M500.8,200.4c0,0-1.8-0.1-1.5,2.7
	c0.4,3.9,2.4,5,5.1,5.5"/>
<path fill="#F7CA8B" stroke="#000000" stroke-width="0.2106" stroke-miterlimit="10" d="M542.5,208.9c0,0,2.7,0.9,4.2-2
	c1.7-3.6,1.8-4.4,1.4-5.1c-0.5-0.6-2.2-0.5-4.3,0.3"/>
<path stroke="#000000" stroke-width="0.9964" stroke-miterlimit="10" d="M546.4,201.5c-1.2,2.1-1.7,3.8-3.4,7
	c-2.5,5-4.3,6.7-4.3,6.7s-4.6,2.6-14.1,2.8c-9.6,0.2-16.6-3.2-16.6-3.2s-3.7-5.8-5.1-9.2c-0.7-1.8-2.6-7-2.6-7s-4-14.1,5.4-21.5
	c12-9.4,32.2-6.9,38.6,1.3C550.9,187.1,547.2,199.9,546.4,201.5z"/>
<path fill="#1B260E" stroke="#000000" stroke-width="0.25" stroke-miterlimit="10" d="M465.5,259.1c0,0-0.2,1.6,2.7,2.9
	c0,0,0-3.4,0-3.5C468,257.2,465.5,259.1,465.5,259.1z"/>
<path fill="#1A1D08" stroke="#000000" stroke-width="0.25" stroke-miterlimit="10" d="M581.7,258.9c-0.9,1.2-2.4,1.8-3.7,2.7
	c0,0-0.8-2.3-0.5-3.3L581.7,258.9z"/>
<path fill="#F7CA8B" stroke="#000000" stroke-width="0.25" stroke-miterlimit="10" d="M467.8,258.4c0,0-3.9,9.6-5,16.2
	c-1,6.6-1.4,8.6-2.4,11.3c-1,2.8-0.7,5.4-0.1,11.4c1.3,14.9,0.8,11.4,2,17.9s2.7,8.4,2.9,11.8c0.2,3.1,0.2,13.2,1.4,14.5
	c0,0,2.6,1.9,5.6,1c0,0,2.6,1.2,5.1,0.8c0,0,4.4,0.6,5-1.8c0,0,0.5-1.3-1.7-1.3c-1.5,0-2.3-0.3-2.8-1.2c-0.5-0.8-1.4-3-0.5-3.3
	c0.9-0.3,1.4-0.7,2.1-0.7s1.6,3.1,2.9,3.5c1.3,0.4,2.8,1,3.4,0.7c0.6-0.3-1.1-5.1-1.1-5.1s-5.1-9-5.6-11c-0.9-3.8-0.9-11.3-0.5-13.2
	c0.6-2.8,0.8-4.3,0.9-7.7c0.1-3.4,0.8-4.9,0.5-5.8s1.2-5,1.7-7.3s4.9-13.8,5.5-18.6C487.5,266.7,486,252,467.8,258.4z"/>
<path fill="none" stroke="#000000" stroke-width="0.2957" stroke-miterlimit="10" d="M463.8,289c0,0-1.4,2.8-1,4.8"/>
<path fill="none" stroke="#000000" stroke-width="0.2957" stroke-miterlimit="10" d="M469.2,289c0,0,0.9,2.6,0,5.3"/>
<path fill="none" stroke="#000000" stroke-width="0.2957" stroke-miterlimit="10" d="M469.7,339.3c0,0,0.8,0.8,2.3,0.7
	c1.5-0.2,3-1.4,4.4-1.2c1.4,0.2,2.4,2.6-4.3,3.7"/>
<path fill="none" stroke="#000000" stroke-width="0.2957" stroke-miterlimit="10" d="M477.4,340.4c0,0,2.2-0.4,2.3,0.7
	c0.1,1.1-2.4,2-2.4,2"/>
<path fill="none" stroke="#000000" stroke-width="0.2957" stroke-miterlimit="10" d="M474.2,329.4c0,0-0.7,4.2-3.4,5.9"/>
<path fill="none" stroke="#000000" stroke-width="0.2957" stroke-miterlimit="10" d="M479.4,334.8c0,0-4.2-0.3-5.1-3.2"/>
<path fill="#F7CA8B" stroke="#000000" stroke-width="0.25" stroke-miterlimit="10" d="M577.4,258.9c0,0,1.7,9.2,2.8,15.8
	c1,6.6,1.4,8.6,2.4,11.3s1.7,5.4,1.1,11.4c-1.3,14.9-0.8,11.4-2,17.9c-1.2,6.5-2.7,8.4-2.9,11.8c-0.2,3.1-0.2,13.2-1.4,14.5
	c0,0-2.6,1.9-5.6,1c0,0-2.6,1.2-5.1,0.8c0,0-4.4,0.6-5-1.8c0,0-0.5-1.3,1.7-1.3c1.5,0,2.3-0.3,2.8-1.2c0.5-0.8,1.4-3,0.5-3.3
	c-0.9-0.3-1.4-0.7-2.1-0.7s-1.6,3.1-2.9,3.5c-1.3,0.4-2.8,1-3.4,0.7c-0.6-0.3,1.1-5.1,1.1-5.1s5.1-9,5.6-11
	c0.9-3.8,0.9-11.3,0.5-13.2c-0.6-2.8-0.8-4.3-0.9-7.7c-0.1-3.4-0.7-5.2-0.4-6c0.2-0.8-0.3-4.7-0.8-7.1c-0.5-2.3-4.3-12.3-5.3-15.8
	C557.2,269.6,559.2,252.5,577.4,258.9z"/>
<path fill="none" stroke="#000000" stroke-width="0.2957" stroke-miterlimit="10" d="M580.1,289.1c0,0,1.4,2.8,1,4.8"/>
<path fill="none" stroke="#000000" stroke-width="0.2957" stroke-miterlimit="10" d="M574.8,289.1c0,0-0.9,2.6,0,5.3"/>
<path fill="none" stroke="#000000" stroke-width="0.2957" stroke-miterlimit="10" d="M574.3,339.4c0,0-0.8,0.8-2.3,0.7
	c-1.5-0.2-3-1.4-4.4-1.2s-2.4,2.6,4.3,3.7"/>
<path fill="none" stroke="#000000" stroke-width="0.2957" stroke-miterlimit="10" d="M566.6,340.6c0,0-2.2-0.4-2.3,0.7
	c-0.1,1.1,2.4,2,2.4,2"/>
<path fill="none" stroke="#000000" stroke-width="0.2957" stroke-miterlimit="10" d="M569.8,329.5c0,0,0.7,4.3,3.4,5.9"/>
<path fill="none" stroke="#000000" stroke-width="0.2957" stroke-miterlimit="10" d="M564.6,334.9c0,0,4.2-0.3,5.1-3.2"/>
<path fill="#474747" stroke="#000000" stroke-width="0.2787" stroke-miterlimit="10" d="M493.7,457.1c0.9-1.8-3.3,13.1,0.9,14.9
	s15.7,1,18,0.8c2.3-0.2,4-12.2,2.5-15C511.2,450.5,493.7,457.1,493.7,457.1z"/>
<rect x="502" y="455.6" fill="#FFFFFF" stroke="#000000" stroke-width="0.2787" stroke-miterlimit="10" width="3.3" height="14.6"/>
<path fill="#FFFFFF" stroke="#000000" stroke-width="0.2787" stroke-miterlimit="10" d="M504.8,473.1c10.2,0,8.5,0,9.6-3h-21.1
	C493.2,470.1,493,473.1,504.8,473.1z"/>
<path fill="#474747" stroke="#000000" stroke-width="0.28" stroke-miterlimit="10" d="M553.7,458.1c0.5,4.4,3.3,13.1-0.9,14.9
	s-15.8,1-18.2,0.8c-2.4-0.2-3.8-12.1-2.5-15C535.4,451.5,553.7,458.1,553.7,458.1z"/>
<rect x="542.1" y="456.6" fill="#FFFFFF" stroke="#000000" stroke-width="0.28" stroke-miterlimit="10" width="3.3" height="14.6"/>
<path fill="#FFFFFF" stroke="#000000" stroke-width="0.28" stroke-miterlimit="10" d="M542.6,474.1c-10.3,0-8.5,0-9.7-3h21.3
	C554.3,471.1,554.4,474.1,542.6,474.1z"/>
<path stroke="#000000" stroke-width="0.2957" stroke-miterlimit="10" d="M489.3,320.9c0,0-5.2,22.2-4.9,25c0.4,2.8-0.4,17.2,0,22.5
	c0.4,5.2,4.5,32.4,4.3,37.2c0,0,0.6,3.5,0.3,7.5c0,0,0.2,22.2,1.8,27.1s0.5,11,0.7,12s-1.5,4.5-2,6c-0.5,1.5,0,3.6,0,3.6
	s15-6.4,26.4-1.4c0,0,3.7-2.1,3.8-2.9s1.6-11.5,1-14.6c-0.5-3.1-1-4-1-4.5s0.3-20.4,0-22.9c-0.4-2.5,0.4-7.8,0.4-8.4s0.6-5,1.7-16.2
	c1-11.2,2.6-33.8,2.6-33.8s-0.3,23.5,1.7,35.8c2.1,12.2,1.3,13.1,1.8,14.5c0.5,1.4,0.6,4.5,0.3,7.2c-0.4,2.8-0.1,19.3-0.7,23.4
	c0.8-6.1,1.2-8.8-0.6,4.1c-0.4,3,0.2,14.4,1.2,15.6s3.3,2.6,3.3,2.6s16.8-4.6,26.4,1.4c0,0,0.2-2-0.9-4s-1-5.2-1-5.2
	s-0.2-7.4,1.2-11.9c1.4-4.5,1.7-28.9,1.7-28.9s0.6-0.7,0.6-4.1c0,0,4.2-38.9,4.3-43c0.2-4.1-0.2-13.8-0.9-20.5
	c-0.7-6.8-3.2-17.1-3.2-17.1L489.3,320.9z"/>
<path fill="#096D09" stroke="#000000" stroke-width="0.2957" stroke-miterlimit="10" d="M509.3,226.9c-7,2.3-8.8,3.2-14.9,4.3
	c-3.7,0.6-13.6,4.8-17.3,8s-11.5,17.3-11.5,19.9c0,0,2.3-2.8,18.5,3c3.5,8.3,1,8.2,1.7,14c0.4,3.3-2.7,15.5-2.8,24
	c-0.1,10.9,1.6,20.2,4.9,27.1h71.9c0,0,3.7-19.1,3.6-29.3c-0.2-10.7-3.1-21.3-2.5-22.7c0,0-0.3-10.2,2.1-12.9c0,0,11.5-4.2,18.7-3.4
	c0,0-4.5-11.2-12.8-20.4c0,0-4-4-15-7.2c-11-3.2-4.5-1.5-11.7-3.9C535,225,509.3,226.9,509.3,226.9z"/>
<polygon fill="#211503" points="560.8,337.8 486.1,337.8 487.5,331.7 559.4,331.7 "/>
<rect x="524.3" y="330.5" width="2.1" height="8.3"/>
<rect x="549" y="331.2" width="2.2" height="8.3"/>
<rect x="496.7" y="331.3" width="2.2" height="8.3"/>
<path fill="#FFFFFF" stroke="#000000" stroke-width="0.25" stroke-miterlimit="10" d="M545.4,228.5c-22,4.7-43.1,0.8-43.1,0.8l7-2.4
	C509.3,226.9,538.8,224.4,545.4,228.5z"/>
</svg>
