<?xml version="1.0" encoding="utf-8"?>
<!-- Generator: Adobe Illustrator 16.0.0, SVG Export Plug-In . SVG Version: 6.00 Build 0)  -->
<!DOCTYPE svg PUBLIC "-//W3C//DTD SVG 1.1//EN" "http://www.w3.org/Graphics/SVG/1.1/DTD/svg11.dtd">
<svg version="1.1" id="图层_1" xmlns="http://www.w3.org/2000/svg" xmlns:xlink="http://www.w3.org/1999/xlink" x="0px" y="0px"
	 width="841.89px" height="595.28px" viewBox="0 0 841.89 595.28" enable-background="new 0 0 841.89 595.28" xml:space="preserve">
<path fill="#FFBA48" stroke="#000000" stroke-width="0.25" stroke-miterlimit="10" d="M404.235,182.506c0,0-0.521,6.403,0.343,8.403
	s4.863,5.125,5.363,6.25s-0.75,5.5-1.25,7.375s24.875,2,24.875,0c0,0-1.5-2.25-1.75-7c0,0,2.395-2.184,4.465-5.184
	c0,0,0.59-1.331,1.16-5.566c0.219-1.629,0-4.875,0-4.875"/>
<path fill="#FFBA48" stroke="#000000" stroke-width="0.25" stroke-miterlimit="10" d="M401.4,173.034
	c-0.771-0.438-3.413-2.334-3.873,0s-0.334,5.667,1.937,8.334s4.127,3.19,5.615,3.241"/>
<path fill="#FFBA48" stroke="#000000" stroke-width="0.25" stroke-miterlimit="10" d="M440.756,173.649c0,0,1.275-0.717,2.504-0.756
	c0,0,3.424,1.214-0.758,8.267c0,0-2.631,4.434-7.27,4.193"/>
<path fill="#FFBA48" stroke="#000000" stroke-width="0.25" stroke-miterlimit="10" d="M400.748,172.99c0,0-1.893-0.149-1.605,2.862
	c0.396,4.148,2.553,5.262,5.392,5.867"/>
<path fill="#FFBA48" stroke="#000000" stroke-width="0.25" stroke-miterlimit="10" d="M436.232,182.701c0,0,2.982,0.997,4.523-2.166
	c1.889-3.875,1.977-4.833,1.504-5.5c-0.498-0.701-2.432-0.5-4.693,0.333"/>
<path fill="#332101" stroke="#000000" stroke-width="0.1593" stroke-miterlimit="10" d="M441.566,174.367
	c-1.668,1-3.334,1.667-4.334,8.333c-2.092,5.927-3.666,8-3.666,8s-3.875,3.084-12,3.333c-8.125,0.25-14.043-3.804-14.043-3.804
	s-2.112-4.868-3.444-8.95c-1.279-3.92-2.452-6.727-2.452-6.727l-2.515-2.614c0,0-5.435-20.475,20.727-29.317
	c0,0,20.203-0.522,22.702,30.366L441.566,174.367"/>
<path fill="#1B260E" d="M378.816,236.16c0,0-0.125,1.563,1.938,2.875c0,0,0.026-3.356,0-3.529
	C380.566,234.285,378.816,236.16,378.816,236.16z"/>
<path fill="#1A1D08" d="M461.816,236.035c-0.625,1.188-0.563,1.625-1.5,2.563c0,0-0.502-1.661-0.314-2.674L461.816,236.035z"/>
<path fill="#FFBB48" stroke="#000000" stroke-width="0.25" stroke-miterlimit="10" d="M380.753,235.505
	c0,0-1.188,7.349-1.938,13.939s-1,8.59-1.75,11.34s-1.19,5.363-0.804,11.356c0.963,14.904,0.595,11.394,1.449,17.894
	s1.944,8.351,2.078,11.75c0.121,3.083,0.175,13.25,0.976,14.5c0,0,1.884,1.867,3.968,1c0,0,1.834,1.25,3.667,0.75
	c0,0,3.166,0.563,3.579-1.834c0,0,0.337-1.291-1.246-1.333c-1.054-0.028-1.667-0.334-2-1.167s-1-3-0.333-3.333s1-0.667,1.5-0.667
	s1.126,3.115,2.079,3.5s2.003,1,2.462,0.667s-0.793-5.129-0.793-5.129s-5.063-8.97-5.415-10.955
	c-0.667-3.753,0.04-11.264,0.334-13.249c0.415-2.806,1.289-4.31,1.333-7.729c0.044-3.444-0.166-4.937-0.333-5.771s0.167-5,0.5-7.333
	s3.785-12.333,4.476-15.833S393.774,229.14,380.753,235.505z"/>
<path fill="none" stroke="#000000" stroke-width="0.25" stroke-miterlimit="10" d="M378.816,263.87c0,0-1,2.833-0.75,4.75"/>
<path fill="none" stroke="#000000" stroke-width="0.25" stroke-miterlimit="10" d="M382.649,263.87c0,0,0.666,2.583,0,5.333"/>
<path fill="none" stroke="#000000" stroke-width="0.25" stroke-miterlimit="10" d="M382.983,314.201c0,0,0.582,0.832,1.666,0.666
	s2.167-1.416,3.167-1.25s1.75,2.584-3.083,3.668"/>
<path fill="none" stroke="#000000" stroke-width="0.25" stroke-miterlimit="10" d="M388.501,315.318c0,0,1.563-0.369,1.647,0.715
	s-1.749,2.002-1.749,2.002"/>
<path fill="none" stroke="#000000" stroke-width="0.25" stroke-miterlimit="10" d="M386.233,304.283c0,0-0.5,4.25-2.417,5.917"/>
<path fill="none" stroke="#000000" stroke-width="0.25" stroke-miterlimit="10" d="M389.9,309.701c0,0-3-0.252-3.667-3.168"/>
<path fill="#FFBB48" stroke="#000000" stroke-width="0.25" stroke-miterlimit="10" d="M459.994,235.61c0,0,1.188,7.349,1.938,13.939
	s1,8.59,1.75,11.34s1.191,5.363,0.805,11.356c-0.963,14.904-0.596,11.394-1.449,17.894c-0.855,6.5-1.945,8.351-2.078,11.75
	c-0.121,3.083-0.176,13.25-0.977,14.5c0,0-1.883,1.868-3.967,1c0,0-1.834,1.25-3.668,0.75c0,0-3.166,0.563-3.578-1.833
	c0,0-0.338-1.292,1.246-1.334c1.053-0.027,1.666-0.334,2-1.166c0.332-0.834,1-3,0.332-3.334c-0.666-0.333-1-0.666-1.5-0.666
	s-1.125,3.114-2.078,3.5c-0.953,0.385-2.004,1-2.463,0.666c-0.459-0.333,0.793-5.129,0.793-5.129s5.063-8.97,5.416-10.954
	c0.666-3.753-0.041-11.264-0.334-13.249c-0.416-2.806-1.289-4.31-1.334-7.729c-0.043-3.444,0.166-4.937,0.334-5.771
	c0.166-0.833-0.168-5-0.5-7.333c-0.334-2.333-3.785-12.333-4.477-15.833C445.516,244.474,446.975,229.245,459.994,235.61z"/>
<path fill="none" stroke="#000000" stroke-width="0.25" stroke-miterlimit="10" d="M461.932,263.975c0,0,1,2.833,0.75,4.75"/>
<path fill="none" stroke="#000000" stroke-width="0.25" stroke-miterlimit="10" d="M458.1,263.975c0,0-0.666,2.583,0,5.333"/>
<path fill="none" stroke="#000000" stroke-width="0.25" stroke-miterlimit="10" d="M457.766,314.306c0,0-0.582,0.833-1.666,0.667
	c-1.084-0.167-2.168-1.417-3.168-1.25c-1,0.166-1.75,2.584,3.084,3.667"/>
<path fill="none" stroke="#000000" stroke-width="0.25" stroke-miterlimit="10" d="M452.246,315.423c0,0-1.563-0.368-1.646,0.716
	c-0.084,1.083,1.748,2.001,1.748,2.001"/>
<path fill="none" stroke="#000000" stroke-width="0.25" stroke-miterlimit="10" d="M454.516,304.389c0,0,0.5,4.25,2.416,5.916"/>
<path fill="none" stroke="#000000" stroke-width="0.25" stroke-miterlimit="10" d="M450.848,309.807c0,0,3-0.252,3.668-3.168"/>
<path fill="#FFFFFF" stroke="#000000" stroke-width="0.25" stroke-miterlimit="10" d="M397.191,435.784
	c0.75-1.75-2.625,13.125,0.75,14.875s12.625,1,14.5,0.75s3.236-12.221,2-15C411.233,429.202,397.191,435.784,397.191,435.784z"/>
<rect x="403.816" y="434.233" fill="#FFFFFF" stroke="#000000" stroke-width="0.25" stroke-miterlimit="10" width="2.625" height="14.551"/>
<path fill="#FFFFFF" stroke="#000000" stroke-width="0.25" stroke-miterlimit="10" d="M406.049,451.784c8.221,0,6.803,0,7.71-3
	H396.76C396.76,448.784,396.628,451.784,406.049,451.784z"/>
<path fill="#FFFFFF" stroke="#000000" stroke-width="0.25" stroke-miterlimit="10" d="M443.328,436.114
	c0.43,4.379,2.625,13.125-0.75,14.875s-12.625,1-14.5,0.75s-3.053-12.146-2-15C428.732,429.536,443.328,436.114,443.328,436.114z"/>
<rect x="434.078" y="434.563" fill="#FFFFFF" stroke="#000000" stroke-width="0.25" stroke-miterlimit="10" width="2.625" height="14.551"/>
<path fill="#FFFFFF" stroke="#000000" stroke-width="0.25" stroke-miterlimit="10" d="M434.469,452.114c-8.221,0-6.803,0-7.709-3
	h16.998C443.758,449.114,443.891,452.114,434.469,452.114z"/>
<path stroke="#000000" stroke-width="0.25" stroke-miterlimit="10" d="M395.566,296.785c0,0-3.75,22.25-3.5,25
	s-0.273,17.25-0.012,22.5s4.639,32.374,4.512,37.249c0,0-1,3.5-1.25,7.5c0,0,0.131,22.25,1.253,27.125s2.497,11,2.622,12
	s-3.213,4.5-3.606,6s0.002,3.625,0.002,3.625s10.729-6.375,18.854-1.375c0,0,2.625-2.125,2.75-2.875s1.125-11.5,0.75-14.625
	s-0.75-4-0.75-4.5s0.25-20.375,0-22.875s-1.125-7.75-1.125-8.375s1.875-5,2.625-16.249c0.75-11.25,1.875-33.75,1.875-33.75
	s-0.25,23.5,1.25,35.75c1.5,12.249,2.375,13.124,2.75,14.499s-1,4.5-1.25,7.25s0.125,19.25,0.25,23.375s-0.875,1.125-1.125,4.125
	s0.125,14.375,0.875,15.625s2.375,2.625,2.375,2.625s12-4.625,18.875,1.375c0,0,0.125-2-0.625-4s-2.875-5.25-2.875-5.25
	s2-7.375,3-11.875s0.508-30.875,0.508-30.875s0.117,0.125-1.008-2.125c0,0,5.125-38.874,5.25-42.999s-0.125-13.75-0.625-20.5
	s-3-23.375-3-23.375H395.566z"/>
<path fill="#CEB23C" stroke="#000000" stroke-width="0.1161" stroke-miterlimit="10" d="M408.691,204.535c0,0-6.625,3.125-9.25,3.75
	s-9.75,4.75-12.375,8s-8.25,17.313-8.25,19.875c0,0,1.625-2.75,13.25,3c0,0-0.587,10.689-0.087,17.689s0.25,47.165,0,47.54
	l56.869-0.105c0,0-2.781-48.085-2.656-51.999c0,0,0.5-10.25,2.25-12.875c0,0,8.25-4.25,13.375-3.375c0,0-3.25-11.25-9.125-20.375
	c0,0-2.875-4-10.75-7.25s-3.25-1.5-8.375-3.875S408.691,204.535,408.691,204.535z"/>
<g>
	<path fill="#CEB23C" stroke="#000000" stroke-width="0.1161" stroke-miterlimit="10" d="M419.944,164.352
		c0,0-10.306-1.665-13.221,9.786c0,0-5.917-1.817-8.079-4.524c0,0-1.811-26.5,21.924-26.497
		c21.55,0.002,21.348,23.422,21.973,26.024c0,0-2.508,3.747-9.17,5.517C433.371,174.658,431.174,164.422,419.944,164.352z"/>
	<path fill="#CEB23C" stroke="#000000" stroke-width="0.1161" stroke-miterlimit="10" d="M408.358,170.017
		c0,0,19.738,5.729,31.259-2.958c0,0,0.416,2.224,0.729,4.514c0,0-10.514,7.561-33.623,2.565
		C406.723,174.138,407.181,171.711,408.358,170.017z"/>
	<polygon fill="#D3D3D3" stroke="#000000" stroke-width="0.1041" stroke-miterlimit="10" points="433.163,170.39 436.182,169.141 
		436.182,173.617 433.163,174.554 	"/>
	
		<ellipse fill="#B29729" stroke="#000000" stroke-width="0.1161" stroke-miterlimit="10" cx="421.75" cy="143.844" rx="3.068" ry="1.563"/>
</g>
</svg>
