<?xml version="1.0" encoding="utf-8"?>
<!-- Generator: Adobe Illustrator 18.1.1, SVG Export Plug-In . SVG Version: 6.00 Build 0)  -->
<!DOCTYPE svg PUBLIC "-//W3C//DTD SVG 1.1//EN" "http://www.w3.org/Graphics/SVG/1.1/DTD/svg11.dtd">
<svg version="1.1" id="图层_1" xmlns="http://www.w3.org/2000/svg" xmlns:xlink="http://www.w3.org/1999/xlink" x="0px" y="0px"
	 viewBox="477 165.9 88.8 310" enable-background="new 477 165.9 88.8 310" xml:space="preserve">
<path fill="#FFBA48" stroke="#000000" stroke-width="0.25" stroke-miterlimit="10" d="M505.2,206.2c0,0-0.5,6.4,0.3,8.4
	s4.9,5.1,5.4,6.2s-0.8,5.5-1.2,7.4s24.9,2,24.9,0c0,0-1.5-2.2-1.8-7c0,0,2.4-2.2,4.5-5.2c0,0,0.6-1.3,1.2-5.6c0.2-1.6,0-4.9,0-4.9"
	/>
<path fill="#FFBA48" stroke="#000000" stroke-width="0.25" stroke-miterlimit="10" d="M502.4,196.8c-0.8-0.4-3.4-2.3-3.9,0
	s-0.3,5.7,1.9,8.3s4.1,3.2,5.6,3.2"/>
<path fill="#FFBA48" stroke="#000000" stroke-width="0.25" stroke-miterlimit="10" d="M541.8,197.4c0,0,1.3-0.7,2.5-0.8
	c0,0,3.4,1.2-0.8,8.3c0,0-2.6,4.4-7.3,4.2"/>
<path fill="#FFBA48" stroke="#000000" stroke-width="0.25" stroke-miterlimit="10" d="M501.7,196.7c0,0-1.9-0.1-1.6,2.9
	c0.4,4.1,2.6,5.3,5.4,5.9"/>
<path fill="#FFBA48" stroke="#000000" stroke-width="0.25" stroke-miterlimit="10" d="M537.2,206.4c0,0,3,1,4.5-2.2
	c1.9-3.9,2-4.8,1.5-5.5c-0.5-0.7-2.4-0.5-4.7,0.3"/>
<path fill="#332101" stroke="#000000" stroke-width="0.1593" stroke-miterlimit="10" d="M542.6,198.1c-1.7,1-3.3,1.7-4.3,8.3
	c-2.1,5.9-3.7,8-3.7,8s-3.9,3.1-12,3.3c-8.1,0.2-14-3.8-14-3.8s-2.1-4.9-3.4-8.9c-1.3-3.9-2.5-6.7-2.5-6.7l-2.5-2.6
	c0,0-5.4-20.5,20.7-29.3c0,0,20.2-0.5,22.7,30.4L542.6,198.1"/>
<path fill="#1B260E" d="M479.8,259.9c0,0-0.1,1.6,1.9,2.9c0,0,0-3.4,0-3.5C481.6,258,479.8,259.9,479.8,259.9z"/>
<path fill="#1A1D08" d="M562.8,259.8c-0.6,1.2-0.6,1.6-1.5,2.6c0,0-0.5-1.7-0.3-2.7L562.8,259.8z"/>
<path fill="#FFBB48" stroke="#000000" stroke-width="0.25" stroke-miterlimit="10" d="M481.8,259.2c0,0-1.2,7.3-1.9,13.9
	s-1,8.6-1.8,11.3s-1.2,5.4-0.8,11.4c1,14.9,0.6,11.4,1.4,17.9s1.9,8.4,2.1,11.8c0.1,3.1,0.2,13.2,1,14.5c0,0,1.9,1.9,4,1
	c0,0,1.8,1.2,3.7,0.8c0,0,3.2,0.6,3.6-1.8c0,0,0.3-1.3-1.2-1.3c-1.1,0-1.7-0.3-2-1.2s-1-3-0.3-3.3s1-0.7,1.5-0.7s1.1,3.1,2.1,3.5
	s2,1,2.5,0.7s-0.8-5.1-0.8-5.1s-5.1-9-5.4-11c-0.7-3.8,0-11.3,0.3-13.2c0.4-2.8,1.3-4.3,1.3-7.7c0-3.4-0.2-4.9-0.3-5.8
	s0.2-5,0.5-7.3s3.8-12.3,4.5-15.8S494.8,252.9,481.8,259.2z"/>
<path fill="none" stroke="#000000" stroke-width="0.25" stroke-miterlimit="10" d="M479.8,287.6c0,0-1,2.8-0.8,4.8"/>
<path fill="none" stroke="#000000" stroke-width="0.25" stroke-miterlimit="10" d="M483.6,287.6c0,0,0.7,2.6,0,5.3"/>
<path fill="none" stroke="#000000" stroke-width="0.25" stroke-miterlimit="10" d="M484,337.9c0,0,0.6,0.8,1.7,0.7s2.2-1.4,3.2-1.2
	s1.8,2.6-3.1,3.7"/>
<path fill="none" stroke="#000000" stroke-width="0.25" stroke-miterlimit="10" d="M489.5,339c0,0,1.6-0.4,1.6,0.7s-1.7,2-1.7,2"/>
<path fill="none" stroke="#000000" stroke-width="0.25" stroke-miterlimit="10" d="M487.2,328c0,0-0.5,4.2-2.4,5.9"/>
<path fill="none" stroke="#000000" stroke-width="0.25" stroke-miterlimit="10" d="M490.9,333.4c0,0-3-0.3-3.7-3.2"/>
<path fill="#FFBB48" stroke="#000000" stroke-width="0.25" stroke-miterlimit="10" d="M561,259.3c0,0,1.2,7.3,1.9,13.9
	c0.8,6.6,1,8.6,1.8,11.3s1.2,5.4,0.8,11.4c-1,14.9-0.6,11.4-1.4,17.9c-0.9,6.5-1.9,8.4-2.1,11.8c-0.1,3.1-0.2,13.2-1,14.5
	c0,0-1.9,1.9-4,1c0,0-1.8,1.2-3.7,0.8c0,0-3.2,0.6-3.6-1.8c0,0-0.3-1.3,1.2-1.3c1.1,0,1.7-0.3,2-1.2c0.3-0.8,1-3,0.3-3.3
	c-0.7-0.3-1-0.7-1.5-0.7s-1.1,3.1-2.1,3.5c-1,0.4-2,1-2.5,0.7c-0.5-0.3,0.8-5.1,0.8-5.1s5.1-9,5.4-11c0.7-3.8,0-11.3-0.3-13.2
	c-0.4-2.8-1.3-4.3-1.3-7.7c0-3.4,0.2-4.9,0.3-5.8c0.2-0.8-0.2-5-0.5-7.3c-0.3-2.3-3.8-12.3-4.5-15.8C546.5,268.2,548,253,561,259.3z
	"/>
<path fill="none" stroke="#000000" stroke-width="0.25" stroke-miterlimit="10" d="M562.9,287.7c0,0,1,2.8,0.8,4.8"/>
<path fill="none" stroke="#000000" stroke-width="0.25" stroke-miterlimit="10" d="M559.1,287.7c0,0-0.7,2.6,0,5.3"/>
<path fill="none" stroke="#000000" stroke-width="0.25" stroke-miterlimit="10" d="M558.8,338c0,0-0.6,0.8-1.7,0.7
	c-1.1-0.2-2.2-1.4-3.2-1.2c-1,0.2-1.8,2.6,3.1,3.7"/>
<path fill="none" stroke="#000000" stroke-width="0.25" stroke-miterlimit="10" d="M553.2,339.1c0,0-1.6-0.4-1.6,0.7
	c-0.1,1.1,1.7,2,1.7,2"/>
<path fill="none" stroke="#000000" stroke-width="0.25" stroke-miterlimit="10" d="M555.5,328.1c0,0,0.5,4.2,2.4,5.9"/>
<path fill="none" stroke="#000000" stroke-width="0.25" stroke-miterlimit="10" d="M551.8,333.5c0,0,3-0.3,3.7-3.2"/>
<path fill="#FFFFFF" stroke="#000000" stroke-width="0.25" stroke-miterlimit="10" d="M498.2,459.5c0.8-1.8-2.6,13.1,0.8,14.9
	s12.6,1,14.5,0.8c1.9-0.2,3.2-12.2,2-15C512.2,452.9,498.2,459.5,498.2,459.5z"/>
<rect x="504.8" y="458" fill="#FFFFFF" stroke="#000000" stroke-width="0.25" stroke-miterlimit="10" width="2.6" height="14.6"/>
<path fill="#FFFFFF" stroke="#000000" stroke-width="0.25" stroke-miterlimit="10" d="M507,475.5c8.2,0,6.8,0,7.7-3h-17
	C497.8,472.5,497.6,475.5,507,475.5z"/>
<path fill="#FFFFFF" stroke="#000000" stroke-width="0.25" stroke-miterlimit="10" d="M544.3,459.8c0.4,4.4,2.6,13.1-0.8,14.9
	s-12.6,1-14.5,0.8s-3.1-12.1-2-15C529.7,453.3,544.3,459.8,544.3,459.8z"/>
<rect x="535.1" y="458.3" fill="#FFFFFF" stroke="#000000" stroke-width="0.25" stroke-miterlimit="10" width="2.6" height="14.6"/>
<path fill="#FFFFFF" stroke="#000000" stroke-width="0.25" stroke-miterlimit="10" d="M535.5,475.8c-8.2,0-6.8,0-7.7-3h17
	C544.8,472.8,544.9,475.8,535.5,475.8z"/>
<path stroke="#000000" stroke-width="0.25" stroke-miterlimit="10" d="M496.6,320.5c0,0-3.8,22.2-3.5,25s-0.3,17.2,0,22.5
	s4.6,32.4,4.5,37.2c0,0-1,3.5-1.2,7.5c0,0,0.1,22.2,1.3,27.1s2.5,11,2.6,12s-3.2,4.5-3.6,6s0,3.6,0,3.6s10.7-6.4,18.9-1.4
	c0,0,2.6-2.1,2.8-2.9s1.1-11.5,0.8-14.6s-0.8-4-0.8-4.5s0.2-20.4,0-22.9s-1.1-7.8-1.1-8.4s1.9-5,2.6-16.2
	c0.8-11.2,1.9-33.8,1.9-33.8s-0.2,23.5,1.2,35.8c1.5,12.2,2.4,13.1,2.8,14.5s-1,4.5-1.2,7.2s0.1,19.2,0.2,23.4s-0.9,1.1-1.1,4.1
	s0.1,14.4,0.9,15.6s2.4,2.6,2.4,2.6s12-4.6,18.9,1.4c0,0,0.1-2-0.6-4s-2.9-5.2-2.9-5.2s2-7.4,3-11.9s0.5-30.9,0.5-30.9
	s0.1,0.1-1-2.1c0,0,5.1-38.9,5.2-43s-0.1-13.8-0.6-20.5s-3-23.4-3-23.4H496.6z"/>
<path fill="#CEB23C" stroke="#000000" stroke-width="0.1161" stroke-miterlimit="10" d="M509.7,228.3c0,0-6.6,3.1-9.2,3.8
	s-9.8,4.8-12.4,8s-8.2,17.3-8.2,19.9c0,0,1.6-2.8,13.2,3c0,0-0.6,10.7-0.1,17.7s0.2,47.2,0,47.5l56.9-0.1c0,0-2.8-48.1-2.7-52
	c0,0,0.5-10.2,2.2-12.9c0,0,8.2-4.2,13.4-3.4c0,0-3.2-11.2-9.1-20.4c0,0-2.9-4-10.8-7.2s-3.2-1.5-8.4-3.9S509.7,228.3,509.7,228.3z"
	/>
<g>
	<path fill="#CEB23C" stroke="#000000" stroke-width="0.1161" stroke-miterlimit="10" d="M520.9,188.1c0,0-10.3-1.7-13.2,9.8
		c0,0-5.9-1.8-8.1-4.5c0,0-1.8-26.5,21.9-26.5c21.5,0,21.3,23.4,22,26c0,0-2.5,3.7-9.2,5.5C534.4,198.4,532.2,188.1,520.9,188.1z"/>
	<path fill="#CEB23C" stroke="#000000" stroke-width="0.1161" stroke-miterlimit="10" d="M509.4,193.7c0,0,19.7,5.7,31.3-3
		c0,0,0.4,2.2,0.7,4.5c0,0-10.5,7.6-33.6,2.6C507.7,197.9,508.2,195.4,509.4,193.7z"/>
	<polygon fill="#D3D3D3" stroke="#000000" stroke-width="0.1041" stroke-miterlimit="10" points="534.2,194.1 537.2,192.9 
		537.2,197.3 534.2,198.3 	"/>
	<ellipse fill="#B29729" stroke="#000000" stroke-width="0.1161" stroke-miterlimit="10" cx="522.8" cy="167.6" rx="3.1" ry="1.6"/>
</g>
</svg>
