<?xml version="1.0" encoding="utf-8"?>
<!-- Generator: Adobe Illustrator 16.0.0, SVG Export Plug-In . SVG Version: 6.00 Build 0)  -->
<!DOCTYPE svg PUBLIC "-//W3C//DTD SVG 1.1//EN" "http://www.w3.org/Graphics/SVG/1.1/DTD/svg11.dtd">
<svg version="1.1" id="图层_1" xmlns="http://www.w3.org/2000/svg" xmlns:xlink="http://www.w3.org/1999/xlink" x="0px" y="0px"
	 width="841.89px" height="595.28px" viewBox="0 0 841.89 595.28" enable-background="new 0 0 841.89 595.28" xml:space="preserve">
<path fill="#FCDEA9" stroke="#000000" stroke-width="0.25" stroke-miterlimit="10" d="M404.235,182.506c0,0-0.521,6.403,0.343,8.403
	s4.863,5.125,5.363,6.25s-0.75,5.5-1.25,7.375s24.875,2,24.875,0c0,0-1.5-2.25-1.75-7c0,0,2.395-2.184,4.465-5.184
	c0,0,0.59-1.331,1.16-5.566c0.219-1.629,0-4.875,0-4.875"/>
<path fill="#FCDEA9" stroke="#000000" stroke-width="0.25" stroke-miterlimit="10" d="M401.4,173.034
	c-0.771-0.438-3.413-2.334-3.873,0s-0.334,5.667,1.937,8.334s4.127,3.19,5.615,3.241"/>
<path fill="#FCDEA9" stroke="#000000" stroke-width="0.25" stroke-miterlimit="10" d="M440.756,173.649c0,0,1.275-0.717,2.504-0.756
	c0,0,3.424,1.214-0.758,8.267c0,0-2.631,4.434-7.27,4.193"/>
<path fill="#FCDEA9" stroke="#000000" stroke-width="0.25" stroke-miterlimit="10" d="M400.748,172.99c0,0-1.893-0.149-1.605,2.862
	c0.396,4.148,2.553,5.262,5.392,5.867"/>
<path fill="#FCDEA9" stroke="#000000" stroke-width="0.25" stroke-miterlimit="10" d="M436.232,182.701c0,0,2.982,0.997,4.523-2.166
	c1.889-3.875,1.977-4.833,1.504-5.5c-0.498-0.701-2.432-0.5-4.693,0.333"/>
<path fill="#EAFC00" stroke="#000000" stroke-width="0.1593" stroke-miterlimit="10" d="M441.566,174.367
	c-1.668,1-3.334,1.667-4.334,8.333c-2.092,5.927-3.666,8-3.666,8s-3.875,3.084-12,3.333c-8.125,0.25-14.043-3.804-14.043-3.804
	s-2.112-4.868-3.444-8.95c-1.279-3.92-2.452-6.727-2.452-6.727l-2.515-2.614c0,0-5.435-20.475,20.727-29.317
	c0,0,20.203-0.522,22.702,30.366L441.566,174.367"/>
<path fill="#1B260E" d="M378.816,236.16c0,0-0.125,1.563,1.938,2.875c0,0,0.026-3.356,0-3.529
	C380.566,234.285,378.816,236.16,378.816,236.16z"/>
<path fill="#1A1D08" d="M461.816,236.035c-0.625,1.188-0.563,1.625-1.5,2.563c0,0-0.502-1.661-0.314-2.674L461.816,236.035z"/>
<path fill="#FCDEA9" stroke="#000000" stroke-width="0.25" stroke-miterlimit="10" d="M380.753,235.505
	c0,0-1.188,7.349-1.938,13.939s-1,8.59-1.75,11.34s-1.19,5.363-0.804,11.356c0.963,14.904,0.595,11.394,1.449,17.894
	s1.944,8.351,2.078,11.75c0.121,3.083,0.175,13.25,0.976,14.5c0,0,1.884,1.867,3.968,1c0,0,1.834,1.25,3.667,0.75
	c0,0,3.166,0.563,3.579-1.834c0,0,0.337-1.291-1.246-1.333c-1.054-0.028-1.667-0.334-2-1.167s-1-3-0.333-3.333s1-0.667,1.5-0.667
	s1.126,3.115,2.079,3.5s2.003,1,2.462,0.667s-0.793-5.129-0.793-5.129s-5.063-8.97-5.415-10.955
	c-0.667-3.753,0.04-11.264,0.334-13.249c0.415-2.806,1.289-4.31,1.333-7.729c0.044-3.444-0.166-4.937-0.333-5.771s0.167-5,0.5-7.333
	s3.785-12.333,4.476-15.833S393.774,229.14,380.753,235.505z"/>
<path fill="none" stroke="#000000" stroke-width="0.25" stroke-miterlimit="10" d="M378.816,263.87c0,0-1,2.833-0.75,4.75"/>
<path fill="none" stroke="#000000" stroke-width="0.25" stroke-miterlimit="10" d="M382.649,263.87c0,0,0.666,2.583,0,5.333"/>
<path fill="none" stroke="#000000" stroke-width="0.25" stroke-miterlimit="10" d="M382.983,314.201c0,0,0.582,0.832,1.666,0.666
	s2.167-1.416,3.167-1.25s1.75,2.584-3.083,3.668"/>
<path fill="none" stroke="#000000" stroke-width="0.25" stroke-miterlimit="10" d="M388.501,315.318c0,0,1.563-0.369,1.647,0.715
	s-1.749,2.002-1.749,2.002"/>
<path fill="none" stroke="#000000" stroke-width="0.25" stroke-miterlimit="10" d="M386.233,304.283c0,0-0.5,4.25-2.417,5.917"/>
<path fill="none" stroke="#000000" stroke-width="0.25" stroke-miterlimit="10" d="M389.9,309.701c0,0-3-0.252-3.667-3.168"/>
<path fill="#FCDEA9" stroke="#000000" stroke-width="0.25" stroke-miterlimit="10" d="M459.994,235.61c0,0,1.188,7.349,1.938,13.939
	s1,8.59,1.75,11.34s1.191,5.363,0.805,11.356c-0.963,14.904-0.596,11.394-1.449,17.894c-0.855,6.5-1.945,8.351-2.078,11.75
	c-0.121,3.083-0.176,13.25-0.977,14.5c0,0-1.883,1.868-3.967,1c0,0-1.834,1.25-3.668,0.75c0,0-3.166,0.563-3.578-1.833
	c0,0-0.338-1.292,1.246-1.334c1.053-0.027,1.666-0.334,2-1.166c0.332-0.834,1-3,0.332-3.334c-0.666-0.333-1-0.666-1.5-0.666
	s-1.125,3.114-2.078,3.5c-0.953,0.385-2.004,1-2.463,0.666c-0.459-0.333,0.793-5.129,0.793-5.129s5.063-8.97,5.416-10.954
	c0.666-3.753-0.041-11.264-0.334-13.249c-0.416-2.806-1.289-4.31-1.334-7.729c-0.043-3.444,0.166-4.937,0.334-5.771
	c0.166-0.833-0.168-5-0.5-7.333c-0.334-2.333-3.785-12.333-4.477-15.833C445.516,244.474,446.975,229.245,459.994,235.61z"/>
<path fill="none" stroke="#000000" stroke-width="0.25" stroke-miterlimit="10" d="M461.932,263.975c0,0,1,2.833,0.75,4.75"/>
<path fill="none" stroke="#000000" stroke-width="0.25" stroke-miterlimit="10" d="M458.1,263.975c0,0-0.666,2.583,0,5.333"/>
<path fill="none" stroke="#000000" stroke-width="0.25" stroke-miterlimit="10" d="M457.766,314.306c0,0-0.582,0.833-1.666,0.667
	c-1.084-0.167-2.168-1.417-3.168-1.25c-1,0.166-1.75,2.584,3.084,3.667"/>
<path fill="none" stroke="#000000" stroke-width="0.25" stroke-miterlimit="10" d="M452.246,315.423c0,0-1.563-0.368-1.646,0.716
	c-0.084,1.083,1.748,2.001,1.748,2.001"/>
<path fill="none" stroke="#000000" stroke-width="0.25" stroke-miterlimit="10" d="M454.516,304.389c0,0,0.5,4.25,2.416,5.916"/>
<path fill="none" stroke="#000000" stroke-width="0.25" stroke-miterlimit="10" d="M450.848,309.807c0,0,3-0.252,3.668-3.168"/>
<path fill="#050703" stroke="#000000" stroke-width="0.25" stroke-miterlimit="10" d="M397.191,435.784
	c0.75-1.75-2.625,13.125,0.75,14.875s12.625,1,14.5,0.75s3.236-12.221,2-15C411.233,429.202,397.191,435.784,397.191,435.784z"/>
<rect x="403.816" y="434.233" fill="#F9FAE2" stroke="#000000" stroke-width="0.25" stroke-miterlimit="10" width="2.625" height="14.551"/>
<path fill="#1F200B" stroke="#000000" stroke-width="0.25" stroke-miterlimit="10" d="M406.049,451.784c8.221,0,6.803,0,7.71-3
	H396.76C396.76,448.784,396.628,451.784,406.049,451.784z"/>
<path fill="#050703" stroke="#000000" stroke-width="0.25" stroke-miterlimit="10" d="M443.328,436.114
	c0.43,4.379,2.625,13.125-0.75,14.875s-12.625,1-14.5,0.75s-3.053-12.146-2-15C428.732,429.536,443.328,436.114,443.328,436.114z"/>
<rect x="434.078" y="434.563" fill="#F9FAE2" stroke="#000000" stroke-width="0.25" stroke-miterlimit="10" width="2.625" height="14.551"/>
<path fill="#1F200B" stroke="#000000" stroke-width="0.25" stroke-miterlimit="10" d="M434.469,452.114c-8.221,0-6.803,0-7.709-3
	h16.998C443.758,449.114,443.891,452.114,434.469,452.114z"/>
<path fill="#81271F" stroke="#000000" stroke-width="0.25" stroke-miterlimit="10" d="M395.566,296.785c0,0-3.75,22.25-3.5,25
	s-0.273,17.25-0.012,22.5s4.639,32.374,4.512,37.249c0,0-1,3.5-1.25,7.5c0,0,0.131,22.25,1.253,27.125s2.497,11,2.622,12
	s-3.213,4.5-3.606,6s0.002,3.625,0.002,3.625s10.729-6.375,18.854-1.375c0,0,2.625-2.125,2.75-2.875s1.125-11.5,0.75-14.625
	s-0.75-4-0.75-4.5s0.25-20.375,0-22.875s-1.125-7.75-1.125-8.375s1.875-5,2.625-16.249c0.75-11.25,1.875-33.75,1.875-33.75
	s-0.25,23.5,1.25,35.75c1.5,12.249,2.375,13.124,2.75,14.499s-1,4.5-1.25,7.25s0.125,19.25,0.25,23.375s-0.875,1.125-1.125,4.125
	s0.125,14.375,0.875,15.625s2.375,2.625,2.375,2.625s12-4.625,18.875,1.375c0,0,0.125-2-0.625-4s-2.875-5.25-2.875-5.25
	s2-7.375,3-11.875s0.508-30.875,0.508-30.875s0.117,0.125-1.008-2.125c0,0,5.125-38.874,5.25-42.999s-0.125-13.75-0.625-20.5
	s-3-23.375-3-23.375H395.566z"/>
<path fill="#172143" stroke="#000000" stroke-width="0.1161" stroke-miterlimit="10" d="M408.691,204.535c0,0-6.625,3.125-9.25,3.75
	s-9.75,4.75-12.375,8s-8.25,17.313-8.25,19.875c0,0,1.625-2.75,13.25,3c0,0-0.587,10.689-0.087,17.689s0.25,47.165,0,47.54
	l56.869-0.105c0,0-2.781-48.085-2.656-51.999c0,0,0.5-10.25,2.25-12.875c0,0,8.25-4.25,13.375-3.375c0,0-3.25-11.25-9.125-20.375
	c0,0-2.875-4-10.75-7.25s-3.25-1.5-8.375-3.875S408.691,204.535,408.691,204.535z"/>
<g>
	<g id="XMLID_1_">
		<g>
			<path fill="#1A2811" d="M442.54,169.14c0,0-0.66,0.99-2.22,2.2c-0.32-2.21-0.7-4.28-0.7-4.28c-1.08,0.82-2.23,1.5-3.44,2.08
				l-0.08,0.03l-2.229,0.93c-0.71,0.26-1.44,0.48-2.17,0.66c-1.771-2.9-5.24-6.37-11.76-6.41c0,0-7.59-1.22-11.58,5.67
				c0,0,0,0.01-0.01,0.01c-1.09,1.57-1.56,3.77-1.62,4.07c-0.01,0.03-0.01,0.04-0.01,0.04s-5.91-1.82-8.08-4.53
				c0,0-1.73-25.31,20.35-26.45c-0.2,0.2-0.31,0.44-0.31,0.68c0,0.87,1.38,1.57,3.07,1.57c1.69,0,3.07-0.7,3.07-1.57
				c0-0.14-0.04-0.28-0.11-0.4C442.1,146.24,441.96,166.72,442.54,169.14z"/>
			<path fill="#1A2811" d="M440.32,171.34c0.01,0.08,0.02,0.15,0.029,0.23c0,0-0.699,0.5-2.14,1.17
				C439.04,172.27,439.74,171.79,440.32,171.34z"/>
			<path fill="#1A2811" d="M439.62,167.06c0,0,0.38,2.07,0.7,4.28c-0.58,0.45-1.28,0.93-2.11,1.4c-0.02,0-0.03,0.01-0.04,0.02
				c-0.56,0.25-1.22,0.52-1.99,0.8v-4.42C437.39,168.56,438.54,167.88,439.62,167.06z"/>
			<path fill="#1A2811" d="M436.18,173.56c0.771-0.28,1.431-0.55,1.99-0.8c-1.27,0.71-2.86,1.39-4.8,1.9c0,0-0.01-0.06-0.04-0.16
				l2.85-0.88V173.56z"/>
			<path fill="#1A2811" d="M436.18,173.56v0.06l-2.85,0.88c0-0.01-0.01-0.03-0.01-0.05C434.4,174.17,435.35,173.86,436.18,173.56z"
				/>
			<path fill="#FFFFFF" d="M436.18,169.14v4.42c-0.83,0.3-1.779,0.61-2.859,0.89c-0.03-0.12-0.08-0.3-0.16-0.52v-3.54l0.71-0.29
				c0.76-0.27,1.51-0.57,2.229-0.93L436.18,169.14z"/>
			<path fill="#1A2811" d="M433.87,170.1l2.229-0.93C435.38,169.53,434.63,169.83,433.87,170.1z"/>
			<path fill="#1A2811" d="M433.87,170.1l-0.71,0.29v3.54c-0.22-0.71-0.67-1.89-1.46-3.17C432.43,170.58,433.16,170.36,433.87,170.1
				z"/>
			<path fill="#1A2811" d="M433.32,174.45c0,0.02,0.01,0.04,0.01,0.05l-0.17,0.05v-0.06C433.22,174.48,433.27,174.46,433.32,174.45z
				"/>
			<path fill="#1A2811" d="M433.32,174.45c-0.051,0.01-0.101,0.03-0.16,0.04v-0.56C433.24,174.15,433.29,174.33,433.32,174.45z"/>
			<path fill="#1A2811" d="M433.16,173.93v0.56c-5.48,1.41-14.19,2.3-26.44-0.35c0,0,0-0.01,0.01-0.04c0.41-1.6,0.97-2.94,1.62-4.07
				c0.01,0,0.01-0.01,0.01-0.01s12.45,3.61,23.34,0.74C432.49,172.04,432.94,173.22,433.16,173.93z"/>
			<path fill="#1A2811" d="M424.71,143.44c0.07,0.12,0.11,0.26,0.11,0.4c0,0.87-1.38,1.57-3.07,1.57c-1.69,0-3.07-0.7-3.07-1.57
				c0-0.24,0.11-0.48,0.31-0.68c0.51-0.03,1.04-0.04,1.58-0.04C422.05,143.12,423.43,143.23,424.71,143.44z"/>
			<path fill="#1A2811" d="M421.75,142.28c1.42,0,2.61,0.49,2.96,1.16c-1.28-0.21-2.66-0.32-4.14-0.32c-0.54,0-1.07,0.01-1.58,0.04
				C419.49,142.64,420.54,142.28,421.75,142.28z"/>
			<path fill="#1A2811" d="M406.73,174.1c0.06-0.3,0.53-2.5,1.62-4.07C407.7,171.16,407.14,172.5,406.73,174.1z"/>
		</g>
		<g>
			<path fill="none" stroke="#000000" stroke-width="0.5" stroke-linecap="round" stroke-linejoin="round" d="M438.17,172.76
				c-1.27,0.71-2.86,1.39-4.8,1.9c0,0-0.01-0.06-0.04-0.16"/>
			<path fill="none" stroke="#000000" stroke-width="0.5" stroke-linecap="round" stroke-linejoin="round" d="M424.71,143.44
				c17.39,2.8,17.25,23.28,17.83,25.7c0,0-0.66,0.99-2.22,2.2"/>
			<path fill="none" stroke="#000000" stroke-width="0.5" stroke-linecap="round" stroke-linejoin="round" d="M406.72,174.14
				c0,0-5.91-1.82-8.08-4.53c0,0-1.73-25.31,20.35-26.45"/>
			<path fill="none" stroke="#000000" stroke-width="0.5" stroke-linecap="round" stroke-linejoin="round" d="M431.7,170.76
				c-1.771-2.9-5.24-6.37-11.76-6.41c0,0-7.59-1.22-11.58,5.67"/>
			<path fill="none" stroke="#000000" stroke-width="0.5" stroke-linecap="round" stroke-linejoin="round" d="M433.16,174.49
				c-5.48,1.41-14.19,2.3-26.44-0.35c0,0,0-0.01,0.01-0.04c0.06-0.3,0.53-2.5,1.62-4.07c0.01,0,0.01-0.01,0.01-0.01
				s12.45,3.61,23.34,0.74c0.729-0.18,1.46-0.4,2.17-0.66"/>
			<path fill="none" stroke="#000000" stroke-width="0.5" stroke-linecap="round" stroke-linejoin="round" d="M436.18,169.14
				c1.21-0.58,2.36-1.26,3.44-2.08c0,0,0.38,2.07,0.7,4.28c0.01,0.08,0.02,0.15,0.029,0.23c0,0-0.699,0.5-2.14,1.17
				c-0.02,0-0.03,0.01-0.04,0.02c-0.56,0.25-1.22,0.52-1.99,0.8"/>
			<polygon fill="none" stroke="#000000" stroke-width="0.5" stroke-linecap="round" stroke-linejoin="round" points="
				433.16,173.93 433.16,170.39 433.87,170.1 436.1,169.17 436.18,169.14 436.18,173.56 436.18,173.62 433.33,174.5 433.16,174.55 
				433.16,174.49 			"/>
			<path fill="none" stroke="#000000" stroke-width="0.5" stroke-linecap="round" stroke-linejoin="round" d="M424.71,143.44
				c0.07,0.12,0.11,0.26,0.11,0.4c0,0.87-1.38,1.57-3.07,1.57c-1.69,0-3.07-0.7-3.07-1.57c0-0.24,0.11-0.48,0.31-0.68
				c0.5-0.52,1.55-0.88,2.76-0.88C423.17,142.28,424.36,142.77,424.71,143.44z"/>
		</g>
	</g>
</g>
</svg>
